<?xml version="1.0" encoding="UTF-8"?>
<svg width="141px" height="26px" viewBox="0 0 141 26" version="1.1" xmlns="http://www.w3.org/2000/svg" xmlns:xlink="http://www.w3.org/1999/xlink">
    <!-- Generator: Sketch 52.5 (67469) - http://www.bohemiancoding.com/sketch -->
    <title>New_Bloomberg_Logo</title>
    <desc>Created with Sketch.</desc>
    <g id="MAIN_16.10" stroke="none" stroke-width="1" fill="none" fill-rule="evenodd" opacity="0.4">
        <g id="Group-2" transform="translate(-262.000000, -7.000000)" fill="#3F3F3F" fill-rule="nonzero">
            <g id="New_Bloomberg_Logo" transform="translate(262.135922, 6.796117)">
                <path d="M0,0.218083562 L10.3044483,0.218083562 C12.2672003,0.218083562 13.7392644,0.708771575 14.8296822,1.52658493 C16.0291418,2.50796096 16.6833925,3.92550411 16.6833925,5.6701726 C16.6833925,7.68744554 15.8655791,8.94142602 14.2299524,9.70471849 L14.2299524,9.81376027 C16.410788,10.5225318 17.6647685,12.4852839 17.6647685,14.8296822 C17.6647685,17.0650387 16.7924342,18.8097072 15.3748911,19.900125 C14.1754315,20.7724592 12.6488466,21.1541055 10.5770527,21.1541055 L0,21.1541055 L0,0.218083562 Z M9.26855137,8.39621712 C10.3589692,8.39621712 11.1767825,7.79648732 11.1767825,6.54250685 C11.1767825,5.34304726 10.3589692,4.74331746 9.21403047,4.74331746 L5.6701726,4.74331746 L5.6701726,8.34169623 L9.26855137,8.34169623 L9.26855137,8.39621712 Z M9.75923938,16.5198298 C11.0132199,16.5198298 11.940075,15.7565373 11.940075,14.3935151 C11.940075,12.921451 10.958699,12.2672003 9.75923938,12.2672003 L5.72469349,12.2672003 L5.72469349,16.5743507 L9.75923938,16.5743507 L9.75923938,16.5198298 Z" id="Shape"></path>
                <polygon id="Shape" points="18.5916236 0.218083562 23.9891918 0.218083562 23.9891918 21.2086264 18.5916236 21.2086264"></polygon>
                <path d="M25.0796096,13.7392644 C25.0796096,8.99594691 28.1327794,5.83373527 32.8760969,5.83373527 C37.6194144,5.83373527 40.6180633,9.0504678 40.6180633,13.7392644 C40.6180633,18.4825818 37.6194144,21.6447935 32.8760969,21.6447935 C28.1327794,21.6447935 25.0796096,18.4825818 25.0796096,13.7392644 Z M35.2204952,13.7392644 C35.2204952,11.1222616 34.4026818,9.48663493 32.7670551,9.48663493 C31.1314284,9.48663493 30.3681359,11.1222616 30.3681359,13.7392644 C30.3681359,16.3562671 31.1314284,18.0464147 32.7670551,18.0464147 C34.4026818,17.9918938 35.2204952,16.3562671 35.2204952,13.7392644 Z" id="Shape"></path>
                <path d="M41.2177931,13.7392644 C41.2177931,8.99594691 44.270963,5.83373527 49.0142805,5.83373527 C53.7575979,5.83373527 56.701726,8.99594691 56.701726,13.7392644 C56.701726,18.4825818 53.703077,21.6447935 48.9597596,21.6447935 C44.270963,21.6447935 41.2177931,18.4825818 41.2177931,13.7392644 Z M51.3586787,13.7392644 C51.3586787,11.1222616 50.5408654,9.48663493 48.9052387,9.48663493 C47.269612,9.48663493 46.5063195,11.1222616 46.5063195,13.7392644 C46.5063195,16.3562671 47.269612,18.0464147 48.9052387,18.0464147 C50.5408654,17.9918938 51.3586787,16.3562671 51.3586787,13.7392644 Z" id="Shape"></path>
                <path d="M57.7921438,6.2153815 L62.8080657,6.2153815 L62.8080657,8.45073801 L62.9171075,8.45073801 C63.8984835,6.70606952 65.2615058,5.77921438 67.4423414,5.77921438 C69.3505726,5.77921438 70.7681157,6.70606952 71.4768873,8.34169623 L71.5859291,8.34169623 C72.7853887,6.37894417 74.3664945,5.77921438 76.2202048,5.77921438 C79.7095417,5.77921438 81.1816058,8.34169623 81.1816058,11.7765123 L81.1816058,21.1541055 L75.9476003,21.1541055 L75.9476003,12.7033675 C75.9476003,11.1767825 75.4569123,10.1954065 74.1484109,10.1954065 C72.8399096,10.1954065 72.1856589,11.3948661 72.1856589,13.0304928 L72.1856589,21.1541055 L66.9516534,21.1541055 L66.9516534,12.7033675 C66.9516534,11.1767825 66.4609654,10.1954065 65.152464,10.1954065 C63.8439626,10.1954065 63.189712,11.3948661 63.189712,13.0304928 L63.189712,21.1541055 L57.7921438,21.1541055 C57.7921438,21.1541055 57.7921438,6.2153815 57.7921438,6.2153815 Z" id="Shape"></path>
                <path d="M87.7786335,19.1913534 L87.7241126,19.1913534 L87.7241126,21.1541055 L82.7081907,21.1541055 L82.7081907,0.218083562 L87.9421962,0.218083562 L87.9421962,7.74196643 L88.051238,7.74196643 C89.032614,6.43346507 90.3956363,5.72469349 92.3038674,5.72469349 C96.0658089,5.72469349 98.2466445,9.10498869 98.2466445,13.6302226 C98.2466445,18.7006654 95.9022462,21.6447935 91.9767421,21.6447935 C90.3411154,21.6447935 88.6509678,20.881501 87.7786335,19.1913534 Z M92.8490763,13.5757017 C92.8490763,11.1767825 91.9767421,9.59567671 90.3956363,9.59567671 C88.7600095,9.59567671 87.7786335,11.1767825 87.7786335,13.5757017 C87.7786335,15.9746209 88.8145304,17.5557267 90.3956363,17.5557267 C91.9767421,17.5557267 92.8490763,16.0291418 92.8490763,13.5757017 Z" id="Shape"></path>
                <path d="M98.8463743,13.6847435 C98.8463743,8.99594691 101.954065,5.77921438 106.424778,5.77921438 C108.660135,5.77921438 110.350282,6.48798596 111.658784,7.74196643 C113.403452,9.43211404 114.166744,12.0491168 114.112224,15.1022866 L104.08038,15.1022866 C104.298463,16.9559969 105.170798,17.9373729 106.751903,17.9373729 C107.678759,17.9373729 108.496572,17.5012058 108.823697,16.5198298 L113.89414,16.5198298 C113.021806,19.9546459 110.350282,21.6447935 106.588341,21.6447935 C101.954065,21.5902726 98.8463743,18.4280609 98.8463743,13.6847435 Z M104.08038,12.1036377 L108.878218,12.1036377 C108.769176,10.3044483 107.7878,9.37759315 106.53382,9.37759315 C105.061756,9.32307226 104.243942,10.3589692 104.08038,12.1036377 Z" id="Shape"></path>
                <path d="M120.055001,8.77786335 L120.164042,8.77786335 C121.25446,6.70606952 122.672003,5.88825616 124.471193,5.88825616 C124.90736,5.88825616 125.179964,5.94277705 125.343527,6.05181883 L125.343527,10.6315736 L125.234485,10.6315736 C122.126794,10.0863647 120.327605,11.5584288 120.327605,14.938724 L120.327605,21.2086264 L115.039079,21.2086264 L115.039079,6.2153815 L120.055001,6.2153815 L120.055001,8.77786335 Z" id="Shape"></path>
                <path d="M125.888736,21.2086264 L130.959179,21.2086264 C131.177262,21.862877 131.831513,22.4626068 133.085493,22.4626068 C134.775641,22.4626068 135.375371,21.4267099 135.375371,19.8456041 L135.375371,18.7551863 L135.266329,18.7551863 C134.448516,19.7365623 133.303577,20.4453339 131.66795,20.4453339 C128.451218,20.4453339 125.616131,18.0464147 125.616131,13.3576181 C125.616131,9.0504678 127.906009,5.72469349 131.395346,5.72469349 C133.412619,5.72469349 134.612078,6.54250685 135.429892,7.79648732 L135.538933,7.79648732 L135.538933,6.16086061 L140.554855,6.16086061 L140.554855,19.1368325 C140.554855,21.5357517 139.737042,23.389462 138.483062,24.4798798 C137.17456,25.6248185 135.32085,26.1155065 133.194535,26.1155065 C129.159989,26.1700274 126.379424,24.5344007 125.888736,21.2086264 Z M135.593454,13.1395346 C135.593454,11.2858243 134.72112,9.75923938 133.194535,9.75923938 C131.722471,9.75923938 130.795616,11.0677407 130.795616,13.1395346 C130.795616,15.1568075 131.722471,16.5743507 133.194535,16.5743507 C134.666599,16.5743507 135.593454,15.1022866 135.593454,13.1395346 Z" id="Shape"></path>
            </g>
        </g>
    </g>
</svg>