<?xml version="1.0" encoding="UTF-8"?>
<svg width="98px" height="32px" viewBox="0 0 98 32" version="1.1" xmlns="http://www.w3.org/2000/svg" xmlns:xlink="http://www.w3.org/1999/xlink">
    <!-- Generator: Sketch 52.5 (67469) - http://www.bohemiancoding.com/sketch -->
    <title>Group 18</title>
    <desc>Created with Sketch.</desc>
    <defs>
        <polygon id="path-1" points="0 30.6002218 96.9628725 30.6002218 96.9628725 -2.84217094e-14 0 -2.84217094e-14"></polygon>
    </defs>
    <g id="MAIN_16.10" stroke="none" stroke-width="1" fill="none" fill-rule="evenodd" opacity="0.4">
        <g id="Group-2" transform="translate(-650.000000, -4.000000)">
            <g id="Group-18" transform="translate(650.485437, 4.854369)">
                <path d="M31.1991974,21.5687526 C31.1991974,23.5229632 32.4102347,24.373319 34.0041377,24.9550955 L35.732642,25.5736381 C36.8012264,25.9809315 37.4106709,26.3452273 37.4106709,27.2732281 C37.4106709,28.3388212 36.4538804,28.8211424 35.091292,28.8211424 C33.6928101,28.8211424 32.3869287,28.3180079 31.3000237,27.4468387 L31.3000237,29.5595797 C32.1359223,30.1396114 33.4947717,30.5991251 35.091292,30.5991251 C37.5225893,30.5991251 39.3752259,29.4029189 39.3752259,27.2365866 C39.3752259,25.5154355 38.51814,24.4679138 36.6519187,23.793412 L34.7255007,23.0979723 C33.7306978,22.7475105 33.1651233,22.3995414 33.1651233,21.5272505 C33.1651233,20.5631068 34.0654561,20.1004773 35.2702618,20.1004773 C36.6699902,20.1004773 37.7587647,20.6213094 38.7536922,21.3779428 L38.7536922,19.3049591 C37.7965278,18.6886598 36.5716565,18.3413139 35.2276381,18.3413139 C33.0338871,18.3413139 31.1991974,19.477822 31.1991974,21.5687526" id="Fill-1" fill="#3F3F3F"></path>
                <mask id="mask-2" fill="white">
                    <use xlink:href="#path-1"></use>
                </mask>
                <g id="Clip-4"></g>
                <polygon id="Fill-3" fill="#3F3F3F" mask="url(#mask-2)" points="44.6275409 30.4176377 46.6551591 30.4176377 46.6551591 18.5436893 44.6275409 18.5436893"></polygon>
                <polygon id="Fill-5" fill="#3F3F3F" mask="url(#mask-2)" points="8.08043671 30.4172639 10.1104229 30.4172639 10.1104229 18.5435647 8.08043671 18.5435647"></polygon>
                <path d="M52.5836584,18.5435398 L52.5836584,30.4172389 L57.1634657,30.4172389 C60.688772,30.4172389 62.9680197,28.0957414 62.9680197,24.4773359 C62.9680197,20.8636664 60.688772,18.5435398 57.1634657,18.5435398 L52.5836584,18.5435398 Z M54.6077869,20.3221456 L57.0875656,20.3221456 C59.5953862,20.3221456 60.936538,21.923028 60.936538,24.4773359 C60.936538,27.0135723 59.5953862,28.6206862 57.0875656,28.6206862 L54.6077869,28.6206862 L54.6077869,20.3221456 Z" id="Fill-6" fill="#3F3F3F" mask="url(#mask-2)"></path>
                <polygon id="Fill-7" fill="#3F3F3F" mask="url(#mask-2)" points="67.2524895 18.5434151 67.2524895 30.4171143 74.495532 30.4171143 74.495532 28.6205616 69.2367362 28.6205616 69.2367362 24.9372235 73.9533881 24.9372235 73.9533881 23.1789324 69.2367362 23.1789324 69.2367362 20.3217718 74.495532 20.3217718 74.495532 18.5434151"></polygon>
                <path d="M80.5536598,18.5435398 L80.5536598,30.4169897 L82.5742986,30.4169897 L82.5742986,25.5996361 L84.0127871,25.5996361 L88.172838,30.4169897 L90.471902,30.4169897 L86.1750065,25.5248576 C88.0641599,25.2325984 88.9501602,24.0908558 88.9501602,22.1031195 C88.9501602,19.7783815 87.3535152,18.5435398 84.8839563,18.5435398 L80.5536598,18.5435398 Z M82.5742986,20.2853796 L84.8453207,20.2853796 C86.1899622,20.2853796 86.9480913,21.0018819 86.9480913,22.1031195 C86.9480913,23.2036093 86.1899622,23.9204856 84.8453207,23.9204856 L82.5742986,23.9204856 L82.5742986,20.2853796 Z" id="Fill-8" fill="#3F3F3F" mask="url(#mask-2)"></path>
                <path d="M27.4218129,3.28990366 C27.4218129,5.27489811 28.63796,6.13921258 30.2465695,6.72896544 L31.9921483,7.35747847 C33.0709523,7.77025562 33.678652,8.14352481 33.678652,9.0864813 C33.678652,10.167778 32.7181226,10.6586986 31.3446914,10.6586986 C29.9325,10.6586986 28.6182684,10.1479617 27.5205205,9.2638309 L27.5205205,11.4053616 C28.3633984,11.9951145 29.7364557,12.4667173 31.3446914,12.4667173 C33.7970512,12.4667173 35.6601568,11.2484515 35.6601568,9.04772113 C35.6601568,7.29865274 34.7972133,6.23792016 32.9140422,5.54983362 L30.9724192,4.84230467 C29.9718833,4.48872715 29.4029438,4.13490036 29.4029438,3.2507696 C29.4029438,2.26793125 30.3053953,1.7968269 31.5216671,1.7968269 C32.9338584,1.7968269 34.0318556,2.32663235 35.0322669,3.09323629 L35.0322669,0.990839638 C34.0713636,0.361952715 32.8355248,0.00800129616 31.4821591,0.00800129616 C29.265476,0.00800129616 27.4218129,1.16744145 27.4218129,3.28990366" id="Fill-9" fill="#3F3F3F" mask="url(#mask-2)"></path>
                <path d="M88.7247654,3.28186498 C88.7247654,5.26623628 89.9410372,6.1311739 91.5491481,6.72105139 L93.2949761,7.34956442 C94.3735309,7.76184304 94.9816045,8.13586001 94.9816045,9.07869188 C94.9816045,10.1593654 94.0207012,10.6506599 92.6477685,10.6506599 C91.2355771,10.6506599 89.9213455,10.139923 88.8227252,9.25554295 L88.8227252,11.3973229 C89.6664756,11.9868265 91.0386605,12.4588033 92.6477685,12.4588033 C95.0993806,12.4588033 96.9629847,11.2400389 96.9629847,9.03943318 C96.9629847,7.29061406 96.0995426,6.22913369 94.2166208,5.54154567 L92.2749978,4.83439062 C91.2744619,4.4804392 90.7058963,4.12686167 90.7058963,3.24248165 C90.7058963,2.2600172 91.6084724,1.78841432 92.8236225,1.78841432 C94.2365617,1.78841432 95.3349328,2.31884293 96.3352194,3.08532223 L96.3352194,0.982925583 C95.3740668,0.353664768 94.1384773,8.72415469e-05 92.7851116,8.72415469e-05 C90.5684285,8.72415469e-05 88.7247654,1.1595274 88.7247654,3.28186498" id="Fill-10" fill="#3F3F3F" mask="url(#mask-2)"></path>
                <path d="M76.4050625,3.28186498 C76.4050625,5.26623628 77.6212097,6.1311739 79.2296945,6.72105139 L80.9753979,7.34956442 C82.0540773,7.76184304 82.6621509,8.13586001 82.6621509,9.07869188 C82.6621509,10.1593654 81.7004998,10.6506599 80.3283149,10.6506599 C78.9158742,10.6506599 77.6018919,10.139923 76.5032716,9.25554295 L76.5032716,11.3973229 C77.3462742,11.9868265 78.7195807,12.4588033 80.3283149,12.4588033 C82.779927,12.4588033 84.6434064,11.2400389 84.6434064,9.03943318 C84.6434064,7.29061406 83.7797151,6.22913369 81.8971671,5.54154567 L79.9551703,4.83439062 C78.9551329,4.4804392 78.3868166,4.12686167 78.3868166,3.24248165 C78.3868166,2.2600172 79.2886449,1.78841432 80.5041689,1.78841432 C81.9171081,1.78841432 83.0153545,2.31884293 84.0157658,3.08532223 L84.0157658,0.982925583 C83.0546132,0.353664768 81.8187744,8.72415469e-05 80.4660319,8.72415469e-05 C78.2490995,8.72415469e-05 76.4050625,1.1595274 76.4050625,3.28186498" id="Fill-11" fill="#3F3F3F" mask="url(#mask-2)"></path>
                <polygon id="Fill-12" fill="#3F3F3F" mask="url(#mask-2)" points="64.4588781 0.204805763 64.4588781 12.2700624 71.7538916 12.2700624 71.7538916 10.4448446 66.4575819 10.4448446 66.4575819 6.70168376 71.2077595 6.70168376 71.2077595 4.91510151 66.4575819 4.91510151 66.4575819 2.01182746 71.7538916 2.01182746 71.7538916 0.204805763"></polygon>
                <path d="M0,0.204805763 L0,12.2704363 L4.60959408,12.2704363 C7.12015654,12.2704363 8.68925807,11.0713636 8.68925807,8.81205678 C8.68925807,7.53459127 7.8658225,6.41440981 6.72781884,6.04114062 C7.61057866,5.7264479 8.29692037,4.78299288 8.29692037,3.4862096 C8.29692037,1.32498723 6.72781884,0.204805763 4.21688249,0.204805763 L0,0.204805763 Z M1.9811309,1.9739397 L4.19744008,1.9739397 C5.5903137,1.9739397 6.33585503,2.46473572 6.33585503,3.60423495 C6.33585503,4.74398345 5.5903137,5.27491058 4.19744008,5.27491058 L1.9811309,5.27491058 L1.9811309,1.9739397 Z M1.9811309,6.96440545 L4.57008612,6.96440545 C5.94351733,6.96440545 6.68843551,7.63292496 6.68843551,8.73304087 C6.68843551,9.813839 5.94351733,10.501427 4.57008612,10.501427 L1.9811309,10.501427 L1.9811309,6.96440545 Z" id="Fill-13" fill="#3F3F3F" mask="url(#mask-2)"></path>
                <polygon id="Fill-14" fill="#3F3F3F" mask="url(#mask-2)" points="40.9094308 12.2700251 42.9491382 12.2700251 42.9491382 0.204269851 40.9094308 0.204269851"></polygon>
                <path d="M20.6766579,0.204431871 L20.6766579,7.23934095 C20.6766579,9.55822127 19.6959383,10.6390194 17.8914092,10.6390194 C16.0868801,10.6390194 15.1061605,9.55822127 15.1061605,7.23934095 L15.1061605,0.204431871 L13.0660792,0.204431871 L13.0660792,7.45619851 C13.0660792,10.7764872 15.0275185,12.4667298 17.8914092,12.4667298 C20.7746177,12.4667298 22.7167392,10.7764872 22.7167392,7.47514239 L22.7167392,0.204431871 L20.6766579,0.204431871 Z" id="Fill-15" fill="#3F3F3F" mask="url(#mask-2)"></path>
                <polygon id="Fill-16" fill="#3F3F3F" mask="url(#mask-2)" points="57.047609 0.204431871 57.047609 7.91870334 48.7690093 0.0166132831 48.7690093 12.2701871 50.7343121 12.2701871 50.7343121 4.42193751 59.0073034 12.4580057 59.0073034 0.204431871"></polygon>
                <polygon id="Fill-17" fill="#3F3F3F" mask="url(#mask-2)" points="15.9235266 30.4163291 17.8742475 30.4163291 17.8742475 22.6934581 26.0865436 30.6002842 26.0865436 18.5427546 24.1408079 18.5427546 24.1408079 26.1337662 15.9235266 18.3592981"></polygon>
            </g>
        </g>
    </g>
</svg>