<?xml version="1.0" encoding="UTF-8"?>
<svg width="24px" height="24px" viewBox="0 0 24 24" version="1.1" xmlns="http://www.w3.org/2000/svg" xmlns:xlink="http://www.w3.org/1999/xlink">
    <!-- Generator: Sketch 52.6 (67491) - http://www.bohemiancoding.com/sketch -->
    <title>organism / single-technology-kafelka/DEVOPS</title>
    <desc>Created with Sketch.</desc>
    <g id="organism-/-single-technology-kafelka/DEVOPS" stroke="none" stroke-width="1" fill="none" fill-rule="evenodd">
        <path d="M3.37141638,7.58620917 L6.11424914,9.19332082 L6.11424914,14.8060475 L3.37141638,16.413206 L3.37141638,7.58620917 Z M11.5999147,1.91924804 L11.5999147,5.20036205 L6.83227705,7.99435038 L4.06357023,6.37205121 L11.5999147,1.91924804 Z M12.2856229,6.41817627 L16.3569924,8.80421089 L12.2856229,11.1899174 L8.21425333,8.80421089 L12.2856229,6.41817627 Z M12.971331,1.91924804 L20.5078583,6.37205121 L17.7391515,7.99435038 L12.971331,5.20036205 L12.971331,1.91924804 Z M21.2000122,16.413206 L18.4571794,14.8059069 L18.4571794,9.19332082 L21.2000122,7.58620917 L21.2000122,16.413206 Z M12.971331,17.1792852 L12.971331,12.4077316 L17.085763,9.99699383 L17.085763,14.7681724 L12.971331,17.1792852 Z M12.971331,22.0799328 L12.971331,18.7990531 L17.7391515,16.0050648 L20.5078583,17.627364 L12.971331,22.0799328 Z M11.5999147,17.1792852 L7.48566552,14.7681724 L7.48566552,9.99699383 L11.5999147,12.4077316 L11.5999147,17.1792852 Z M11.5999147,22.0736984 L4.10782126,17.6013483 L6.83227705,16.0048773 L11.5999147,18.7990531 L11.5999147,22.0736984 Z M2.00036571,6.36689495 C2.00018286,6.36947308 2,6.37205121 2,6.37458246 L2,17.6247859 C2,17.627364 2.00018286,17.6299421 2.00036571,17.6324734 C2.00269712,17.87838 2.13215883,18.1118647 2.34875119,18.2371149 L11.9433173,23.9058572 C12.3025827,24.1181075 12.6322255,23.9049666 12.6275627,23.9060447 C20.8685866,19.0370847 22.223226,18.2367399 22.2278431,18.2341617 C22.2325059,18.2294273 22.5671315,18.0399114 22.5710629,17.6324734 C22.5712457,17.6299421 22.5714286,17.627364 22.5714286,17.6247859 L22.5714286,6.37458246 C22.5714286,6.37205121 22.5712457,6.36947308 22.5710629,6.36689495 C22.5689143,6.12905086 22.4464468,5.89964429 22.2378544,5.77162848 C22.2344716,5.76961286 22.2314087,5.76740973 22.2280259,5.7653941 L12.6279284,0.0935110848 C12.4217131,-0.0282234623 12.159544,-0.0340828456 11.9433173,0.0935110848 L2.34340266,5.7653941 C2.13622736,5.88755052 2.00269712,6.1182696 2.00036571,6.36689495 Z" id="Fill-1-Copy-3" fill="#000EE6"></path>
    </g>
</svg>