<?xml version="1.0" encoding="UTF-8"?>
<svg width="60px" height="60px" viewBox="0 0 60 60" version="1.1" xmlns="http://www.w3.org/2000/svg" xmlns:xlink="http://www.w3.org/1999/xlink">
    <!-- Generator: Sketch 52.6 (67491) - http://www.bohemiancoding.com/sketch -->
    <title>Group 36</title>
    <desc>Created with Sketch.</desc>
    <g id="ASSETY" stroke="none" stroke-width="1" fill="none" fill-rule="evenodd">
        <g id="Group-36">
            <polygon id="Fill-1-Copy" fill="#8C8C8C" points="0 60 60 60 60 0 0 0"></polygon>
            <path d="M40.8595221,46.5652605 C42.0644849,48.5305211 43.6287529,49.9736973 46.3979837,49.9736973 C48.7245345,49.9736973 50.2113832,48.8124069 50.2113832,47.2044665 C50.2113832,45.2789082 48.6848323,44.5980149 46.1240383,43.4784119 L44.7205643,42.874938 C40.6689514,41.1498759 37.97714,38.9880893 37.97714,34.4163772 C37.97714,30.2059553 41.1850804,27 46.1994725,27 C49.7687033,27 52.3334675,28.2406948 54.1835916,31.4942928 L49.8123757,34.3032258 C48.8515817,32.5761787 47.8113832,31.8952854 46.1994725,31.8952854 C44.5558,31.8952854 43.5116313,32.9394541 43.5116313,34.3032258 C43.5116313,35.9866005 44.5558,36.6694789 46.9637405,37.7116625 L48.3672144,38.3131514 C53.1394229,40.3578164 55.8312343,42.4441687 55.8312343,47.1330025 C55.8312343,52.1870968 51.861011,54.9563275 46.529001,54.9563275 C41.3141127,54.9563275 37.9433931,52.4729529 36.2957504,49.2153846 L40.8595221,46.5652605 Z" id="Fill-2-Copy" fill="#FFFFFF"></path>
            <polygon id="E-Copy" fill="#FFFFFF" points="17.2957504 53.6830769 17.2957504 27 32.5915008 27 32.5915008 31.8805628 22.8100729 31.8805628 22.8100729 37.6812317 32.319668 37.6812317 32.319668 42.5617945 22.8100729 42.5617945 22.8100729 48.7625095 32.5915008 48.7625095 32.5915008 53.6830769"></polygon>
        </g>
    </g>
</svg>