<?xml version="1.0" encoding="UTF-8"?>
<svg width="204px" height="60px" viewBox="0 0 204 60" version="1.1" xmlns="http://www.w3.org/2000/svg" xmlns:xlink="http://www.w3.org/1999/xlink">
    <!-- Generator: Sketch 52.6 (67491) - http://www.bohemiancoding.com/sketch -->
    <title>express_logo copy</title>
    <desc>Created with Sketch.</desc>
    <defs>
        <polygon id="path-1" points="0 0 203.076923 0 203.076923 60 0 60"></polygon>
    </defs>
    <g id="ASSETY" stroke="none" stroke-width="1" fill="none" fill-rule="evenodd">
        <g id="express_logo-copy">
            <mask id="mask-2" fill="white">
                <use xlink:href="#path-1"></use>
            </mask>
            <g id="Clip-2"></g>
            <path d="M200.824789,23.7324285 L202.145661,23.7324285 C202.145661,19.8691226 201.048102,17.057683 198.843481,15.3029569 C196.643612,13.553078 193.645518,12.675715 189.85395,12.675715 C187.744356,12.675715 185.957853,12.9471643 184.503944,13.4852157 C183.050035,14.0232671 181.8622,14.7212797 180.93569,15.5744062 C180.009179,16.4275327 179.348743,17.3727581 178.94963,18.4052351 C178.555269,19.4377121 178.355713,20.4265633 178.355713,21.3717887 C178.355713,23.2622395 178.693058,24.7649055 179.348743,25.8894813 C180.009179,27.0140572 181.049722,27.886573 182.456118,28.5167232 C183.425391,28.967523 184.527701,29.374697 185.758297,29.733398 C186.993645,30.0920989 188.428549,30.4750364 190.053507,30.8773631 C191.507416,31.236064 192.94232,31.5996122 194.353467,31.9583131 C195.764614,32.3170141 197.004714,32.801745 198.088019,33.4076587 C199.161821,34.0135725 200.04557,34.789142 200.725011,35.7343674 C201.409204,36.6747455 201.7513,37.9108095 201.7513,39.4377121 C201.7513,40.9209889 201.413955,42.1812894 200.725011,43.2137664 C200.04557,44.2462433 199.176075,45.0896752 198.121278,45.744062 C197.06173,46.3936016 195.883398,46.8637906 194.586283,47.1594765 C193.284416,47.4503151 192.015809,47.5957344 190.785213,47.5957344 C186.775084,47.5957344 183.700968,46.6844401 181.562866,44.866699 C179.429516,43.0489578 178.355713,40.1841978 178.355713,36.2724188 L177.039593,36.2724188 C177.039593,40.6301503 178.194168,43.8245274 180.508069,45.8458556 C182.821971,47.8671837 186.247685,48.8754241 190.785213,48.8754241 C192.234371,48.8754241 193.702534,48.7106156 195.1802,48.3713039 C196.653115,48.0368396 197.973986,47.4842462 199.142815,46.7232186 C200.311645,45.9573437 201.257161,44.9684925 201.984115,43.7566651 C202.71107,42.5399903 203.076923,41.0567135 203.076923,39.3068347 C203.076923,37.6442075 202.753832,36.291808 202.112402,35.2593311 C201.480474,34.2268541 200.639487,33.3737276 199.603695,32.6999515 C198.567904,32.0213282 197.403826,31.4978187 196.101959,31.1148812 C194.800093,30.7319438 193.493475,30.3635482 192.172603,30 C190.319581,29.5055744 188.699375,29.0838585 187.311985,28.7203102 C185.924594,28.3616093 184.636982,27.935046 183.449147,27.4406205 C182.304075,26.9461949 181.387067,26.2384876 180.707625,25.3174988 C180.023433,24.3965099 179.681336,23.082889 179.681336,21.3717887 C179.681336,21.0567135 179.76686,20.4992729 179.94266,19.6897722 C180.123211,18.8802714 180.536577,18.0610761 181.201764,17.2273388 C181.8622,16.3936016 182.878987,15.6519632 184.242621,15.0024237 C185.606254,14.3480368 187.478282,14.0281144 189.858702,14.0281144 C191.488411,14.0281144 192.975579,14.2074649 194.320208,14.5613185 C195.660085,14.9248667 196.819411,15.4968492 197.788684,16.2821134 C198.753206,17.0673776 199.508668,18.0707707 200.036067,19.2825982 C200.563465,20.4992729 200.82954,21.9825497 200.82954,23.7324285 L200.824789,23.7324285 Z M170.235677,23.7324285 L171.551798,23.7324285 C171.551798,19.8691226 170.449487,17.057683 168.249618,15.3029569 C166.049749,13.553078 163.051655,12.675715 159.260087,12.675715 C157.150493,12.675715 155.36399,12.9471643 153.910081,13.4852157 C152.45142,14.0232671 151.263586,14.7212797 150.341826,15.5744062 C149.415316,16.4275327 148.75488,17.3727581 148.355767,18.4052351 C147.961406,19.4377121 147.76185,20.4265633 147.76185,21.3717887 C147.76185,23.2622395 148.089692,24.7649055 148.75488,25.8894813 C149.415316,27.0140572 150.446356,27.886573 151.857503,28.5167232 C152.826776,28.967523 153.929086,29.374697 155.164434,29.733398 C156.395031,30.0920989 157.829935,30.4750364 159.459643,30.8773631 C160.913553,31.236064 162.343705,31.5996122 163.754853,31.9583131 C165.166,32.3170141 166.41085,32.801745 167.484653,33.4076587 C168.567958,34.0135725 169.446955,34.789142 170.131148,35.7343674 C170.81534,36.6747455 171.157437,37.9108095 171.157437,39.4377121 C171.157437,40.9209889 170.81534,42.1812894 170.131148,43.2137664 C169.446955,44.2462433 168.57746,45.0896752 167.522663,45.744062 C166.467866,46.3936016 165.289535,46.8637906 163.987668,47.1594765 C162.685802,47.4503151 161.421946,47.5957344 160.186598,47.5957344 C156.18122,47.5957344 153.102354,46.6844401 150.969003,44.866699 C148.830901,43.0489578 147.76185,40.1841978 147.76185,36.2724188 L146.440978,36.2724188 C146.440978,40.6301503 147.600305,43.8245274 149.909455,45.8458556 C152.223356,47.8671837 155.649071,48.8754241 160.186598,48.8754241 C161.640507,48.8754241 163.108671,48.7106156 164.581585,48.3713039 C166.059251,48.0368396 167.380123,47.4842462 168.544201,46.7232186 C169.71303,45.9573437 170.658546,44.9684925 171.390252,43.7566651 C172.112456,42.5399903 172.473557,41.0567135 172.473557,39.3068347 C172.473557,37.6442075 172.159969,36.291808 171.518538,35.2593311 C170.877108,34.2268541 170.040872,33.3737276 169.009832,32.6999515 C167.97404,32.0213282 166.805211,31.4978187 165.503345,31.1148812 C164.20623,30.7319438 162.899612,30.3635482 161.573989,30 C159.725718,29.5055744 158.105512,29.0838585 156.718121,28.7203102 C155.330731,28.3616093 154.038367,27.935046 152.850533,27.4406205 C151.70546,26.9461949 150.793203,26.2384876 150.109011,25.3174988 C149.42957,24.3965099 149.082722,23.082889 149.082722,21.3717887 C149.082722,21.0567135 149.172997,20.4992729 149.348797,19.6897722 C149.524596,18.8802714 149.942714,18.0610761 150.607901,17.2273388 C151.263586,16.3936016 152.275621,15.6519632 153.644006,15.0024237 C155.00764,14.3480368 156.884418,14.0281144 159.260087,14.0281144 C160.894547,14.0281144 162.376965,14.2074649 163.721593,14.5613185 C165.066222,14.9248667 166.220797,15.4968492 167.19007,16.2821134 C168.159343,17.0673776 168.905303,18.0707707 169.437452,19.2825982 C169.964851,20.4992729 170.230926,21.9825497 170.230926,23.7324285 L170.235677,23.7324285 Z M141.485333,29.733398 L114.393206,29.733398 C114.526243,27.3048958 114.968117,25.1236064 115.714077,23.1943771 C116.464789,21.2603005 117.443564,19.6073679 118.655155,18.2355793 C119.866747,16.8637906 121.277894,15.821619 122.883846,15.0993698 C124.494549,14.381968 126.219285,14.0232671 128.067555,14.0232671 C130.272176,14.0232671 132.215473,14.4401357 133.883193,15.2690257 C135.560415,16.102763 136.962059,17.2370334 138.083375,18.6766844 C139.204691,20.1114881 140.05518,21.7886573 140.625341,23.6984973 C141.200253,25.6083374 141.485333,27.6199709 141.485333,29.733398 Z M114.393206,31.0809501 L142.806205,31.0809501 C142.89648,28.6960737 142.663665,26.4081435 142.117261,24.2026175 C141.561354,22.0019389 140.682357,20.0484731 139.470766,18.3373728 C138.259175,16.6311197 136.695985,15.2593311 134.781196,14.2268541 C132.861655,13.1943771 130.581013,12.675715 127.939269,12.675715 C126.043486,12.675715 124.195215,13.0780417 122.384956,13.8875424 C120.579447,14.6970431 118.9925,15.8749394 117.628867,17.4260785 C116.265233,18.9772176 115.162922,20.8773631 114.326687,23.1265148 C113.490451,25.3708192 113.067582,27.935046 113.067582,30.8095007 C113.067582,33.3688803 113.357414,35.7634513 113.927574,37.9883665 C114.502486,40.2132816 115.386235,42.1473582 116.57407,43.7905962 C117.761904,45.4289869 119.291835,46.6989821 121.163862,47.5957344 C123.035889,48.4924867 125.297526,48.9238972 127.939269,48.8754241 C131.816361,48.8754241 135.075778,47.7653902 137.717522,45.540475 C140.359266,43.3155599 141.927207,40.1793505 142.411844,36.1366941 L141.090972,36.1366941 C140.51606,39.9563742 139.052648,42.8211343 136.695985,44.7309743 C134.339321,46.6408143 131.374486,47.5957344 127.806232,47.5957344 C125.38305,47.5957344 123.330472,47.1691711 121.662752,46.3160446 C119.98553,45.4629181 118.621896,44.2947164 117.567099,42.8114397 C116.507551,41.3233156 115.72358,39.5879787 115.215187,37.5860397 C114.711545,35.5841008 114.431216,33.4173534 114.393206,31.0809501 Z M99.2601951,48.1386331 L99.2601951,28.5167232 C99.2601951,26.6311197 99.52627,24.789142 100.053669,22.9907901 C100.581067,21.1924382 101.393546,19.6073679 102.500607,18.2404266 C103.598166,16.8637906 104.99506,15.7876878 106.691287,15.0024237 C108.392266,14.2171595 110.406833,13.8875424 112.73974,14.0232671 L112.73974,12.675715 C110.710919,12.6320892 108.93867,12.8550654 107.422993,13.349491 C105.897814,13.8439166 104.591196,14.5176927 103.488886,15.3708192 C102.386575,16.228793 101.507578,17.2273388 100.847142,18.3713039 C100.181955,19.515269 99.7020695,20.7416384 99.3884812,22.0455647 L99.2601951,22.0455647 L99.2601951,13.4852157 L97.9393233,13.4852157 L97.9393233,48.1386331 L99.2601951,48.1386331 Z M77.518074,47.5957344 C73.3796589,47.5957344 70.0537225,46.1463888 67.5402649,43.2476975 C65.0315586,40.3490063 63.7724541,36.1803199 63.7724541,30.7416384 C63.7724541,28.4924867 64.0860424,26.3596704 64.698965,24.3383422 C65.3118875,22.3170141 66.2098903,20.5380514 67.3739681,19.0111488 C68.5427971,17.4842462 69.9872038,16.2675715 71.7024367,15.3708192 C73.4224209,14.4740669 75.3609667,14.0232671 77.518074,14.0232671 C79.7226947,14.0232671 81.6517377,14.4740669 83.3052033,15.3708192 C84.9539174,16.2675715 86.3175513,17.4939409 87.4008563,19.04508 C88.4746586,20.5962191 89.2918887,22.3703345 89.8477952,24.3722734 C90.394199,26.369365 90.6650253,28.4924867 90.6650253,30.7416384 C90.6650253,32.7678139 90.4179557,34.7746001 89.9095626,36.776539 C89.4059208,38.7784779 88.6219501,40.5768299 87.5624018,42.1715948 C86.5028535,43.7663597 85.1487223,45.070286 83.5000081,46.0785264 C81.8465426,47.0916142 79.8557321,47.5957344 77.518074,47.5957344 Z M63.7724541,60 L63.7724541,38.4294716 L63.9054916,38.4294716 C64.698965,41.5753757 66.2621551,44.1056714 68.5998132,46.0155114 C70.93272,47.9253514 73.9070574,48.8754241 77.518074,48.8754241 C79.8509808,48.8754241 81.9273153,48.3955405 83.7280723,47.4309258 C85.5335806,46.4614639 87.044506,45.1478429 88.2560971,43.4852157 C89.4676882,41.8225885 90.394199,39.8885119 91.0356296,37.6878333 C91.6675575,35.4871546 91.9906485,33.1701406 91.9906485,30.7416384 C91.9906485,28.1386331 91.6580549,25.7343674 91.0023703,23.5288415 C90.337183,21.3281629 89.3821641,19.4183228 88.1230596,17.7993214 C86.8687065,16.1803199 85.3482784,14.9248667 83.5617755,14.0232671 C81.7800239,13.1265148 79.7654567,12.675715 77.518074,12.675715 C75.8028411,12.675715 74.2063916,12.9326224 72.7287256,13.4512845 C71.2510596,13.9650994 69.9396904,14.6970431 68.794618,15.6422685 C67.654297,16.5874939 66.6612674,17.6975279 65.825032,18.982065 C64.9840452,20.2617547 64.347366,21.6626272 63.9102429,23.1943771 L63.7724541,23.1943771 L63.7724541,13.4852157 L62.4515822,13.4852157 L62.4515822,60 L63.7724541,60 Z M57.030306,13.4852157 L45.3325126,29.1904993 L33.9007942,13.4852157 L32.1855613,13.4852157 L44.5390393,30.203587 L30.9977269,48.1386331 L32.5846737,48.1386331 L45.3325126,31.2118274 L58.156373,48.1386331 L59.8050872,48.1386331 L46.1925048,30.203587 L58.6172528,13.4852157 L57.030306,13.4852157 Z M1.32562321,46.791081 L1.32562321,23.7324285 L29.5438176,23.7324285 L29.5438176,22.3848764 L1.32562321,22.3848764 L1.32562321,1.34755211 L31.3255692,1.34755211 L31.3255692,0 L0,0 L0,48.1386331 L31.5916441,48.1386331 L31.5916441,46.791081 L1.32562321,46.791081 Z" id="Fill-1" fill="#8C8C8C" mask="url(#mask-2)"></path>
        </g>
    </g>
</svg>