<?xml version="1.0" encoding="UTF-8"?>
<svg width="93px" height="26px" viewBox="0 0 93 26" version="1.1" xmlns="http://www.w3.org/2000/svg" xmlns:xlink="http://www.w3.org/1999/xlink">
    <!-- Generator: Sketch 52.5 (67469) - http://www.bohemiancoding.com/sketch -->
    <title>Group 16</title>
    <desc>Created with Sketch.</desc>
    <defs>
        <polygon id="path-1" points="0.038366138 0.0342780453 12.5370087 0.0342780453 12.5370087 17.8238946 0.038366138 17.8238946"></polygon>
        <polygon id="path-3" points="0.0180573725 0.037144554 15.148312 0.037144554 15.148312 17.8434626 0.0180573725 17.8434626"></polygon>
        <polygon id="path-5" points="0.0152176638 0.00648824889 17.1332407 0.00648824889 17.1332407 24.3466199 0.0152176638 24.3466199"></polygon>
    </defs>
    <g id="MAIN_16.10" stroke="none" stroke-width="1" fill="none" fill-rule="evenodd" opacity="0.4">
        <g id="Group-2" transform="translate(-480.000000, -7.000000)">
            <g id="Group-16" transform="translate(480.582524, 7.766990)">
                <path d="M26.7621392,21.1467439 C26.4511869,21.7310249 25.8681263,22.2684087 25.3953239,22.4063457 C23.5713239,22.9386133 22.2653108,21.2312246 21.7594043,17.6531266 C21.5959524,16.4968956 21.5968201,13.3465138 21.7609394,12.0241419 C22.1180106,9.14727289 23.0219014,7.68624243 24.4459816,7.68401235 C25.087642,7.6829629 25.4434451,7.83723197 25.9453471,8.33381835 C27.1404345,9.51654793 27.7066093,11.77516 27.6977326,15.3246605 C27.6906579,18.1568623 27.4039998,19.9405329 26.7621392,21.1467439 M32.8242077,13.6860107 C32.4749453,10.7752314 31.2193227,8.64478335 29.1465074,7.44572172 C26.8432978,6.11351119 23.343132,6.03644224 20.8563144,7.26324869 C19.0606131,8.14911524 17.5933507,9.85538893 16.941679,11.8155638 C16.2693172,13.8381809 16.2695174,16.4928946 16.9423464,18.5576209 C17.3732346,19.880124 17.9577636,20.8452896 18.8594519,21.7229573 C19.9403432,22.7751616 21.3558137,23.4483834 22.9741807,23.6799182 C23.5538374,23.7628903 25.3816417,23.7645957 25.9806538,23.6827386 C26.2636411,23.6440402 26.7538632,23.5387673 27.0700214,23.448777 C30.0036786,22.6137431 32.0061475,20.3982897 32.6937266,17.2267877 C32.8617169,16.4519005 32.9308619,14.5747633 32.8242077,13.6860107" id="Fill-1" fill="#3F3F3F"></path>
                <path d="M44.7583861,6.39238681 C43.9931436,6.39238681 43.5798995,6.47861378 42.9605273,6.76766859 C41.8322227,7.29408225 40.9837387,8.15648609 40.2271234,9.54557178 L39.9907675,9.97958982 L40.0211928,9.2085088 C40.0379201,8.78441424 40.0659746,7.9923464 40.0834922,7.44843256 L40.1154322,6.45943734 L39.9528347,6.45943734 C39.7444016,6.45943734 33.2204133,7.78710475 33.0233073,7.8695769 C32.8950206,7.92335142 32.8751322,7.98108192 32.8751322,8.30057766 C32.8751322,8.62919228 32.8913327,8.67297627 33.0233073,8.70093634 C33.1048366,8.71823537 33.4044798,8.77791034 33.6892395,8.83349522 C34.2662666,8.9462742 34.4376888,9.03739586 34.6754935,9.35796442 C35.1142237,9.94941708 35.2045776,10.9927232 35.199836,15.4106822 C35.1960164,19.0229621 35.1219288,20.8217936 34.953997,21.3840793 C34.747803,22.0742974 34.3813164,22.4267149 33.7437021,22.5479423 C33.5376398,22.5871668 33.2653268,22.6417459 33.1385547,22.6692367 L32.90806,22.7191893 L32.8883692,23.1825084 C32.8745395,23.5077705 32.8941645,23.662389 32.9542248,23.7013454 C33.0013116,23.7319204 35.2327638,23.7496888 37.9130881,23.7409052 L42.786405,23.7249471 L42.8056348,23.2053056 C42.8162376,22.9194692 42.8014201,22.685597 42.772707,22.685597 C42.3941688,22.6851947 41.2341877,22.5233347 41.0508456,22.445422 C40.5012804,22.2116839 40.2351578,21.7096766 40.1203714,20.6900393 C39.9856308,19.4931875 39.9057479,16.5173511 39.9429563,14.0777178 C39.980494,11.6142145 39.9811526,11.6042911 40.1322254,11.4393468 C40.485475,11.0537392 41.3799262,10.7534199 42.1807307,10.7516766 C42.8237451,10.7502015 43.486187,10.9189006 44.1922911,11.2638755 C44.530789,11.4292892 44.8430106,11.5508518 44.8860143,11.5340892 C44.9742608,11.4996252 46.5731039,7.19826705 46.5731039,6.99543922 C46.5731039,6.69384597 45.6658767,6.39238681 44.7583861,6.39238681" id="Fill-3" fill="#3F3F3F"></path>
                <path d="M8.89334518,2.72058966 L11.0100236,2.72058966 C13.4422196,2.72058966 13.8404,2.76991548 14.7016669,3.17763235 C15.9503524,3.7688283 16.8629388,4.93973247 17.6588287,6.97169677 C17.9828211,7.79894274 17.9784492,7.79634664 18.6986714,7.58521914 L19.1771604,7.44502996 L19.1334413,4.44997897 C19.1092949,2.8027561 19.0700149,1.33816857 19.0461376,1.19538329 L19.0026202,0.9357737 L9.72259616,0.917406321 C4.61855603,0.907281547 0.34289249,0.916043371 0.221218792,0.937071748 L0,0.975039651 L0.0194381973,1.50710951 L0.0389436547,2.03911448 L0.745175735,2.12069679 C1.66206676,2.22668241 2.20949751,2.47493408 2.53436427,2.93223638 C3.26649152,3.96288647 3.39966672,5.36562201 3.39818699,12.0340839 C3.39657275,19.1347957 3.2435558,20.8593173 2.53564221,21.7549055 C2.17048659,22.2168808 1.87467624,22.3682332 1.04784663,22.5162755 C-0.030199829,22.7092304 0.00531355565,22.6851516 0.00531355565,23.2229329 C0.00531355565,23.5224574 0.0334283185,23.6841942 0.0893888033,23.7060014 C0.21059168,23.7531205 12.0803351,23.7566253 12.2075242,23.709571 C12.3700921,23.6494065 12.3604066,22.8031441 12.1962245,22.7213022 C12.1315202,22.6890457 11.7304476,22.612396 11.3050268,22.5509334 C10.8796061,22.4894708 10.4101299,22.3880933 10.2617539,22.3257221 C9.48469684,21.9990034 9.05194473,21.0961462 8.88937683,19.4622283 C8.7728149,18.2902208 8.68187912,16.1305285 8.68187912,14.5341891 L8.68187912,13.0692122 L9.40492625,13.0904353 C10.944714,13.1356723 11.7406711,13.2136849 12.0623767,13.3510184 C12.7589233,13.6482714 13.322631,14.4776592 13.6155492,15.636167 L13.771391,16.2527398 L14.3205706,16.2715615 L14.8698173,16.2904481 L14.8698173,12.391047 L14.8698173,8.49164604 L14.3208396,8.51046773 L13.7718619,8.52935433 L13.611379,9.1454728 C13.3006369,10.3390279 12.7933605,11.0721005 12.0477812,11.4051796 C11.7443032,11.5406958 11.5288015,11.5778849 10.8034675,11.619682 C10.3210101,11.6474603 9.64618858,11.6717987 9.30403595,11.6736808 L8.68187912,11.6771207 L8.68113925,9.7462743 C8.68033213,7.81062517 8.78841927,3.70029137 8.85689015,3.06132725 L8.89334518,2.72058966 Z" id="Fill-5" fill="#3F3F3F"></path>
                <g id="Group-9" transform="translate(79.448236, 6.392387)">
                    <mask id="mask-2" fill="white">
                        <use xlink:href="#path-1"></use>
                    </mask>
                    <g id="Clip-8"></g>
                    <path d="M12.1060396,9.90032739 C11.5537222,8.76804186 10.5377154,7.99323158 8.40847353,7.0806563 C6.67004893,6.33560757 5.79735716,5.8196285 5.26473485,5.22183883 C4.83249212,4.73676598 4.70611495,4.34468114 4.74806561,3.61922655 C4.78679939,2.9495917 4.946527,2.55090815 5.35605466,2.10192623 C5.88093022,1.52635672 6.60308545,1.32469193 7.46763656,1.51228396 C8.88614639,1.81999952 9.79652153,2.82758282 10.5801256,4.95694758 C10.8596653,5.71654042 10.8926875,5.74057859 11.3951763,5.54921587 L11.7130559,5.42814966 L11.7018953,4.55287732 C11.6957241,4.07150783 11.6717617,3.06062517 11.6485215,2.30655371 L11.6063082,0.935502444 L11.3696382,0.832751033 C10.0723192,0.269368952 7.59637714,-0.0815749243 5.98327931,0.0693875027 C4.15149974,0.240886745 2.8068467,0.837262399 1.77101349,1.93769904 C0.741745334,3.03120029 0.277268219,4.31444826 0.359659566,5.83659662 C0.42787041,7.09627774 0.791114491,8.00070563 1.54799882,8.79531205 C2.24960546,9.53187672 2.83888413,9.88019458 4.52800521,10.5569668 C7.25460077,11.6493234 7.97629645,12.2963341 7.97019095,13.6430105 C7.96513587,14.7800767 7.37736716,15.6124574 6.30555749,16.0005023 C5.92281522,16.1390079 4.9538142,16.1378632 4.436948,15.9981456 C3.08198784,15.6319843 2.04464467,14.4280555 1.16020147,12.195266 L0.933444723,11.6229959 L0.667363345,11.6355873 C0.520962784,11.64259 0.319612776,11.6884443 0.219758402,11.7374634 L0.038366138,11.8266133 L0.0552383102,12.8021457 C0.0645606777,13.3386616 0.0907552175,14.4698698 0.113470282,15.3159193 L0.154764431,16.8540931 L0.457478774,16.9876161 C1.07728491,17.2607894 2.93867285,17.6787977 4.10836737,17.8074053 C4.25279842,17.8232961 5.0504517,17.8286155 5.88093022,17.8193234 C7.32208946,17.803096 7.42548896,17.7931306 8.15027021,17.5989398 C10.2898849,17.025727 11.6749786,15.8030795 12.2884166,13.9460127 C12.4767022,13.3763686 12.5030937,13.201974 12.5302073,12.3536352 C12.5663151,11.2231003 12.4647538,10.6356801 12.1060396,9.90032739" id="Fill-7" fill="#3F3F3F" mask="url(#mask-2)"></path>
                </g>
                <g id="Group-12" transform="translate(63.923868, 6.392387)">
                    <mask id="mask-4" fill="white">
                        <use xlink:href="#path-3"></use>
                    </mask>
                    <g id="Clip-11"></g>
                    <path d="M8.8593029,6.76673929 C8.21205685,6.78916145 7.11175886,6.81663365 6.41425638,6.8278784 L5.14600855,6.84828055 L5.14722607,6.57591524 C5.14790247,6.42609749 5.19092144,6.03091529 5.24280123,5.69761288 C5.66527994,2.98594523 6.68150156,1.35855411 7.95306374,1.3571401 C9.12303081,1.35592809 9.84434253,2.95941571 9.99375904,5.89382363 L10.0361692,6.72600233 L8.8593029,6.76673929 Z M11.4565392,0.689794597 C9.59894503,-0.236988117 6.7290524,-0.170192966 4.63005152,0.848500414 C2.64130365,1.81366341 1.27220476,3.42395174 0.508347548,5.69653554 C0.11048975,6.88012945 -0.0148469545,7.83263368 0.0251282169,9.36730613 C0.0504255335,10.3373172 0.095000217,10.8387521 0.195851284,11.2867914 C0.980068099,14.7707106 3.37986354,17.1395818 6.73554583,17.7420848 C7.47437628,17.8747998 9.15164248,17.8777625 9.89831916,17.7477408 C10.9643914,17.5621015 12.1938815,17.0900241 12.9691699,16.5687256 C13.9156548,15.932219 14.8861518,14.9754054 14.8861518,14.6786653 C14.8861518,14.4975373 14.560804,14.0806736 14.4195043,14.0806736 C14.3576814,14.0806736 14.0949681,14.2171593 13.8356368,14.3840798 C12.909985,14.9798495 12.0247818,15.2242712 10.7939389,15.2242712 C9.09631306,15.2242712 8.02023014,14.8033002 6.93846548,13.7161283 C6.4595751,13.2348935 6.26247248,12.9749849 6.01484286,12.4983288 C5.4700036,11.4496045 5.1754319,10.2433191 5.13126306,8.87953993 L5.11218861,8.290773 L10.11754,8.27353554 L15.1228914,8.25629808 L15.145145,7.91962898 C15.1573878,7.73446097 15.1330374,7.24965746 15.0910331,6.84228784 C14.7788073,3.81657525 13.548032,1.73319949 11.4565392,0.689794597 Z" id="Fill-10" fill="#3F3F3F" mask="url(#mask-4)"></path>
                </g>
                <g id="Group-15" transform="translate(44.746708, 0.000000)">
                    <mask id="mask-6" fill="white">
                        <use xlink:href="#path-5"></use>
                    </mask>
                    <g id="Clip-14"></g>
                    <path d="M11.9629413,17.16493 C11.668105,19.501034 10.9185079,21.3865058 9.92147408,22.2998773 C9.52369785,22.6642895 9.15316657,22.8576661 8.67628151,22.9497724 C8.33036916,23.0166616 8.22683836,23.0184676 7.60125497,22.9684345 C7.3354362,22.9471638 7.27641642,22.9167292 7.22284563,22.7731851 C7.13894433,22.5481699 7.038893,14.708091 7.08005585,11.5764073 L7.11215893,9.1316752 L7.54696203,9.00117444 C7.83739974,8.91395097 8.17904481,8.87067369 8.57616454,8.87067369 C9.13137061,8.87067369 9.20358613,8.8872622 9.67173967,9.1230465 C10.8002057,9.69147062 11.5736996,11.1032333 11.9337268,13.2511112 C12.0668003,14.0452863 12.083016,16.2133648 11.9629413,17.16493 M11.9008359,6.98714172 C11.5139577,6.90560383 11.1647628,6.88881465 10.4107671,6.91557032 C9.27836202,6.95583759 8.49869698,7.1286123 7.65285625,7.5268035 C7.37220047,7.65890959 7.12725854,7.76700248 7.10841685,7.76700248 C7.08964082,7.76700248 7.09246379,6.02112842 7.11478495,3.88743098 C7.14623153,0.881030622 7.13750001,0.00752503093 7.07611682,0.00645480431 C6.86262147,0.00284278946 0.157869699,1.3058437 0.0842098651,1.36537506 C0.029260417,1.40972257 0.00595449814,1.55427006 0.0185593895,1.77319829 C0.0403553474,2.15312874 -0.00402437416,2.1230955 0.813455348,2.31025139 C1.05938203,2.36650517 1.34732502,2.47546762 1.45328488,2.55239016 C1.72606261,2.75024831 1.952885,3.1786734 2.11005224,3.7928497 C2.23406599,4.27752858 2.25080686,4.62401445 2.30805408,7.90078081 C2.36641735,11.2457072 2.35505982,14.6852818 2.26479041,20.9859066 L2.22730399,23.6028782 L2.70825938,23.7143156 C3.40349791,23.8753178 5.39375773,24.2127736 6.04501045,24.2800641 C7.00035617,24.3787925 9.22728595,24.3650803 9.93644239,24.2561847 C13.0151214,23.7833452 15.3359314,21.9638931 16.4175886,19.1750163 C16.7042186,18.435891 16.979688,17.2970361 17.0762599,16.4517577 C17.1895069,15.4599921 17.1260886,13.480006 16.955463,12.683356 C16.3013873,9.62939747 14.4298235,7.52031525 11.9008359,6.98714172" id="Fill-13" fill="#3F3F3F" mask="url(#mask-6)"></path>
                </g>
            </g>
        </g>
    </g>
</svg>