<?xml version="1.0" encoding="UTF-8"?>
<svg width="170px" height="60px" viewBox="0 0 170 60" version="1.1" xmlns="http://www.w3.org/2000/svg" xmlns:xlink="http://www.w3.org/1999/xlink">
    <!-- Generator: Sketch 52.6 (67491) - http://www.bohemiancoding.com/sketch -->
    <title>grpc_logo copy</title>
    <desc>Created with Sketch.</desc>
    <defs>
        <polygon id="path-1" points="0 0.0014 168.684 0.0014 168.684 59.5874 0 59.5874"></polygon>
    </defs>
    <g id="ASSETY" stroke="none" stroke-width="1" fill="none" fill-rule="evenodd">
        <g id="grpc_logo-copy" transform="translate(0.529412, 0.000000)">
            <mask id="mask-2" fill="white">
                <use xlink:href="#path-1"></use>
            </mask>
            <g id="Clip-2"></g>
            <path d="M19.0166,33.6674 L19.0166,45.2674 C19.0166,47.6814 19.4266,49.7814 20.2486,51.5634 C21.0686,53.3474 22.1506,54.8294 23.4926,56.0074 C24.8346,57.1874 26.3406,58.0794 28.0106,58.6834 C29.6806,59.2874 31.3666,59.5874 33.0626,59.5874 C34.7606,59.5874 36.4446,59.2874 38.1166,58.6834 C39.7866,58.0794 41.2926,57.1874 42.6346,56.0074 C43.9746,54.8294 45.0586,53.3474 45.8786,51.5634 C46.7006,49.7814 47.1106,47.6814 47.1106,45.2674 L47.1106,25.9374 L32.0966,25.9154 L32.0766,33.6654 L38.7306,33.6654 L38.7306,45.2674 C38.7306,47.2974 38.1706,48.7914 37.0486,49.7514 C35.9246,50.7134 34.5966,51.1934 33.0626,51.1934 C31.5306,51.1934 30.2026,50.7134 29.0786,49.7514 C27.9566,48.7914 27.3946,47.2974 27.3946,45.2674 L27.3946,14.3214 C27.3946,12.2914 27.9566,10.7954 29.0786,9.8354 C30.2026,8.8754 31.5306,8.3954 33.0626,8.3954 C34.5966,8.3954 35.9246,8.8754 37.0486,9.8354 C38.1706,10.7954 38.7306,12.2914 38.7306,14.3214 L38.7306,17.2834 L47.1106,17.2834 L47.1106,14.3214 C47.1106,11.9614 46.7006,9.8754 45.8786,8.0654 C45.0586,6.2554 43.9746,4.7594 42.6346,3.5814 C41.2926,2.4014 39.7866,1.5094 38.1166,0.9054 C36.4446,0.3014 34.7606,0.0014 33.0626,0.0014 C31.3666,0.0014 29.6806,0.3014 28.0106,0.9054 C26.3406,1.5094 24.8346,2.4014 23.4926,3.5814 C22.1506,4.7594 21.0686,6.2554 20.2486,8.0654 C19.4266,9.8754 19.0166,11.9614 19.0166,14.3214 L19.0166,25.9214 L10.4446,25.9214 L10.4446,17.2814 L13.0726,17.2814 L6.5366,8.0434 L-0.0014,17.2814 L2.7186,17.2814 L2.7186,29.7934 C2.7186,31.9334 4.4486,33.6674 6.5806,33.6674 L19.0166,33.6674 Z M165.9666,29.7194 C165.9666,27.5814 164.2366,25.8454 162.1026,25.8454 L141.1766,25.8454 L141.1766,33.5934 L158.2406,33.5934 L158.2406,42.2334 L155.6106,42.2334 L162.1466,51.4694 L168.6846,42.2334 L165.9666,42.2334 L165.9666,29.7194 Z M149.5506,46.0074 C149.5506,47.8194 149.2066,49.5474 148.5226,51.1934 C147.8366,52.8394 146.8926,54.2794 145.6886,55.5134 C144.4826,56.7494 143.0726,57.7374 141.4586,58.4774 C139.8426,59.2174 138.1026,59.5874 136.2406,59.5874 C134.6526,59.5874 133.0386,59.3694 131.3926,58.9294 C129.7506,58.4914 128.2726,57.7374 126.9586,56.6674 C125.6426,55.5954 124.5606,54.1834 123.7146,52.4274 C122.8646,50.6714 122.4406,48.4494 122.4406,45.7614 L122.4406,13.4974 C122.4406,11.5774 122.7686,9.7934 123.4266,8.1474 C124.0826,6.5014 125.0146,5.0754 126.2206,3.8694 C127.4246,2.6614 128.8626,1.7134 130.5326,1.0294 C132.2026,0.3434 134.0506,0.0014 136.0766,0.0014 C137.9926,0.0014 139.7746,0.3434 141.4166,1.0294 C143.0586,1.7134 144.4826,2.6754 145.6886,3.9094 C146.8926,5.1434 147.8366,6.6254 148.5226,8.3534 C149.2066,10.0834 149.5506,11.9614 149.5506,13.9914 L149.5506,17.2834 L141.1706,17.2834 L141.1706,14.4854 C141.1706,12.8394 140.7046,11.4134 139.7746,10.2054 C138.8426,8.9994 137.5826,8.3954 135.9946,8.3954 C133.9126,8.3954 132.5306,9.0394 131.8466,10.3294 C131.1606,11.6194 130.8186,13.2514 130.8186,15.2254 L130.8186,45.1854 C130.8186,46.8854 131.1886,48.3134 131.9286,49.4634 C132.6666,50.6174 133.9946,51.1934 135.9126,51.1934 C136.4606,51.1934 137.0506,51.0974 137.6786,50.9054 C138.3086,50.7134 138.8846,50.3974 139.4026,49.9594 C139.9246,49.5194 140.3486,48.9174 140.6766,48.1474 C141.0046,47.3794 141.1706,46.4194 141.1706,45.2674 L141.1706,42.3854 L149.5506,42.3854 L149.5506,46.0074 Z M97.8786,25.9214 L101.9026,25.9214 C103.6006,25.9214 104.9146,25.7034 105.8466,25.2694 C106.7766,24.8334 107.4626,24.2434 107.8986,23.4954 C108.3386,22.7474 108.5986,21.8414 108.6806,20.7794 C108.7626,19.7174 108.8046,18.5334 108.8046,17.2294 C108.8046,16.0234 108.7626,14.8754 108.6806,13.7914 C108.5986,12.7054 108.3526,11.7614 107.9406,10.9654 C107.5306,10.1694 106.8886,9.5414 106.0106,9.0834 C105.1346,8.6254 103.8746,8.3954 102.2306,8.3954 L97.8786,8.3954 L97.8786,25.9214 Z M89.4986,0.4934 L102.0666,0.4934 C104.3686,0.4934 106.3926,0.7954 108.1446,1.3994 C109.8986,2.0014 111.4866,3.0734 112.9106,4.6094 C114.3346,6.1454 115.3206,7.9434 115.8686,10.0014 C116.4166,12.0574 116.6906,14.8414 116.6906,18.3534 C116.6906,20.9334 116.4826,22.7794 116.1826,24.6174 C115.8806,26.4554 114.9086,29.6534 111.0886,31.8234 C108.7006,33.1794 105.2706,33.6674 102.1486,33.6674 L97.8786,33.6674 L97.8786,59.0934 L89.4986,59.0934 L89.4986,0.4934 Z M54.5026,0.4934 L67.9766,0.4934 C77.8326,0.4934 82.7626,6.2274 82.7626,17.6954 C82.7626,21.0974 82.2286,24.0194 81.1606,26.4594 C80.0926,28.9034 78.2186,30.8634 75.5346,32.3454 L84.5686,59.0934 L75.6986,59.0934 L67.7606,33.6394 L62.8846,33.6394 L62.8846,59.0934 L54.5026,59.0934 L54.5026,0.4934 Z M62.8846,25.9214 L67.6466,25.9214 C69.1266,25.9214 70.3046,25.7234 71.1806,25.3294 C72.0566,24.9334 72.7266,24.3694 73.1926,23.6314 C73.6566,22.8954 73.9746,21.9874 74.1386,20.9074 C74.3026,19.8294 74.3846,18.5794 74.3846,17.1574 C74.3846,15.7374 74.3026,14.4874 74.1386,13.4074 C73.9746,12.3294 73.6306,11.4074 73.1106,10.6454 C72.5906,9.8814 71.8646,9.3154 70.9326,8.9474 C70.0026,8.5794 68.7706,8.3954 67.2366,8.3954 L62.8846,8.3954 L62.8846,25.9214 Z" id="Fill-1" fill="#8C8C8C" mask="url(#mask-2)"></path>
        </g>
    </g>
</svg>