<?xml version="1.0" encoding="UTF-8"?>
<svg width="60px" height="60px" viewBox="0 0 60 60" version="1.1" xmlns="http://www.w3.org/2000/svg" xmlns:xlink="http://www.w3.org/1999/xlink">
    <!-- Generator: Sketch 52.6 (67491) - http://www.bohemiancoding.com/sketch -->
    <title>Group 39</title>
    <desc>Created with Sketch.</desc>
    <g id="ASSETY" stroke="none" stroke-width="1" fill="none" fill-rule="evenodd">
        <g id="Group-39">
            <polygon id="Fill-1" fill="#8C8C8C" points="0 60 60 60 60 0 0 0"></polygon>
            <path d="M21.7951613,47.9867097 C22.6545161,49.511871 23.4383871,50.8028387 25.3177419,50.8028387 C27.1158065,50.8028387 28.2519355,50.0983226 28.2519355,47.3615484 L28.2519355,28.748 L33.7254839,28.748 L33.7254839,47.4370323 C33.7254839,53.104129 30.4003226,55.684129 25.55,55.684129 C21.1680645,55.684129 18.6287097,53.4157419 17.3377419,50.6847742 L21.7951613,47.9867097 Z M41.1325806,47.5125161 C42.3074194,49.4286452 43.8325806,50.8357419 46.5325806,50.8357419 C48.8009677,50.8357419 50.2506452,49.7034839 50.2506452,48.1357419 C50.2506452,46.2583226 48.7622581,45.5944516 46.2654839,44.5028387 L44.8970968,43.9144516 C40.9467742,42.2325161 38.3222581,40.1247742 38.3222581,35.6673548 C38.3222581,31.5621935 41.45,28.4363871 46.3390323,28.4363871 C49.8190323,28.4363871 52.3196774,29.6460645 54.1235484,32.8183226 L49.8616129,35.5570323 C48.9248387,33.8731613 47.9106452,33.2092903 46.3390323,33.2092903 C44.7364516,33.2092903 43.7183871,34.2273548 43.7183871,35.5570323 C43.7183871,37.1983226 44.7364516,37.864129 47.0841935,38.8802581 L48.4525806,39.4667097 C53.1054839,41.4602581 55.73,43.4944516 55.73,48.0660645 C55.73,52.9938065 51.8590323,55.6938065 46.6603226,55.6938065 C41.5758065,55.6938065 38.2893548,53.2725161 36.6829032,50.0963871 L41.1325806,47.5125161 Z" id="Fill-2" fill="#FFFFFF"></path>
        </g>
    </g>
</svg>