<?xml version="1.0" encoding="UTF-8"?>
<svg width="59px" height="59px" viewBox="0 0 59 59" version="1.1" xmlns="http://www.w3.org/2000/svg" xmlns:xlink="http://www.w3.org/1999/xlink">
    <!-- Generator: Sketch 52.6 (67491) - http://www.bohemiancoding.com/sketch -->
    <title>js_logo copy</title>
    <desc>Created with Sketch.</desc>
    <g id="ASSETY" stroke="none" stroke-width="1" fill="none" fill-rule="evenodd">
        <g id="js_logo-copy">
            <polygon id="Fill-1" fill="#8C8C8C" points="0 58.2551613 58.256129 58.2551613 58.256129 -0.000967741935 0 -0.000967741935"></polygon>
            <path d="M19.7951613,45.9867097 C20.6545161,47.511871 21.4383871,48.8028387 23.3177419,48.8028387 C25.1158065,48.8028387 26.2519355,48.0983226 26.2519355,45.3615484 L26.2519355,26.748 L31.7254839,26.748 L31.7254839,45.4370323 C31.7254839,51.104129 28.4003226,53.684129 23.55,53.684129 C19.1680645,53.684129 16.6287097,51.4157419 15.3377419,48.6847742 L19.7951613,45.9867097 Z M39.1325806,45.5125161 C40.3074194,47.4286452 41.8325806,48.8357419 44.5325806,48.8357419 C46.8009677,48.8357419 48.2506452,47.7034839 48.2506452,46.1357419 C48.2506452,44.2583226 46.7622581,43.5944516 44.2654839,42.5028387 L42.8970968,41.9144516 C38.9467742,40.2325161 36.3222581,38.1247742 36.3222581,33.6673548 C36.3222581,29.5621935 39.45,26.4363871 44.3390323,26.4363871 C47.8190323,26.4363871 50.3196774,27.6460645 52.1235484,30.8183226 L47.8616129,33.5570323 C46.9248387,31.8731613 45.9106452,31.2092903 44.3390323,31.2092903 C42.7364516,31.2092903 41.7183871,32.2273548 41.7183871,33.5570323 C41.7183871,35.1983226 42.7364516,35.864129 45.0841935,36.8802581 L46.4525806,37.4667097 C51.1054839,39.4602581 53.73,41.4944516 53.73,46.0660645 C53.73,50.9938065 49.8590323,53.6938065 44.6603226,53.6938065 C39.5758065,53.6938065 36.2893548,51.2725161 34.6829032,48.0963871 L39.1325806,45.5125161 Z" id="Fill-2" fill="#FFFFFF"></path>
        </g>
    </g>
</svg>