<?xml version="1.0" encoding="UTF-8"?>
<svg width="114px" height="18px" viewBox="0 0 114 18" version="1.1" xmlns="http://www.w3.org/2000/svg" xmlns:xlink="http://www.w3.org/1999/xlink">
    <!-- Generator: Sketch 52.5 (67469) - http://www.bohemiancoding.com/sketch -->
    <title>logo_synerise</title>
    <desc>Created with Sketch.</desc>
    <g id="SINGLE-TECHNOLOGY" stroke="none" stroke-width="1" fill="none" fill-rule="evenodd">
        <g id="logo_synerise" fill="#7C7C7C">
            <path d="M63.6,1.4 C63.6,0.7 63,0.1 62.3,0.1 L58.3,0.1 C54.3,0.1 51,3.3 51,7.2 L51,9.6 C51,13.5 54.3,16.7 58.3,16.7 L62.3,16.7 C63,16.7 63.6,16.1 63.6,15.4 C63.6,14.7 63,14.1 62.3,14.1 L58.3,14.1 C55.7,14.1 53.5,12.1 53.5,9.5 L53.5,7.2 C53.5,4.7 55.6,2.6 58.3,2.6 L62.3,2.6 C63.1,2.7 63.6,2.1 63.6,1.4" id="Path"></path>
            <path d="M40.1,0.1 C36.2,0.1 33,3.4 33,7.4 L33,15.7 C33,16.4 33.6,17 34.3,17 C35,17 35.6,16.4 35.6,15.7 L35.6,7.5 C35.6,4.9 37.6,2.7 40.2,2.7 C42.7,2.7 44.7,4.8 44.7,7.5 L44.7,15.8 C44.7,16.5 45.3,17.1 46,17.1 C46.7,17.1 47.3,16.5 47.3,15.8 L47.3,7.5 C47.2,3.4 44,0.1 40.1,0.1" id="Path"></path>
            <path d="M57.4,7.2 C56.7,7.2 56.1,7.8 56.1,8.5 C56.1,9.2 56.7,9.8 57.4,9.8 L59.4,9.8 C60.1,9.8 60.7,9.2 60.7,8.5 C60.7,7.8 60.1,7.2 59.4,7.2 L57.4,7.2 Z" id="Path"></path>
            <path d="M81.9,4.6 C81.2,4.6 80.6,5.2 80.6,5.9 L80.6,15.7 C80.6,16.4 81.2,17 81.9,17 C82.6,17 83.2,16.4 83.2,15.7 L83.2,5.9 C83.1,5.2 82.6,4.6 81.9,4.6" id="Path"></path>
            <path d="M76.7,0.1 L74.7,0.1 C70.7,0.1 67.4,3.3 67.4,7.2 L67.4,15.7 C67.4,16.4 68,17 68.7,17 C69.4,17 70,16.4 70,15.7 L70,7.2 C70,4.7 72.1,2.6 74.8,2.6 L76.8,2.6 C77.5,2.6 78.1,2 78.1,1.3 C78.1,0.6 77.4,0.1 76.7,0.1" id="Path"></path>
            <path d="M8.8,7.6 L3.7,5.9 C3,5.6 2.6,5 2.6,4.3 C2.6,3.4 3.3,2.7 4.2,2.7 L8.5,2.7 C9.2,2.7 9.8,2.1 9.8,1.4 C9.8,0.7 9.2,0.1 8.5,0.1 L4.2,0.1 C1.9,0.1 0,2 0,4.3 C0,6.1 1.1,7.7 2.9,8.3 L8,10 C8.7,10.2 9.1,10.8 9.1,11.6 L9.1,11.8 C9.1,13.2 8,14.2 6.7,14.2 L1.9,14.2 C1.2,14.2 0.6,14.8 0.6,15.5 C0.6,16.2 1.2,16.8 1.9,16.8 L6.7,16.8 C9.5,16.8 11.7,14.6 11.7,11.8 L11.7,11.6 C11.7,9.8 10.6,8.2 8.8,7.6" id="Path"></path>
            <path d="M95.8,7.6 L90.6,5.9 C90,5.6 89.5,5 89.5,4.3 C89.5,3.4 90.2,2.7 91.1,2.7 L95.4,2.7 C96.1,2.7 96.7,2.1 96.7,1.4 C96.7,0.7 96.1,0.1 95.4,0.1 L91.1,0.1 C88.8,0.1 87,2 87,4.3 C87,6.1 88.1,7.7 89.9,8.3 L95,10 C95.7,10.2 96.1,10.8 96.1,11.6 L96.1,11.8 C96.1,13.2 95,14.2 93.7,14.2 L88.9,14.2 C88.2,14.2 87.6,14.8 87.6,15.5 C87.6,16.2 88.2,16.8 88.9,16.8 L93.7,16.8 C96.5,16.8 98.7,14.6 98.7,11.8 L98.7,11.6 C98.7,9.8 97.5,8.2 95.8,7.6" id="Path"></path>
            <path d="M28.1,0.5 L22.3,6.3 C22.1,6.5 21.9,6.5 21.7,6.3 L15.9,0.5 C15.5,0.1 14.9,-3.33066907e-16 14.4,0.2 C14,0.4 13.8,0.7 13.7,1.1 C13.6,1.6 13.7,2 14,2.3 L20.5,8.8 C20.6,8.9 20.7,9.1 20.7,9.3 L20.7,15.7 C20.7,16.4 21.2,17 21.9,17 C21.9,17 21.9,17 22,17 C22.3,17 22.6,16.9 22.9,16.6 C23.2,16.4 23.3,16 23.3,15.7 L23.3,9.3 C23.3,9.1 23.4,8.9 23.5,8.8 L30,2.3 C30.2,2.1 30.4,1.7 30.4,1.4 C30.4,1 30.2,0.7 30,0.5 C29.4,-3.33066907e-16 28.6,-3.33066907e-16 28.1,0.5" id="Path"></path>
            <path d="M112.6,14.2 L108.6,14.2 C106,14.2 103.8,12.2 103.8,9.6 L103.8,7.2 C103.8,4.7 105.9,2.7 108.6,2.7 L112.6,2.7 C113.3,2.7 113.9,2.1 113.9,1.4 C113.9,0.7 113.3,0.1 112.6,0.1 L108.6,0.1 C104.6,0.1 101.3,3.3 101.3,7.2 L101.3,9.6 C101.3,13.5 104.6,16.7 108.6,16.7 L112.6,16.7 C113.3,16.7 113.9,16.1 113.9,15.4 C113.9,14.8 113.3,14.2 112.6,14.2" id="Path"></path>
            <path d="M107.6,7.2 C106.9,7.2 106.3,7.8 106.3,8.5 C106.3,9.2 106.9,9.8 107.6,9.8 L109.6,9.8 C110.3,9.8 110.9,9.2 110.9,8.5 C110.9,7.8 110.3,7.2 109.6,7.2 L107.6,7.2 Z" id="Path"></path>
        </g>
    </g>
</svg>