<?xml version="1.0" encoding="UTF-8"?>
<svg width="24px" height="24px" viewBox="0 0 24 24" version="1.1" xmlns="http://www.w3.org/2000/svg" xmlns:xlink="http://www.w3.org/1999/xlink">
    <!-- Generator: Sketch 52.6 (67491) - http://www.bohemiancoding.com/sketch -->
    <title>organism / single-technology-kafelka/MOBILE</title>
    <desc>Created with Sketch.</desc>
    <g id="organism-/-single-technology-kafelka/MOBILE" stroke="none" stroke-width="1" fill="none" fill-rule="evenodd">
        <path d="M18.5454545,2.8125 L5.45454545,2.8125 L5.45454545,2.109375 C5.45454545,1.72171875 5.78084848,1.40625 6.18181818,1.40625 L17.8181818,1.40625 C18.2191515,1.40625 18.5454545,1.72171875 18.5454545,2.109375 L18.5454545,2.8125 Z M18.5454545,11.296875 L18.5454545,16.921875 L18.5454545,18.328125 L18.5454545,18.9275156 L18.5454545,19.78125 L5.45454545,19.78125 L5.45454545,4.21875 L18.5454545,4.21875 L18.5454545,11.296875 Z M18.5454545,21.890625 C18.5454545,22.2782812 18.2191515,22.59375 17.8181818,22.59375 L6.18181818,22.59375 C5.78084848,22.59375 5.45454545,22.2782812 5.45454545,21.890625 L5.45454545,21.1875 L18.5454545,21.1875 L18.5454545,21.890625 Z M17.8181818,0 L6.18181818,0 C4.97881212,0 4,0.946265625 4,2.109375 L4,21.890625 C4,23.0536875 4.97881212,24 6.18181818,24 L17.8181818,24 C19.0212364,24 20,23.0536875 20,21.890625 L20,18.8103281 L20,18.328125 L20,16.921875 L20,11.296875 L20,2.109375 C20,0.946265625 19.0212364,0 17.8181818,0 Z" id="Fill-1-Copy-5" fill="#000EE6"></path>
    </g>
</svg>