<?xml version="1.0" encoding="UTF-8"?>
<svg width="24px" height="24px" viewBox="0 0 24 24" version="1.1" xmlns="http://www.w3.org/2000/svg" xmlns:xlink="http://www.w3.org/1999/xlink">
    <!-- Generator: Sketch 52.6 (67491) - http://www.bohemiancoding.com/sketch -->
    <title>organism / single-technology-kafelka/QA</title>
    <desc>Created with Sketch.</desc>
    <g id="organism-/-single-technology-kafelka/QA" stroke="none" stroke-width="1" fill="none" fill-rule="evenodd">
        <path d="M18.328125,22.59375 L22.59375,22.59375 L22.59375,21.1875 L18.328125,21.1875 L18.328125,22.59375 Z M12,13.8180469 L8.77570312,10.59375 L12,7.36945312 L15.2242969,10.59375 L12,13.8180469 Z M12,22.59375 C11.6123438,22.59375 11.296875,22.2782812 11.296875,21.890625 C11.296875,21.5029688 11.6123438,21.1875 12,21.1875 C12.3876562,21.1875 12.703125,21.5029688 12.703125,21.890625 C12.703125,22.2782812 12.3876562,22.59375 12,22.59375 Z M8.484375,2.8125 L15.515625,2.8125 L15.515625,1.40625 L8.484375,1.40625 L8.484375,2.8125 Z M1.40625,22.59375 L5.625,22.59375 L5.625,21.1875 L1.40625,21.1875 L1.40625,22.59375 Z M23.296875,19.78125 L21.140625,19.78125 L21.140625,17.671875 C21.140625,17.2835156 20.8258594,16.96875 20.4375,16.96875 L12.703125,16.96875 L12.703125,15.1038281 L16.7158594,11.0908594 C16.9905469,10.8164062 16.9905469,10.3712813 16.7158594,10.0966406 L12.703125,6.08367187 L12.703125,4.21875 L16.21875,4.21875 C16.6071094,4.21875 16.921875,3.90398437 16.921875,3.515625 L16.921875,0.703125 C16.921875,0.314765625 16.6071094,0 16.21875,0 L7.78125,0 C7.39289062,0 7.078125,0.314765625 7.078125,0.703125 L7.078125,3.515625 C7.078125,3.90398437 7.39289062,4.21875 7.78125,4.21875 L11.296875,4.21875 L11.296875,6.08367187 L7.28414063,10.0966406 C7.00945313,10.3712813 7.00945313,10.8164062 7.28414063,11.0908594 L11.296875,15.1038281 L11.296875,16.96875 L3.515625,16.96875 C3.12726563,16.96875 2.8125,17.2835156 2.8125,17.671875 L2.8125,19.78125 L0.703125,19.78125 C0.314765625,19.78125 0,20.0960156 0,20.484375 L0,23.296875 C0,23.6852344 0.314765625,24 0.703125,24 L6.328125,24 C6.71648438,24 7.03125,23.6852344 7.03125,23.296875 L7.03125,20.484375 C7.03125,20.0960156 6.71648438,19.78125 6.328125,19.78125 L4.21875,19.78125 L4.21875,18.375 L11.296875,18.375 L11.296875,19.9020937 C10.4783906,20.1924844 9.890625,20.9739844 9.890625,21.890625 C9.890625,23.0536875 10.8368906,24 12,24 C13.1630625,24 14.109375,23.0536875 14.109375,21.890625 C14.109375,20.9739844 13.5216094,20.1924844 12.703125,19.9020937 L12.703125,18.375 L19.734375,18.375 L19.734375,19.78125 L17.625,19.78125 C17.2366406,19.78125 16.921875,20.0960156 16.921875,20.484375 L16.921875,23.296875 C16.921875,23.6852344 17.2366406,24 17.625,24 L23.296875,24 C23.6852344,24 24,23.6852344 24,23.296875 L24,20.484375 C24,20.0960156 23.6852344,19.78125 23.296875,19.78125 Z" id="Fill-1-Copy-4" fill="#000EE6"></path>
    </g>
</svg>