<?xml version="1.0" encoding="UTF-8"?>
<svg width="175px" height="41px" viewBox="0 0 175 41" version="1.1" xmlns="http://www.w3.org/2000/svg" xmlns:xlink="http://www.w3.org/1999/xlink">
    <!-- Generator: Sketch 52.5 (67469) - http://www.bohemiancoding.com/sketch -->
    <title>Group 14</title>
    <desc>Created with Sketch.</desc>
    <defs>
        <polygon id="path-1" points="3.46054023e-05 0.170812266 42.9041584 0.170812266 42.9041584 40.4883207 3.46054023e-05 40.4883207"></polygon>
    </defs>
    <g id="MAIN_16.10" stroke="none" stroke-width="1" fill="none" fill-rule="evenodd" opacity="0.4">
        <g id="Group-2" transform="translate(-825.000000, 0.000000)">
            <g id="Group-14" transform="translate(825.242718, 0.000000)">
                <path d="M71.2889109,29.358064 L68.1657733,29.358064 C67.8866808,29.358064 67.7828646,29.1007729 67.65742,28.845385 L63.9719446,22.6466923 L63.4096068,22.6466923 C62.7413765,22.6466923 60.6737037,22.5731558 60.0854119,22.5428761 L60.0854119,28.845385 C60.0854119,29.1265539 59.8777795,29.358064 59.5966106,29.358064 L57.0401365,29.358064 C56.761217,29.358064 56.5317831,29.1265539 56.5317831,28.845385 L56.5317831,12.0877189 C56.5317831,11.5729636 56.8345804,11.3956109 57.3493358,11.3177487 C58.6816438,11.114442 61.5410881,10.9869211 63.4096068,10.9869211 C67.3459714,10.9869211 70.9838643,12.3948419 70.9838643,16.7680996 L70.9838643,16.9996097 C70.9838643,19.7074825 69.6278516,21.1911891 67.5321484,22.004416 L71.5441257,28.8476343 C71.5960338,28.9254965 71.5960338,28.9967836 71.5960338,29.0552667 C71.5937845,29.2282938 71.4922176,29.358064 71.2889109,29.358064 Z M67.4520369,16.7703489 C67.4520369,14.8518254 65.9640046,14.0342728 63.4075305,14.0342728 C62.8668211,14.0342728 60.5396078,14.0861809 60.0831625,14.1339364 L60.0831625,19.6792791 C60.4876997,19.7052331 62.9663116,19.7573142 63.4075305,19.7573142 C66.0375411,19.7573142 67.4520369,19.2489609 67.4520369,16.9996097 L67.4520369,16.7703489 Z M78.4132981,24.3209017 C78.4132981,26.4621109 78.4954859,26.5224974 80.4290628,26.5224974 L86.9023493,26.5224974 C87.1857676,26.5224974 87.4150284,26.7517581 87.4150284,27.0308507 L87.4150284,28.665956 C87.4150284,29.024987 87.2852581,29.1547573 86.9023493,29.2023397 C86.0847967,29.33211 84.4173354,29.5591214 81.3763857,29.5591214 C77.1328982,29.5591214 74.8812977,29.5873248 74.8812977,24.3186523 L74.8812977,16.2273902 C74.8812977,10.9564683 77.1328982,10.9846717 81.3763857,10.9846717 C84.4173354,10.9846717 86.0827204,11.2160088 86.9023493,11.3416265 C87.2873344,11.3935346 87.4150284,11.5210555 87.4150284,11.8800865 L87.4150284,13.5131154 C87.4150284,13.7942843 87.1835182,14.0276978 86.9023493,14.0276978 L80.4290628,14.0276978 C78.4954859,14.0276978 78.4132981,14.0841046 78.4132981,16.2253139 L78.4132981,18.5677535 L86.5974757,18.5677535 C86.8786446,18.5677535 87.1101548,18.801167 87.1101548,19.0780102 L87.1101548,20.9229972 C87.1101548,21.2019168 86.8786446,21.4334269 86.5974757,21.4334269 L78.4132981,21.4334269 L78.4132981,24.3209017 Z M98.8953706,29.5613708 C94.7837297,29.5613708 91.236676,27.7726175 91.236676,22.3201903 L91.236676,11.6811055 C91.236676,11.3978602 91.4704355,11.1943805 91.7516043,11.1943805 L94.2776257,11.1943805 C94.5632933,11.1943805 94.7903047,11.3978602 94.7903047,11.6811055 L94.7903047,22.3201903 C94.7903047,25.2379448 96.1376661,26.6199116 98.8953706,26.6199116 C101.661553,26.6199116 103.004762,25.2379448 103.004762,22.3201903 L103.004762,11.6811055 C103.004762,11.3978602 103.236272,11.1943805 103.515192,11.1943805 L106.045712,11.1943805 C106.331033,11.1943805 106.560467,11.3978602 106.560467,11.6811055 L106.560467,22.3201903 C106.562543,27.7726175 103.01549,29.5613708 98.8953706,29.5613708 Z M123.376443,14.157468 L118.274396,14.157468 L118.274396,28.8476343 C118.274396,29.1288032 118.03856,29.3603134 117.755315,29.3603134 L115.226871,29.3603134 C114.943626,29.3603134 114.714365,29.1288032 114.714365,28.8476343 L114.714365,14.157468 L109.607992,14.157468 C109.330976,14.157468 109.099639,13.984441 109.099639,13.7013688 L109.099639,11.6811055 C109.099639,11.3978602 109.330976,11.1943805 109.607992,11.1943805 L123.376443,11.1943805 C123.65346,11.1943805 123.884797,11.3978602 123.884797,11.6811055 L123.884797,13.7013688 C123.884797,13.984441 123.65346,14.157468 123.376443,14.157468 Z M158.102965,29.358064 L154.977751,29.358064 C154.698658,29.358064 154.597091,29.1007729 154.469397,28.845385 L150.783922,22.6466923 L150.213106,22.6466923 C149.551104,22.6466923 147.485681,22.5731558 146.890814,22.5428761 L146.890814,28.845385 C146.890814,29.1265539 146.689757,29.358064 146.408588,29.358064 L143.854363,29.358064 C143.570945,29.358064 143.341684,29.1265539 143.341684,28.845385 L143.341684,12.0877189 C143.341684,11.5729636 143.644481,11.3956109 144.15716,11.3177487 C145.487219,11.114442 148.350816,10.9869211 150.210856,10.9869211 C154.153623,10.9869211 157.78719,12.3948419 157.78719,16.7680996 L157.78719,16.9996097 C157.78719,19.7074825 156.428928,21.1911891 154.335474,22.004416 L158.353854,28.8476343 C158.405762,28.9254965 158.405762,28.9967836 158.405762,29.0552667 C158.410261,29.2282938 158.306271,29.358064 158.102965,29.358064 Z M154.266091,16.7703489 C154.266091,14.8518254 152.780308,14.0342728 150.217258,14.0342728 C149.683124,14.0342728 147.35816,14.0861809 146.895313,14.1339364 L146.895313,19.6792791 C147.308328,19.7052331 149.789017,19.7573142 150.217258,19.7573142 C152.853844,19.7573142 154.266091,19.2489609 154.266091,16.9996097 L154.266091,16.7703489 Z M167.861861,29.5720984 C165.601609,29.5720984 163.311078,29.185037 162.082586,28.9016188 C161.831697,28.8497107 161.59811,28.672358 161.59811,28.3911891 L161.59811,26.5505277 C161.59811,26.2693588 161.831697,26.0639758 162.082586,26.0639758 L162.134494,26.0639758 C163.157603,26.1916697 165.554027,26.5247467 167.917922,26.5247467 C170.191151,26.5247467 170.885335,25.7115198 170.885335,24.2278131 C170.885335,22.3094627 166.308771,21.2474229 164.072396,20.3281303 C161.851076,19.4067615 161.05965,17.6462117 161.05965,15.8553821 C161.05965,13.0416168 163.326304,10.9955724 168.078145,10.9955724 C170.515576,10.9955724 172.749874,11.4584197 173.616912,11.6702047 C173.87455,11.7222859 174.073358,11.8996386 174.073358,12.1526041 L174.073358,14.0451735 C174.073358,14.298139 173.900331,14.5035221 173.64079,14.5035221 L173.591131,14.5035221 C171.904118,14.3521234 170.15222,14.0429242 167.930899,14.0429242 C166.034177,14.0429242 164.615355,14.7047525 164.615355,15.8553821 C164.615355,16.6968125 165.577731,17.4731847 166.713308,17.9208055 C167.848711,18.3665231 169.338993,18.9482399 171.041232,19.633946 C173.19092,20.505483 174.590189,21.7751552 174.590189,24.2255638 C174.588286,26.8100682 172.979135,29.5720984 167.861861,29.5720984 Z M130.044558,24.3209017 C130.044558,26.4621109 130.122247,26.5224974 132.064649,26.5224974 L138.542261,26.5224974 C138.816855,26.5224974 139.046289,26.7517581 139.046289,27.0308507 L139.046289,28.665956 C139.046289,29.024987 138.920844,29.1547573 138.542261,29.2023397 C137.718306,29.33211 136.052921,29.5591214 133.014048,29.5591214 C128.75966,29.5591214 126.512558,29.5873248 126.512558,24.3186523 L126.512558,16.2273902 C126.512558,10.9564683 128.75966,10.9846717 133.014048,10.9846717 C136.052921,10.9846717 137.716057,11.2160088 138.542261,11.3416265 C138.920844,11.3935346 139.046289,11.5210555 139.046289,11.8800865 L139.046289,13.5131154 C139.046289,13.7942843 138.814951,14.0276978 138.542261,14.0276978 L132.064649,14.0276978 C130.122247,14.0276978 130.044558,14.0841046 130.044558,16.2253139 L130.044558,18.5677535 L138.228736,18.5677535 C138.514057,18.5677535 138.736916,18.801167 138.736916,19.0780102 L138.736916,20.9229972 C138.736916,21.2019168 138.514057,21.4334269 138.228736,21.4334269 L130.044558,21.4334269 L130.044558,24.3209017 Z" id="Fill-1" fill="#3F3F3F"></path>
                <path d="M20.3090628,25.9389292 C19.9889628,26.1119562 19.8742459,26.5164933 20.0429472,26.834517 C20.2202999,27.1566933 20.6184351,27.2778122 20.9406114,27.1047852 C21.265037,26.9360838 21.3839066,26.5317197 21.2088032,26.207294 C21.09201,25.9865116 20.8627492,25.8633164 20.6248371,25.8633164 C20.5187715,25.8633164 20.4085533,25.8870211 20.3090628,25.9389292 M22.2253369,25.8243853 C21.8619802,26.0167913 21.7365356,26.4668346 21.9334404,26.8322676 C22.1215207,27.1912987 22.5713909,27.3319696 22.9347477,27.1307392 C23.2981044,26.9404095 23.4278747,26.4862136 23.2354686,26.1271825 C23.0991233,25.8783697 22.8439085,25.7378718 22.5800423,25.7378718 C22.4589234,25.7356224 22.3378045,25.7638258 22.2253369,25.8243853 M18.4793021,25.4544535 C18.1915582,25.6103509 18.0899913,25.9564049 18.2457157,26.2375738 C18.3907123,26.5187427 18.7452446,26.6268846 19.0264135,26.4754859 C19.3075824,26.3175123 19.413648,25.9628069 19.260173,25.6859637 C19.1541075,25.4954609 18.9530501,25.3854157 18.7495703,25.3854157 C18.6587311,25.3831664 18.5658156,25.4047948 18.4793021,25.4544535 M24.0225685,25.0890205 C23.615955,25.3075536 23.4581544,25.8179833 23.6851658,26.2289224 C23.9059483,26.6353629 24.4184543,26.7867615 24.8293934,26.5704777 C25.2360069,26.3457157 25.3894819,25.8330366 25.1688724,25.4328251 C25.0153975,25.1495799 24.7255772,24.9852043 24.4250293,24.9852043 C24.288684,24.9831279 24.1502624,25.015484 24.0225685,25.0890205 M16.9068326,24.4162915 C16.6668442,24.5419091 16.576005,24.8467827 16.7057753,25.0846948 C16.8334692,25.3269326 17.1340171,25.4156955 17.3741786,25.2814265 C17.6120907,25.1582313 17.7027569,24.8575103 17.575236,24.6154455 C17.4866462,24.4508969 17.3156955,24.3600577 17.1405921,24.3600577 C17.062557,24.3579814 16.9826185,24.3775334 16.9068326,24.4162915 M25.6296434,23.9859733 C25.2662866,24.1806287 25.134267,24.6348246 25.3289224,24.9916063 C25.5215015,25.3528867 25.9713717,25.4869826 26.3368048,25.2900779 C26.6980852,25.1019975 26.8301048,24.6455522 26.6354494,24.2865212 C26.4991041,24.0378814 26.2438893,23.8949611 25.9800231,23.8949611 C25.8609805,23.8949611 25.7421109,23.9254138 25.6296434,23.9859733 M15.7605287,22.9325848 C15.557395,23.0386504 15.4859348,23.2893665 15.5940767,23.497172 C15.7022186,23.6939037 15.9487821,23.7696895 16.1541651,23.663797 C16.3531462,23.5511564 16.428932,23.3002672 16.3187138,23.0992098 C16.242928,22.9630376 16.0981044,22.8829261 15.9510314,22.8829261 C15.8861463,22.8851754 15.8212612,22.9002288 15.7605287,22.9325848 M26.780273,22.4481092 C26.4580967,22.6169836 26.3390541,23.0279227 26.5098318,23.3478497 C26.6871845,23.6658733 27.0853196,23.7868192 27.4009209,23.6137922 C27.7296722,23.4366125 27.8443891,23.0407267 27.6756878,22.7163011 C27.5568182,22.4958647 27.3296338,22.3681707 27.0937979,22.3681707 C26.9879054,22.3681707 26.8797635,22.3941248 26.780273,22.4481092 M15.0684206,21.0142344 C14.8305085,21.146254 14.7396693,21.4490512 14.8716889,21.6890397 C15.0014592,21.9335269 15.3042565,22.017791 15.5400923,21.8836951 C15.7821571,21.7604999 15.8795713,21.4532039 15.743226,21.2152917 C15.6503105,21.0509161 15.4816092,20.9557512 15.3042565,20.9557512 C15.224145,20.9557512 15.1419571,20.9753033 15.0684206,21.0142344 M27.3792925,20.6488013 C27.0960473,20.8043526 26.9965568,21.1504066 27.1413804,21.4360742 C27.2907027,21.7106681 27.6519831,21.8144843 27.9309026,21.665335 C28.2099952,21.511687 28.311562,21.1613073 28.1601634,20.8822147 C28.0563472,20.6875594 27.8596155,20.5794175 27.6540594,20.5794175 C27.5611439,20.5794175 27.4680554,20.6010459 27.3792925,20.6488013 M14.9841565,18.9920677 C14.7073133,19.141217 14.6057464,19.4915967 14.7526464,19.7706892 C14.9085437,20.0560108 15.256674,20.1577506 15.5378429,20.006352 C15.8169355,19.852704 15.922828,19.4979987 15.7714294,19.2232318 C15.6676132,19.0308257 15.4686321,18.9204345 15.263076,18.9204345 C15.1701605,18.9185312 15.0727463,18.9401596 14.9841565,18.9920677 M27.3749668,18.7648832 C27.1306527,18.8924041 27.0398135,19.1974507 27.1739094,19.4376122 C27.299354,19.6774277 27.6044007,19.7661905 27.8378141,19.6429953 C28.0823013,19.5024974 28.1752168,19.1997001 28.0476959,18.9636912 C27.9568567,18.7974123 27.785906,18.7041507 27.6108027,18.7041507 C27.5286148,18.7041507 27.4507527,18.7257791 27.3749668,18.7648832 M15.5096395,17.0410151 C15.1874632,17.2140421 15.07067,17.6163299 15.237295,17.9364299 C15.4144747,18.2544535 15.8146861,18.3778218 16.1325368,18.2047948 C16.4548861,18.0336711 16.5782543,17.6315563 16.402978,17.3071306 C16.2818591,17.0887705 16.0525983,16.9631529 15.8190118,16.9631529 C15.7151956,16.9631529 15.6091301,16.989107 15.5096395,17.0410151 M26.7563953,16.989107 C26.5639892,17.1017476 26.4840508,17.3567894 26.5963453,17.5536941 C26.7024108,17.7547515 26.9533,17.8262117 27.1502047,17.7201461 C27.3512621,17.6120042 27.427048,17.3654407 27.3189061,17.1643834 C27.2410439,17.0216361 27.0981236,16.9437739 26.9512237,16.9437739 C26.8840892,16.9437739 26.8192041,16.9567509 26.7563953,16.989107 M25.5388042,15.3649024 C25.2922407,15.4989984 25.2036509,15.79747 25.3311718,16.0374584 C25.460942,16.2776199 25.7594136,16.3641334 26.0082265,16.2430145 C26.2461386,16.1068423 26.3411304,15.8059483 26.2092839,15.5638835 C26.1184447,15.3995078 25.947494,15.3020936 25.7723907,15.3020936 C25.6945285,15.304343 25.6123407,15.323722 25.5388042,15.3649024 M16.5803307,15.3562511 C16.2147246,15.5573085 16.0785523,15.9987004 16.2775334,16.3682861 C16.4721888,16.7252408 16.9177333,16.8615861 17.2788407,16.6669307 C17.6465231,16.4722753 17.7806191,16.0180794 17.5859637,15.6612977 C17.4518677,15.4124849 17.1945766,15.2674882 16.928461,15.2674882 C16.8095915,15.2652389 16.6905489,15.2956916 16.5803307,15.3562511 M23.8907219,14.1774181 C23.609553,14.3333154 23.5014111,14.6900971 23.6528098,14.9669403 C23.8042084,15.2481092 24.1609901,15.3498491 24.4335076,15.1962011 C24.7212516,15.0448025 24.8250678,14.6944228 24.6693435,14.4153302 C24.5655273,14.2206748 24.3642968,14.1104566 24.1589138,14.1104566 C24.0658252,14.1125329 23.9749861,14.132085 23.8907219,14.1774181 M18.0834163,14.0865789 C17.6769759,14.3071883 17.5210785,14.817791 17.7439373,15.2242315 C17.9645468,15.6329213 18.4727271,15.791068 18.888165,15.5680361 C19.2968548,15.3475997 19.446004,14.83717 19.2276439,14.4305566 C19.0762453,14.145062 18.7864251,13.985012 18.4857041,13.985012 C18.3495319,13.985012 18.2111103,14.0175411 18.0834163,14.0865789 M21.9744478,13.5546938 C21.6500221,13.7254715 21.5375546,14.125683 21.7083322,14.4478593 C21.8772066,14.7677862 22.277245,14.8890782 22.597345,14.7117255 C22.923847,14.5366221 23.0385639,14.13866 22.8677862,13.818387 C22.75082,13.5979506 22.5260579,13.472333 22.2922984,13.472333 C22.1841565,13.4700836 22.0760146,13.4984601 21.9744478,13.5546938 M19.9780621,13.5221648 C19.6169547,13.7168201 19.4892608,14.1689397 19.6775142,14.5257214 C19.8699202,14.8911545 20.3263655,15.0209247 20.6876459,14.830768 C21.0465039,14.6338633 21.1785235,14.1838201 20.9861175,13.8206364 C20.8540979,13.5740729 20.598883,13.4290762 20.3327675,13.4290762 C20.2118216,13.4313256 20.0905297,13.4616053 19.9780621,13.5221648" id="Fill-3" fill="#3F3F3F"></path>
                <path d="M20.7935038,28.6404518 C20.6486802,29.1356551 20.9362511,29.6569855 21.4337037,29.8061348 C21.9354821,29.9575334 22.4611381,29.6697895 22.6037124,29.1723368 C22.7466327,28.6707315 22.4675401,28.1450755 21.9657618,28.0002519 C21.8749226,27.9741248 21.7863328,27.9611477 21.6975699,27.9611477 C21.2909565,27.9611477 20.9146227,28.2272633 20.7935038,28.6404518 M23.5295799,28.1710295 C23.3998097,28.6165741 23.6571008,29.08392 24.0983197,29.2136903 C24.5459406,29.3432875 25.0110372,29.0923983 25.1408075,28.6446044 C25.2705777,28.2035586 25.0196886,27.7362126 24.5718946,27.6064424 C24.4919562,27.5806613 24.4120177,27.5699337 24.3339825,27.5699337 C23.9707988,27.5699337 23.6354725,27.8078458 23.5295799,28.1710295 M17.9991176,28.251141 C17.8326656,28.8307815 18.1548419,29.429801 18.7344824,29.6007517 C19.3077208,29.7651274 19.9153917,29.4341267 20.0776911,28.8653869 C20.2463924,28.2878227 19.9219667,27.6844776 19.3423263,27.5157762 C19.2405864,27.4875728 19.1388465,27.4725195 19.0372796,27.4725195 C18.5680304,27.4725195 18.1354628,27.7794694 17.9991176,28.251141 M15.7108353,27.1480938 C15.5660117,27.6432971 15.8449313,28.1667038 16.348959,28.3160261 C16.8528136,28.4608498 17.374144,28.1732789 17.5232933,27.6780756 C17.6682899,27.1825262 17.3827953,26.6527175 16.881017,26.5056445 C16.7901778,26.4796905 16.701415,26.4667134 16.6149015,26.4667134 C16.2039623,26.4667134 15.8319542,26.7349053 15.7108353,27.1480938 M26.0557743,26.9338864 C25.9561107,27.2820167 26.1595905,27.6496991 26.5077208,27.7536884 C26.8560242,27.8575046 27.2237066,27.6564472 27.3231972,27.3103932 C27.4290897,26.9575911 27.2301086,26.5899087 26.8797289,26.4883418 C26.8170931,26.4687898 26.752208,26.4601384 26.6893992,26.4601384 C26.4039046,26.4601384 26.1422878,26.6506412 26.0557743,26.9338864 M13.8594463,25.3313102 C13.7275997,25.7747784 13.9805652,26.239702 14.4261098,26.3736249 C14.87598,26.5056445 15.3367509,26.2504297 15.4708469,25.8071345 C15.6006171,25.3638393 15.3410766,24.8921676 14.8976084,24.760148 C14.8174969,24.7366164 14.7398077,24.7257157 14.6617726,24.7257157 C14.3006652,24.7257157 13.9696645,24.9636278 13.8594463,25.3313102 M28.0217072,25.0219379 C27.9417687,25.3074325 28.1018187,25.6059041 28.3807382,25.6860156 C28.6684822,25.7702797 28.9669538,25.6081534 29.0489686,25.3247352 C29.1290801,25.0458156 28.9690301,24.7430184 28.6857849,24.6585812 C28.6359531,24.6456042 28.5862943,24.6369528 28.5364626,24.6369528 C28.3072018,24.6369528 28.0931674,24.7883514 28.0217072,25.0219379 M12.7499971,23.0278016 C12.6503336,23.3759319 12.8408363,23.7458637 13.1953686,23.8476036 C13.543672,23.9534961 13.9113544,23.748113 14.0129213,23.3975603 C14.1169105,23.0473536 13.9156801,22.6796712 13.5675497,22.5845064 C13.5026646,22.5649543 13.4377795,22.556303 13.3728944,22.556303 C13.0894761,22.5540536 12.8299356,22.742307 12.7499971,23.0278016 M29.2977814,22.6364145 C29.2394713,22.8461232 29.3583409,23.0710583 29.5659733,23.1316178 C29.782257,23.1942536 30.0006171,23.075384 30.0613496,22.8591003 C30.1262347,22.6514678 30.0071922,22.4265327 29.7909084,22.363897 C29.7542267,22.3529963 29.7194482,22.3486706 29.6827665,22.3486706 C29.5119888,22.3486706 29.3496895,22.4633875 29.2977814,22.6364145 M12.3670883,20.4237451 C12.2826512,20.7069903 12.4492762,21.0013092 12.7326944,21.0855734 C13.0159396,21.1698375 13.3100856,21.0097876 13.3965991,20.724466 C13.4810362,20.4432971 13.3187369,20.1446525 13.0354917,20.0603883 C12.9856599,20.0474113 12.9358281,20.03876 12.8861694,20.03876 C12.6546592,20.03876 12.4406248,20.192408 12.3670883,20.4237451 M29.5163145,19.9392694 C29.429801,20.218189 29.5919273,20.5209863 29.8796712,20.6010978 C30.1629165,20.6853619 30.4570624,20.5232356 30.5435759,20.237741 C30.6257637,19.9586485 30.4679631,19.6603499 30.1802192,19.5759127 C30.1305604,19.5629357 30.0807286,19.5542843 30.0310699,19.5542843 C29.7974834,19.552208 29.5811997,19.705683 29.5163145,19.9392694 M12.8472383,17.8023859 C12.7846025,18.0165933 12.9013958,18.2413554 13.1133538,18.3041642 C13.3273883,18.366973 13.5479977,18.2413554 13.6108065,18.0295703 C13.6734423,17.8196886 13.5523234,17.5970028 13.338289,17.534194 C13.2991849,17.5234663 13.2625031,17.5191406 13.2258214,17.5191406 C13.0548707,17.5168913 12.8970701,17.6293588 12.8472383,17.8023859 M28.8975699,17.2639258 C28.7916774,17.6207075 28.9993098,17.9863136 29.3453638,18.0858041 C29.6978199,18.1896203 30.0634259,17.9883899 30.1651658,17.6380102 C30.268982,17.2876305 30.070001,16.9199481 29.7194482,16.8204576 C29.6568125,16.8009055 29.5919273,16.7922542 29.5292916,16.7922542 C29.243624,16.7922542 28.9799308,16.9805075 28.8975699,17.2639258 M13.8615226,15.3410766 C13.7772585,15.6222455 13.9416341,15.9207171 14.2250524,16.0006556 C14.5082976,16.0830164 14.8024435,15.9229665 14.888957,15.6417976 C14.9777199,15.3606287 14.8090186,15.0642334 14.5278497,14.9777199 C14.4780179,14.9647429 14.4304355,14.9583409 14.382853,14.9583409 C14.1470172,14.9560915 13.9307334,15.1031645 13.8615226,15.3410766 M27.4399904,14.8588503 C27.3079708,15.3085475 27.565435,15.7715678 28.0066538,15.9013381 C28.4521984,16.0311083 28.9150457,15.7736441 29.0489686,15.3280996 C29.1809882,14.8868807 28.9280227,14.4217841 28.4802288,14.2920138 C28.4023666,14.2683091 28.3224281,14.2575815 28.244566,14.2575815 C27.8855349,14.2596578 27.5524579,14.4954936 27.4399904,14.8588503 M15.5876401,13.357841 C15.4838239,13.710297 15.6826319,14.0736538 16.035261,14.1797193 C16.3856407,14.2812862 16.7533231,14.0779794 16.855063,13.7296761 C16.9566298,13.3815457 16.7555724,13.0138633 16.4072691,12.9100471 C16.3446333,12.8927444 16.2818245,12.8840931 16.221265,12.8840931 C15.9336941,12.8820167 15.6719043,13.0700971 15.5876401,13.357841 M25.3916966,12.9922349 C25.2446237,13.4896876 25.5323676,14.0153437 26.0318966,14.1622436 C26.5315986,14.3094896 27.0570816,14.0196693 27.2041546,13.5199673 C27.3534769,13.0225147 27.0679823,12.4968586 26.566204,12.3477093 C26.4774411,12.3217553 26.3866019,12.3087782 26.3000884,12.3087782 C25.8912256,12.3087782 25.5150649,12.5792195 25.3916966,12.9922349 M17.7677804,12.018958 C17.6380102,12.4645025 17.8953014,12.9294261 18.3408459,13.0614457 C18.7820648,13.191216 19.2514871,12.9403268 19.3812573,12.492706 C19.5067019,12.0514871 19.2514871,11.5843141 18.8123445,11.4522945 C18.7344824,11.4284168 18.6566202,11.4199385 18.5787581,11.4199385 C18.213152,11.4176891 17.8779987,11.6556013 17.7677804,12.018958 M22.8331462,11.7983486 C22.6644449,12.3759127 22.9845448,12.9726829 23.5662617,13.1436336 C24.1395001,13.3145843 24.740596,12.9879093 24.9094703,12.4148438 C25.0824974,11.8352033 24.753746,11.2296088 24.1761819,11.0607344 C24.074615,11.0306277 23.9728751,11.0174777 23.8713083,11.0174777 C23.401886,11.019727 22.9713948,11.3268499 22.8331462,11.7983486 M20.3047025,11.4933019 C20.1576295,11.9930039 20.4408747,12.5143343 20.9428261,12.665733 C21.4423551,12.8126329 21.9636855,12.5229857 22.1150841,12.0276093 C22.2642334,11.5280804 21.9787388,11.000348 21.4790368,10.853102 C21.3883707,10.827321 21.2975315,10.8143439 21.2087686,10.8143439 C20.8000788,10.8164203 20.4280707,11.0846121 20.3047025,11.4933019" id="Fill-5" fill="#3F3F3F"></path>
                <path d="M22.9628473,30.9805383 C22.6449966,31.317941 22.66005,31.8543247 22.999529,32.176674 C23.3414304,32.4988503 23.8778141,32.477222 24.1979141,32.1398193 C24.517841,31.8024166 24.505037,31.2639566 24.1631356,30.9438566 C23.99876,30.7902086 23.7890512,30.7145958 23.5834951,30.7145958 C23.3564837,30.7145958 23.1292992,30.8033586 22.9628473,30.9805383 M19.2211381,30.9265539 C18.8145247,31.3568721 18.8340767,32.0425781 19.2687206,32.4448659 C19.7056138,32.8558051 20.3824954,32.836426 20.7870326,32.4038585 C21.1958954,31.9731943 21.1784197,31.2899106 20.7458522,30.8832971 C20.5382197,30.6863924 20.2743536,30.5889782 20.008411,30.5889782 C19.7185908,30.5912275 19.4330962,30.7036951 19.2211381,30.9265539 M26.4493415,29.8861425 C26.1877247,30.1609094 26.2005287,30.5978026 26.4752956,30.8550937 C26.7543882,31.1168836 27.1869557,31.1016572 27.4464962,30.824987 C27.7060367,30.5522965 27.695136,30.1197289 27.4182928,29.8581121 C27.2862732,29.7326675 27.1154955,29.6698587 26.9467942,29.6698587 C26.7651158,29.672108 26.5834375,29.7435682 26.4493415,29.8861425 M15.6913871,29.8408094 C15.2349418,30.31871 15.2565702,31.0864308 15.7455446,31.5494511 C16.2320965,32.0077997 16.9999904,31.984095 17.4541863,31.49737 C17.9104585,31.010818 17.8931558,30.2451735 17.4043545,29.786825 C17.170768,29.5660425 16.8722965,29.4579006 16.5759012,29.4579006 C16.2514755,29.4579006 15.9313756,29.5854215 15.6913871,29.8408094 M29.4015284,27.8186427 C29.2091224,28.0240258 29.2200231,28.3484514 29.4231568,28.5408574 C29.6309622,28.7311872 29.9531385,28.7225358 30.1457176,28.5149034 C30.340373,28.313846 30.3315486,27.987171 30.1240892,27.7970143 C30.026675,27.7039258 29.9012304,27.6563434 29.7737095,27.6563434 L29.7714602,27.6563434 C29.6352879,27.6563434 29.501192,27.7105008 29.4015284,27.8186427 M12.6071806,27.6952744 C12.0815246,28.2619379 12.1076516,29.1312256 12.6677401,29.6634567 C13.2257522,30.1911891 14.1081899,30.1673114 14.6315967,29.6049736 C15.159329,29.0447121 15.133375,28.1688494 14.5732866,27.6367913 C14.3028453,27.3838258 13.961117,27.2582082 13.6193886,27.2582082 C13.2494569,27.2563049 12.8796982,27.4032048 12.6071806,27.6952744 M10.5504085,24.9938037 C10.091887,25.476203 10.1069403,26.2416745 10.5957416,26.7046948 C11.0867923,27.160967 11.8524368,27.135013 12.3066327,26.6526137 C12.7649813,26.1683111 12.7412766,25.3981678 12.2568009,24.9439719 C12.0232145,24.7235355 11.7268192,24.6131443 11.4328463,24.6131443 C11.1127463,24.6108949 10.7883207,24.7429145 10.5504085,24.9938037 M31.2920215,24.7429145 C31.0302317,25.0176814 31.0432087,25.4523253 31.3200519,25.7161915 C31.5991445,25.975732 32.031712,25.962755 32.2933288,25.6815861 C32.550793,25.4069922 32.5398923,24.9721753 32.2652985,24.7126348 C32.1310295,24.5892666 31.9625012,24.5288801 31.7937999,24.5266308 C31.6098722,24.5266308 31.4281938,24.5979179 31.2920215,24.7429145 M9.44078631,21.7171912 C9.03642219,22.1475094 9.05580121,22.8309661 9.48836874,23.2375795 C9.92093627,23.6485187 10.6021436,23.6268903 11.0089301,23.1943228 C11.4155436,22.7640046 11.3959915,22.0826242 10.963424,21.6694357 C10.7557916,21.4747804 10.4919254,21.3775392 10.2280592,21.3775392 C9.94031529,21.3775392 9.65482072,21.4922561 9.44078631,21.7171912 M32.1722099,21.1981102 C31.85211,21.5375892 31.871489,22.0739729 32.211141,22.3940729 C32.5551187,22.7184985 33.0871768,22.6991195 33.4093531,22.3573911 C33.729453,22.0177391 33.7187254,21.4834317 33.3726713,21.1612554 C33.210372,21.0076074 33.0027396,20.9319946 32.7930309,20.9319946 C32.5658464,20.9340709 32.338835,21.0228338 32.1722099,21.1981102 M9.50134577,18.3021571 C9.18557147,18.6437124 9.19422282,19.1757705 9.53820052,19.4958704 C9.87767952,19.8180467 10.4140633,19.7986677 10.7362395,19.461265 C11.0563395,19.121786 11.0369605,18.5810766 10.7018072,18.263053 C10.5351822,18.1075017 10.3253004,18.0317159 10.117841,18.0317159 C9.89273287,18.0337922 9.66797078,18.122382 9.50134577,18.3021571 M31.8996924,17.4671287 C31.4910026,17.8996962 31.512631,18.5810766 31.9472748,18.9875171 C32.3798424,19.3984562 33.063299,19.3747515 33.4676632,18.942184 C33.876526,18.5116928 33.8548976,17.8304854 33.4223301,17.423872 C33.2146977,17.2271402 32.9485821,17.129726 32.6826396,17.129726 C32.3971451,17.1274767 32.1116505,17.2423666 31.8996924,17.4671287 M10.6196193,14.9755397 C10.3578295,15.2503066 10.3728828,15.6828742 10.649726,15.944664 C10.9244929,16.2019552 11.3570605,16.1910545 11.6186773,15.918537 C11.8740652,15.6437701 11.8631645,15.2112025 11.5885706,14.951662 C11.456551,14.8263905 11.2878497,14.7635817 11.1191483,14.7635817 C10.93747,14.7615053 10.7557916,14.8348688 10.6196193,14.9755397 M30.5999135,14.0088378 C30.1412189,14.4933135 30.1607709,15.2610343 30.6518216,15.7195559 C31.1406229,16.1780775 31.9062674,16.1500471 32.3604633,15.6676478 C32.8210612,15.1788465 32.7994329,14.4175276 32.3085552,13.9548534 C32.0770451,13.7363203 31.7806498,13.6281784 31.4844276,13.6281784 C31.1600019,13.6281784 30.8378256,13.7556993 30.5999135,14.0088378 M12.7629049,12.1444718 C12.5682495,12.3521042 12.5769009,12.6720311 12.782457,12.8666865 C12.9921657,13.0635913 13.314515,13.0528636 13.5046717,12.8473075 C13.6993271,12.6396751 13.6885994,12.3174988 13.4852927,12.1228434 C13.3837258,12.0318312 13.2560319,11.9866712 13.1305873,11.9866712 C12.9964914,11.9844218 12.8623955,12.0384062 12.7629049,12.1444718 M28.2811785,11.056651 C27.7513698,11.6144901 27.7729982,12.4905258 28.335336,13.0203345 C28.8933481,13.5523926 29.7757858,13.5222859 30.3014419,12.9684264 C30.8290012,12.4040123 30.8032202,11.5236509 30.2450351,10.9959185 C29.9747669,10.742953 29.6330385,10.6173354 29.2933865,10.6173354 C28.9236278,10.6173354 28.5538691,10.7645814 28.2811785,11.056651 M15.4621263,9.83456118 C15.2025858,10.1091551 15.2155628,10.5394732 15.4901567,10.8035124 C15.7671729,11.0608036 16.2018168,11.0499029 16.4613573,10.7732327 C16.7208978,10.4984658 16.7079208,10.0636489 16.4333269,9.80635778 C16.299058,9.68316255 16.1305297,9.62035374 15.9618283,9.62035374 C15.7779006,9.62035374 15.5982986,9.6918139 15.4621263,9.83456118 M25.4566856,9.16408151 C24.998164,9.64855715 25.017543,10.4119523 25.504268,10.8727233 C25.9885706,11.3310718 26.7607902,11.3073671 27.2149861,10.8251408 C27.6712583,10.3384158 27.6518793,9.57069499 27.1653273,9.11424974 C26.9294915,8.89381332 26.6310199,8.78342209 26.3325483,8.78342209 C26.0146977,8.78117274 25.6945977,8.910943 25.4566856,9.16408151 M18.7129578,8.5195559 C18.3926848,8.86128424 18.4079112,9.39541863 18.7496395,9.71984428 C19.0891185,10.0378679 19.6255023,10.0203922 19.9478516,9.6809132 C20.2658752,9.34126117 20.2506489,8.80280112 19.9109968,8.48287417 C19.7467942,8.32922618 19.5389888,8.25344035 19.3315294,8.25344035 C19.1043449,8.2556897 18.8794098,8.34427953 18.7129578,8.5195559 M22.1193406,8.2556897 C21.7127271,8.68825723 21.7322792,9.3696376 22.166923,9.77607805 C22.5994905,10.1847679 23.2806979,10.1653888 23.685235,9.7328213 C24.0940979,9.29800442 24.0702201,8.62112275 23.639902,8.2101836 C23.4320965,8.01552821 23.1682303,7.92053638 22.9045372,7.92053638 C22.6190426,7.92053638 22.3312987,8.03283091 22.1193406,8.2556897" id="Fill-7" fill="#3F3F3F"></path>
                <path d="M23.5294934,34.5167779 C23.1336076,34.575261 22.8590137,34.9451927 22.9173238,35.3429818 C22.975807,35.740944 23.3457387,36.0134615 23.7414515,35.9551514 C24.1394136,35.8968413 24.4162568,35.5291589 24.3556974,35.1310237 C24.3037893,34.767667 23.9902643,34.5081265 23.6333096,34.5081265 C23.6009536,34.5081265 23.5640988,34.5103759 23.5294934,34.5167779 M19.5195924,34.3847582 C19.0157378,34.4864981 18.6890628,34.9775488 18.7908027,35.4791541 C18.8923695,35.9852581 19.3834202,36.3119331 19.8872748,36.2103662 C20.3890532,36.10655 20.7178045,35.6198251 20.6162376,35.1116447 C20.5274748,34.6704258 20.138164,34.3653792 19.7035201,34.3653792 C19.6429607,34.3653792 19.5824012,34.3719542 19.5195924,34.3847582 M27.1500836,33.5435009 C26.8083553,33.6884975 26.6483053,34.088536 26.7976276,34.4302643 C26.9467769,34.7763184 27.344739,34.9320427 27.6864674,34.7849697 C28.0304451,34.6378968 28.190322,34.2378583 28.0411727,33.8938806 C27.9307815,33.6386658 27.6800654,33.4851908 27.4182755,33.4851908 C27.3295126,33.4872671 27.2409228,33.5045698 27.1500836,33.5435009 M15.6114313,33.2407036 C15.0101625,33.3943516 14.6468057,34.0063482 14.8002807,34.6098664 C14.9537556,35.2175372 15.5659252,35.5765683 16.1692704,35.4229203 C16.7727886,35.267369 17.1382217,34.6595251 16.9847467,34.0539306 C16.8549764,33.5435009 16.3964549,33.2060982 15.8926002,33.2060982 C15.7995117,33.2060982 15.7065962,33.2149226 15.6114313,33.2407036 M30.3446813,31.577568 C30.0309834,31.8284572 29.9769989,32.2849024 30.2256388,32.5984274 C30.4744516,32.916278 30.9329732,32.9638604 31.2464981,32.71747 C31.5622724,32.4664078 31.6164299,32.0122119 31.3655407,31.6943612 C31.2226204,31.5126829 31.0108353,31.4197674 30.7966279,31.4197674 C30.6386542,31.4216707 30.4787773,31.4715025 30.3446813,31.577568 M12.0382505,31.0737134 C11.29856,31.3028011 10.8855446,32.090247 11.119131,32.8320138 C11.3506412,33.5781063 12.1356647,33.9867961 12.8753552,33.7533827 C13.617122,33.5241219 14.0325598,32.7390983 13.8010497,31.9969855 C13.6127963,31.3958896 13.0570335,31.0088282 12.458014,31.0088282 C12.3173431,31.0088282 12.1768451,31.0304566 12.0382505,31.0737134 M33.000646,28.5712237 C32.5810555,28.8695223 32.4815649,29.4493358 32.7777872,29.8689263 C33.0785081,30.2905931 33.6558993,30.3880073 34.0775661,30.091612 C34.4950803,29.7953898 34.5945708,29.2155763 34.2960992,28.7918331 C34.1144208,28.5364453 33.8268499,28.400273 33.5347804,28.400273 C33.3510257,28.400273 33.1627723,28.4544305 33.000646,28.5712237 M9.09471499,28.2229203 C8.29446506,28.5215649 7.88127655,29.412481 8.17992118,30.2127309 C8.47839277,31.0216322 9.3715582,31.4261694 10.1697318,31.1276978 C10.9741344,30.8292262 11.3850735,29.9445391 11.0866019,29.1356378 C10.8552648,28.5127406 10.2626473,28.1255061 9.63317505,28.1255061 C9.45374603,28.1255061 9.27206767,28.1580352 9.09471499,28.2229203 M34.852035,24.9419821 C34.3263789,25.2773085 34.1685783,25.9713198 34.5016553,26.4969759 C34.8345593,27.0247083 35.531166,27.1783562 36.056649,26.8473556 C36.5800558,26.5142786 36.7401057,25.8221705 36.4049524,25.2921888 C36.190745,24.9528828 35.8230626,24.7689551 35.4510545,24.7689551 C35.2454984,24.7667058 35.038039,24.8231126 34.852035,24.9419821 M6.95558204,24.7494031 C6.10134769,25.1170855 5.70338556,26.1055888 6.07331731,26.9662251 C6.44099971,27.8227088 7.43798135,28.214269 8.29013938,27.8465866 C9.14454677,27.4766548 9.53818322,26.4839988 9.16825147,25.6297645 C8.8936576,24.9916409 8.27283668,24.6132308 7.62173604,24.6132308 C7.39905027,24.6109814 7.17186581,24.6542382 6.95558204,24.7494031 M5.85703355,21.1265635 C5.09346535,21.5030703 4.77336538,22.4308411 5.15610112,23.2009843 C5.53693358,23.9687052 6.46903009,24.2801538 7.23467461,23.9015707 C8.00031914,23.5231606 8.31609343,22.5931404 7.93543401,21.8274959 C7.66291647,21.2779621 7.12013073,20.9644372 6.55121792,20.9644372 C6.31555513,20.9644372 6.07764299,21.0165183 5.85703355,21.1265635 M35.7258214,20.8562953 C35.050843,21.2347054 34.8087782,22.0934384 35.1894377,22.7703201 C35.5699241,23.4496241 36.4265808,23.6852869 37.1013861,23.3046275 C37.7782678,22.9239681 38.0205056,22.0718101 37.6377699,21.392679 C37.3803057,20.9341575 36.9044814,20.6746169 36.4136038,20.6746169 C36.1820936,20.6746169 35.9441815,20.7353494 35.7258214,20.8562953 M5.80287609,17.3590733 C5.12599442,17.7374834 4.88583293,18.5918908 5.26649236,19.2710218 C5.64507546,19.9458272 6.50155917,20.187892 7.17844083,19.8072325 C7.85549553,19.4288225 8.095484,18.5702624 7.71482457,17.8932077 C7.4575334,17.4346861 6.98170912,17.177395 6.49065846,17.177395 C6.25914832,17.177395 6.02123618,17.2334557 5.80287609,17.3590733 M35.6739133,16.7598808 C34.9082688,17.1382909 34.5924945,18.0683111 34.9731539,18.8339556 C35.3558896,19.6061751 36.2836605,19.9153744 37.049478,19.534888 C37.8151226,19.1564779 38.1308969,18.2306104 37.7502374,17.4606402 C37.4797962,16.9156051 36.9283591,16.5998308 36.35737,16.5998308 C36.1281092,16.5998308 35.8943497,16.6517389 35.6739133,16.7598808 M6.84968951,13.814269 C6.3262828,14.1471729 6.16623282,14.8415303 6.50138614,15.3692627 C6.83238681,15.8947457 7.53106988,16.0527194 8.05430357,15.7217187 C8.58220898,15.3886417 8.73793329,14.6901317 8.40468326,14.1622263 C8.19064885,13.8227473 7.82729213,13.6389926 7.4530347,13.6389926 C7.24765164,13.6389926 7.03776987,13.6973027 6.84968951,13.814269 M34.6205248,12.8171143 C33.7640411,13.187046 33.3683284,14.173127 33.7380871,15.03186 C34.1057695,15.8860944 35.0985985,16.2818072 35.9528328,15.9141248 C36.8072402,15.5445391 37.202953,14.5515371 36.8331943,13.6973027 C36.5584274,13.0591791 35.9376065,12.6786927 35.2866788,12.6786927 C35.0639931,12.6786927 34.8368086,12.7240258 34.6205248,12.8171143 M8.83084879,10.5741651 C8.41125829,10.8728098 8.30969144,11.4479516 8.60816303,11.8718677 C8.90663462,12.2893819 9.48610209,12.3886994 9.90361626,12.0924772 C10.3232068,11.7940056 10.4226973,11.2122888 10.1264751,10.7970239 C9.94479669,10.5395597 9.65705277,10.4033875 9.36723253,10.4033875 C9.18330482,10.4033875 8.99522445,10.4573719 8.83084879,10.5741651 M32.7366067,9.53185043 C31.9322042,9.830149 31.521265,10.7169124 31.8197366,11.5235644 C32.1182082,12.328313 33.0092973,12.7370028 33.8095472,12.4407805 C34.6118735,12.1443853 35.0228127,11.2512198 34.7264174,10.4487206 C34.4930039,9.82149764 33.9024628,9.43651254 33.2752398,9.43651254 C33.0958108,9.43443622 32.9141325,9.4669653 32.7366067,9.53185043 M11.6598404,7.94415457 C11.3461425,8.19279439 11.292158,8.64923964 11.5407978,8.96501394 C11.79186,9.28078823 12.2502086,9.33269634 12.5618302,9.08405652 C12.8774315,8.83316736 12.9338383,8.37897145 12.6827761,8.06302413 C12.5379525,7.88151879 12.3282438,7.78843026 12.1140363,7.78843026 C11.9539864,7.78843026 11.7939364,7.84033836 11.6598404,7.94415457 M30.0309834,6.90824185 C29.2912929,7.13957897 28.8739517,7.92477555 29.1075382,8.66861867 C29.336799,9.40848217 30.1283976,9.82149764 30.8680881,9.59016053 C31.6098548,9.35882342 32.020794,8.56930116 31.7894569,7.82961069 C31.6012035,7.22834182 31.0495934,6.84335672 30.4528232,6.84335672 C30.3142286,6.84335672 30.1716543,6.8649851 30.0309834,6.90824185 M15.2198712,5.87855811 C14.8760665,6.02580409 14.7158435,6.42151687 14.8651658,6.76757089 C15.0122388,7.10947227 15.4122772,7.2672729 15.7540056,7.12019994 C16.0959069,6.97312698 16.2580333,6.57291551 16.108884,6.23343651 C15.9984927,5.97597232 15.7498529,5.82457368 15.4880631,5.82457368 C15.4015496,5.82249736 15.308634,5.84187638 15.2198712,5.87855811 M26.7370682,5.24060752 C26.1357993,5.3942555 25.7681169,6.00642507 25.9236682,6.61201961 C26.0795655,7.21311545 26.6938114,7.58079785 27.2950803,7.42507354 C27.8963491,7.27159858 28.2617822,6.65527636 28.1081342,6.05608382 C27.9762876,5.54340479 27.5198424,5.20807844 27.0159877,5.20807844 C26.9273979,5.20617514 26.83206,5.21690282 26.7370682,5.24060752 M19.1648871,4.70872248 C18.7691743,4.76910891 18.4944074,5.13471499 18.5506412,5.53250409 C18.6112006,5.93063924 18.9809593,6.20298375 19.3768451,6.14467365 C19.7727309,6.08636355 20.0495742,5.71868115 19.991091,5.32071902 C19.9391829,4.95943862 19.6277343,4.69989811 19.2709526,4.69989811 C19.2363472,4.69989811 19.2017418,4.70214746 19.1648871,4.70872248 M23.0211401,4.45333462 C22.5152091,4.5550745 22.1885341,5.03955013 22.2901009,5.54773046 C22.3918408,6.04968182 22.8806421,6.37601077 23.3846698,6.27669326 C23.8885245,6.17495338 24.2150264,5.68615207 24.1134596,5.18229741 C24.0248697,4.73882918 23.6376353,4.43395559 23.2029914,4.43395559 C23.1467577,4.43603191 23.0839489,4.44260694 23.0211401,4.45333462" id="Fill-9" fill="#3F3F3F"></path>
                <g id="Group-13" transform="translate(0.000000, 0.002249)">
                    <mask id="mask-2" fill="white">
                        <use xlink:href="#path-1"></use>
                    </mask>
                    <g id="Clip-12"></g>
                    <path d="M20.5859233,39.6232202 C20.5859233,40.1031972 20.9752341,40.4883553 21.4510583,40.4883553 C21.9312083,40.4883553 22.3205191,40.1031972 22.3205191,39.6209709 C22.3205191,39.1430703 21.9312083,38.7558358 21.4510583,38.7558358 C20.9752341,38.7558358 20.5859233,39.1430703 20.5859233,39.6232202 M15.5594886,38.7234798 C15.427642,39.2209324 15.7238643,39.7291128 16.2190676,39.8611324 C16.7165202,39.9950553 17.2269499,39.7010824 17.3610459,39.2036297 C17.4930655,38.7082534 17.1989195,38.1979967 16.6992175,38.0637278 C16.6192791,38.0420994 16.5391675,38.0313717 16.4592291,38.0313717 C16.0503662,38.033448 15.6719562,38.3061386 15.5594886,38.7234798 M26.2049755,38.0659771 C25.7095992,38.1999 25.4133769,38.7105027 25.5452235,39.2079554 C25.6793194,39.7031587 26.1897491,39.9973046 26.6851254,39.8633817 C27.1825781,39.7313621 27.4810497,39.2230087 27.3469538,38.7234798 C27.2367356,38.3080419 26.8581525,38.033448 26.444964,38.033448 C26.3671018,38.033448 26.2871633,38.0420994 26.2049755,38.0659771 M10.6389465,36.7921523 C10.5005248,37.4410036 10.9137134,38.0701298 11.5559896,38.2087244 C12.1984389,38.3448967 12.8320638,37.9339575 12.9684091,37.2896049 C13.1045814,36.6471556 12.6936422,36.0112814 12.051366,35.8749361 C11.9691781,35.8576334 11.8847409,35.8491551 11.8048025,35.8491551 C11.2531923,35.8491551 10.757989,36.2339671 10.6389465,36.7921523 M30.8528271,35.8749361 C30.2083015,36.0112814 29.7973623,36.6449063 29.9359569,37.2896049 C30.0721292,37.9362069 30.7057541,38.3448967 31.3502797,38.2087244 C31.992729,38.0723791 32.4059175,37.4410036 32.2673229,36.7921523 C32.1484533,36.2339671 31.653077,35.8491551 31.1016399,35.8491551 C31.0217014,35.8491551 30.9372643,35.8576334 30.8528271,35.8749361 M6.38680765,33.7444545 C6.26136307,34.5383024 6.7977468,35.2715909 7.58501971,35.3970355 C8.37454196,35.5224801 9.11198308,34.990422 9.23967702,34.1967471 C9.3651216,33.4093012 8.82666154,32.67186 8.03713929,32.5464155 C7.96152648,32.5332654 7.8834913,32.5291128 7.81012785,32.5291128 C7.11144478,32.5291128 6.49927521,33.0352168 6.38680765,33.7444545 M34.8715524,32.5464155 C34.0841065,32.67186 33.5433971,33.4093012 33.671091,34.1986504 C33.7965356,34.990422 34.5362261,35.5224801 35.323499,35.3991118 C36.1085225,35.2736672 36.649232,34.5405518 36.521711,33.7467038 C36.4092435,33.0352168 35.7927482,32.5291128 35.0963145,32.5291128 C35.0229511,32.5268634 34.9471652,32.5332654 34.8715524,32.5464155 M2.95654715,29.7864616 C2.85273094,30.7794636 3.56871672,31.659652 4.55704701,31.7634682 C5.54555032,31.8672844 6.43231376,31.1556243 6.53388061,30.1629684 C6.63769682,29.1744651 5.91963472,28.2877016 4.93130443,28.1840584 C4.8664193,28.1752341 4.8036105,28.1731577 4.74097472,28.1731577 C3.83258291,28.1752341 3.05396136,28.8630164 2.95654715,29.7864616 M37.9728886,28.1859617 C36.9866346,28.289951 36.2664962,29.1767144 36.3703124,30.1650447 C36.4741286,31.1578737 37.3629684,31.8693608 38.3493954,31.7655446 C39.3377257,31.6617283 40.0557878,30.7813669 39.9498952,29.7887109 C39.852481,28.8630164 39.0738595,28.1774834 38.1632183,28.1774834 C38.1005825,28.1752341 38.0356974,28.1774834 37.9728886,28.1859617 M0.83056426,25.2187215 C0.774330482,26.3217687 1.61783716,27.2474632 2.70790733,27.303697 C3.80437951,27.3599308 4.73889839,26.5294011 4.7972085,25.4263539 C4.8555186,24.3319581 4.01426127,23.3976122 2.91986542,23.3412054 C2.88526002,23.3393021 2.85065462,23.3393021 2.81604922,23.3393021 C1.76491012,23.3393021 0.884548688,24.1611804 0.83056426,25.2187215 M39.9865769,23.3412054 C38.8965068,23.3976122 38.0550764,24.3319581 38.1113102,25.4263539 C38.167544,26.5271518 39.1018898,27.3599308 40.198535,27.303697 C41.2886052,27.2474632 42.1321119,26.3217687 42.0758781,25.2187215 C42.0217207,24.1611804 41.1415323,23.3393021 40.0924695,23.3393021 C40.0557878,23.3393021 40.0211824,23.3393021 39.9865769,23.3412054 M3.46054023e-05,20.3284591 C3.46054023e-05,21.5202692 0.971062194,22.4892204 2.16287225,22.4892204 C3.35243295,22.4892204 4.31705854,21.5202692 4.31705854,20.3263828 C4.31705854,19.1281707 3.35243295,18.1720235 2.16287225,18.1720235 C0.971062194,18.1701202 3.46054023e-05,19.1281707 3.46054023e-05,20.3284591 M38.5871345,20.3263828 C38.5871345,21.5202692 39.5517601,22.4892204 40.7435701,22.4892204 C41.9374565,22.4892204 42.9041584,21.5202692 42.9041584,20.3284591 C42.9041584,19.1281707 41.9374565,18.1701202 40.7478958,18.1701202 C39.5517601,18.1701202 38.5871345,19.1281707 38.5871345,20.3263828 M2.70565798,13.3533942 C1.61783716,13.409628 0.77208113,14.3373988 0.828314909,15.4383697 C0.886798039,16.5327655 1.82322022,17.3740229 2.91761607,17.3177891 C4.01201192,17.259479 4.85119293,16.3251331 4.79495915,15.2305643 C4.73872537,14.1666212 3.86493896,13.3511449 2.81379987,13.3511449 C2.77919446,13.3488955 2.74026339,13.3511449 2.70565798,13.3533942 M38.1135596,15.228661 C38.0573258,16.3228838 38.8965068,17.2572296 39.9886533,17.3157128 C41.0852985,17.3717735 42.0217207,16.5327655 42.0779544,15.4361203 C42.1364376,14.3373988 41.2906815,13.409628 40.2006114,13.3511449 C40.1639296,13.3488955 40.1272479,13.3488955 40.0924695,13.3488955 C39.0435797,13.3488955 38.1697933,14.1643718 38.1135596,15.228661 M4.55704701,8.89154667 C3.56646737,8.99518985 2.85065462,9.87762761 2.95654715,10.8704566 C3.06036336,11.8587869 3.94280112,12.577022 4.93338076,12.4730328 C5.92188407,12.3692166 6.63994617,11.4824531 6.53612996,10.4939498 C6.43871576,9.56617899 5.65801788,8.88272229 4.74962607,8.88272229 C4.68474094,8.88272229 4.61985581,8.88272229 4.55704701,8.89154667 M36.3703124,10.4939498 C36.2664962,11.4824531 36.9866346,12.3692166 37.9728886,12.4730328 C38.9634682,12.577022 39.8481553,11.8587869 39.9497222,10.8704566 C40.0535384,9.87762761 39.3377257,8.99518985 38.3492223,8.89154667 C38.2843372,8.88497164 38.2217014,8.88272229 38.1588926,8.88272229 C37.2527502,8.88272229 36.4675536,9.56617899 36.3703124,10.4939498 M7.58501971,5.25988273 C6.79999615,5.38550034 6.26136307,6.11861578 6.38680765,6.91038739 C6.51017591,7.69748726 7.24986638,8.23612035 8.03713929,8.11292512 C8.82666154,7.98730751 9.3651216,7.24554071 9.23967702,6.45826781 C9.12720946,5.74453139 8.51296357,5.2405037 7.81652985,5.2405037 C7.73866769,5.24275305 7.66288186,5.24707873 7.58501971,5.25988273 M33.671091,6.46034413 C33.5456464,7.24779006 34.0841065,7.98955686 34.8715524,8.11482841 C35.6543266,8.24044603 36.3983428,7.69973661 36.521711,6.91246371 C36.6471556,6.12086514 36.1064462,5.38774969 35.323499,5.25988273 C35.2456368,5.24915505 35.169851,5.24275305 35.0942382,5.24275305 C34.3957282,5.24275305 33.7835586,5.74660771 33.671091,6.46034413 M11.5559896,2.45269249 C10.9137134,2.58886475 10.5005248,3.21833702 10.6368701,3.86718831 C10.7730424,4.5096376 11.4068403,4.92057676 12.0491166,4.78215515 C12.6936422,4.64580986 13.1045814,4.01218495 12.9684091,3.3674863 C12.8495396,2.80739787 12.3562395,2.42656541 11.8068788,2.42656541 C11.724691,2.42656541 11.6404268,2.43331347 11.5559896,2.45269249 M29.9357839,3.3674863 C29.7996117,4.01218495 30.2105508,4.64580986 30.8528271,4.78215515 C31.4975257,4.91832741 32.1289013,4.50738825 32.2673229,3.86718831 C32.4059175,3.21833702 31.992729,2.58886475 31.3502797,2.45494184 C31.2660156,2.43746612 31.1815784,2.42881476 31.0973142,2.42881476 C30.5479535,2.42656541 30.0548265,2.80739787 29.9357839,3.3674863 M16.2190676,0.795958858 C15.7238643,0.927805441 15.4253927,1.4361588 15.5594886,1.93361146 C15.6913352,2.43106412 16.2062636,2.72521004 16.6992175,2.5911141 C17.1966702,2.45909449 17.4930655,1.94883784 17.3610459,1.44913583 C17.2485783,1.033871 16.8744939,0.761180429 16.4635547,0.761180429 C16.3834432,0.76342978 16.3012554,0.77208113 16.2190676,0.795958858 M25.5474728,1.45138518 C25.4133769,1.95074113 25.7095992,2.45909449 26.2049755,2.5911141 C26.7024281,2.72521004 27.2151072,2.43106412 27.3469538,1.93361146 C27.4810497,1.4361588 27.1825781,0.927805441 26.6851254,0.793709507 C26.6050139,0.77208113 26.5229991,0.761180429 26.4428876,0.761180429 C26.0340248,0.76342978 25.6599404,1.03594732 25.5474728,1.45138518 M20.5859233,1.03594732 C20.5859233,1.51627031 20.9752341,1.90333173 21.4510583,1.90333173 C21.9312083,1.90333173 22.3205191,1.51627031 22.3205191,1.03594732 C22.3205191,0.553721042 21.9312083,0.170812266 21.4510583,0.170812266 C20.9752341,0.170812266 20.5859233,0.553721042 20.5859233,1.03594732" id="Fill-11" fill="#3F3F3F" mask="url(#mask-2)"></path>
                </g>
            </g>
        </g>
    </g>
</svg>