<?xml version="1.0" encoding="UTF-8"?>
<svg width="184px" height="27px" viewBox="0 0 184 27" version="1.1" xmlns="http://www.w3.org/2000/svg" xmlns:xlink="http://www.w3.org/1999/xlink">
    <!-- Generator: Sketch 52.5 (67469) - http://www.bohemiancoding.com/sketch -->
    <title>Group 28</title>
    <desc>Created with Sketch.</desc>
    <defs>
        <polygon id="path-1" points="0.593858633 0.449191094 10.9798677 0.449191094 10.9798677 16.157953 0.593858633 16.157953"></polygon>
        <polygon id="path-3" points="0 25.8527248 183.331366 25.8527248 183.331366 0 0 0"></polygon>
    </defs>
    <g id="MAIN_16.10" stroke="none" stroke-width="1" fill="none" fill-rule="evenodd" opacity="0.4">
        <g id="Group-2" transform="translate(0.000000, -6.000000)">
            <g id="Group-28" transform="translate(0.000000, 6.796117)">
                <polygon id="Fill-1" fill="#3F3F3F" points="68.9121615 10.1013059 68.9121615 21.5443682 64.7315605 21.5443682 64.7315605 10.1013059 60.5078716 10.1013059 60.5078716 6.4593033 73.1358504 6.4593033 73.1358504 10.1013059"></polygon>
                <g id="Group-27">
                    <path d="M77.7665043,12.8595762 C76.8832029,12.8595762 76.3876923,13.4628064 76.2584287,14.5830912 L79.4910965,14.5830912 C79.2961239,13.4412625 78.908333,12.8595762 77.7665043,12.8595762 M82.8950386,16.9970894 L76.2584287,16.9970894 C76.3876923,18.2466377 77.119109,18.8067801 78.1758391,18.8067801 C79.1668603,18.8067801 79.9866071,18.5913407 81.1068918,18.0096544 L82.5923463,20.4882844 C81.1930676,21.3058768 79.7485466,21.7809207 77.9819437,21.7809207 C74.5769244,21.7809207 72.7026019,19.3669225 72.7026019,15.8972714 C72.7026019,11.9978187 74.9000835,9.99315534 77.874224,9.99315534 C80.976551,9.99315534 82.9165825,12.0409066 82.9165825,16.2419744 C82.9165825,16.5662106 82.9165825,16.8031939 82.8950386,16.9970894" id="Fill-2" fill="#3F3F3F"></path>
                    <path d="M90.1110727,21.7805975 C86.7933064,21.7805975 84.8101869,19.6692916 84.8101869,15.8549375 C84.8101869,12.3852864 86.577867,9.99390938 90.1972485,9.99390938 C92.3311754,9.99390938 93.5591799,10.9849305 94.550201,12.5791819 L91.8787528,14.604312 C91.3401543,13.6132909 90.9728302,13.1393242 90.1336938,13.1393242 C89.1415955,13.1393242 88.646085,14.1303453 88.646085,15.9195693 C88.646085,17.7087933 89.1846834,18.6341054 90.2403363,18.6341054 C90.9728302,18.6341054 91.4898847,18.2247706 92.2008346,17.1691177 L94.6579207,19.0865281 C93.3437405,21.0265597 92.1146589,21.7805975 90.1110727,21.7805975" id="Fill-4" fill="#3F3F3F"></path>
                    <path d="M103.339373,21.5439373 L103.339373,15.1216896 C103.339373,13.6567019 102.843863,13.268911 102.046737,13.268911 C101.22699,13.268911 100.73148,13.6567019 100.73148,15.0786017 L100.73148,21.5439373 L96.8535711,21.5439373 L96.8535711,7.38633892 L100.73148,5.83517543 L100.73148,10.9841765 C101.44243,10.445578 102.239555,9.99315534 103.576357,9.99315534 C106.054987,9.99315534 107.239903,11.6520385 107.239903,14.6261791 L107.239903,21.5439373 L103.339373,21.5439373 Z" id="Fill-6" fill="#3F3F3F"></path>
                    <path d="M116.524478,21.7805975 C112.042262,21.7805975 109.649808,18.461754 109.649808,14.0010817 C109.649808,9.15261862 112.494685,6.22264314 116.546022,6.22264314 C120.252657,6.22264314 121.717645,7.81689451 122.751754,10.6617714 L118.960021,12.1483031 C118.420345,10.7479472 117.90329,9.86356856 116.524478,9.86356856 C114.77942,9.86356856 114.025382,11.6097047 114.025382,14.0010817 C114.025382,16.3073602 114.756798,18.1385949 116.567566,18.1385949 C117.881747,18.1385949 118.441889,17.427645 119.260559,16.0057451 L122.794841,17.8800676 C121.782276,19.8631871 120.100772,21.7805975 116.524478,21.7805975" id="Fill-8" fill="#3F3F3F"></path>
                    <path d="M132.336328,14.4969154 C131.840818,13.958317 131.281752,13.5489822 130.526637,13.5489822 C129.577627,13.5489822 128.995941,14.0014049 128.995941,15.3802169 L128.995941,21.5439373 L125.118032,21.5439373 L125.118032,10.2301386 L128.995941,10.2301386 L128.995941,11.0488083 C129.66488,10.4024901 130.418918,9.99315534 131.411016,9.99315534 C132.228608,9.99315534 132.789828,10.1870508 133.242251,10.467122 L132.336328,14.4969154 Z" id="Fill-10" fill="#3F3F3F"></path>
                    <path d="M141.55778,21.5439373 L141.55778,20.7888223 C140.867296,21.3274208 140.049704,21.7809207 138.735524,21.7809207 C136.256894,21.7809207 135.071977,20.1220375 135.071977,17.1468197 L135.071977,10.2301386 L138.972507,10.2301386 L138.972507,16.6523864 C138.972507,18.1162969 139.468018,18.505165 140.265143,18.505165 C141.062269,18.505165 141.55778,18.1162969 141.55778,16.6943971 L141.55778,10.2301386 L145.45831,10.2301386 L145.45831,21.5439373 L141.55778,21.5439373 Z" id="Fill-12" fill="#3F3F3F"></path>
                    <path d="M154.742885,21.5439373 L154.742885,15.1216896 C154.742885,13.6567019 154.247374,13.268911 153.450249,13.268911 C152.630502,13.268911 152.134991,13.6567019 152.134991,15.0786017 L152.134991,21.5439373 L148.257082,21.5439373 L148.257082,10.2301386 L152.134991,10.2301386 L152.134991,10.9841765 C152.845941,10.445578 153.643067,9.99315534 154.979868,9.99315534 C157.458498,9.99315534 158.643415,11.6520385 158.643415,14.6261791 L158.643415,21.5439373 L154.742885,21.5439373 Z" id="Fill-14" fill="#3F3F3F"></path>
                    <path d="M166.202859,21.7805975 C162.885093,21.7805975 160.901973,19.6692916 160.901973,15.8549375 C160.901973,12.3852864 162.669653,9.99390938 166.289035,9.99390938 C168.422962,9.99390938 169.650966,10.9849305 170.641987,12.5791819 L167.970539,14.604312 C167.431941,13.6132909 167.064617,13.1393242 166.22548,13.1393242 C165.233382,13.1393242 164.737871,14.1303453 164.737871,15.9195693 C164.737871,17.7087933 165.27647,18.6341054 166.332123,18.6341054 C167.064617,18.6341054 167.581671,18.2247706 168.292621,17.1691177 L170.749707,19.0865281 C169.435527,21.0265597 168.206445,21.7805975 166.202859,21.7805975" id="Fill-16" fill="#3F3F3F"></path>
                    <g id="Group-20" transform="translate(172.351499, 5.385984)">
                        <mask id="mask-2" fill="white">
                            <use xlink:href="#path-1"></use>
                        </mask>
                        <g id="Clip-19"></g>
                        <path d="M7.07966097,16.157953 L7.07966097,9.73570529 C7.07966097,8.27071755 6.58415041,7.88292668 5.78702473,7.88292668 C4.96727791,7.88292668 4.47176736,8.27071755 4.47176736,9.69261741 L4.47176736,16.157953 L0.593858633,16.157953 L0.593858633,2.00035458 L4.47176736,0.449191094 L4.47176736,5.59819212 C5.18271729,5.05959369 5.97984297,4.607171 7.31664428,4.607171 C9.79527427,4.607171 10.9801908,6.26605418 10.9801908,9.24019473 L10.9801908,16.157953 L7.07966097,16.157953 Z" id="Fill-18" fill="#3F3F3F" mask="url(#mask-2)"></path>
                    </g>
                    <polygon id="Fill-21" fill="#3F3F3F" points="0 0 0 8.61757494 8.61757494 8.61757494 8.61757494 25.8527248 17.2351499 25.8527248 17.2351499 8.61757494 25.8527248 8.61757494 25.8527248 0"></polygon>
                    <polygon id="Fill-23" fill="#3F3F3F" points="34.4702998 17.2351499 34.4702998 8.61757494 25.8527248 8.61757494 25.8527248 25.8527248 51.7054496 25.8527248 51.7054496 17.2351499"></polygon>
                    <mask id="mask-4" fill="white">
                        <use xlink:href="#path-3"></use>
                    </mask>
                    <g id="Clip-26"></g>
                    <polygon id="Fill-25" fill="#3F3F3F" mask="url(#mask-4)" points="34.4702998 8.61757494 51.7054496 8.61757494 51.7054496 0 34.4702998 0"></polygon>
                </g>
            </g>
        </g>
    </g>
</svg>