<?xml version="1.0" encoding="UTF-8"?>
<svg width="24px" height="24px" viewBox="0 0 24 24" version="1.1" xmlns="http://www.w3.org/2000/svg" xmlns:xlink="http://www.w3.org/1999/xlink">
    <!-- Generator: Sketch 52.6 (67491) - http://www.bohemiancoding.com/sketch -->
    <title>organism / single-technology-kafelka/WEBDEV</title>
    <desc>Created with Sketch.</desc>
    <g id="organism-/-single-technology-kafelka/WEBDEV" stroke="none" stroke-width="1" fill="none" fill-rule="evenodd">
        <path d="M22.59375,14.9534884 L12,14.9534884 L1.40625,14.9534884 L1.40625,3.09302326 C1.40625,2.70837209 1.72171875,2.39534884 2.109375,2.39534884 L12,2.39534884 L21.890625,2.39534884 C22.2782812,2.39534884 22.59375,2.70837209 22.59375,3.09302326 L22.59375,14.9534884 Z M22.59375,17.0465116 C22.59375,17.4311628 22.2782812,17.744186 21.890625,17.744186 L12,17.744186 L2.109375,17.744186 C1.72171875,17.744186 1.40625,17.4311628 1.40625,17.0465116 L1.40625,16.3488372 L12,16.3488372 L22.59375,16.3488372 L22.59375,17.0465116 Z M12,21.9302326 L8.75685937,21.9302326 L9.69435937,19.1395349 L12,19.1395349 L14.3056875,19.1395349 L15.2431875,21.9302326 L12,21.9302326 Z M21.890625,1 L12,1 L2.109375,1 C0.9463125,1 0,1.93897674 0,3.09302326 L0,17.0465116 C0,18.2005581 0.9463125,19.1395349 2.109375,19.1395349 L8.2119375,19.1395349 L7.2744375,21.9302326 L4.96875,21.9302326 C4.58039062,21.9302326 4.265625,22.2425581 4.265625,22.627907 C4.265625,23.0132558 4.58039062,23.3255814 4.96875,23.3255814 L12,23.3255814 L19.03125,23.3255814 C19.4196094,23.3255814 19.734375,23.0132558 19.734375,22.627907 C19.734375,22.2425581 19.4196094,21.9302326 19.03125,21.9302326 L16.7255625,21.9302326 L15.7881094,19.1395349 L21.890625,19.1395349 C23.0537344,19.1395349 24,18.2005581 24,17.0465116 L24,3.09302326 C24,1.93897674 23.0537344,1 21.890625,1 Z" id="Fill-1" fill="#000EE6"></path>
    </g>
</svg>