<?xml version="1.0" encoding="UTF-8"?>
<svg width="45px" height="45px" viewBox="0 0 45 45" version="1.1" xmlns="http://www.w3.org/2000/svg" xmlns:xlink="http://www.w3.org/1999/xlink">
    <!-- Generator: sketchtool 52.3 (67297) - http://www.bohemiancoding.com/sketch -->
    <title>B20E4397-6654-4778-9159-FD41EE9E1E3C</title>
    <desc>Created with sketchtool.</desc>
    <g  stroke="none" stroke-width="1" fill="none" fill-rule="evenodd">
        <g  transform="translate(-219.000000, -7348.000000)" fill="#FFFFFF">
            <g  transform="translate(0.000000, 7057.000000)">
                <g  transform="translate(26.000000, 263.000000)">
                    <g >
                        <g transform="translate(193.000000, 28.000000)">
                            <g>
                                <path d="M45,39.375 L45,5.625 L39.375,5.625 L39.375,0 L25.3125,0 L25.3125,2.8125 L36.5625,2.8125 L36.5625,30.9375 L8.4375,30.9375 L8.4375,2.8125 L11.25,2.8125 L11.25,0 L5.625,0 L5.625,5.625 L0,5.625 L0,39.375 L15.46875,39.375 L15.46875,42.1875 L12.65625,42.1875 L12.65625,45 L32.34375,45 L32.34375,42.1875 L29.53125,42.1875 L29.53125,39.375 L45,39.375 Z M39.375,8.4375 L42.1875,8.4375 L42.1875,30.9375 L39.375,30.9375 L39.375,8.4375 Z M2.8125,8.4375 L5.625,8.4375 L5.625,30.9375 L2.8125,30.9375 L2.8125,8.4375 Z M26.71875,42.1875 L18.28125,42.1875 L18.28125,39.375 L26.71875,39.375 L26.71875,42.1875 Z M15.46875,36.5625 L2.8125,36.5625 L2.8125,33.75 L42.1875,33.75 L42.1875,36.5625 L15.46875,36.5625 Z"  fill-rule="nonzero"></path>
                                <rect  x="19.7524752" y="0" width="2.82178218" height="2.82178218"></rect>
                                <rect  x="13.960396" y="0" width="2.82178218" height="2.82178218"></rect>
                                <polygon  points="14.882878 11.7326733 10.5445545 16.8564356 14.882878 21.980198 17.0792079 20.1784354 14.26802 16.8564356 17.0792079 13.5344359"></polygon>
                                <polygon  points="30.117122 21.980198 34.4554455 16.8564356 30.117122 11.7326733 27.9207921 13.5344359 30.73198 16.8564356 27.9207921 20.1784354"></polygon>
                                <polygon  transform="translate(22.498825, 16.873748) rotate(26.565051) translate(-22.498825, -16.873748) " points="21.0926175 12.157329 23.905032 12.157329 23.905032 21.5901672 21.0926175 21.5901672"></polygon>
                            </g>
                        </g>
                    </g>
                </g>
            </g>
        </g>
    </g>
</svg>
