<svg height="310pt" preserveAspectRatio="xMidYMid meet" viewBox="0 0 310 310" width="310pt" xmlns="http://www.w3.org/2000/svg"><path d="m389 3088c-1-17-1-2386 0-2415 1-19 7-23 31-23 17 0 30-4 30-8s12-9 26-10c15-1 34-8 42-15 13-10 14-9 7 3-6 12-5 13 6 2 7-6 21-12 31-12s18-4 18-9c0-4 10-7 23-7 12 1 31-5 41-13 17-14 18-14 11-1-7 12-6 13 7 3 8-7 18-10 21-6 4 3 7 0 7-8 0-11 2-11 10 1 9 13 10 13 10 0 0-9 9-16 20-17 13-1 18 2 13 10-3 6 8 1 26-12 17-13 38-20 46-17s15 1 15-3c0-5 9-7 20-4s20 0 20-6 11-11 24-11c14 0 28-4 31-10 3-5 19-10 36-10 16 0 29-3 29-8 0-4 14-8 32-9 18 0 34-6 36-12 3-9 8-8 20 1 13 11 15 10 9-4-4-13-2-15 10-11 10 4 14 2 10-4-5-7 0-9 12-6 11 3 21-2 24-11 4-9 12-16 19-16 9 0 9 3-2 11-12 9-11 9 5 4 11-4 26-8 33-8 6 0 12-3 12-7s6-7 13-8c6 0 21-3 32-5 11-3 27-7 35-9 8-1 18-6 21-10 3-5 17-9 32-10s27-5 27-8c0-5 10-7 64-13 13-1 22-5 20-9s0-9 6-13c5-3 10-1 10 6 0 9 5 8 18-2 9-8 31-16 47-18 17-2 33-8 36-13 4-6 11-8 16-5s22-1 38-9c23-12 30-12 37-2 6 10 8 8 8-4 0-11 5-15 15-12 8 4 15 2 15-3 0-8 15-12 58-15 6-1 12-6 12-11s9-7 20-4c14 4 20 0 20-11 0-14 2-14 9-3 6 9 10 10 16 2 5-9 10-9 21 0 12 10 15 10 12-2-2-9 5-14 20-13 12 1 22-3 22-7 0-5 11-9 24-9 14 0 28-4 31-10 3-5 19-10 36-10 16 0 29-4 29-9s8-8 18-6c9 1 28-4 41-12s21-10 17-4c-4 5 5 4 20-4 15-7 33-11 42-8 10 4 13 2 8-5-5-8 3-12 23-12 17 0 31-5 31-11 0-5 4-8 9-4 5 3 13 0 17-6 4-8 9-7 15 2 7 12 9 12 9 0 0-7 6-11 15-7 8 3 15 2 15-3 0-4 7-8 15-9s22-3 30-4 15-5 15-10c0-4 14-8 30-8 17 0 30-4 30-10 0-5 10-9 23-9 12 1 32-2 45-4 18-5 21-3 13 11-6 11-5 24 1 36 8 14 7 17-1 12-6-4-11-2-11 3 0 6 6 11 13 11 8 0 7 4-3 11-11 8-12 12-2 16 6 2 9 10 5 16-11 18-10 57 2 57 5 0 4 4-4 9-9 6-10 11-2 15 6 4 8 12 4 19-3 6-7 38-7 71-1 34-5 67-9 73-6 9-3 11 10 6 14-5 16-3 6 7-9 9-9 19-2 33 8 14 8 18 0 13-6-4-11 0-11 8 0 9 5 16 11 16s7 5 2 12c-4 7-6 21-4 32 2 13-1 16-11 11-10-6-10-5-1 5 6 7 9 19 6 28-5 11-2 13 8 8 8-4 6-1-4 7-16 13-16 15-2 21 9 3 14 10 11 14-3 5-8 23-11 41-4 24-2 31 6 25 8-5 9-3 3 7-14 24-16 51-2 43 10-6 11-4 1 7-7 7-13 17-13 22 0 4 6 5 13 1 6-4 4 1-5 12-17 19-17 21 0 38 9 11 11 16 5 12-9-5-13 0-13 14 0 12 4 18 10 15s7 1 4 9c-3 9-11 13-18 9-6-3-2 4 9 17s15 20 8 17c-6-4-14-3-18 3-3 5-1 10 4 10 6 0 11 9 11 20s-5 20-12 20c-6 0-3 7 8 16 10 8 14 13 8 10-7-3-15 1-18 10-3 8-2 12 4 9s10 3 10 14c0 12-6 21-12 21-9 0-9 3 1 9 13 8 13 12 0 27-9 11-9 15-2 10 10-5 12 3 11 33-1 24-5 38-11 34s-7-1-1 8c11 18 12 59 1 83-8 15-6 18 7 13s15-3 8 10c-5 9-7 25-5 37 4 17 3 18-6 6-6-8-11-10-11-4s3 14 7 18c12 12 12 76-1 69-6-4-5 0 2 9 9 11 10 18 2 23-7 4-7 12 0 25 13 24 13 33-1 24-8-5-8-1 0 14s8 22-2 25c-8 4-8 6 0 6 7 1 9 13 6 32-3 24-1 29 9 23 7-4 5 1-4 12-14 16-15 23-6 32s9 12 0 12c-6 0-9 7-6 15 4 8 10 12 15 9s6 2 3 10c-3 9-11 13-16 10-6-4-5 3 1 15 8 15 9 21 1 21-6 0-8 5-3 13 12 19 12 37 1 37-6 0-5 6 2 15 10 12 10 15-1 15-10 0-10 3-1 12 8 8 8 17 1 31-8 14-8 18 0 13 6-4 11-3 11 3 0 5-4 12-8 15-7 4-8 51-2 51 8 0 4 101-4 107-6 4-5 12 3 21 9 11 9 17 0 22-8 6-7 10 2 16s10 12 4 17c-5 4-10 14-10 22s5 18 10 22c6 5 4 8-5 8-13 0-13 1 0 10s13 11 0 20-13 10 0 10 13 1 0 10-13 11 0 20 13 10 0 10c-9 0-11 3-5 8 6 4 10 14 10 22s-4 19-10 23c-6 6-6 10 2 14 7 2 13 9 13 14 0 6-6 7-12 3-9-5-9-2 1 9 11 14 11 17 0 17-12 0-12 2 0 9 11 7 11 9 0 13-12 4-11 8 1 23 13 17 13 18 0 10s-13-7-1 8c11 14 11 17 0 17s-11 2 1 10c9 6 10 10 3 10-12 0-12 37 1 58 4 7 2 12-4 12-7 0-8 6 0 19 7 14 7 22 0 26-8 5-8 11 0 20s8 15 0 20c-15 9-13 28 3 19 6-4 3 3-8 16s-15 20-9 17c14-8 27 20 14 28-15 9-12 27 3 19 9-5 9-4 0 6-8 9-9 19-3 31 7 11 7 20 0 24-5 3-10 11-10 16 0 6 5 7 12 3 6-4 8-3 4 4-3 6-16 9-27 7-15-3-19 0-15 11 4 10 2 13-7 7-16-10-69-4-86 10-12 9-13 9-7 0 4-7 2-13-3-13-6 0-11 5-11 10 0 6-5 10-11 10-5 0-7-6-3-12 6-10 5-10-7-1-8 6-32 12-54 14-22 1-46 8-54 13-11 8-13 8-7-1 10-18 1-16-18 3-9 8-16 11-16 5s-5-11-11-11c-5 0-8 4-5 9 3 4-6 6-20 3-16-3-30 1-35 9-7 12-9 12-9 0 0-11-3-11-17 0-14 12-15 12-9 1 7-12 4-12-14-2-12 6-28 9-36 6-10-4-12-2-8 6 5 8 2 9-11 5-9-4-23-3-30 3-9 8-15 8-20 0-9-14-27-2-19 13 5 9 4 9-6 0-7-7-22-8-39-3-14 4-34 6-43 4-10-1-18 1-18 4 0 4-18 8-41 9-22 1-46 6-53 12-9 7-16 7-24-1-7-7-12-8-12-2 0 9-21 14-69 14-13 0-31 6-39 12-13 11-14 11-8 0 10-17-44-8-56 10-6 10-8 10-8-1s-3-11-15-1-15 10-15-1-2-11-10 1c-6 10-10 11-10 3 0-7-4-13-10-13-5 0-9 5-7 11 1 6-4 14-10 16-7 3-13-1-13-7 0-10-3-10-15 0-8 7-22 10-30 6-8-3-15 0-15 7 0 8-4 6-10-3s-10-10-10-3c0 6-9 10-20 8s-20 2-20 8c0 7-4 6-10-3-5-8-10-10-10-3 0 6-8 10-17 8-10-1-24 2-30 8-9 6-13 6-13-3 0-10-4-9-16 1-17 14-56 20-48 7 3-4 0-8-5-8-6 0-11 5-11 11s-6 9-14 6-17-3-20 0c-5 5-67 14-118 16-16 1-28 5-28 9s-6 5-14 2-17 0-21 6c-5 8-11 8-21-1-8-6-14-8-14-3s-19 10-42 11c-24 2-45 8-46 13-3 7-9 7-18-1-11-9-14-9-14 1s-3 10-14 1c-8-7-15-8-18-2-1 5-21 11-43 13s-46 8-54 12c-8 5-16 4-21-4-5-9-9-9-11-1-2 6-25 12-52 14-26 1-47 5-47 8s-10 5-22 4c-13-1-31 2-42 7-14 7-16 7-11-2 6-9 3-9-13-1-27 14-42 14-43-1zm763-1512c-3-5 2-7 11-3 9 3 19 2 22-3s14-7 25-5 20 0 20-6c0-5 5-9 11-9 5 0 7 6 3 13-6 9-5 9 7 0 8-6 28-13 46-16 17-3 36-8 41-11s24-8 43-11c19-4 39-8 44-9 6-1 16-6 24-10 10-7 12-5 6 3-6 10-3 11 14 2 12-7 27-9 33-5 7 5 8 3 3-6-6-10-4-12 8-7 10 3 17 2 17-3 0-6 5-10 11-10s7 6 2 13c-4 6 4 5 19-5 19-12 28-14 37-5 8 8 11 8 11-1 0-7 11-12 25-12s25-5 25-11c0-5 4-8 9-5 20 12 42-7 39-33-1-14 1-31 5-38 4-6 3-14-2-17-5-4-7-20-4-37 3-20 0-35-9-40-7-5-8-9-2-9s12-20 12-45c1-26-2-45-9-45-5 0-7-5-4-10 4-6 12-7 18-3 9 5 9 3 1-8-6-8-10-36-8-64 2-30-2-52-9-57-8-5-8-8-1-8s10-20 10-52c-1-29 3-56 9-60 6-5 5-8-2-8s-13-7-13-16 5-12 13-8c9 5 9 4 1-5-6-7-9-32-6-56 3-30 0-45-8-45-6 0-8-5-5-10 4-6 12-7 18-3 9 5 9 3 1-8-6-8-10-31-9-52 1-27-4-41-15-47-10-5-20-6-24-3-3 3-6 1-6-5 0-7-9-12-19-12-11 0-23-5-26-10-4-6-10-8-15-5s-11 1-15-5-10-8-15-5c-4 3-11-2-14-11-5-13-9-14-21-4s-15 10-15 0c0-7-6-10-14-7s-17-1-20-9c-3-9-10-13-15-10-13 8-42-4-36-15 3-4-4-6-15-4s-20 0-20-5-7-7-15-4c-8 4-15 1-15-6 0-6-4-8-10-5-5 3-10 1-10-5s-4-9-8-6c-5 3-21-2-37-10-15-8-30-12-33-9s-11 0-19-6c-7-6-13-8-13-3s-4 3-9-4c-4-7-20-14-35-16-14-1-33-11-42-22-8-10-12-13-9-6 5 10 1 13-16 10l-23-3-1 132c0 79 3 129 9 126 5-3 6-1 2 6-14 22-17 63-5 55 8-4 9-3 5 5-14 22-17 63-5 55 8-4 9-3 5 5-14 22-17 63-5 55 8-4 9-3 5 5-14 21-18 63-5 56 8-5 8-2 1 11-5 11-8 64-7 119s-2 105-7 112c-6 7-4 14 3 19 8 5 9 3 4-6s-4-11 4-6c6 4 9 10 7 14s-7 24-10 45c-4 28-3 36 6 31 7-4 8-3 4 5-14 22-16 71-3 71 8 0 8 3 2 8-14 10-17 84-3 76 7-5 8-2 3 5-8 13-14 101-8 112 1 4 14 6 27 5 13 0 22-5 18-10z" transform="matrix(.1 0 0 -.1 0 310)"/></svg>