<svg height="8" viewBox="0 0 12 8" width="12" xmlns="http://www.w3.org/2000/svg"><path d="m639.609375 574.537036c0-.042842.008925-.087468.026776-.13388.017851-.046411.044626-.087467.080328-.123169.071403-.064262.157085-.096393.257049-.096393s.185646.032131.257049.096393l4.841089 4.841089 4.766116-4.766116c.071403-.071403.157085-.107104.257049-.107104s.185646.035701.257049.107104.107104.157085.107104.257049-.035701.185646-.107104.257049l-5.023165 5.023165c-.071403.071403-.157085.107104-.257049.107104s-.185646-.035701-.257049-.107104l-5.098138-5.087428c-.035702-.035701-.062477-.076757-.080328-.123169s-.026776-.094608-.026776-.14459z" fill="#fff" fill-rule="evenodd" stroke="#fff" stroke-width=".5" transform="translate(-639 -573)"/></svg>