<?xml version="1.0" encoding="UTF-8"?>
<svg width="62px" height="64px" viewBox="0 0 62 64" version="1.1" xmlns="http://www.w3.org/2000/svg" xmlns:xlink="http://www.w3.org/1999/xlink">
    <!-- Generator: Sketch 50.2 (55047) - http://www.bohemiancoding.com/sketch -->
    <title>infra icon</title>
    <desc>Created with Sketch.</desc>
    <defs>
        <polygon id="path-1" points="0 63.707 62 63.707 62 3.55271368e-15 0 3.55271368e-15"/>
    </defs>
    <g id="Page-1" stroke="none" stroke-width="1" fill="none" fill-rule="evenodd">
        <g id="Homepage-Desktop-HD---Export" transform="translate(-229.000000, -2608.000000)">
            <g id="Features-Section" transform="translate(161.000000, 2608.000000)">
                <g id="features">
                    <g id="infra-icon" transform="translate(68.000000, 0.000000)">
                        <path d="M45,4.1738 L45,18.9998 L48,18.9998 L50,18.9998 C51.657,18.9998 53,20.3428 53,21.9998 L53,46.4718 C58.493,41.9788 62,35.1498 62,27.4998 C62,16.5858 54.861,7.3418 45,4.1738" id="Fill-1" fill="#E9EAEB"/>
                        <path d="M50,55 L4,55 C1.794,55 0,53.206 0,51 L0,22 C0,19.794 1.794,18 4,18 L4,20 C2.897,20 2,20.897 2,22 L2,51 C2,52.103 2.897,53 4,53 L50,53 C51.103,53 52,52.103 52,51 L52,22 C52,20.897 51.103,20 50,20 L48,20 L48,18 L50,18 C52.206,18 54,19.794 54,22 L54,51 C54,53.206 52.206,55 50,55" id="Fill-3" fill="#005675"/>
                        <path d="M46,22 L44,22 L44,2 L13,2 L13,4 L11,4 L11,2 C11,0.897 11.897,0 13,0 L44,0 C45.103,0 46,0.897 46,2 L46,22 Z" id="Fill-5" fill="#005675"/>
                        <polygon id="Fill-7" fill="#005675" points="38.293 63.707 36.586 62 18.414 62 16.707 63.707 15.293 62.293 17.586 60 37.414 60 39.707 62.293"/>
                        <polygon id="Fill-9" fill="#005675" points="35 59 33 59 33 55 22 55 22 59 20 59 20 53 35 53"/>
                        <mask id="mask-2" fill="white">
                            <use xlink:href="#path-1"/>
                        </mask>
                        <g id="Clip-12"/>
                        <polygon id="Fill-11" fill="#005675" mask="url(#mask-2)" points="1 49 53 49 53 47 1 47"/>
                        <path d="M8,42 L6,42 L6,7 C6,5.897 6.897,5 8,5 L39,5 C40.103,5 41,5.897 41,7 L41,30 L39,30 L39,7 L8,7 L8,42 Z" id="Fill-13" fill="#005675" mask="url(#mask-2)"/>
                        <polygon id="Fill-14" fill="#005675" mask="url(#mask-2)" points="6 15 33 15 33 13 6 13"/>
                        <polygon id="Fill-15" fill="#005675" mask="url(#mask-2)" points="10 11 12 11 12 9 10 9"/>
                        <polygon id="Fill-16" fill="#005675" mask="url(#mask-2)" points="14 11 16 11 16 9 14 9"/>
                        <polygon id="Fill-17" fill="#005675" mask="url(#mask-2)" points="18 11 20 11 20 9 18 9"/>
                        <polygon id="Fill-18" fill="#005675" mask="url(#mask-2)" points="39 34 41 34 41 32 39 32"/>
                        <polygon id="Fill-19" fill="#005675" mask="url(#mask-2)" points="44 30 46 30 46 28 44 28"/>
                        <polygon id="Fill-20" fill="#005675" mask="url(#mask-2)" points="44 26 46 26 46 24 44 24"/>
                        <path d="M36,28.5429 L34.369,24.6039 L31.323,25.8649 C30.711,25.0069 29.968,24.2739 29.134,23.6789 L30.396,20.6319 L26.458,18.9999 L25.196,22.0469 C24.185,21.8779 23.142,21.8719 22.102,22.0449 L20.841,18.9999 L16.902,20.6309 L18.163,23.6759 C17.305,24.2889 16.572,25.0319 15.977,25.8659 L12.93,24.6029 L11.298,28.5419 L14.346,29.8039 C14.177,30.8139 14.17,31.8569 14.343,32.8979 L11.298,34.1589 L12.93,38.0979 L15.975,36.8369 C16.588,37.6949 17.33,38.4279 18.164,39.0229 L16.902,42.0699 L20.841,43.7019 L22.103,40.6539 C23.113,40.8239 24.156,40.8309 25.196,40.6569 L26.458,43.7019 L30.396,42.0699 L29.135,39.0249 C29.994,38.4129 30.727,37.6699 31.321,36.8359 L34.369,38.0989 L36,34.1599 L32.953,32.8969 C33.122,31.8869 33.129,30.8439 32.955,29.8039 L36,28.5429 Z" id="Fill-21" fill="#89DBF7" mask="url(#mask-2)"/>
                        <path d="M25.8159,39.5395 L26.9989,42.3945 L29.0899,41.5295 L27.9069,38.6735 L28.5539,38.2115 C29.3089,37.6725 29.9659,37.0145 30.5069,36.2555 L30.9689,35.6075 L33.8279,36.7915 L34.6929,34.7005 L31.8349,33.5175 L31.9659,32.7325 C32.1209,31.8105 32.1209,30.8815 31.9689,29.9695 L31.8379,29.1845 L34.6929,28.0015 L33.8269,25.9105 L30.9709,27.0935 L30.5089,26.4455 C29.9719,25.6925 29.3139,25.0355 28.5539,24.4935 L27.9059,24.0315 L29.0899,21.1725 L26.9989,20.3065 L25.8159,23.1645 L25.0309,23.0335 C24.1109,22.8805 23.1809,22.8795 22.2669,23.0315 L21.4829,23.1625 L20.2999,20.3065 L18.2089,21.1725 L19.3909,24.0285 L18.7439,24.4905 C17.9909,25.0275 17.3339,25.6855 16.7909,26.4465 L16.3289,27.0945 L13.4709,25.9095 L12.6049,28.0005 L15.4629,29.1845 L15.3319,29.9695 C15.1779,30.8895 15.1769,31.8195 15.3299,32.7335 L15.4609,33.5175 L12.6049,34.7005 L13.4709,36.7915 L16.3269,35.6085 L16.7889,36.2555 C17.3269,37.0095 17.9849,37.6665 18.7449,38.2085 L19.3919,38.6705 L18.2089,41.5285 L20.2999,42.3945 L21.4839,39.5365 L22.2689,39.6675 C23.1889,39.8235 24.1189,39.8235 25.0309,39.6705 L25.8159,39.5395 Z M21.3819,45.0085 L15.5949,42.6105 L16.9479,39.3455 C16.4779,38.9535 16.0449,38.5205 15.6529,38.0525 L12.3889,39.4045 L9.9919,33.6185 L13.2559,32.2665 C13.2019,31.6575 13.2029,31.0455 13.2569,30.4355 L9.9919,29.0825 L12.3889,23.2965 L15.6539,24.6495 C16.0469,24.1795 16.4799,23.7465 16.9469,23.3535 L15.5949,20.0905 L21.3819,17.6935 L22.7339,20.9575 C23.3419,20.9025 23.9529,20.9045 24.5639,20.9585 L25.9159,17.6935 L31.7029,20.0905 L30.3509,23.3555 C30.8209,23.7485 31.2539,24.1815 31.6459,24.6495 L34.9099,23.2975 L37.3069,29.0835 L34.0429,30.4355 C34.0959,31.0435 34.0959,31.6555 34.0409,32.2665 L37.3069,33.6185 L34.9099,39.4055 L31.6449,38.0525 C31.2519,38.5225 30.8189,38.9555 30.3509,39.3475 L31.7029,42.6115 L25.9169,45.0085 L24.5649,41.7445 C23.9579,41.7985 23.3449,41.7975 22.7339,41.7435 L21.3819,45.0085 Z" id="Fill-22" fill="#005675" mask="url(#mask-2)"/>
                        <path d="M27.4751,29.7661 C28.3501,31.8791 27.3471,34.3021 25.2341,35.1771 C23.1211,36.0521 20.6981,35.0491 19.8231,32.9351 C18.9481,30.8221 19.9511,28.4001 22.0641,27.5251 C24.1771,26.6501 26.6001,27.6531 27.4751,29.7661" id="Fill-23" fill="#FFFFFF" mask="url(#mask-2)"/>
                        <path d="M23.645,28.2094 C23.245,28.2094 22.839,28.2864 22.447,28.4484 C21.672,28.7704 21.068,29.3734 20.747,30.1484 C20.426,30.9234 20.426,31.7774 20.747,32.5534 C21.068,33.3284 21.672,33.9314 22.447,34.2524 C23.223,34.5744 24.077,34.5734 24.851,34.2524 C26.451,33.5904 27.214,31.7494 26.551,30.1484 C26.051,28.9404 24.878,28.2094 23.645,28.2094 M23.649,36.4944 C22.982,36.4944 22.316,36.3634 21.682,36.1004 C20.413,35.5754 19.425,34.5864 18.899,33.3174 C18.374,32.0494 18.374,30.6514 18.899,29.3834 C19.425,28.1144 20.413,27.1264 21.682,26.6014 C22.95,26.0754 24.347,26.0754 25.617,26.6014 C26.885,27.1264 27.874,28.1144 28.399,29.3834 C29.483,32.0024 28.235,35.0164 25.617,36.1004 C24.982,36.3634 24.315,36.4944 23.649,36.4944" id="Fill-24" fill="#005675" mask="url(#mask-2)"/>
                    </g>
                </g>
            </g>
        </g>
    </g>
</svg>