<?xml version="1.0" encoding="UTF-8"?>
<svg width="33px" height="33px" viewBox="0 0 33 33" version="1.1" xmlns="http://www.w3.org/2000/svg" xmlns:xlink="http://www.w3.org/1999/xlink">
    <!-- Generator: sketchtool 52.3 (67297) - http://www.bohemiancoding.com/sketch -->
    <title>89DAC921-29B0-482C-9F10-FC0854A0E859</title>
    <desc>Created with sketchtool.</desc>
    <g  stroke="none" stroke-width="1" fill="none" fill-rule="evenodd">
        <g  transform="translate(-150.000000, -3039.000000)" fill="#D9DBE0" fill-rule="nonzero">
            <g  transform="translate(-615.000000, 1248.000000)">
                <g  transform="translate(765.000000, 1438.000000)">
                    <g  transform="translate(0.000000, 11.000000)">
                        <g  transform="translate(0.000000, 342.000000)">
                            <g >
                                <g>
                                    <path d="M15.3310887,22.1213752 L16.4117262,21.0417769 L12.0029333,16.6329841 L10.923335,17.7136215 C9.22366896,14.1405692 9.95316416,9.88478007 12.7458715,7.08181183 L11.2735031,5.61256058 C8.64308612,8.2538878 7.4627625,12.0100769 8.10952139,15.6811919 L5.99188769,13.5625191 C6.74930801,11.9947506 6.0923532,10.1098696 4.52464964,9.35251419 C2.95688114,8.59509387 1.07200011,9.25204868 0.314644728,10.8197522 C-0.442775595,12.3875207 0.214179219,14.2724018 1.78188278,15.0297571 C2.64756167,15.4479846 3.65669777,15.4483093 4.52263643,15.0307313 L9.0644308,19.5746038 L7.59517955,21.0448941 L12.0029333,25.453687 L13.4732236,23.9833966 L18.015018,28.525191 C17.2776648,30.0776981 17.9384512,31.9340046 19.4909583,32.6714227 C21.0434654,33.4087759 22.8997719,32.7479895 23.63719,31.1954824 C24.2024465,30.0053525 23.9569652,28.5882498 23.0243959,27.6575639 C22.0781887,26.7571409 20.6793348,26.5230244 19.4915428,27.0663305 L17.3635183,24.9393451 C21.0354126,25.5954557 24.7960178,24.4133137 27.4321496,21.7743244 L27.4352669,21.7743244 L25.9660156,20.3019559 C23.1619434,23.0952478 18.9043358,23.8236389 15.3310887,22.1213752 Z M3.92101233,12.9619341 C3.51531871,13.3677576 2.85738976,13.3678875 2.45156625,12.9621289 C2.04574274,12.5563703 2.04561286,11.8985063 2.45137143,11.4926828 C2.85712999,11.0868593 3.514994,11.0867294 3.92081751,11.492488 C3.92088245,11.4925529 3.92094739,11.4926179 3.92101233,11.4926828 C4.32664102,11.8984414 4.32664102,12.5561755 3.92101233,12.9619341 Z M12.0029333,22.5141454 L10.5336821,21.0448941 L12.0029333,19.5746038 L13.4732236,21.0448941 L12.0029333,22.5141454 Z M20.0848543,29.1278542 L20.0858934,29.1268151 C20.4989255,28.7284599 21.1567245,28.7403444 21.5551446,29.1533764 C21.9437585,29.5563425 21.9433039,30.1947239 21.5541055,30.5971054 C21.1434114,30.9905899 20.4955485,30.9905899 20.0848543,30.5971054 C19.6792256,30.1913469 19.6792256,29.5336127 20.0848543,29.1278542 Z" ></path>
                                    <rect  transform="translate(24.492933, 8.549992) rotate(134.991897) translate(-24.492933, -8.549992) " x="23.4538681" y="7.51092736" width="2.07812897" height="2.07812897"></rect>
                                    <path d="M31.5531189,5.91181401 L30.3706522,7.08285091 L25.9649765,2.67717529 L27.1360134,1.49990395 L25.6626059,0.0400043659 L23.9408595,1.76486793 L19.2161881,3.34114386 L15.7186635,17.3291639 L29.7077227,13.8316394 L31.2839986,9.10488976 L33.0130184,7.38522157 L31.5531189,5.91181401 Z M28.0971573,12.0932678 L20.5389298,13.9833442 L23.0327085,11.4895656 L21.5551446,10.0234316 L19.061366,12.5172102 L20.9545596,4.95067016 L24.2110189,3.86483737 L29.181951,8.83473041 L28.0971573,12.0932678 Z" ></path>
                                </g>
                            </g>
                        </g>
                    </g>
                </g>
            </g>
        </g>
    </g>
</svg>
