<?xml version="1.0" encoding="UTF-8"?>
<svg width="30px" height="30px" viewBox="0 0 30 30" version="1.1" xmlns="http://www.w3.org/2000/svg" xmlns:xlink="http://www.w3.org/1999/xlink">
    <!-- Generator: sketchtool 52.3 (67297) - http://www.bohemiancoding.com/sketch -->
    <title>DCC16298-CE01-4D0F-B39F-0DEE373E3D02</title>
    <desc>Created with sketchtool.</desc>
    <g  stroke="none" stroke-width="1" fill="none" fill-rule="evenodd">
        <g  transform="translate(-329.000000, -3041.000000)" fill="#D9DBE0" fill-rule="nonzero">
            <g  transform="translate(-615.000000, 1248.000000)">
                <g  transform="translate(765.000000, 1438.000000)">
                    <g  transform="translate(0.000000, 11.000000)">
                        <g  transform="translate(176.000000, 341.000000)">
                            <g >
                                <g transform="translate(3.000000, 3.000000)">
                                    <rect  x="7.30989583" y="3.64583333" width="5.46875" height="1.82291667"></rect>
                                    <rect  x="3.6640625" y="3.64583333" width="1.82291667" height="1.82291667"></rect>
                                    <rect  x="7.30989583" y="23.6979167" width="1.82291667" height="1.82291667"></rect>
                                    <path d="M25.2820313,0.0364583333 L16.4244792,8.89401042 L16.4244792,2.734375 C16.4244792,1.22420247 15.2002767,0 13.6901042,0 L2.75260417,0 C1.24243164,0 0.0182291667,1.22420247 0.0182291667,2.734375 L0.0182291667,26.4322917 C0.0182291667,27.9424642 1.24243164,29.1666667 2.75260417,29.1666667 L13.6901042,29.1666667 C15.2002767,29.1666667 16.4244792,27.9424642 16.4244792,26.4322917 L16.4244792,16.6277344 L29.1484375,3.90377604 L25.2820313,0.0364583333 Z M1.84114583,2.734375 C1.84114583,2.23096517 2.24919434,1.82291667 2.75260417,1.82291667 L13.6901042,1.82291667 C14.193514,1.82291667 14.6015625,2.23096517 14.6015625,2.734375 L14.6015625,7.29166667 L1.84114583,7.29166667 L1.84114583,2.734375 Z M14.6015625,26.4322917 C14.6015625,26.9357015 14.193514,27.34375 13.6901042,27.34375 L2.75260417,27.34375 C2.24919434,27.34375 1.84114583,26.9357015 1.84114583,26.4322917 L1.84114583,21.875 L14.6015625,21.875 L14.6015625,26.4322917 Z M14.6015625,20.0520833 L1.84114583,20.0520833 L1.84114583,9.11458333 L14.6015625,9.11458333 L14.6015625,10.7169271 L11.8845052,13.4339844 L11.2519531,17.9320313 L14.6015625,17.4626302 L14.6015625,20.0520833 Z M14.8923177,15.5813802 L13.3938802,15.7919271 L13.6035156,14.2925781 L25.2820313,2.6140625 L26.5708333,3.90377604 L14.8923177,15.5813802 Z" ></path>
                                </g>
                            </g>
                        </g>
                    </g>
                </g>
            </g>
        </g>
    </g>
</svg>
