<?xml version="1.0" encoding="UTF-8"?>
<svg width="35px" height="35px" viewBox="0 0 35 35" version="1.1" xmlns="http://www.w3.org/2000/svg" xmlns:xlink="http://www.w3.org/1999/xlink">
    <!-- Generator: sketchtool 52.3 (67297) - http://www.bohemiancoding.com/sketch -->
    <title>11CD4894-D76A-4D73-9BE0-8C152E6834F8</title>
    <desc>Created with sketchtool.</desc>
    <g  stroke="none" stroke-width="1" fill="none" fill-rule="evenodd">
        <g  transform="translate(-829.000000, -2455.000000)" fill="#D9DBE0" fill-rule="nonzero">
            <g  transform="translate(-615.000000, 1248.000000)">
                <g  transform="translate(750.000000, 802.000000)">
                    <g  transform="translate(694.000000, 33.000000)">
                        <g  transform="translate(0.000000, 370.000000)">
                            <g  transform="translate(0.000000, 2.000000)">
                                <g>
                                    <g>
                                        <path d="M33.1111111,27.0818316 L33.1111111,4.00249132 L2,4.00249132 L2,27.0818316 L12.2222483,27.0818316 L12.2222483,29.5580208 L8.7937066,29.5580208 L8.7937066,31.4627865 L26.317526,31.4627865 L26.317526,29.5580208 L22.8889844,29.5580208 L22.8889844,27.0818316 L33.1111111,27.0818316 Z M3.90476562,5.90725694 L31.2063455,5.90725694 L31.2063455,21.5263108 L3.90476562,21.5263108 L3.90476562,5.90725694 Z M20.9840972,29.5580208 L14.1269531,29.5580208 L14.1269531,27.0818316 L20.9840972,27.0818316 L20.9840972,29.5580208 Z M3.90476562,25.177066 L3.90476562,23.4310764 L31.2063455,23.4310764 L31.2063455,25.1771267 L3.90476562,25.1771267 L3.90476562,25.177066 Z" ></path>
                                        <path d="M12.9083941,14.3736719 C13.6491059,13.7981771 14.1270139,12.8998437 14.1270139,11.8914062 C14.1270139,10.1584809 12.7171094,8.74857639 10.984184,8.74857639 C9.25125868,8.74857639 7.84135417,10.1584809 7.84135417,11.8914062 C7.84135417,12.8998437 8.31926215,13.7981771 9.05997396,14.3736719 C7.89664931,15.0426215 7.11109375,16.2972135 7.11109375,17.7326389 L7.11109375,18.6849913 L14.8571528,18.6849913 L14.8571528,17.7326389 C14.8571528,16.2972135 14.0715972,15.0426215 12.9083941,14.3736719 Z M10.9841233,10.6532812 C11.6668056,10.6532812 12.2221875,11.208724 12.2221875,11.8913455 C12.2221875,12.573967 11.6667448,13.1294705 10.9841233,13.1294705 C10.3015017,13.1294705 9.74599826,12.5740278 9.74599826,11.8913455 C9.74599826,11.2086632 10.301441,10.6532812 10.9841233,10.6532812 Z M9.26195312,16.7802865 C9.59803819,16.1749566 10.2440191,15.7644358 10.9841233,15.7644358 C11.7241667,15.7644358 12.3701476,16.1749566 12.7062326,16.7802865 L9.26195312,16.7802865 Z" ></path>
                                        <polygon  points="17.5555556 8.74851562 19.746033 8.74851562 19.746033 10.6532812 17.5555556 10.6532812"></polygon>
                                        <polygon  points="21.2063715 8.74851562 27.7778038 8.74851562 27.7778038 10.6532812 21.2063715 10.6532812"></polygon>
                                        <polygon  points="17.5555556 12.764401 19.746033 12.764401 19.746033 14.6691667 17.5555556 14.6691667"></polygon>
                                        <polygon  points="21.2063715 12.764401 27.7778038 12.764401 27.7778038 14.6691667 21.2063715 14.6691667"></polygon>
                                        <polygon  points="17.5555556 16.7802865 19.746033 16.7802865 19.746033 18.6850521 17.5555556 18.6850521"></polygon>
                                        <polygon  points="21.2063715 16.7802865 27.7778038 16.7802865 27.7778038 18.6850521 21.2063715 18.6850521"></polygon>
                                    </g>
                                </g>
                            </g>
                        </g>
                    </g>
                </g>
            </g>
        </g>
    </g>
</svg>
