<?xml version="1.0" encoding="UTF-8"?>
<svg width="35px" height="35px" viewBox="0 0 35 35" version="1.1" xmlns="http://www.w3.org/2000/svg" xmlns:xlink="http://www.w3.org/1999/xlink">
    <!-- Generator: sketchtool 52.3 (67297) - http://www.bohemiancoding.com/sketch -->
    <title>DFB708BE-9872-4C5F-A076-A1014419EC39</title>
    <desc>Created with sketchtool.</desc>
    <g  stroke="none" stroke-width="1" fill="none" fill-rule="evenodd">
        <g  transform="translate(-1013.000000, -2456.000000)" fill="#D9DBE0" fill-rule="nonzero">
            <g  transform="translate(-615.000000, 1248.000000)">
                <g  transform="translate(750.000000, 802.000000)">
                    <g  transform="translate(694.000000, 33.000000)">
                        <g  transform="translate(184.000000, 369.000000)">
                            <g  transform="translate(0.000000, 4.000000)">
                                <g >
                                    <path d="M25.1389535,21.1111111 L28.9460898,6.32428014 L33.1111111,6.32428014 L33.1111111,4 L27.1261694,4 L26.2286659,7.4857366 L2,7.46854376 L4.57586878,21.1110086 L25.1389535,21.1110086 L25.1389535,21.1111111 Z M25.6303992,9.80960657 L23.3190331,18.7867968 L6.52090763,18.7867968 L4.8231078,9.79484055 L25.6303992,9.80960657 Z"></path>
                                    <path d="M22.3352403,30.4444444 C24.4172593,30.4444444 26.1111111,28.6998571 26.1111111,26.5555198 C26.1111111,24.4111825 24.4172593,22.6666667 22.3352403,22.6666667 L8.10923891,22.6666667 C6.02721991,22.6666667 4.33333333,24.4111825 4.33333333,26.5555198 C4.33333333,28.6998571 6.02718519,30.4444444 8.10923891,30.4444444 C10.1912926,30.4444444 11.8851098,28.6998571 11.8851098,26.5555198 C11.8851098,26.0405441 11.7871565,25.5487423 11.6098614,25.0984963 L18.8346177,25.0984963 C18.6572879,25.5487423 18.5593347,26.0405441 18.5593347,26.5555198 C18.5593694,28.6998571 20.2532213,30.4444444 22.3352403,30.4444444 Z M9.52395348,26.5555198 C9.52395348,27.3589891 8.88932328,28.0126149 8.10923891,28.0126149 C7.32915454,28.0126149 6.69448962,27.3589891 6.69448962,26.5555198 C6.69448962,25.752122 7.32911982,25.0984963 8.10923891,25.0984963 C8.88932328,25.0984963 9.52395348,25.752122 9.52395348,26.5555198 Z M23.7499895,26.5555198 C23.7499895,27.3589891 23.1153593,28.0126149 22.335275,28.0126149 C21.5551906,28.0126149 20.9205604,27.3589891 20.9205604,26.5555198 C20.9205604,25.752122 21.5551906,25.0984963 22.335275,25.0984963 C23.1153593,25.0984963 23.7499895,25.752122 23.7499895,26.5555198 Z"></path>
                                </g>
                            </g>
                        </g>
                    </g>
                </g>
            </g>
        </g>
    </g>
</svg>
