<?xml version="1.0" encoding="UTF-8"?>
<svg width="35px" height="35px" viewBox="0 0 35 35" version="1.1" xmlns="http://www.w3.org/2000/svg" xmlns:xlink="http://www.w3.org/1999/xlink">
    <!-- Generator: sketchtool 52.3 (67297) - http://www.bohemiancoding.com/sketch -->
    <title>40F7700B-EF12-4E77-9638-0542674477BE</title>
    <desc>Created with sketchtool.</desc>
    <g  stroke="none" stroke-width="1" fill="none" fill-rule="evenodd">
        <g  transform="translate(-150.000000, -1805.000000)" fill="#D9DBE0" fill-rule="nonzero">
            <g  transform="translate(-615.000000, 1248.000000)">
                <g  transform="translate(764.000000, 128.000000)">
                    <g  transform="translate(0.000000, 60.000000)">
                        <g  transform="translate(0.000000, 368.000000)">
                            <g >
                                <g transform="translate(0.333333, 0.333333)">
                                    <rect  x="10.7792969" y="6.88888889" width="5.83333333" height="1.94444444"></rect>
                                    <rect  x="6.89040799" y="6.88888889" width="1.94444444" height="1.94444444"></rect>
                                    <rect  x="10.7792969" y="28.2777778" width="1.94444444" height="1.94444444"></rect>
                                    <path d="M30.1926302,13.0138889 L31.6976302,11.7830556 C31.2459722,11.2309549 30.7405382,10.7251563 30.1887413,10.2731944 L28.9598524,11.7811111 C29.410599,12.1501302 29.8236111,12.5630816 30.1926302,13.0138889 Z" ></path>
                                    <path d="M28.4095747,9.09486111 C27.7787847,8.76199653 27.1163368,8.49299479 26.4320747,8.29180556 L25.8847135,10.1575 C26.4444705,10.321441 26.9861806,10.5415885 27.5015191,10.8147222 L28.4095747,9.09486111 Z" ></path>
                                    <path d="M32.877908,13.5631944 L31.1590191,14.4722222 C33.4142101,18.7462326 31.7775955,24.0391927 27.5035851,26.2943229 C23.2295747,28.5494531 17.9365538,26.9128993 15.6814236,22.6388889 C13.4262934,18.3648785 15.0628472,13.0719184 19.3368576,10.8167882 C20.5948524,10.1530035 21.9957639,9.80592014 23.418125,9.80555556 C23.6709028,9.80555556 23.9207639,9.81625 24.1677083,9.83763889 L24.3320139,7.9 C24.030625,7.87375 23.7253472,7.86111111 23.418125,7.86111111 C22.431441,7.86354167 21.4498611,8.00293403 20.5014583,8.27527778 L20.5014583,5.91666667 C20.5014583,4.30581597 19.1956424,3 17.5847917,3 L5.918125,3 C4.30727431,3 3.00145833,4.30581597 3.00145833,5.91666667 L3.00145833,31.1944444 C3.00145833,32.8052951 4.30727431,34.1111111 5.918125,34.1111111 L17.5847917,34.1111111 C19.1956424,34.1111111 20.5014583,32.8052951 20.5014583,31.1944444 L20.5014583,28.8358333 C26.184401,30.4449826 32.095816,27.142526 33.705026,21.4595833 C34.4527865,18.8188455 34.1566233,15.991684 32.877908,13.5631944 Z M4.94596354,5.91666667 C4.94596354,5.37969618 5.38121528,4.94444444 5.91818576,4.94444444 L17.5848524,4.94444444 C18.1218229,4.94444444 18.5570747,5.37969618 18.5570747,5.91666667 L18.5570747,9.04138889 C17.6610503,9.50210069 16.8343576,10.0866493 16.1012413,10.7777778 L4.94596354,10.7777778 L4.94596354,5.91666667 Z M4.94596354,12.7222222 L14.4659635,12.7222222 C12.1430816,16.2642708 12.1430816,20.8468403 14.4659635,24.3888889 L4.94596354,24.3888889 L4.94596354,12.7222222 Z M18.5570747,31.1944444 C18.5570747,31.7314149 18.1218229,32.1666667 17.5848524,32.1666667 L5.91818576,32.1666667 C5.38121528,32.1666667 4.94596354,31.7314149 4.94596354,31.1944444 L4.94596354,26.3333333 L16.1012413,26.3333333 C16.8343576,27.0244618 17.6610503,27.6090104 18.5570747,28.0697222 L18.5570747,31.1944444 Z" ></path>
                                    <polygon  points="27.1874913 22.1129167 30.3005469 18.5555556 27.1874913 14.9981944 25.7252691 16.2795833 27.7163802 18.5555556 25.7252691 20.8315278"></polygon>
                                    <polygon  points="19.770408 14.9981944 16.6573524 18.5555556 19.770408 22.1129167 21.2326302 20.8315278 19.2415191 18.5555556 21.2326302 16.2795833"></polygon>
                                </g>
                            </g>
                        </g>
                    </g>
                </g>
            </g>
        </g>
    </g>
</svg>
