<?xml version="1.0" encoding="UTF-8"?>
<svg width="56px" height="63px" viewBox="0 0 56 63" version="1.1" xmlns="http://www.w3.org/2000/svg" xmlns:xlink="http://www.w3.org/1999/xlink">
    <!-- Generator: Sketch 50.2 (55047) - http://www.bohemiancoding.com/sketch -->
    <title>scaling</title>
    <desc>Created with Sketch.</desc>
    <defs>
        <polygon id="path-1" points="0 62.4072 55.418 62.4072 55.418 0.0002 0 0.0002"/>
    </defs>
    <g id="Page-1" stroke="none" stroke-width="1" fill="none" fill-rule="evenodd">
        <g id="Homepage-Desktop-HD---Export" transform="translate(-846.000000, -2789.000000)">
            <g id="Features-Section" transform="translate(161.000000, 2608.000000)">
                <g id="features">
                    <g id="scaling" transform="translate(685.000000, 181.000000)">
                        <path d="M55.418,34.9052 C55.418,46.7802 45.791,56.4072 33.916,56.4072 C22.041,56.4072 12.414,46.7802 12.414,34.9052 C12.414,23.0302 22.041,13.4032 33.916,13.4032 C45.791,13.4032 55.418,23.0302 55.418,34.9052" id="Fill-1" fill="#E9EAEB"/>
                        <polygon id="Fill-3" fill="#FFFFFF" points="39.8262 27.3589 29.7772 37.4069 35.4142 37.4069 35.4142 49.4069 44.4142 49.4069 44.4142 37.4069 49.8742 37.4069"/>
                        <polygon id="Fill-5" fill="#005675" points="45.4141 50.4072 41.4141 50.4072 41.4141 48.4072 43.4141 48.4072 43.4141 36.4072 47.4601 36.4072 39.8261 28.7732 32.1911 36.4072 36.4141 36.4072 36.4141 48.4072 38.4141 48.4072 38.4141 50.4072 34.4141 50.4072 34.4141 38.4072 27.3631 38.4072 39.8261 25.9452 52.2881 38.4072 45.4141 38.4072"/>
                        <polygon id="Fill-7" fill="#E9EAEB" points="38.4473 9.4072 30.4543 1.4142 22.4623 9.4072 26.4143 9.4072 26.4143 16.0662 34.4143 24.1432 34.4143 9.4072"/>
                        <path d="M27.4141,15.6543 L33.4141,21.7133 L33.4141,8.4073 L36.0331,8.4073 L30.4541,2.8283 L24.8761,8.4073 L27.4141,8.4073 L27.4141,15.6543 Z M35.4141,26.5743 L25.4141,16.4773 L25.4141,10.4073 L20.0481,10.4073 L30.4541,0.0003 L40.8611,10.4073 L35.4141,10.4073 L35.4141,26.5743 Z" id="Fill-9" fill="#005675"/>
                        <polygon id="Fill-11" fill="#89DBF7" points="17.2231 14.5981 2.4141 29.4071 10.4141 29.4071 10.4141 43.4071 24.4141 43.4071 24.4141 29.4071 32.0331 29.4071"/>
                        <mask id="mask-2" fill="white">
                            <use xlink:href="#path-1"/>
                        </mask>
                        <g id="Clip-14"/>
                        <polygon id="Fill-13" fill="#005675" mask="url(#mask-2)" points="38.414 54.4072 40.414 54.4072 40.414 44.4072 38.414 44.4072"/>
                        <polygon id="Fill-15" fill="#005675" mask="url(#mask-2)" points="38.414 58.4072 40.414 58.4072 40.414 56.4072 38.414 56.4072"/>
                        <polygon id="Fill-16" fill="#005675" mask="url(#mask-2)" points="38.414 62.4072 40.414 62.4072 40.414 60.4072 38.414 60.4072"/>
                        <polygon id="Fill-17" fill="#005675" mask="url(#mask-2)" points="18.414 48.4072 20.414 48.4072 20.414 37.4072 18.414 37.4072"/>
                        <polygon id="Fill-18" fill="#005675" mask="url(#mask-2)" points="18.414 52.4072 20.414 52.4072 20.414 50.4072 18.414 50.4072"/>
                        <polygon id="Fill-19" fill="#005675" mask="url(#mask-2)" points="18.414 56.4072 20.414 56.4072 20.414 54.4072 18.414 54.4072"/>
                        <polygon id="Fill-20" fill="#BCC0C4" mask="url(#mask-2)" points="44.414 17.4072 46.414 17.4072 46.414 7.4072 44.414 7.4072"/>
                        <polygon id="Fill-21" fill="#BCC0C4" mask="url(#mask-2)" points="44.414 21.4072 46.414 21.4072 46.414 19.4072 44.414 19.4072"/>
                        <polygon id="Fill-22" fill="#BCC0C4" mask="url(#mask-2)" points="44.414 25.4072 46.414 25.4072 46.414 23.4072 44.414 23.4072"/>
                        <polygon id="Fill-23" fill="#BCC0C4" mask="url(#mask-2)" points="12.414 56.4072 14.414 56.4072 14.414 46.4072 12.414 46.4072"/>
                        <polygon id="Fill-24" fill="#BCC0C4" mask="url(#mask-2)" points="12.414 60.4072 14.414 60.4072 14.414 58.4072 12.414 58.4072"/>
                        <polygon id="Fill-25" fill="#005675" mask="url(#mask-2)" points="25.4141 44.4072 19.4141 44.4072 19.4141 42.4072 23.4141 42.4072 23.4141 28.4072 29.6191 28.4072 17.2231 16.0122 4.8281 28.4072 11.4141 28.4072 11.4141 42.4072 16.4141 42.4072 16.4141 44.4072 9.4141 44.4072 9.4141 30.4072 0.0001 30.4072 17.2231 13.1842 34.4471 30.4072 25.4141 30.4072"/>
                    </g>
                </g>
            </g>
        </g>
    </g>
</svg>