<svg xmlns:cc="http://web.resource.org/cc/" xmlns:svg="http://www.w3.org/2000/svg" xmlns="http://www.w3.org/2000/svg" width="44.426231384277344" height="45.75410079956055" version="1.0" style=""><rect  width="100%" height="100%" x="0" y="0" fill="none" stroke="none"/><g class="currentLayer" style=""><title>Layer 1</title><g  class="" stroke-width="3"><path style="font-size: 144px; font-style: normal; font-variant: normal; font-weight: normal; font-stretch: normal; text-align: start; line-height: 100%; writing-mode: lr-tb; text-anchor: start; fill: none; fill-opacity: 1; stroke: rgb(255, 159, 0); stroke-linecap: butt; stroke-linejoin: miter; stroke-opacity: 1;" d="M13.795218902401285,14.000473781812415 C14.88259640685256,14.000501619032844 16.194716163936214,14.225231499567254 17.731575080627756,14.67465723736666 C19.28290316589411,15.124138649606929 20.312298833213408,15.348865437116846 20.819768268634636,15.34884069292091 C21.47218301781233,15.348865437116846 22.537825839156465,15.095141544991955 24.0166958047597,14.58766592352174 C25.49552648895188,14.080245976492389 26.778646048396066,13.826518991343006 27.86606376216574,13.826491154122577 C29.64935631225391,13.826518991343006 31.23694701666756,14.30497276400231 32.6288358754067,15.26184937907599 C33.41172676976605,15.812819110956415 34.18739854496046,16.55949378153585 34.955853366107064,17.501876483838778 C33.79593917917057,18.487800001221764 32.94777618895097,19.364969065827353 32.41135913730665,20.13336914044045 C31.439926748972372,21.52524872010611 30.9542260199277,23.062095264699682 30.95425385714813,24.743908774221165 C30.9542260199277,26.58523883588217 31.468923853587345,28.245323848345503 32.498350451151566,29.724160718586667 C33.52771518822594,31.203025426048264 34.70209545071276,32.13817973011278 36.021494950241404,32.529629816829186 C35.47052026952179,34.312959483211266 34.557113020662385,36.176021134954915 33.28127227575584,38.11882405113362 C31.352935435127453,41.033031518426164 29.439129623563723,42.490136798584686 27.53984556199117,42.490136798584686 C26.785896097805935,42.490136798584686 25.742000331666905,42.25090991225503 24.40815826357408,41.77245923262023 C23.088769898933606,41.29400545996092 21.972383845676738,41.054781666655764 21.058992061939794,41.05477857363127 C20.145566254933435,41.054781666655764 19.079923433589297,41.30125550937079 17.86206359790738,41.79420628782533 C16.658669837775783,42.30165407207511 15.680018330276566,42.555377964200005 14.926105982385234,42.5553810572245 C12.649822444524126,42.555377964200005 10.417048482195693,40.62707514684104 8.227774816326455,36.77045714002512 C6.038488778359252,32.95734870874189 4.943848852400141,29.216725306434856 4.943851945424633,25.548577654030545 C4.943848852400141,22.14143796643041 5.777514836824494,19.364969065827353 7.444853053582674,17.219152394074428 C9.126678873341637,15.073394489786848 11.243464417210179,14.000501619032844 13.795218902401285,14.000473781812415 M27.496348358556467,5.431830914600119 C27.554317823590473,5.620347664379105 27.590564977615312,5.787080242659076 27.605089820630983,5.9320317424645275 C27.619562082230285,6.077051288808807 27.626812131640154,6.222036811883672 27.62683687583609,6.3669883116891235 C27.626812131640154,7.294929682637676 27.409332300515608,8.30982525113724 26.974400475486952,9.411684296261296 C26.539422255090912,10.513605201875194 25.85074179374142,11.535750819784626 24.908359091438488,12.478127336038574 C24.096418511047798,13.27557709668301 23.29174963123842,13.812021985547767 22.494350286893205,14.087465095657334 C21.986880851471977,14.246978554772364 21.21845912568744,14.37021702264212 20.1890789234906,14.457180499266608 C20.218060562983112,12.253428385749087 20.790752605872708,10.346872623595223 21.907158145183878,8.73750084070705 C23.038022646089033,7.128197104357705 24.901087390857178,6.026307128988728 27.496348358556467,5.431830914600119 "  stroke-width="3"/></g></g></svg>
