<?xml version="1.0" encoding="UTF-8"?>
<svg width="45px" height="45px" viewBox="0 0 45 45" version="1.1" xmlns="http://www.w3.org/2000/svg" xmlns:xlink="http://www.w3.org/1999/xlink">
    <!-- Generator: sketchtool 52.3 (67297) - http://www.bohemiancoding.com/sketch -->
    <title>75718B14-64B8-4923-8B6C-89F7469AE07C</title>
    <desc>Created with sketchtool.</desc>
    <g  stroke="none" stroke-width="1" fill="none" fill-rule="evenodd">
        <g  transform="translate(-142.000000, -2375.000000)" fill="#FF9F00">
            <g  transform="translate(134.000000, 1944.000000)">
                <g  transform="translate(0.000000, 431.000000)">
                    <g  transform="translate(8.000000, 0.000000)">
                        <g>
                            <path d="M39.3034211,14.1800877 L39.3034211,14.1772807 C39.3034211,14.1309649 39.3034211,14.0832456 39.3034211,14.0369298 C39.2987719,9.38807018 35.5312281,5.62052632 30.8823684,5.61587719 C30.215,5.61631579 29.5501754,5.69692982 28.9020175,5.85587719 C25.1533333,-0.0275438596 17.3449123,-1.75815789 11.4614912,1.99061404 C8.10333333,4.13026316 5.95070175,7.72807018 5.65289474,11.6986842 C1.26096491,13.2287719 -1.05903509,18.0294737 0.471052632,22.4214035 C1.65017544,25.8058772 4.84219298,28.0732456 8.42622807,28.0720175 L8.42622807,25.265 C5.32570175,25.2681579 2.80964912,22.757193 2.80657895,19.6565789 C2.80385965,16.9845614 4.68482456,14.6808772 7.30342105,14.1492105 L8.42622807,13.9218421 L8.42622807,12.6334211 C8.43692982,7.20754386 12.8442105,2.81754386 18.2701754,2.82824561 C21.9520175,2.83552632 25.3207895,4.90078947 26.9975439,8.17868421 L27.582807,9.32535088 L28.777193,8.84394737 C31.6514035,7.68105263 34.9241228,9.06842105 36.0870175,11.9426316 C36.5014912,12.9671053 36.604386,14.0911404 36.382807,15.1737719 L36.0235088,16.9099123 L37.7961404,16.8607895 C37.8747368,16.8607895 37.9519298,16.8495614 37.9014035,16.8467544 C40.2268421,16.8467544 42.1119298,18.7318421 42.1119298,21.0572807 C42.1119298,23.3827193 40.2268421,25.267807 37.9014035,25.267807 L36.4964912,25.267807 L36.4964912,28.0748246 L37.9,28.0748246 C41.7757018,28.0786842 44.9207018,24.94 44.9245614,21.0642982 C44.9278947,17.7242982 42.5766667,14.8447368 39.3034211,14.1800877 Z" ></path>
                            <path d="M11.2332456,44.9141228 L33.689386,44.9141228 L33.689386,16.8439474 L11.2332456,16.8439474 L11.2332456,44.9141228 Z M14.0402632,19.6509649 L30.8823684,19.6509649 L30.8823684,25.265 L22.4613158,25.265 L22.4613158,28.0720175 L30.8823684,28.0720175 L30.8823684,33.6860526 L22.4613158,33.6860526 L22.4613158,36.4930702 L30.8823684,36.4930702 L30.8823684,42.1071053 L14.0402632,42.1071053 L14.0402632,19.6509649 Z"  fill-rule="nonzero"></path>
                            <rect  x="16.8472807" y="25.265" width="2.80701754" height="2.80701754"></rect>
                            <rect  x="16.8472807" y="33.6860526" width="2.80701754" height="2.80701754"></rect>
                        </g>
                    </g>
                </g>
            </g>
        </g>
    </g>
</svg>
