<?xml version="1.0" encoding="UTF-8"?>
<svg width="48px" height="47px" viewBox="0 0 48 47" version="1.1" xmlns="http://www.w3.org/2000/svg" xmlns:xlink="http://www.w3.org/1999/xlink">
    <!-- Generator: sketchtool 52.3 (67297) - http://www.bohemiancoding.com/sketch -->
    <title>DEE9CDE1-0120-4D4F-B61D-18FA18CCAC4C</title>
    <desc>Created with sketchtool.</desc>
    <g  stroke="none" stroke-width="1" fill="none" fill-rule="evenodd">
        <g  transform="translate(-134.000000, -2612.000000)" fill="#FF9F00">
            <g  transform="translate(134.000000, 1944.000000)">
                <g  transform="translate(0.000000, 663.000000)">
                    <g  transform="translate(0.000000, 5.000000)">
                        <g transform="translate(0.000000, -0.000000)">
                            <path d="M37.5,21.00525 L34.437,22.53225 L32.9265,19.89225 L34.5,19.10925 L34.5,5.25525 L24,0.00525 L13.5,5.25525 L13.5,19.10925 L15.0735,19.89675 L13.563,22.53225 L10.5,21.00525 L0,26.25525 L0,40.10925 L10.5,45.35925 L21,40.10925 L21,36.18225 L27,36.18225 L27,40.10925 L37.5,45.35925 L48,40.10925 L48,26.25525 L37.5,21.00525 Z M28.746,18.63225 L25.5,20.25525 L25.5,11.60925 L31.5,8.60925 L31.5,17.25525 L31.434,17.28825 L29.802,14.43825 L27.198,15.92925 L28.746,18.63225 Z M24,3.35925 L29.646,6.18225 L24,9.00525 L18.354,6.18225 L24,3.35925 Z M16.5,8.60925 L22.5,11.60925 L22.5,20.25525 L19.254,18.63225 L20.802,15.93225 L18.198,14.43225 L16.566,17.28225 L16.5,17.25525 L16.5,8.60925 Z M9,41.25525 L3,38.25525 L3,29.60925 L9,32.60925 L9,41.25525 Z M4.854,27.18225 L10.5,24.35925 L16.146,27.18225 L10.5,30.00525 L4.854,27.18225 Z M18,33.18225 L15,33.18225 L15,36.18225 L18,36.18225 L18,38.25525 L12,41.25525 L12,32.60925 L18,29.60925 L18,33.18225 Z M27,33.18225 L21,33.18225 L21,26.25525 L16.251,23.88225 L17.7615,21.24225 L24,24.35925 L30.2385,21.24075 L31.749,23.88075 L27,26.25525 L27,33.18225 Z M36,41.25525 L30,38.25525 L30,36.18225 L33,36.18225 L33,33.18225 L30,33.18225 L30,29.60925 L36,32.60925 L36,41.25525 Z M31.854,27.18225 L37.5,24.35925 L43.146,27.18225 L37.5,30.00525 L31.854,27.18225 Z M45,38.25525 L39,41.25525 L39,32.60925 L45,29.60925 L45,38.25525 Z"  fill-rule="nonzero"></path>
                            <rect  x="6" y="15.18225" width="3" height="3"></rect>
                            <rect  x="22.5" y="43.68225" width="3" height="3"></rect>
                            <rect  x="37.5" y="15.18225" width="3" height="3"></rect>
                        </g>
                    </g>
                </g>
            </g>
        </g>
    </g>
</svg>
