<?xml version="1.0" encoding="UTF-8"?>
<svg width="43px" height="43px" viewBox="0 0 43 43" version="1.1" xmlns="http://www.w3.org/2000/svg" xmlns:xlink="http://www.w3.org/1999/xlink">
    <!-- Generator: sketchtool 52.3 (67297) - http://www.bohemiancoding.com/sketch -->
    <title>AAE435E9-26D8-4EBF-95D5-A65F65020111</title>
    <desc>Created with sketchtool.</desc>
    <g  stroke="none" stroke-width="1" fill="none" fill-rule="evenodd">
        <g  transform="translate(-773.000000, -2850.000000)" fill="#FF9F00">
            <g  transform="translate(150.000000, 2418.000000)">
                <g  transform="translate(0.000000, 431.000000)">
                    <g  transform="translate(623.000000, 1.000000)">
                        <g>
                            <path d="M43,32.25 L43,0 L27.6624375,0 L22.2874375,5.375 L0,5.375 L0,32.25 L20.15625,32.25 L20.15625,34.9375 L13.4375,34.9375 L13.4375,37.625 L0,37.625 L0,40.3125 L13.4375,40.3125 L13.4375,43 L29.5625,43 L29.5625,40.3125 L43,40.3125 L43,37.625 L29.5625,37.625 L29.5625,34.9375 L22.84375,34.9375 L22.84375,32.25 L43,32.25 Z M26.875,37.625 L26.875,40.3125 L16.125,40.3125 L16.125,37.625 L26.875,37.625 Z M2.6875,29.5625 L2.6875,8.0625 L23.4000625,8.0625 L28.7750625,2.6875 L40.3125,2.6875 L40.3125,29.5625 L2.6875,29.5625 Z"  fill-rule="nonzero"></path>
                            <rect  x="5.375" y="10.75" width="2.6875" height="2.6875"></rect>
                            <rect  x="10.75" y="10.75" width="2.6875" height="2.6875"></rect>
                        </g>
                    </g>
                </g>
            </g>
        </g>
    </g>
</svg>
