<?xml version="1.0" encoding="UTF-8"?>
<svg width="50px" height="32px" viewBox="0 0 50 32" version="1.1" xmlns="http://www.w3.org/2000/svg" xmlns:xlink="http://www.w3.org/1999/xlink">
    <!-- Generator: sketchtool 52.3 (67297) - http://www.bohemiancoding.com/sketch -->
    <title>230E6BB6-EE62-47A1-BC67-CDFB2B520005</title>
    <desc>Created with sketchtool.</desc>
    <g  stroke="none" stroke-width="1" fill="none" fill-rule="evenodd">
        <g  transform="translate(-150.000000, -3046.000000)" fill="#FF9F00">
            <g  transform="translate(150.000000, 2378.000000)">
                <g  transform="translate(0.000000, 663.000000)">
                    <g  transform="translate(0.000000, 5.000000)">
                        <g>
                            <path d="M49.2761905,15.0166667 C48.8365079,14.4055556 38.3428571,0.0722222222 24.9730159,0.0722222222 C11.6031746,0.0722222222 1.10952381,14.4055556 0.66984127,15.0166667 L0,15.9452381 L0.66984127,16.8738095 C1.10952381,17.4849206 11.6031746,31.818254 24.9730159,31.818254 C38.3428571,31.818254 48.8365079,17.4849206 49.2761905,16.8738095 L49.9460317,15.9452381 L49.2761905,15.0166667 Z M24.9730159,28.6436508 C15.0603175,28.6436508 6.46031746,19.018254 3.96984127,15.9452381 C6.46031746,12.8722222 15.0603175,3.2468254 24.9730159,3.2468254 C34.8857143,3.2468254 43.4857143,12.8722222 45.9761905,15.9452381 C43.4857143,19.018254 34.8857143,28.6436508 24.9730159,28.6436508 Z"  fill-rule="nonzero"></path>
                            <path d="M24.9730159,6.42142857 C19.7131944,6.42142857 15.4492063,10.6854167 15.4492063,15.9452381 C15.4492063,21.2050595 19.7131944,25.4690476 24.9730159,25.4690476 C30.2328373,25.4690476 34.4968254,21.2050595 34.4968254,15.9452381 C34.4915675,10.6875992 30.2306548,6.42668651 24.9730159,6.42142857 Z M24.9730159,22.2944444 C21.4664683,22.2944444 18.6238095,19.4517857 18.6238095,15.9452381 C18.6238095,12.4386905 21.4664683,9.59603175 24.9730159,9.59603175 C28.4795635,9.59603175 31.3222222,12.4386905 31.3222222,15.9452381 C31.3222222,19.4517857 28.4795635,22.2944444 24.9730159,22.2944444 Z"  fill-rule="nonzero"></path>
                            <rect  x="23.3857143" y="14.3579365" width="3.17460317" height="3.17460317"></rect>
                            <rect  x="40.8460317" y="28.6436508" width="3.17460317" height="3.17460317"></rect>
                            <rect  x="5.92539683" y="28.6436508" width="3.17460317" height="3.17460317"></rect>
                            <rect  x="40.8460317" y="0.0722222222" width="3.17460317" height="3.17460317"></rect>
                            <rect  x="5.92539683" y="0.0722222222" width="3.17460317" height="3.17460317"></rect>
                        </g>
                    </g>
                </g>
            </g>
        </g>
    </g>
</svg>
