<?xml version="1.0" encoding="UTF-8"?>
<svg width="45px" height="45px" viewBox="0 0 45 45" version="1.1" xmlns="http://www.w3.org/2000/svg" xmlns:xlink="http://www.w3.org/1999/xlink">
    <!-- Generator: sketchtool 52.3 (67297) - http://www.bohemiancoding.com/sketch -->
    <title>7B6709C7-5F2F-4258-9308-5FA329C84C10</title>
    <desc>Created with sketchtool.</desc>
    <g  stroke="none" stroke-width="1" fill="none" fill-rule="evenodd">
        <g  transform="translate(-756.000000, -2143.000000)" fill="#FF9F00">
            <g  transform="translate(134.000000, 1944.000000)">
                <g  transform="translate(0.000000, 199.000000)">
                    <g  transform="translate(622.000000, 0.000000)">
                        <g>
                            <rect  x="33.75" y="26.71875" width="2.8125" height="2.8125"></rect>
                            <path d="M11.25,37.96875 L14.0625,37.96875 L14.0625,35.15625 L16.875,35.15625 L16.875,37.96875 L19.6875,37.96875 L19.6875,34.059375 C21.4100684,32.5370215 21.5723145,29.9064551 20.0499609,28.1838867 C20.0324707,28.1641113 20.0148047,28.1445117 19.996875,28.125 C21.551748,26.4316992 21.4395996,23.798584 19.7463867,22.243623 C19.7269629,22.2257812 19.7072754,22.2081152 19.6875,22.1905371 L19.6875,18.28125 L16.875,18.28125 L16.875,21.09375 L14.0625,21.09375 L14.0625,18.28125 L11.25,18.28125 L11.25,21.09375 L9.84375,21.09375 L9.84375,35.15625 L11.25,35.15625 L11.25,37.96875 Z M12.65625,23.90625 L16.875,23.90625 C17.6516895,23.90625 18.28125,24.5358105 18.28125,25.3125 C18.28125,26.0891895 17.6516895,26.71875 16.875,26.71875 L12.65625,26.71875 L12.65625,23.90625 Z M12.65625,29.53125 L16.875,29.53125 C17.6516895,29.53125 18.28125,30.1608105 18.28125,30.9375 C18.28125,31.7141895 17.6516895,32.34375 16.875,32.34375 L12.65625,32.34375 L12.65625,29.53125 Z"  fill-rule="nonzero"></path>
                            <path d="M39.375,11.25 L39.375,0 L7.03125,0 C3.14991211,0.00465820312 0.00465820312,3.14991211 0,7.03125 L0,37.96875 C0.00465820312,41.8500879 3.14991211,44.9953418 7.03125,45 L45,45 L45,11.25 L39.375,11.25 Z M7.03125,2.8125 L36.5625,2.8125 L36.5625,5.625 L25.3125,5.625 L25.3125,8.4375 L36.5625,8.4375 L36.5625,11.25 L7.03125,11.25 C4.70126953,11.25 2.8125,9.36123047 2.8125,7.03125 C2.8125,4.70126953 4.70126953,2.8125 7.03125,2.8125 Z M42.1875,32.34375 L32.34375,32.34375 C31.5670605,32.34375 30.9375,31.7141895 30.9375,30.9375 L30.9375,25.3125 C30.9375,24.5358105 31.5670605,23.90625 32.34375,23.90625 L42.1875,23.90625 L42.1875,32.34375 Z M42.1875,21.09375 L32.34375,21.09375 C30.0137695,21.09375 28.125,22.9825195 28.125,25.3125 L28.125,30.9375 C28.125,33.2674805 30.0137695,35.15625 32.34375,35.15625 L42.1875,35.15625 L42.1875,42.1875 L7.03125,42.1875 C4.70126953,42.1875 2.8125,40.2987305 2.8125,37.96875 L2.8125,12.6196875 C4.02240234,13.5503613 5.50485352,14.0573145 7.03125,14.0625 L42.1875,14.0625 L42.1875,21.09375 Z"  fill-rule="nonzero"></path>
                            <rect  x="14.0625" y="5.625" width="2.8125" height="2.8125"></rect>
                            <rect  x="19.6875" y="5.625" width="2.8125" height="2.8125"></rect>
                        </g>
                    </g>
                </g>
            </g>
        </g>
    </g>
</svg>
