<?xml version="1.0" encoding="UTF-8"?>
<svg width="41px" height="41px" viewBox="0 0 41 41" version="1.1" xmlns="http://www.w3.org/2000/svg" xmlns:xlink="http://www.w3.org/1999/xlink">
    <!-- Generator: sketchtool 52.3 (67297) - http://www.bohemiancoding.com/sketch -->
    <title>B7816929-E7C0-4FE6-AE54-A7DF1B924FD5</title>
    <desc>Created with sketchtool.</desc>
    <g  stroke="none" stroke-width="1" fill="none" fill-rule="evenodd">
        <g  transform="translate(-774.000000, -3041.000000)" fill="#FF9F00" fill-rule="nonzero">
            <g  transform="translate(150.000000, 2378.000000)">
                <g  transform="translate(0.000000, 663.000000)">
                    <g  transform="translate(624.000000, 0.000000)">
                        <path d="M20.5,41 C9.19616351,41 0,31.8038365 0,20.5 C0,9.19655264 9.19616351,0 20.5,0 C24.1506796,0 27.7355917,0.972113646 30.8671362,2.81126846 L32.0789703,3.52303616 L27.5989977,12.3043586 L26.217102,11.4310908 C24.509093,10.3515699 22.5321766,9.78106615 20.5,9.78106615 C14.589487,9.78106615 9.78106615,14.5894871 9.78106615,20.5 C9.78106615,26.4109021 14.589487,31.2193231 20.5,31.2193231 C22.7333706,31.2193231 24.9243233,30.5293482 26.6696913,29.2762634 C27.8110881,28.4570883 28.7326113,27.4153157 29.3688826,26.2455105 L20.0030468,26.2451214 L20.0030468,16.8925168 L40.7330385,16.8925168 L40.8750807,18.2257679 C40.9556361,18.9830669 41,19.7905672 41,20.5 C41,31.8038365 31.8038365,41 20.5,41 Z M20.5,2.98249744 C10.8407399,2.98249744 2.98210831,10.84074 2.98210831,20.5 C2.98210831,30.1592601 10.8407399,38.0178917 20.5,38.0178917 C30.1592601,38.0178917 38.0175026,30.1592601 38.0175026,20.5 C38.0175026,20.3019193 38.0132218,20.0913854 38.0050495,19.8746251 L22.9851551,19.8746251 L22.9851551,23.2630131 L33.4772106,23.2634022 L32.9946562,25.1278523 C32.3229717,27.7243062 30.6943505,30.0584684 28.4088329,31.6991533 C26.1610634,33.3129865 23.3525191,34.2014314 20.5,34.2014314 C12.9449106,34.2014314 6.79856871,28.0550894 6.79856871,20.5 C6.79856871,12.9452998 12.9449106,6.79856871 20.5,6.79856871 C22.5489104,6.79856871 24.5550134,7.25310381 26.3840503,8.12364747 L28.1193003,4.72202822 C25.7559513,3.58063146 23.1486009,2.98249744 20.5,2.98249744 Z"></path>
                    </g>
                </g>
            </g>
        </g>
    </g>
</svg>
