<?xml version="1.0" encoding="UTF-8"?>
<svg width="34px" height="45px" viewBox="0 0 34 45" version="1.1" xmlns="http://www.w3.org/2000/svg" xmlns:xlink="http://www.w3.org/1999/xlink">
    <!-- Generator: sketchtool 52.3 (67297) - http://www.bohemiancoding.com/sketch -->
    <title>76592BE3-50FC-4C1D-AADF-C0D6E1A3358C</title>
    <desc>Created with sketchtool.</desc>
    <g  stroke="none" stroke-width="1" fill="none" fill-rule="evenodd">
        <g  transform="translate(-158.000000, -2809.000000)" fill="#FF9F00">
            <g  transform="translate(150.000000, 2378.000000)">
                <g  transform="translate(0.000000, 431.000000)">
                    <g  transform="translate(8.000000, 0.000000)">
                        <g>
                            <rect  x="15.46875" y="36.5625" width="2.8125" height="2.8125"></rect>
                            <rect  x="30.9375" y="16.875" width="2.8125" height="2.8125"></rect>
                            <rect  x="30.9375" y="22.5" width="2.8125" height="2.8125"></rect>
                            <path d="M29.53125,0 L4.21875,0 C1.88876953,0 0,1.88876953 0,4.21875 L0,40.78125 C0,43.1112305 1.88876953,45 4.21875,45 L29.53125,45 C31.8612305,45 33.75,43.1112305 33.75,40.78125 L33.75,28.125 L30.9375,28.125 L30.9375,30.9375 L25.3125,30.9375 L25.3125,20.7421875 L27.28125,22.21875 L28.96875,19.96875 L16.875,10.8984375 L4.78125,19.96875 L6.46875,22.21875 L8.4375,20.7421875 L8.4375,30.9375 L2.8125,30.9375 L2.8125,8.4375 L30.9375,8.4375 L30.9375,14.0625 L33.75,14.0625 L33.75,4.21875 C33.75,1.88876953 31.8612305,0 29.53125,0 Z M11.25,18.6328125 L16.875,14.4140625 L22.5,18.6328125 L22.5,30.9375 L18.28125,30.9375 L18.28125,25.3125 L15.46875,25.3125 L15.46875,30.9375 L11.25,30.9375 L11.25,18.6328125 Z M30.9375,33.75 L30.9375,40.78125 C30.9375,41.5579395 30.3079395,42.1875 29.53125,42.1875 L4.21875,42.1875 C3.44206055,42.1875 2.8125,41.5579395 2.8125,40.78125 L2.8125,33.75 L30.9375,33.75 Z M30.9375,5.625 L2.8125,5.625 L2.8125,4.21875 C2.8125,3.44206055 3.44206055,2.8125 4.21875,2.8125 L29.53125,2.8125 C30.3079395,2.8125 30.9375,3.44206055 30.9375,4.21875 L30.9375,5.625 Z"  fill-rule="nonzero"></path>
                        </g>
                    </g>
                </g>
            </g>
        </g>
    </g>
</svg>
