<?xml version="1.0" encoding="UTF-8"?>
<svg width="50px" height="38px" viewBox="0 0 50 38" version="1.1" xmlns="http://www.w3.org/2000/svg" xmlns:xlink="http://www.w3.org/1999/xlink">
    <!-- Generator: sketchtool 52.3 (67297) - http://www.bohemiancoding.com/sketch -->
    <title>A4726114-6250-44AB-B77E-64263EB784FE</title>
    <desc>Created with sketchtool.</desc>
    <g  stroke="none" stroke-width="1" fill="none" fill-rule="evenodd">
        <g  transform="translate(-134.000000, -2146.000000)" fill="#FF9F00">
            <g  transform="translate(134.000000, 1944.000000)">
                <g  transform="translate(0.000000, 199.000000)">
                    <g  transform="translate(0.000000, 3.000000)">
                        <g >
                            <path d="M49.0484375,6.4375 C48.6366211,3.66015625 46.4335938,1.49228516 43.65,1.125 C42.5333008,0.990625 41.4161133,0.867675781 40.2984375,0.75625 L39.9859375,3.8671875 C41.0828125,3.97138672 42.1765625,4.09169922 43.2671875,4.228125 C44.6607422,4.42480469 45.7556641,5.52041016 45.9515625,6.9140625 C46.5598633,10.8301758 46.8686523,14.7869141 46.875,18.75 C46.872168,22.7123047 46.5666016,26.6686523 45.9609375,30.584375 C45.7662109,31.9771484 44.6734375,33.0730469 43.28125,33.271875 C31.1408203,34.7359375 18.8685547,34.7359375 6.728125,33.271875 C5.33457031,33.0751953 4.23964844,31.9795898 4.04375,30.5859375 C2.825,22.7423828 2.825,14.7576172 4.04375,6.9140625 C4.23857422,5.52333984 5.32880859,4.42861328 6.71875,4.228125 C12.6354492,3.51425781 18.5888672,3.14589844 24.5484375,3.125 L24.5390625,-8.52651283e-14 C18.4587891,0.0213867187 12.3849609,0.396972656 6.3484375,1.125 C3.56542969,1.49287109 1.36328125,3.66064453 0.9515625,6.4375 C-0.3171875,14.5973633 -0.3171875,22.9041992 0.9515625,31.0640625 C1.36328125,33.840918 3.56542969,36.0086914 6.3484375,36.3765625 C12.5375977,37.1230469 18.765918,37.4981445 25,37.5 C31.234082,37.496875 37.4623047,37.1211914 43.6515625,36.375 C46.4345703,36.0071289 48.6367188,33.8393555 49.0484375,31.0625 C49.6791016,26.9885742 49.997168,22.8724609 50,18.75 C49.9967773,14.6275391 49.6786133,10.5114258 49.0484375,6.4375 Z" ></path>
                            <path d="M30.8515625,0.1109375 C29.7995117,0.0703125 28.7479492,0.0411132812 27.696875,0.0234375 L27.640625,3.1484375 C28.671875,3.16513672 29.7026367,3.19326172 30.7328125,3.2328125 L30.8515625,0.1109375 Z" ></path>
                            <path d="M37.1515625,0.478125 C36.1036133,0.396875 35.0546875,0.325 34.0046875,0.2625 L33.821875,3.3875 C34.8510742,3.44892578 35.8801758,3.51982422 36.909375,3.6 L37.1515625,0.478125 Z" ></path>
                            <path d="M18.75,29.3828125 L35.7609375,18.75 L18.75,8.125 L18.75,29.3828125 Z M21.875,13.7578125 L29.8640625,18.75 L21.875,23.75 L21.875,13.7578125 Z"  fill-rule="nonzero"></path>
                        </g>
                    </g>
                </g>
            </g>
        </g>
    </g>
</svg>
