<?xml version="1.0" encoding="UTF-8"?>
<svg width="45px" height="45px" viewBox="0 0 45 45" version="1.1" xmlns="http://www.w3.org/2000/svg" xmlns:xlink="http://www.w3.org/1999/xlink">
    <!-- Generator: sketchtool 52.3 (67297) - http://www.bohemiancoding.com/sketch -->
    <title>A8689E48-96F9-4166-AB6C-11B4105C6428</title>
    <desc>Created with sketchtool.</desc>
    <g  stroke="none" stroke-width="1" fill="none" fill-rule="evenodd">
        <g  transform="translate(-758.000000, -2607.000000)" fill="#FF9F00">
            <g  transform="translate(134.000000, 1944.000000)">
                <g  transform="translate(0.000000, 663.000000)">
                    <g  transform="translate(624.000000, 0.000000)">
                        <g>
                            <path d="M0,0 L0,45 L45,45 L45,0 L0,0 Z M42.1875,42.1875 L2.8125,42.1875 L2.8125,14.0625 L42.1875,14.0625 L42.1875,42.1875 Z M42.1875,11.25 L2.8125,11.25 L2.8125,2.8125 L42.1875,2.8125 L42.1875,11.25 Z"  fill-rule="nonzero"></path>
                            <rect  x="5.625" y="5.625" width="2.8125" height="2.8125"></rect>
                            <rect  x="11.25" y="5.625" width="2.8125" height="2.8125"></rect>
                            <rect  x="16.875" y="5.625" width="22.5" height="2.8125"></rect>
                            <path d="M28.125,32.34375 C27.3483105,32.34375 26.71875,31.7141895 26.71875,30.9375 L23.90625,30.9375 C23.90625,33.2674805 25.7950195,35.15625 28.125,35.15625 C30.4549805,35.15625 32.34375,33.2674805 32.34375,30.9375 C32.34375,28.6075195 30.4549805,26.71875 28.125,26.71875 C27.3483105,26.71875 26.71875,26.0891895 26.71875,25.3125 C26.71875,24.5358105 27.3483105,23.90625 28.125,23.90625 C28.9016895,23.90625 29.53125,24.5358105 29.53125,25.3125 L32.34375,25.3125 C32.34375,22.9825195 30.4549805,21.09375 28.125,21.09375 C25.7950195,21.09375 23.90625,22.9825195 23.90625,25.3125 C23.90625,27.6424805 25.7950195,29.53125 28.125,29.53125 C28.9016895,29.53125 29.53125,30.1608105 29.53125,30.9375 C29.53125,31.7141895 28.9016895,32.34375 28.125,32.34375 Z" ></path>
                            <path d="M16.875,35.15625 C19.2049805,35.15625 21.09375,33.2674805 21.09375,30.9375 L21.09375,21.09375 L18.28125,21.09375 L18.28125,30.9375 C18.28125,31.7141895 17.6516895,32.34375 16.875,32.34375 C16.0983105,32.34375 15.46875,31.7141895 15.46875,30.9375 L15.46875,29.53125 L12.65625,29.53125 L12.65625,30.9375 C12.65625,33.2674805 14.5450195,35.15625 16.875,35.15625 Z" ></path>
                        </g>
                    </g>
                </g>
            </g>
        </g>
    </g>
</svg>
