<?xml version="1.0" encoding="UTF-8"?>
<svg width="45px" height="44px" viewBox="0 0 45 44" version="1.1" xmlns="http://www.w3.org/2000/svg" xmlns:xlink="http://www.w3.org/1999/xlink">
    <!-- Generator: sketchtool 52.3 (67297) - http://www.bohemiancoding.com/sketch -->
    <title>F053714B-539A-4154-9A98-C1F5F30D6886</title>
    <desc>Created with sketchtool.</desc>
    <g  stroke="none" stroke-width="1" fill="none" fill-rule="evenodd">
        <g  transform="translate(-772.000000, -2577.000000)" fill="#FF9F00">
            <g  transform="translate(150.000000, 2378.000000)">
                <g  transform="translate(0.000000, 199.000000)">
                    <g  transform="translate(622.000000, 0.000000)">
                        <g>
                            <path d="M22.5,0.03375 L0,9.03375 L0,43.7357813 L8.4375,43.7357813 L8.4375,21.2357812 L36.5625,21.2357812 L36.5625,43.7357813 L45,43.7357813 L45,9.03375 L22.5,0.03375 Z M42.1875,40.9232813 L39.375,40.9232813 L39.375,18.4232813 L5.625,18.4232813 L5.625,40.9232813 L2.8125,40.9232813 L2.8125,10.9378125 L22.5,3.0628125 L42.1875,10.9378125 L42.1875,40.9232813 Z"  fill-rule="nonzero"></path>
                            <path d="M33.75,32.4857813 L14.0625,32.4857813 L14.0625,43.7357813 L33.75,43.7357813 L33.75,32.4857813 Z M22.5,40.9232813 L16.875,40.9232813 L16.875,35.2982813 L22.5,35.2982813 L22.5,40.9232813 Z M25.3125,35.2982813 L30.9375,35.2982813 L30.9375,40.9232813 L25.3125,40.9232813 L25.3125,35.2982813 Z"  fill-rule="nonzero"></path>
                            <rect  x="19" y="11" width="2.8125" height="2.8125"></rect>
                            <rect  x="24" y="11" width="2.8125" height="2.8125"></rect>
                        </g>
                    </g>
                </g>
            </g>
        </g>
    </g>
</svg>
