<?xml version="1.0" encoding="iso-8859-1"?>
<!-- Generator: Adobe Illustrator 19.0.0, SVG Export Plug-In . SVG Version: 6.00 Build 0)  -->
<svg xmlns="http://www.w3.org/2000/svg" xmlns:xlink="http://www.w3.org/1999/xlink" version="1.1"  x="0px" y="0px" viewBox="0 0 512 512" style="enable-background:new 0 0 512 512;" xml:space="preserve" width="45px" height="45px">
<g>
	<g>
		<g>
			<path d="M464,56.544h-16v32h16c8.837,0,16,7.163,16,16v208h-64v32h64v32c0,8.837-7.163,16-16,16H48c-8.837,0-16-7.163-16-16v-32     h224v-32H32v-208c0-8.837,7.163-16,16-16h16v-32H48c-26.51,0-48,21.49-48,48v272c0,26.51,21.49,48,48,48h128v48h-32v32h224v-32     h-32v-48h128c26.51,0,48-21.49,48-48v-272C512,78.034,490.51,56.544,464,56.544z M304,472.544h-96v-48h96V472.544z" fill="#FF9F00"/>
			<rect x="352" y="312.544" width="32" height="32" fill="#FF9F00"/>
			<rect x="288" y="312.544" width="32" height="32" fill="#FF9F00"/>
			<path d="M160,216.544h192V101.632l77.568-29.088L256,7.456L82.432,72.544L160,101.632V216.544z M320,184.544H192v-70.912l64,24     l64-24V184.544z M256,41.632l82.432,30.912L256,103.456l-82.432-30.912L256,41.632z" fill="#FF9F00"/>
		</g>
	</g>
</g>
<g>
</g>
<g>
</g>
<g>
</g>
<g>
</g>
<g>
</g>
<g>
</g>
<g>
</g>
<g>
</g>
<g>
</g>
<g>
</g>
<g>
</g>
<g>
</g>
<g>
</g>
<g>
</g>
<g>
</g>
</svg>
