<svg height="21" viewBox="0 0 20 21" width="20" xmlns="http://www.w3.org/2000/svg"><path d="m10 .25c1.3802152 0 2.6790304.26041406 3.8964844.78125s2.2786413 1.23371943 3.1835937 2.13867188c.9049525.90495244 1.617836 1.96613974 2.1386719 3.18359374.5208359 1.21745401.78125 2.51626915.78125 3.89648438 0 1.3802152-.2604141 2.6790304-.78125 3.8964844s-1.2337194 2.2786413-2.1386719 3.1835937c-.9049524.9049525-1.9661397 1.617836-3.1835937 2.1386719s-2.5162692.78125-3.8964844.78125c-1.38021523 0-2.67903037-.2604141-3.89648438-.78125-1.217454-.5208359-2.2786413-1.2337194-3.18359374-2.1386719-.90495245-.9049524-1.61783594-1.9661397-2.13867188-3.1835937s-.78125-2.5162692-.78125-3.8964844c0-1.38021523.26041406-2.67903037.78125-3.89648438.52083594-1.217454 1.23371943-2.2786413 2.13867188-3.18359374.90495244-.90495245 1.96613974-1.61783594 3.18359374-2.13867188 1.21745401-.52083594 2.51626915-.78125 3.89648438-.78125zm0 18.7695312c1.2109436 0 2.3469999-.2311174 3.4082031-.6933593s1.9856732-1.0904908 2.7734375-1.8847657c.7877644-.7942748 1.4127581-1.7219999 1.875-2.7832031s.6933594-2.1972595.6933594-3.4082031c0-1.21094355-.2311175-2.3469999-.6933594-3.40820312-.4622419-1.06120323-1.0872356-1.98567315-1.875-2.7734375-.7877643-.78776436-1.7122343-1.41275811-2.7734375-1.875-1.0612032-.4622419-2.1972595-.69335938-3.4082031-.69335938-1.21094355 0-2.3469999.23111748-3.40820312.69335938-1.06120323.46224189-1.98567315 1.08723564-2.7734375 1.875-.78776436.78776435-1.41275811 1.71223427-1.875 2.7734375-.4622419 1.06120322-.69335938 2.19725957-.69335938 3.40820312 0 1.2109436.23111748 2.3469999.69335938 3.4082031.46224189 1.0612032 1.08723564 1.9889283 1.875 2.7832031.78776435.7942749 1.71223427 1.4225238 2.7734375 1.8847657 1.06120322.4622419 2.19725957.6933593 3.40820312.6933593zm.625-9.02343745 2.9492188 2.94921875c.117188.1171881.1757812.263671.1757812.4394531 0 .1757822-.0585932.3222651-.1757812.4394532-.1171881.1302089-.263671.1953124-.4394532.1953124-.1757821 0-.322265-.0651035-.4394531-.1953124l-3.10546875-3.0859376c0-.0130208-.00325518-.0227864-.00976563-.0292968-.00651044-.0065105-.00976562-.0097656-.00976562-.0097656-.06510449-.0520836-.11393213-.1171872-.14648438-.1953126-.03255224-.0781253-.04882812-.1627599-.04882812-.2539062v-6.25c0-.16927168.06184834-.31575459.18554688-.43945312.12369853-.12369854.27018144-.18554688.43945312-.18554688.1692717 0 .3157546.06184834.4394531.18554688.1236986.12369853.1855469.27018144.1855469.43945312z" fill="#000ee6" fill-rule="evenodd"/></svg>