<svg height="87" viewBox="0 0 87 87" width="87" xmlns="http://www.w3.org/2000/svg" xmlns:xlink="http://www.w3.org/1999/xlink"><linearGradient id="a"><stop offset="0" stop-color="#000ee6"/><stop offset="1" stop-color="#fff"/></linearGradient><linearGradient id="b" x1="24.065748%" x2="1526.44757%" xlink:href="#a" y1="23.749579%" y2="1544.45313%"/><linearGradient id="c" x1="-168.241922%" x2="1333.86469%" xlink:href="#a" y1="-170.947593%" y2="1349.75596%"/><linearGradient id="d" x1="-360.71398%" x2="1141.94316%" xlink:href="#a" y1="-365.644765%" y2="1155.05879%"/><linearGradient id="e" x1="-552.885061%" x2="949.221552%" xlink:href="#a" y1="-560.341938%" y2="960.361616%"/><linearGradient id="f" x1="-745.343182%" x2="757.038642%" xlink:href="#a" y1="-755.039249%" y2="765.664306%"/><linearGradient id="g" x1="-170.631451%" x2="1331.75037%" xlink:href="#a" y1="-173.277252%" y2="1347.14773%"/><linearGradient id="h" x1="-362.903444%" x2="1139.20317%" xlink:href="#a" y1="-367.93876%" y2="1152.48623%"/><linearGradient id="i" x1="-555.446832%" x2="947.210306%" xlink:href="#a" y1="-562.600266%" y2="957.824721%"/><linearGradient id="j" x1="-747.546602%" x2="754.560011%" xlink:href="#a" y1="-757.261773%" y2="763.163213%"/><linearGradient id="k" x1="-940.040355%" x2="562.341469%" xlink:href="#a" y1="-951.923279%" y2="568.501707%"/><linearGradient id="l" x1="-365.328622%" x2="1137.0532%" xlink:href="#a" y1="-370.472098%" y2="1150.51013%"/><linearGradient id="m" x1="-557.56497%" x2="944.541643%" xlink:href="#a" y1="-565.20495%" y2="955.777275%"/><linearGradient id="n" x1="-750.179703%" x2="752.477434%" xlink:href="#a" y1="-759.937799%" y2="761.044426%"/><linearGradient id="o" x1="-942.208126%" x2="559.898487%" xlink:href="#a" y1="-954.670651%" y2="566.311574%"/><linearGradient id="p" x1="-1134.73756%" x2="367.644263%" xlink:href="#a" y1="-1149.4035%" y2="371.578725%"/><linearGradient id="q" x1="-560.02583%" x2="942.355995%" xlink:href="#a" y1="-567.35885%" y2="953.066137%"/><linearGradient id="r" x1="-752.22651%" x2="749.880103%" xlink:href="#a" y1="-762.020357%" y2="758.404629%"/><linearGradient id="s" x1="-944.912567%" x2="557.74457%" xlink:href="#a" y1="-956.681863%" y2="563.743123%"/><linearGradient id="t" x1="-1136.86964%" x2="365.236968%" xlink:href="#a" y1="-1151.34337%" y2="369.081616%"/><linearGradient id="u" x1="-1329.43475%" x2="172.947074%" xlink:href="#a" y1="-1346.00502%" y2="174.419969%"/><linearGradient id="v" x1="-754.723038%" x2="747.658787%" xlink:href="#a" y1="-764.5397%" y2="756.163855%"/><linearGradient id="w" x1="-946.888018%" x2="555.218595%" xlink:href="#a" y1="-959.236942%" y2="561.466612%"/><linearGradient id="x" x1="-1139.64545%" x2="363.011686%" xlink:href="#a" y1="-1153.93405%" y2="366.769509%"/><linearGradient id="y" x1="-1331.53117%" x2="170.575439%" xlink:href="#a" y1="-1348.63136%" y2="172.072199%"/><linearGradient id="z" x1="-1524.13194%" x2="-21.750114%" xlink:href="#a" y1="-1543.32853%" y2="-22.624974%"/><g fill="none" fill-rule="evenodd" transform="matrix(.70710678 .70710678 -.70710678 .70710678 43.559921 -42)"><path d="m60.4153997 117.257639c-.8283254 0-1.5.671674-1.5 1.5 0 .828325.6716746 1.5 1.5 1.5s1.5-.671675 1.5-1.5c0-.828326-.6716746-1.5-1.5-1.5z" fill="url(#b)" transform="matrix(-.70710678 -.70710678 .70710678 -.70710678 19.161207 245.45211)"/><path d="m45.846489 102.688453c-.8281736 0-1.5002747.671675-1.5002747 1.5 0 .828326.6721011 1.5 1.5002747 1.5.8281737 0 1.4997253-.671674 1.4997253-1.5 0-.828325-.6715516-1.5-1.4997253-1.5z" fill="url(#c)" transform="matrix(-.70710678 -.70710678 .70710678 -.70710678 4.592021 210.278983)"/><path d="m31.2766752 88.1191891c-.8284772 0-1.4997252.6716746-1.4997252 1.5s.671248 1.5 1.4997252 1.5c.8290269 0 1.5002748-.6716746 1.5002748-1.5s-.6712479-1.5-1.5002748-1.5z" fill="url(#d)" transform="matrix(-.70710678 -.70710678 .70710678 -.70710678 -9.977243 175.105669)"/><path d="m16.1246597 72.9671736c-.8281736 0-1.4997252.6716746-1.4997252 1.5s.6715516 1.5 1.4997252 1.5c.8281737 0 1.5002748-.6716746 1.5002748-1.5s-.6721011-1.5-1.5002748-1.5z" fill="url(#e)" transform="matrix(-.70710678 -.70710678 .70710678 -.70710678 -25.129258 138.525469)"/><path d="m2.13851788 58.980757c-.8283254 0-1.5.6716746-1.5 1.5s.6716746 1.5 1.5 1.5c.82832539 0 1.5-.6716746 1.5-1.5s-.67167461-1.5-1.5-1.5z" fill="url(#f)" transform="matrix(-.70710678 -.70710678 .70710678 -.70710678 -39.115675 104.759271)"/><path d="m73.6425318 104.030781c0 .828174.6716747 1.499726 1.5 1.499726.8283254 0 1.5-.671552 1.5-1.499726 0-.828173-.6716746-1.500274-1.5-1.500274-.8283253 0-1.5.672101-1.5 1.500274" fill="url(#g)" transform="matrix(-.70710678 -.70710678 .70710678 -.70710678 54.715649 230.724978)"/><path d="m59.0733464 89.461596c0 .8281736.6721011 1.4997252 1.5002748 1.4997252.8281736 0 1.4997252-.6715516 1.4997252-1.4997252 0-.8281737-.6715516-1.5002748-1.4997252-1.5002748-.8281737 0-1.5002748.6721011-1.5002748 1.5002748" fill="url(#h)" transform="matrix(-.70710678 -.70710678 .70710678 -.70710678 40.146463 195.551851)"/><path d="m44.5040822 74.8923317c0 .8281737.6712479 1.4997253 1.4997251 1.4997253.8290269 0 1.5002749-.6715516 1.5002749-1.4997253 0-.8281736-.671248-1.5002747-1.5002749-1.5002747-.8284772 0-1.4997251.6721011-1.4997251 1.5002747" fill="url(#i)" transform="matrix(-.70710678 -.70710678 .70710678 -.70710678 25.577199 160.378537)"/><path d="m29.3520666 59.7403162c0 .8281737.6715516 1.4997253 1.4997253 1.4997253.8281736 0 1.5002747-.6715516 1.5002747-1.4997253 0-.8281736-.6721011-1.5002747-1.5002747-1.5002747-.8281737 0-1.4997253.6721011-1.4997253 1.5002747" fill="url(#j)" transform="matrix(-.70710678 -.70710678 .70710678 -.70710678 10.425185 123.798335)"/><path d="m15.36565 45.7538996c0 .8281737.6716746 1.4997252 1.5 1.4997252s1.5-.6715515 1.5-1.4997252-.6716746-1.5002748-1.5-1.5002748-1.5.6721011-1.5 1.5002748" fill="url(#k)" transform="matrix(-.70710678 -.70710678 .70710678 -.70710678 -3.561233 90.032139)"/><path d="m88.3697252 89.3035881c0 .8284772.6716746 1.4997252 1.5 1.4997252s1.5-.671248 1.5-1.4997252c0-.8290269-.6716746-1.5002748-1.5-1.5002748s-1.5.6712479-1.5 1.5002748" fill="url(#l)" transform="matrix(-.70710678 -.70710678 .70710678 -.70710678 90.270239 215.997783)"/><path d="m73.8005398 74.7344027c0 .8284772.6721011 1.4997251 1.5002748 1.4997251.8281736 0 1.4997252-.6712479 1.4997252-1.4997251 0-.829027-.6715516-1.5002749-1.4997252-1.5002749-.8281737 0-1.5002748.6712479-1.5002748 1.5002749" fill="url(#m)" transform="matrix(-.70710678 -.70710678 .70710678 -.70710678 75.701054 180.824659)"/><path d="m59.2312756 60.1651385c0 .8284771.6712479 1.4997251 1.4997251 1.4997251.8290269 0 1.5002749-.671248 1.5002749-1.4997251 0-.829027-.671248-1.5002749-1.5002749-1.5002749-.8284772 0-1.4997251.6712479-1.4997251 1.5002749" fill="url(#n)" transform="matrix(-.70710678 -.70710678 .70710678 -.70710678 61.13179 145.651344)"/><path d="m44.0792601 45.0131229c0 .8284772.6715515 1.4997252 1.4997252 1.4997252.8281736 0 1.5002748-.671248 1.5002748-1.4997252 0-.8290269-.6721012-1.5002748-1.5002748-1.5002748-.8281737 0-1.4997252.6712479-1.4997252 1.5002748" fill="url(#o)" transform="matrix(-.70710678 -.70710678 .70710678 -.70710678 45.979774 109.071142)"/><path d="m30.0928434 31.0267063c0 .8284772.6716746 1.4997251 1.5 1.4997251s1.5-.6712479 1.5-1.4997251c0-.8290269-.6716746-1.5002749-1.5-1.5002749s-1.5.671248-1.5 1.5002749" fill="url(#p)" transform="matrix(-.70710678 -.70710678 .70710678 -.70710678 31.993357 75.304944)"/><path d="m103.096936 74.5758276c0 .8281736.671675 1.5002747 1.5 1.5002747.828326 0 1.5-.6721011 1.5-1.5002747 0-.8281737-.671674-1.4997253-1.5-1.4997253-.828325 0-1.5.6715516-1.5 1.4997253" fill="url(#q)" transform="matrix(-.70710678 -.70710678 .70710678 -.70710678 125.824871 201.270572)"/><path d="m88.5277507 60.0066421c0 .8281737.6721011 1.5002748 1.5002748 1.5002748.8281736 0 1.4997252-.6721011 1.4997252-1.5002748 0-.8281736-.6715516-1.4997252-1.4997252-1.4997252-.8281737 0-1.5002748.6715516-1.5002748 1.4997252" fill="url(#r)" transform="matrix(-.70710678 -.70710678 .70710678 -.70710678 111.255686 166.097448)"/><path d="m73.9584865 45.4373779c0 .8281737.6712479 1.5002748 1.4997251 1.5002748.8290269 0 1.5002749-.6721011 1.5002749-1.5002748s-.671248-1.4997252-1.5002749-1.4997252c-.8284772 0-1.4997251.6715515-1.4997251 1.4997252" fill="url(#s)" transform="matrix(-.70710678 -.70710678 .70710678 -.70710678 96.686421 130.924133)"/><path d="m58.806471 30.2853624c0 .8281736.6715515 1.5002747 1.4997252 1.5002747.8281736 0 1.5002748-.6721011 1.5002748-1.5002747 0-.8281737-.6721012-1.4997253-1.5002748-1.4997253-.8281737 0-1.4997252.6715516-1.4997252 1.4997253" fill="url(#t)" transform="matrix(-.70710678 -.70710678 .70710678 -.70710678 81.534406 94.343931)"/><path d="m44.8200543 16.2989457c0 .8281737.6716746 1.5002748 1.5 1.5002748s1.5-.6721011 1.5-1.5002748c0-.8281736-.6716746-1.4997252-1.5-1.4997252s-1.5.6715516-1.5 1.4997252" fill="url(#u)" transform="matrix(-.70710678 -.70710678 .70710678 -.70710678 67.547989 60.577735)"/><path d="m117.257639 60.4153997c0 .8283254.671674 1.5 1.5 1.5.828325 0 1.5-.6716746 1.5-1.5s-.671675-1.5-1.5-1.5c-.828326 0-1.5.6716746-1.5 1.5" fill="url(#v)" transform="matrix(-.70710678 -.70710678 .70710678 -.70710678 160.011832 187.109871)"/><path d="m102.688453 45.8462143c0 .8283253.672101 1.5 1.500275 1.5s1.499725-.6716747 1.499725-1.5c0-.8283254-.671551-1.5-1.499725-1.5s-1.500275.6716746-1.500275 1.5" fill="url(#w)" transform="matrix(-.70710678 -.70710678 .70710678 -.70710678 145.442646 151.936744)"/><path d="m88.1191891 31.27695c0 .8283254.671248 1.5 1.4997251 1.5.829027 0 1.5002749-.6716746 1.5002749-1.5s-.6712479-1.5-1.5002749-1.5c-.8284771 0-1.4997251.6716746-1.4997251 1.5" fill="url(#x)" transform="matrix(-.70710678 -.70710678 .70710678 -.70710678 130.873382 116.76343)"/><path d="m72.9671736 16.1249345c0 .8283254.6715516 1.5 1.4997252 1.5.8281737 0 1.5002748-.6716746 1.5002748-1.5s-.6721011-1.5-1.5002748-1.5c-.8281736 0-1.4997252.6716746-1.4997252 1.5" fill="url(#y)" transform="matrix(-.70710678 -.70710678 .70710678 -.70710678 115.721367 80.18323)"/><path d="m58.980757 2.13851788c0 .82832539.6716746 1.5 1.5 1.5s1.5-.67167461 1.5-1.5c0-.8283254-.6716746-1.5-1.5-1.5s-1.5.6716746-1.5 1.5" fill="url(#z)" transform="matrix(-.70710678 -.70710678 .70710678 -.70710678 101.73495 46.417032)"/></g></svg>