<svg height="186" viewBox="0 0 186 186" width="186" xmlns="http://www.w3.org/2000/svg" xmlns:xlink="http://www.w3.org/1999/xlink"><linearGradient id="a"><stop offset="0" stop-color="#000ee6"/><stop offset="1" stop-color="#fff"/></linearGradient><linearGradient id="b" x1="24.065748%" x2="1526.44757%" xlink:href="#a" y1="23.749579%" y2="1544.45313%"/><linearGradient id="c" x1="-168.241922%" x2="1333.86469%" xlink:href="#a" y1="-170.947593%" y2="1349.75596%"/><linearGradient id="d" x1="-360.71398%" x2="1141.94316%" xlink:href="#a" y1="-365.644765%" y2="1155.05879%"/><linearGradient id="e" x1="-552.885061%" x2="949.221552%" xlink:href="#a" y1="-560.341938%" y2="960.361616%"/><linearGradient id="f" x1="-745.343182%" x2="757.038642%" xlink:href="#a" y1="-755.039249%" y2="765.664306%"/><linearGradient id="g" x1="-170.631451%" x2="1331.75037%" xlink:href="#a" y1="-173.277252%" y2="1347.14773%"/><linearGradient id="h" x1="-362.903444%" x2="1139.20317%" xlink:href="#a" y1="-367.93876%" y2="1152.48623%"/><linearGradient id="i" x1="-555.446832%" x2="947.210306%" xlink:href="#a" y1="-562.600266%" y2="957.824721%"/><linearGradient id="j" x1="-747.546602%" x2="754.560011%" xlink:href="#a" y1="-757.261773%" y2="763.163213%"/><linearGradient id="k" x1="-940.040355%" x2="562.341469%" xlink:href="#a" y1="-951.923279%" y2="568.501707%"/><linearGradient id="l" x1="-365.328622%" x2="1137.0532%" xlink:href="#a" y1="-370.472098%" y2="1150.51013%"/><linearGradient id="m" x1="-557.56497%" x2="944.541643%" xlink:href="#a" y1="-565.20495%" y2="955.777275%"/><linearGradient id="n" x1="-750.179703%" x2="752.477434%" xlink:href="#a" y1="-759.937799%" y2="761.044426%"/><linearGradient id="o" x1="-942.208126%" x2="559.898487%" xlink:href="#a" y1="-954.670651%" y2="566.311574%"/><linearGradient id="p" x1="-1134.73756%" x2="367.644263%" xlink:href="#a" y1="-1149.4035%" y2="371.578725%"/><linearGradient id="q" x1="-560.02583%" x2="942.355995%" xlink:href="#a" y1="-567.35885%" y2="953.066137%"/><linearGradient id="r" x1="-752.22651%" x2="749.880103%" xlink:href="#a" y1="-762.020357%" y2="758.404629%"/><linearGradient id="s" x1="-944.912567%" x2="557.74457%" xlink:href="#a" y1="-956.681863%" y2="563.743123%"/><linearGradient id="t" x1="-1136.86964%" x2="365.236968%" xlink:href="#a" y1="-1151.34337%" y2="369.081616%"/><linearGradient id="u" x1="-1329.43475%" x2="172.947074%" xlink:href="#a" y1="-1346.00502%" y2="174.419969%"/><linearGradient id="v" x1="-754.723038%" x2="747.658787%" xlink:href="#a" y1="-764.5397%" y2="756.163855%"/><linearGradient id="w" x1="-946.888018%" x2="555.218595%" xlink:href="#a" y1="-959.236942%" y2="561.466612%"/><linearGradient id="x" x1="-1139.64545%" x2="363.011686%" xlink:href="#a" y1="-1153.93405%" y2="366.769509%"/><linearGradient id="y" x1="-1331.53117%" x2="170.575439%" xlink:href="#a" y1="-1348.63136%" y2="172.072199%"/><linearGradient id="z" x1="-1524.13194%" x2="-21.750114%" xlink:href="#a" y1="-1543.32853%" y2="-22.624974%"/><g fill="none" fill-rule="evenodd" opacity=".34615" transform="translate(-1 -1)"><path d="m94.2012201 183.911386c-.8283254 0-1.5.671675-1.5 1.5 0 .828326.6716746 1.5 1.5 1.5s1.5-.671674 1.5-1.5c0-.828325-.6716746-1.5-1.5-1.5z" fill="url(#b)" transform="matrix(-.70710678 -.70710678 .70710678 -.70710678 29.705893 383.127356)"/><path d="m71.4244976 161.134389c-.8281737 0-1.5002748.671675-1.5002748 1.5 0 .828326.6721011 1.5 1.5002748 1.5.8281736 0 1.4997252-.671674 1.4997252-1.5 0-.828325-.6715516-1.5-1.4997252-1.5z" fill="url(#c)" transform="matrix(-.70710678 -.70710678 .70710678 -.70710678 6.928896 328.138821)"/><path d="m48.6469507 138.357392c-.8284772 0-1.4997252.671674-1.4997252 1.5 0 .828325.671248 1.5 1.4997252 1.5.8290269 0 1.5002748-.671675 1.5002748-1.5 0-.828326-.6712479-1.5-1.5002748-1.5z" fill="url(#d)" transform="matrix(-.70710678 -.70710678 .70710678 -.70710678 -15.848101 273.150286)"/><path d="m24.9588736 114.669315c-.8281737 0-1.4997252.671674-1.4997252 1.5 0 .828325.6715515 1.5 1.4997252 1.5.8281736 0 1.5002748-.671675 1.5002748-1.5 0-.828326-.6721012-1.5-1.5002748-1.5z" fill="url(#e)" transform="matrix(-.70710678 -.70710678 .70710678 -.70710678 -39.53618 215.962208)"/><path d="m3.09323097 92.8033973c-.82832539 0-1.5.6716746-1.5 1.5s.67167461 1.5 1.5 1.5c.8283254 0 1.5-.6716746 1.5-1.5s-.6716746-1.5-1.5-1.5z" fill="url(#f)" transform="matrix(-.70710678 -.70710678 .70710678 -.70710678 -61.402096 163.173213)"/><path d="m115.725146 162.387736c0 .828173.671674 1.499725 1.5 1.499725.828325 0 1.5-.671552 1.5-1.499725 0-.828174-.671675-1.500275-1.5-1.500275-.828326 0-1.5.672101-1.5 1.500275" fill="url(#g)" transform="matrix(-.70710678 -.70710678 .70710678 -.70710678 85.290567 360.103432)"/><path d="m92.9481483 139.610738c0 .828174.6721011 1.499726 1.5002748 1.499726.8281736 0 1.4997252-.671552 1.4997252-1.499726 0-.828173-.6715516-1.500274-1.4997252-1.500274-.8281737 0-1.5002748.672101-1.5002748 1.500274" fill="url(#h)" transform="matrix(-.70710678 -.70710678 .70710678 -.70710678 62.513568 305.114896)"/><path d="m70.171151 116.833741c0 .828174.6712479 1.499725 1.4997251 1.499725.829027 0 1.5002749-.671551 1.5002749-1.499725s-.6712479-1.500275-1.5002749-1.500275c-.8284772 0-1.4997251.672101-1.4997251 1.500275" fill="url(#i)" transform="matrix(-.70710678 -.70710678 .70710678 -.70710678 39.736572 250.126359)"/><path d="m46.4830738 93.145664c0 .8281736.6715516 1.4997252 1.4997253 1.4997252.8281736 0 1.5002747-.6715516 1.5002747-1.4997252 0-.8281737-.6721011-1.5002748-1.5002747-1.5002748-.8281737 0-1.4997253.6721011-1.4997253 1.5002748" fill="url(#j)" transform="matrix(-.70710678 -.70710678 .70710678 -.70710678 16.048495 192.938282)"/><path d="m24.6171564 71.2797466c0 .8281736.6716747 1.4997252 1.5 1.4997252.8283254 0 1.5-.6715516 1.5-1.4997252 0-.8281737-.6716746-1.5002748-1.5-1.5002748-.8283253 0-1.5.6721011-1.5 1.5002748" fill="url(#k)" transform="matrix(-.70710678 -.70710678 .70710678 -.70710678 -5.817424 140.149288)"/><path d="m138.749071 139.36381c0 .828478.671675 1.499725 1.5 1.499725s1.5-.671247 1.5-1.499725c0-.829027-.671675-1.500275-1.5-1.500275s-1.5.671248-1.5 1.500275" fill="url(#l)" transform="matrix(-.70710678 -.70710678 .70710678 -.70710678 140.87524 337.079505)"/><path d="m115.972074 116.586813c0 .828477.672101 1.499725 1.500275 1.499725.828173 0 1.499725-.671248 1.499725-1.499725 0-.829027-.671552-1.500275-1.499725-1.500275-.828174 0-1.500275.671248-1.500275 1.500275" fill="url(#m)" transform="matrix(-.70710678 -.70710678 .70710678 -.70710678 118.098243 282.09097)"/><path d="m93.1950765 93.8098158c0 .8284771.6712479 1.4997251 1.4997251 1.4997251.8290269 0 1.5002749-.671248 1.5002749-1.4997251 0-.829027-.671248-1.5002749-1.5002749-1.5002749-.8284772 0-1.4997251.6712479-1.4997251 1.5002749" fill="url(#n)" transform="matrix(-.70710678 -.70710678 .70710678 -.70710678 95.321244 227.102434)"/><path d="m69.5069993 70.1217386c0 .8284772.6715516 1.4997251 1.4997252 1.4997251.8281737 0 1.5002748-.6712479 1.5002748-1.4997251 0-.8290269-.6721011-1.5002749-1.5002748-1.5002749-.8281736 0-1.4997252.671248-1.4997252 1.5002749" fill="url(#o)" transform="matrix(-.70710678 -.70710678 .70710678 -.70710678 71.633167 169.914357)"/><path d="m47.6410819 48.2558212c0 .8284772.6716746 1.4997251 1.5 1.4997251s1.5-.6712479 1.5-1.4997251c0-.8290269-.6716746-1.5002749-1.5-1.5002749s-1.5.671248-1.5 1.5002749" fill="url(#p)" transform="matrix(-.70710678 -.70710678 .70710678 -.70710678 49.767251 117.125362)"/><path d="m161.772997 116.339335c0 .828174.671674 1.500275 1.5 1.500275.828325 0 1.5-.672101 1.5-1.500275 0-.828173-.671675-1.499725-1.5-1.499725-.828326 0-1.5.671552-1.5 1.499725" fill="url(#q)" transform="matrix(-.70710678 -.70710678 .70710678 -.70710678 196.459913 314.055581)"/><path d="m138.995999 93.5623379c0 .8281737.672101 1.5002748 1.500275 1.5002748s1.499725-.6721011 1.499725-1.5002748c0-.8281736-.671551-1.4997252-1.499725-1.4997252s-1.500275.6715516-1.500275 1.4997252" fill="url(#r)" transform="matrix(-.70710678 -.70710678 .70710678 -.70710678 173.682915 259.067045)"/><path d="m116.219002 70.7853406c0 .8281737.671248 1.5002748 1.499725 1.5002748.829027 0 1.500275-.6721011 1.500275-1.5002748 0-.8281736-.671248-1.4997252-1.500275-1.4997252-.828477 0-1.499725.6715516-1.499725 1.4997252" fill="url(#s)" transform="matrix(-.70710678 -.70710678 .70710678 -.70710678 150.905918 204.078508)"/><path d="m92.5309248 47.0972635c0 .8281736.6715515 1.5002747 1.4997252 1.5002747s1.5002748-.6721011 1.5002748-1.5002747c0-.8281737-.6721011-1.4997253-1.5002748-1.4997253s-1.4997252.6715516-1.4997252 1.4997253" fill="url(#t)" transform="matrix(-.70710678 -.70710678 .70710678 -.70710678 127.217841 146.890431)"/><path d="m70.6650074 25.2313461c0 .8281736.6716746 1.5002748 1.5 1.5002748s1.5-.6721012 1.5-1.5002748c0-.8281737-.6716746-1.4997252-1.5-1.4997252s-1.5.6715515-1.5 1.4997252" fill="url(#u)" transform="matrix(-.70710678 -.70710678 .70710678 -.70710678 105.351923 94.101437)"/><path d="m183.911386 94.2012201c0 .8283254.671675 1.5 1.5 1.5.828326 0 1.5-.6716746 1.5-1.5s-.671674-1.5-1.5-1.5c-.828325 0-1.5.6716746-1.5 1.5" fill="url(#v)" transform="matrix(-.70710678 -.70710678 .70710678 -.70710678 249.906713 291.91719)"/><path d="m161.134389 71.4242228c0 .8283254.672101 1.5 1.500275 1.5s1.499725-.6716746 1.499725-1.5-.671551-1.5-1.499725-1.5-1.500275.6716746-1.500275 1.5" fill="url(#w)" transform="matrix(-.70710678 -.70710678 .70710678 -.70710678 227.129716 236.928655)"/><path d="m138.357392 48.6472255c0 .8283254.671248 1.5 1.499725 1.5.829027 0 1.500275-.6716746 1.500275-1.5s-.671248-1.5-1.500275-1.5c-.828477 0-1.499725.6716746-1.499725 1.5" fill="url(#x)" transform="matrix(-.70710678 -.70710678 .70710678 -.70710678 204.352719 181.94012)"/><path d="m114.669315 24.9591484c0 .8283254.671551 1.5 1.499725 1.5s1.500275-.6716746 1.500275-1.5-.672101-1.5-1.500275-1.5-1.499725.6716746-1.499725 1.5" fill="url(#y)" transform="matrix(-.70710678 -.70710678 .70710678 -.70710678 180.664643 124.752041)"/><path d="m92.8033973 3.09323097c0 .8283254.6716746 1.5 1.5 1.5s1.5-.6716746 1.5-1.5c0-.82832539-.6716746-1.5-1.5-1.5s-1.5.67167461-1.5 1.5" fill="url(#z)" transform="matrix(-.70710678 -.70710678 .70710678 -.70710678 158.798724 71.963047)"/></g></svg>