<svg height="608" viewBox="0 0 2721 608" width="2721" xmlns="http://www.w3.org/2000/svg" xmlns:xlink="http://www.w3.org/1999/xlink"><linearGradient id="a"><stop offset="0" stop-color="#fff"/><stop offset=".02" stop-color="#f2f5fe"/><stop offset=".09" stop-color="#bac9f9"/><stop offset=".16" stop-color="#89a4f5"/><stop offset=".24" stop-color="#6185f2"/><stop offset=".31" stop-color="#426def"/><stop offset=".37" stop-color="#2c5ced"/><stop offset=".44" stop-color="#1f51ec"/><stop offset=".5" stop-color="#1a4eec"/><stop offset=".56" stop-color="#1e51ec"/><stop offset=".63" stop-color="#2b5bed"/><stop offset=".7" stop-color="#406cef"/><stop offset=".76" stop-color="#5e83f2"/><stop offset=".83" stop-color="#85a0f5"/><stop offset=".91" stop-color="#b4c5f9"/><stop offset=".98" stop-color="#eaeffd"/><stop offset="1" stop-color="#fff"/></linearGradient><linearGradient id="b" x1="-.016096%" x2="100.001558%" xlink:href="#a" y1="49.984204%" y2="49.984204%"/><linearGradient id="c" x1="-.008769%" x2="100.002579%" xlink:href="#a" y1="50.005945%" y2="50.005945%"/><linearGradient id="d" x1="-.000513%" x2="100.005638%" xlink:href="#a" y1="50.011875%" y2="50.011875%"/><linearGradient id="e" x1="-.008657%" x2="100.008148%" xlink:href="#a" y1="50.002914%" y2="50.002914%"/><linearGradient id="f" x1="-.013663%" x2="100.012144%" xlink:href="#a" y1="49.979074%" y2="49.979074%"/><linearGradient id="g" x1="-.016593%" x2="100.012067%" xlink:href="#a" y1="50.004982%" y2="50.004982%"/><linearGradient id="h" x1="-.018487%" x2="100.01449%" xlink:href="#a" y1="50.000022%" y2="50.000022%"/><g fill="none" fill-rule="evenodd"><path d="m2625.6951 498.020701c-137.61979 110.135504-508.57538 122.564452-637.34685 99.639905-121.63774-21.670611-182.09242-70.081168-319.1973-7.920169s-176.44756-86.585985-369.5405-51.582912c-147.8162 26.793534-250.64486 82.663412-339.548805 19.430671-88.903946-63.232741-448.098114-29.143509-588.296253 0-140.19814 29.143509-186.921122 2.186491-306.0396766-122.884345-57.57144901-60.448259-118.2036995-231.637449 11-371.5801102 129.2036996-139.9426617 663.5873236 1.8011868 960.4230746-34.1988132 296.83576-35.99999998 738.48407-11.6725798 888.87929 9.7410968 344.14297 49 419.42832 24.4577164 522.74791 24.4577164 167.87672 0 163.37368 18.3136117 220.56521 61.5621302 57.19153 43.248518 93.9737 263.199326-43.6461 373.33483z" fill="#f0fafe"/><g opacity=".249419" transform="translate(294 380)"><path d="m2143 180.147605c-187.30883-10.605231-313.60599 60.28518-442.37747 37.41765-121.63773-21.616711-182.09242-69.906861-319.1973-7.900469-137.10488 62.006391-176.44755-86.370628-369.54049-51.454615-147.816204 26.726893-250.644865 82.457811-339.548811 19.382343-88.903946-63.075467-506.806048-44.527004-592.335929 24.42838" opacity=".490374" stroke="url(#b)"/><path d="m67 188.894691c63.419233-23.062731 292.358166-82.551546 440.464886-58.110819 71.34396 11.75035 132.717757 15.371594 165.080628 29.183595 26.890525 11.483296 53.545451 17.775075 81.549723 22.432486 72.27565 12.337867 157.948373-17.508021 264.514533-47.225723 158.25894-44.1279036 203.9225 89.42016 318.59544 70.021401 15.67506-2.72649 31.01722-7.098418 45.77065-13.042888 102.63592-40.666892 152.48674-19.291938 229.06744-7.840688 27.30818 4.091258 56.75818 11.643528 90.81309 17.646889 127.63094 22.517942 260.23089-24.376634 440.14361-35.251049" stroke="url(#c)"/><path d="m53 176.476171c68.288198 1.075766 312.082846-94.1940798 450.22244-55.939837 70.022705 19.36379 131.244391 14.770268 168.504179 22.2576 28.319581 5.680045 56.039578 9.509773 84.21997 16.781952 73.266876 18.90121 161.416254-5.873683 268.377541-47.129313 146.51234-56.5207513 187.03771 99.164119 313.13212 75.249838 15.62161-3.005602 31.00778-7.136448 46.03939-12.360552 106.55443-36.672866 146.74789-6.035048 229.42608-2.269867 27.099 1.237131 56.94965 8.046731 91.1687 14.081779 126.44773 22.322146 265.36892-.806825 437.90958-33.413295" stroke="url(#d)"/><path d="m40 163.847929c73.188988 25.1394 331.899316-103.6345835 460.199591-52.971161 68.7124 27.147987 129.863867 10.192515 172.016611 15.010989 29.365556 3.354769 58.559758 1.185921 86.918617 10.865605 74.270651 25.342395 165.08754 6.656118 272.354281-46.3898314 135.12225-66.8175967 170.28167 107.6624434 307.82427 79.4460584 15.78586-3.205193 31.05766-7.062109 46.35089-11.474592 110.66166-31.870306 140.94824 7.948879 229.88025 3.344085 26.88094-1.388917 57.18893 4.337695 91.57726 10.320722 125.30161 21.816683 270.61934 22.788925 435.87823-31.090375" stroke="url(#e)"/><path d="m26 151.440034c78.067392 49.271554 351.276494-113.0712143 469.978332-50.394035 67.210125 35.470388 127.953001 15.073311 175.429454 7.921506 30.858623-4.639586 61.031975-7.012831 89.599222 5.056508 75.154989 32.135017 169.090694 20.012226 276.196462-45.9682535 124.20542-76.52110723 153.45794 116.9945515 302.37596 84.1967365 16.37156-3.602628 31.75804-7.173186 46.63057-10.690292 114.82577-27.003676 135.15905 22.556516 230.20833 8.937084 26.65063-3.827124 57.39147.684179 91.93342 6.660052 124.20543 21.476796 275.74675 46.395865 433.64825-29.024142" stroke="url(#f)"/><path d="m13 138.640615c82.9693487 73.278265 370.293692-121.6856846 479.952032-47.7776425 65.437294 44.0843755 126.665611 16.0112745 178.940477.821912 32.354512-9.3719325 63.552358-15.2640814 92.297644-.7471928 76.147163 38.6618903 173.864 34.0613173 280.170147-45.4933673 114.01726-85.3187435 136.78644 126.3929996 297.05962 88.7771786 16.96443-3.928099 32.47232-7.215747 46.93064-9.841596 119.09373-21.679266 129.65366 37.733236 230.69056 14.49554 26.50692-6.094958 57.6298-2.946075 92.35119 2.999445 123.01355 21.092186 280.99481 69.89455 431.60769-26.888266" opacity=".375674" stroke="url(#g)"/><path d="m0 126.017143c87.8024163 97.491229 388.5364-130.24127023 489.712623-45.2664571 101.176224 84.9748131 200.23234-58.1355986 277.327145-12.8263869 77.094804 45.309212 179.438157 48.857845 284.051522-45.1275045 104.61337-93.98535 119.92525 135.7459275 291.6111 93.6005585 171.68585-42.1453698 159.47917 48.312724 278.25871 11.062759 118.77953-37.2499657 337.82515 126.8209 522.0389-25.492444" opacity=".365816" stroke="url(#h)"/></g></g></svg>