<svg height="44" viewBox="0 0 97 44" width="97" xmlns="http://www.w3.org/2000/svg" xmlns:xlink="http://www.w3.org/1999/xlink"><defs><path id="a" d="m38.9407719 6.83119298h-2.3350877v8.91578952h-2.1482807v-8.91578952h-2.3350877v-1.76617544h6.8184561z"/><path id="b" d="m42.0315789 5.06501754v4.08003509h2.5091579v-4.08003509h2.1610176v10.67347366h-2.1525263v-4.7381052h-2.5176492v4.7381052h-2.1652631v-10.67347366z"/><path id="c" d="m54.1400702 6.83119298h-3.8210527v2.5091579h3.6002807v1.76617542h-3.5875438v2.8657895h3.9611579v1.7661754h-6.1136842v-10.67347366h5.9438596z"/><path id="d" d="m34.4234386 26.5138596c-.0020959.2280164.0192442.4556447.0636842.6792983.031526.1877043.1071941.3652335.2207719.5179649.1120201.1426952.257976.2550813.4245614.3269123.2216265.0864478.4585261.1268941.6962807.1188772.3239885.001327.6381121-.1113968.8873334-.3184211.2813748-.2503123.4291071-.6180714.3990877-.9934737.0041686-.2107554-.028888-.420593-.0976491-.6198596-.0704943-.1794881-.1808234-.3406267-.3226667-.4712632-.1751293-.1579573-.3743489-.2869484-.5901403-.3821052-.2815439-.1343397-.570745-.2520048-.8661053-.352386-.4400408-.1336234-.8664921-.3084684-1.2736842-.5222105-.3167654-.1754998-.6034261-.4005284-.8491228-.6665614-.2333404-.2519346-.4086864-.5519066-.5137193-.8788421-.1162519-.3751383-.1721421-.7663693-.165579-1.1590527 0-1.0557426.2929474-1.8425964.8788421-2.3605614.6840171-.5501963 1.5478407-.8270434 2.4242456-.7769473.4450447-.0044892.8888172.0483069 1.320386.1570877.3813698.092302.7388027.2645064 1.0486667.5052281.2968253.2400686.5325295.547066.6877895.8958245.1721625.4140046.2560321.8593814.2462456 1.3076491v.3014386h-2.0761053c.0255904-.4082077-.0672911-.8151169-.2674737-1.1717894-.2024064-.2924201-.5456821-.4543426-.9000702-.4245614-.2029698-.0064242-.4051448.0282343-.5943859.1018947-.1465135.0620603-.277128.156393-.3821053.2759649-.096538.1151985-.1635688.2521744-.1952982.3990877-.0343867.1518413-.051478.3070866-.0509474.462772-.010222.2900726.0619055.5771104.2080351.8278947.2233446.2937506.5293891.5140435.8788421.6325965l1.6982456.7175088c.3451886.1511323.6738446.337513.9807369.5561754.2386112.1752801.447842.387377.6198596.6283509.1518974.2244026.2612688.4748057.3226667.7387368.0620404.295938.0919331.5977117.0891579.9000702 0 1.1321637-.3269123 1.9515672-.9807369 2.4582105-.7939636.5658422-1.7563422.8457252-2.7299298.7939298-1.2184912 0-2.0845965-.263228-2.6110526-.7939298-.563424-.6251707-.8471347-1.4532993-.7854386-2.2926316v-.4245614h2.1482807z"/><path id="e" d="m40.3333333 21.9625614c.0529318-.6101595.2199915-1.2049495.4924913-1.7534386.2470877-.4810339.6292673-.8794451 1.099614-1.1463158 1.2276034-.5431848 2.6274141-.5431848 3.8550175 0 .4703467.2668707.8525263.6652819 1.0996141 1.1463158.2686747.5499542.4355309 1.1440198.4924912 1.7534386.1471835 1.4894136.1471835 2.9897092 0 4.4791228-.0568557.6067268-.2237428 1.1980249-.4924912 1.7449474-.2436151.4724014-.6258149.8590453-1.0953684 1.1081052-1.2333785.5151371-2.6216392.5151371-3.8550176 0-.4736567-.2528382-.8576878-.6457657-1.099614-1.1250877-.2719541-.5399454-.4404343-1.1260263-.4967369-1.7279649-.1528538-1.4891287-.1528538-2.9899941 0-4.4791228zm2.0930878 4.0672982c.0176301.4147078.0875274.8255326.208035 1.2227369.0687147.2669204.2167471.506733.4245614.6877895.2275086.1535478.4985323.2294939.7727018.2165263.2727377.0120458.542129-.06386.7684561-.2165263.2170124-.1776716.3741271-.4177904.4500351-.6877895.1184734-.3976812.1883275-.8082518.2080351-1.2227369.0339649-.505228.0509474-1.1123508.0509474-1.8298596s0-1.3288772-.0509474-1.825614c-.0212958-.4157034-.0911146-.8274923-.2080351-1.2269825-.0748615-.2716561-.2320878-.5134286-.4500351-.6920351-.2263271-.1526663-.4957184-.2285721-.7684561-.2165263-.2741695-.0129677-.5451932.0629785-.7727018.2165263-.2089595.1818341-.3571398.4233679-.4245614.6920351-.118976.3990141-.1888369.811051-.208035 1.2269825-.0382106.4967368-.055193 1.1081052-.055193 1.825614s.021228 1.3246316.0594386 1.8298596z"/><path id="f" d="m54.7217193 18.8632632v1.7619298h-3.8210526v2.5134035h3.5875438v1.7619298h-3.5875438v4.6319649h-2.1525263v-10.669228z"/><path id="g" d="m61.9265263 20.625193h-2.3308421v8.9157895h-2.1525263v-8.9157895h-2.3350877v-1.7619298h6.8184561z"/><path id="h" d="m64.2870877 18.8632632 1.1802807 7.8841052h.0297193l1.2736842-7.8925965h2.0591228l1.2227369 7.8925965h.0297193l1.1802807-7.8925965h2.0633684l-1.9444912 10.6692281h-2.4030176l-1.1972631-7.7397544h-.0297193l-1.1802807 7.7482456h-2.4030176l-1.9444912-10.669228z"/><path id="i" d="m78.6797193 18.8632632 2.8360702 10.669228h-2.2416842l-.4924913-2.254421h-2.8403158l-.4924912 2.254421h-2.254421l2.8233333-10.669228zm-.2844561 6.6486315-1.0316843-4.7975438h-.0297193l-1.0316842 4.7975438z"/><path id="j" d="m86.2284211 18.8632632c.7529249-.0499735 1.4966677.1883277 2.0803508.6665614.5374659.549756.8100656 1.3056007.7472281 2.0718596.0287925.6130271-.1185332 1.221482-.4245614 1.7534386-.3060478.4674417-.7944043.7847965-1.3458597.8745965v.0297193c.4423125.0359904.8595993.2199555 1.1845264.5222105.2872707.3751087.4491791.8311258.4627719 1.3034035 0 .1995439.0339649.4245614.0424561.649579.0084913.2250175.0212281.4967368.0297193.7854386.0226433.5660818.0523626.9991345.0891579 1.2991579.0322046.2519526.1755102.4762569.3905965.6113684v.0891579h-2.3308421c-.1110983-.1512129-.1826132-.327811-.2080351-.5137193-.0325957-.20102-.0538573-.4037145-.0636842-.6071228l-.0594386-2.046386c.0042971-.3536262-.1059146-.6991548-.3141754-.9849824-.2431416-.2650229-.5976233-.3989382-.9552632-.3608772h-1.1505614v4.5258245h-2.1525263v-10.669228zm-.9297895 4.6701754c.4301421.0273532.8555863-.1023923 1.1972631-.3651228.3146673-.3303576.4696904-.7814748.4245614-1.2354737 0-.9849825-.498152-1.4774737-1.4944561-1.4774737h-1.023193v3.0780702z"/><path id="k" d="m96.5240351 20.625193h-3.8210526v2.5134035h3.5875438v1.7619298h-3.5875438v2.8700351h3.9611579v1.7619298h-6.105193v-10.669228h5.9438596z"/><path id="l" d="m34.8437544 32.6572632v4.080035h2.5176491v-4.080035h2.1525263v10.6734736h-2.1525263v-4.7381052h-2.5176491v4.7381052h-2.1525263v-10.6734736z"/><path id="m" d="m40.8895088 35.760807c.054373-.6112511.2213458-1.2071712.4924912-1.7576842.2461181-.4806376.6286404-.8779291 1.099614-1.1420702 1.226352-.5490743 2.6286657-.5490743 3.8550176 0 .4709736.2641411.8534959.6614326 1.099614 1.1420702.2711454.550513.4381182 1.1464331.4924912 1.7576842.1471797 1.4879952.1471797 2.9868821 0 4.4748772-.0549206.6084405-.2218922 1.2014774-.4924912 1.749193-.243308.4772618-.6270912.868454-1.099614 1.1208421-1.2333784.5151371-2.6216392.5151371-3.8550176 0-.4725228-.2523881-.856306-.6435803-1.099614-1.1208421-.270599-.5477156-.4375706-1.1407525-.4924912-1.749193-.1471797-1.4879951-.1471797-2.986882 0-4.4748772zm2.0930877 4.0630526c.0176796.4160933.087572.8283162.2080351 1.2269825.075908.2699991.2330228.5101179.4500351.6877895.4717168.2883958 1.0651954.2883958 1.5369122 0 .2170124-.1776716.3741271-.4177904.4500351-.6877895.126223-.3979247.2018238-.8101631.2250176-1.2269825.0339649-.5009824.0509473-1.1123508.0509473-1.8298596s0-1.3246316-.0509473-1.8213684c-.0184285-.4160138-.0883053-.8281443-.2080351-1.2269825-.0748365-.2728522-.2319876-.5159916-.4500351-.6962807-.4717168-.2883958-1.0651955-.2883958-1.5369123 0-.2180475.1802891-.3751986.4234285-.4500351.6962807-.1197297.3988382-.1896065.8109687-.2080351 1.2269825-.0339649.4967368-.0551929 1.1038596-.0551929 1.8213684s.0042456 1.3288772.0382105 1.8298596z"/><path id="n" d="m51.3294737 40.0998246c-.0043822.2483727.0098094.4967256.0424561.7429824.0292449.2041324.0954242.4012316.1952983.5816491.091382.1614236.2249273.2949689.3863508.3863509.1913638.1031138.4068996.1529656.6241053.1443509.2174044.0107839.4335155-.039201.6241053-.1443509.1602564-.0914781.2924034-.2250934.3821052-.3863509.0998741-.1804175.1660534-.3775167.1952983-.5816491.0354864-.2460438.0525164-.4943977.0509474-.7429824v-7.4425614h2.1525263v7.4425614c.0221753.5795691-.0746342 1.1575359-.2844562 1.6982456-.1615984.4100297-.4227817.7733518-.7599649 1.0571579-.3172122.2580353-.6911874.4370195-1.0911228.5222105-.4185834.0896077-.8456221.133735-1.2736842.131614-.4274145.0018314-.8539908-.0379824-1.2736842-.1188772-.396907-.0726402-.7708807-.2385274-1.0911228-.484-.3405428-.2737117-.6027135-.6325487-.7599649-1.0401754-.2095982-.5585059-.3062841-1.1530522-.2844562-1.749193v-7.4595438h2.1525263z"/><path id="o" d="m59.0862105 40.3333333c-.0010785.2277772.0188184.4551698.0594386.6792983.0318207.1870782.1090885.3634819.2250176.5137193.1120162.1437382.2578757.2575086.4245614.3311579.2201438.0864545.4556601.1269113.6920351.1188772.3261051.0018769.6422056-.1125213.8915789-.3226667.2798058-.2511394.4259188-.6187784.3948421-.9934737.0038161-.2107312-.0292309-.4205078-.0976491-.6198596-.0676606-.1809749-.1784124-.3427309-.3226667-.4712632-.1751293-.1579573-.3743489-.2869484-.5901403-.3821053-.29415-.1341585-.5961391-.2504172-.9043158-.3481403-.427603-.1395273-.842379-.3156651-1.2397193-.5264561-.3267158-.1699981-.6223999-.3939142-.8745965-.6623158-.232773-.2539794-.4080005-.555197-.5137193-.8830878-.1168924-.3749939-.1727974-.7663285-.165579-1.1590526 0-1.0529123.2929474-1.8425965.8830878-2.3605614.6821266-.5506423 1.5448219-.8276128 2.42-.7769474.4464562-.0047125.8916609.0480843 1.3246315.1570878.3800031.0947388.7358408.2683181 1.0444211.5094736.2977689.2391471.5336635.5463925.6877895.8958246.1746309.4132638.2586009.8591736.2462456 1.3076491v.297193h-2.0633684c.0236781-.4080504-.0690822-.8144288-.2674737-1.1717895-.2004412-.2924256-.5425701-.454572-.8958246-.4245614-.2048252-.0076496-.4089219.0285378-.5986316.1061404-.1481605.0591004-.2794199.1538988-.3821052.2759649-.0932268.1157252-.159897.250515-.1952983.3948421-.0341738.1518769-.0512623.3070981-.0509473.4627719-.0140704.2971881.058182.592096.208035.8491228.232754.290405.5457579.5059642.9000702.6198597l1.6557895.7175088c.3543434.147829.6905348.3358683 1.0019649.560421.2439984.1662543.4591255.3713422.6368421.6071228.1560755.2220775.2658139.4733207.3226667.7387369.0620649.2944995.0919595.5948691.0891579.8958245 0 1.1321638-.3269123 1.9515673-.9807369 2.4582105-.7954651.5571272-1.7563512.8280313-2.7256842.7684562-1.2142456 0-2.0831813-.2632281-2.606807-.7896842-.5570905-.6204219-.8402812-1.4393786-.7854386-2.2714035v-.4245614h2.1525263z"/><path id="p" d="m71.0715789 34.4234386h-3.8210526v2.5134035h3.5875439v1.7619298h-3.5875439v2.8657895h3.9611579v1.7661754h-6.1136842v-10.6734736h5.9735789z"/><path id="q" d="m30.0377193 43.746807-.1443509-39.15305261-29.8933684-4.59375439v34.6229825l10.1894737 3.0271228v-16.2012632l8.4912281 1.9317544v11.0301053l-8.73747373 3.2563859 8.73747373 2.6492632z"/></defs><g fill="none"><g><use fill="#fff" xlink:href="#a"/><use fill="#2b2b2b" xlink:href="#a"/></g><g><use fill="#fff" xlink:href="#b"/><use fill="#2b2b2b" xlink:href="#b"/></g><g><use fill="#fff" xlink:href="#c"/><use fill="#2b2b2b" xlink:href="#c"/></g><g><use fill="#fff" xlink:href="#d"/><use fill="#2b2b2b" xlink:href="#d"/></g><g><use fill="#fff" xlink:href="#e"/><use fill="#2b2b2b" xlink:href="#e"/></g><g><use fill="#fff" xlink:href="#f"/><use fill="#2b2b2b" xlink:href="#f"/></g><g><use fill="#fff" xlink:href="#g"/><use fill="#2b2b2b" xlink:href="#g"/></g><g><use fill="#fff" xlink:href="#h"/><use fill="#2b2b2b" xlink:href="#h"/></g><g><use fill="#fff" xlink:href="#i"/><use fill="#2b2b2b" xlink:href="#i"/></g><g><use fill="#fff" xlink:href="#j"/><use fill="#2b2b2b" xlink:href="#j"/></g><g><use fill="#fff" xlink:href="#k"/><use fill="#2b2b2b" xlink:href="#k"/></g><g><use fill="#fff" xlink:href="#l"/><use fill="#2b2b2b" xlink:href="#l"/></g><g><use fill="#fff" xlink:href="#m"/><use fill="#2b2b2b" xlink:href="#m"/></g><g><use fill="#fff" xlink:href="#n"/><use fill="#2b2b2b" xlink:href="#n"/></g><g><use fill="#fff" xlink:href="#o"/><use fill="#2b2b2b" xlink:href="#o"/></g><g><use fill="#fff" xlink:href="#p"/><use fill="#2b2b2b" xlink:href="#p"/></g><g><use fill="#fff" xlink:href="#q"/><use fill="#2b2b2b" xlink:href="#q"/></g></g></svg>