<svg height="21" viewBox="0 0 20 21" width="20" xmlns="http://www.w3.org/2000/svg"><path d="m10 1.5c-.53385684 0-1.06119531.10091045-1.58203125.30273438-.52083594.20182392-.98958125.45898281-1.40625.77148437s-.75195186.65103984-1.00585937 1.015625c-.25390752.36458516-.38085938.70963379-.38085938 1.03515625v3.125c0 .61198223.15299326 1.39322441.45898438 2.34375.30599111.9505256.78450195 1.6861953 1.43554687 2.2070312.16927168.130209.29622354.296223.38085937.4980469.08463584.201824.11393243.4134104.08789063.6347657-.0390627.2083343-.12044209.4003897-.24414063.5761718-.12369853.1757822-.28320214.3092444-.47851562.4003906l-5.48828125 2.5976563c-.07812539.0260418-.18554619.0878901-.32226563.1855469-.13671943.0976567-.20507812.2766914-.20507812.5371094v1.2695312l17.4804688-.0195312v-1.2109376c0-.3385433-.0813794-.5501297-.2441407-.6347656-.1627612-.0846358-.250651-.1269531-.2636719-.1269531l-5.4492187-2.578125c-.1953135-.0911463-.3580723-.2246085-.4882813-.4003906-.1302089-.1757822-.2083332-.3743479-.234375-.5957031-.0260417-.2213553.0032548-.4329417.0878907-.6347657.0846358-.2018239.2115877-.3678379.3808593-.4980469.6770868-.5208359 1.1555976-1.2597608 1.4355469-2.2167968.2799493-.95703606.4199219-1.73502307.4199219-2.3339844v-3.125c0-.33854336-.130207-.69010234-.390625-1.0546875s-.5957011-.69986826-1.0058594-1.00585938c-.4101583-.30599111-.8789036-.55989482-1.40625-.76171874-.5273464-.20182393-1.0514297-.30273438-1.5722656-.30273438zm0-1.25c.6901076 0 1.3704394.13020703 2.0410156.390625.6705763.26041797 1.2695286.59895625 1.796875 1.015625s.9570296.88541406 1.2890625 1.40625.4980469 1.04166406.4980469 1.5625v3.125c0 .37760605-.0390621.81379961-.1171875 1.30859375s-.2083324.99934635-.390625 1.51367185-.4231756 1.0091122-.7226563 1.484375c-.2994806.4752628-.6640603.8821598-1.09375 1.2207032l5.4492188 2.5976562s.2050761.1139312.6152344.3417969.6152344.5240867.6152344.8886719v1.8945312c0 .3385434-.1204416.628254-.3613282.8691406s-.5305972.3613282-.8691406.3613282h-17.5c-.35156426 0-.64778525-.1204416-.88867187-.3613282-.24088663-.2408866-.36132813-.5305972-.36132813-.8691406v-1.8945312c0-.3385434.20833125-.6282541.625-.8691407s.625-.3613281.625-.3613281l5.48828125-2.5976562c-.44271055-.3515643-.81380059-.7747372-1.11328125-1.2695313s-.54361885-.9993464-.73242188-1.5136719c-.18880302-.51432546-.32226523-1.01562253-.40039062-1.50390622-.07812539-.4882837-.1171875-.90169102-.1171875-1.24023438v-3.125c0-.52083594.16275879-1.04166406.48828125-1.5625s.75195049-.98958125 1.27929687-1.40625c.52734639-.41666875 1.12955391-.75520703 1.80664063-1.015625s1.36067363-.390625 2.05078125-.390625z" fill="#000ee6" fill-rule="evenodd"/></svg>