<?xml version="1.0" encoding="UTF-8"?>
<svg width="59px" height="59px" viewBox="0 0 59 59" version="1.1" xmlns="http://www.w3.org/2000/svg" xmlns:xlink="http://www.w3.org/1999/xlink">
    <!-- Generator: Sketch 50.2 (55047) - http://www.bohemiancoding.com/sketch -->
    <title>support</title>
    <desc>Created with Sketch.</desc>
    <defs/>
    <g id="Page-1" stroke="none" stroke-width="1" fill="none" fill-rule="evenodd">
        <g id="Homepage-Desktop-HD---Export" transform="translate(-1167.000000, -2791.000000)">
            <g id="Features-Section" transform="translate(161.000000, 2608.000000)">
                <g id="features">
                    <g id="support" transform="translate(1007.000000, 183.000000)">
                        <path d="M17.9998,20 C17.9998,31.046 26.9538,40 37.9998,40 C49.0458,40 57.9998,31.046 57.9998,20 C57.9998,8.954 49.0458,0 37.9998,0 C26.9538,0 17.9998,8.954 17.9998,20" id="Fill-1" fill="#E9EAEB"/>
                        <path d="M13.9998,31 C13.9998,23.82 19.8198,18 26.9998,18 C34.1798,18 39.9998,23.82 39.9998,31 C39.9998,38.18 34.1798,44 26.9998,44 C19.8198,44 13.9998,38.18 13.9998,31 M2.9998,31 C2.9998,44.255 13.7448,55 26.9998,55 C40.2548,55 50.9998,44.255 50.9998,31 C50.9998,17.745 40.2548,7 26.9998,7 C13.7448,7 2.9998,17.745 2.9998,31" id="Fill-3" fill="#FFFFFF"/>
                        <path d="M13.9998,31 C13.9998,23.82 19.8198,18 26.9998,18 C34.1798,18 39.9998,23.82 39.9998,31 C39.9998,38.18 34.1798,44 26.9998,44 C19.8198,44 13.9998,38.18 13.9998,31 Z M2.9998,31 C2.9998,44.255 13.7448,55 26.9998,55 C40.2548,55 50.9998,44.255 50.9998,31 C50.9998,17.745 40.2548,7 26.9998,7 C13.7448,7 2.9998,17.745 2.9998,31 Z" id="Stroke-5" stroke="#005675" stroke-width="2"/>
                        <path d="M-0.0002,20 C-0.0002,11.164 7.1638,4 15.9998,4" id="Stroke-7" stroke="#BCC0C4" stroke-width="2"/>
                        <path d="M15.9998,58 C7.1638,58 -0.0002,50.836 -0.0002,42" id="Stroke-9" stroke="#BCC0C4" stroke-width="2"/>
                        <path d="M53.9998,42 C53.9998,50.836 46.8368,58 37.9998,58" id="Stroke-11" stroke="#BCC0C4" stroke-width="2"/>
                        <path d="M37.9998,4 C46.8368,4 53.9998,11.164 53.9998,20" id="Stroke-13" stroke="#BCC0C4" stroke-width="2"/>
                        <path d="M29.9998,6 C29.9998,4.896 29.1038,4 27.9998,4 L25.9998,4 C24.8958,4 23.9998,4.896 23.9998,6 L23.9998,18 C23.9998,19.104 24.8958,20 25.9998,20 L27.9998,20 C29.1038,20 29.9998,19.104 29.9998,18 L29.9998,6 Z" id="Fill-15" fill="#89DBF7"/>
                        <path d="M29.9998,6 C29.9998,4.896 29.1038,4 27.9998,4 L25.9998,4 C24.8958,4 23.9998,4.896 23.9998,6 L23.9998,18 C23.9998,19.104 24.8958,20 25.9998,20 L27.9998,20 C29.1038,20 29.9998,19.104 29.9998,18 L29.9998,6 Z" id="Stroke-17" stroke="#005675" stroke-width="2"/>
                        <path d="M8.5847,22.998 C8.3097,23.59 8.0627,24.197 7.8427,24.818" id="Stroke-19" stroke="#005675" stroke-width="2"/>
                        <path d="M20.6521,12.0151 C16.0251,13.6491 12.1421,16.8581 9.6471,20.9981" id="Stroke-21" stroke="#005675" stroke-width="2"/>
                        <path d="M15.9998,30 C15.9998,28.896 15.1038,28 13.9998,28 L1.9998,28 C0.8958,28 -0.0002,28.896 -0.0002,30 L-0.0002,32 C-0.0002,33.104 0.8958,34 1.9998,34 L13.9998,34 C15.1038,34 15.9998,33.104 15.9998,32 L15.9998,30 Z" id="Fill-23" fill="#89DBF7"/>
                        <path d="M15.9998,30 C15.9998,28.896 15.1038,28 13.9998,28 L1.9998,28 C0.8958,28 -0.0002,28.896 -0.0002,30 L-0.0002,32 C-0.0002,33.104 0.8958,34 1.9998,34 L13.9998,34 C15.1038,34 15.9998,33.104 15.9998,32 L15.9998,30 Z" id="Stroke-25" stroke="#005675" stroke-width="2"/>
                        <path d="M29.9998,44 C29.9998,42.896 29.1038,42 27.9998,42 L25.9998,42 C24.8958,42 23.9998,42.896 23.9998,44 L23.9998,56 C23.9998,57.104 24.8958,58 25.9998,58 L27.9998,58 C29.1038,58 29.9998,57.104 29.9998,56 L29.9998,44 Z" id="Fill-27" fill="#89DBF7"/>
                        <path d="M29.9998,44 C29.9998,42.896 29.1038,42 27.9998,42 L25.9998,42 C24.8958,42 23.9998,42.896 23.9998,44 L23.9998,56 C23.9998,57.104 24.8958,58 25.9998,58 L27.9998,58 C29.1038,58 29.9998,57.104 29.9998,56 L29.9998,44 Z" id="Stroke-29" stroke="#005675" stroke-width="2"/>
                        <path d="M53.9998,30 C53.9998,28.896 53.1038,28 51.9998,28 L39.9998,28 C38.8958,28 37.9998,28.896 37.9998,30 L37.9998,32 C37.9998,33.104 38.8958,34 39.9998,34 L51.9998,34 C53.1038,34 53.9998,33.104 53.9998,32 L53.9998,30 Z" id="Fill-31" fill="#89DBF7"/>
                        <path d="M53.9998,30 C53.9998,28.896 53.1038,28 51.9998,28 L39.9998,28 C38.8958,28 37.9998,28.896 37.9998,30 L37.9998,32 C37.9998,33.104 38.8958,34 39.9998,34 L51.9998,34 C53.1038,34 53.9998,33.104 53.9998,32 L53.9998,30 Z" id="Stroke-33" stroke="#005675" stroke-width="2"/>
                    </g>
                </g>
            </g>
        </g>
    </g>
</svg>