<?xml version="1.0" encoding="UTF-8"?>
<svg width="59px" height="59px" viewBox="0 0 59 59" version="1.1" xmlns="http://www.w3.org/2000/svg" xmlns:xlink="http://www.w3.org/1999/xlink">
    <!-- Generator: Sketch 50.2 (55047) - http://www.bohemiancoding.com/sketch -->
    <title>speed</title>
    <desc>Created with Sketch.</desc>
    <defs>
        <polygon id="path-1" points="0 59 58.942 59 58.942 0 0 0"/>
    </defs>
    <g id="Page-1" stroke="none" stroke-width="1" fill="none" fill-rule="evenodd">
        <g id="Homepage-Desktop-HD---Export" transform="translate(-535.000000, -2791.000000)">
            <g id="Features-Section" transform="translate(161.000000, 2608.000000)">
                <g id="features">
                    <g id="speed" transform="translate(374.000000, 183.000000)">
                        <path d="M53,31 C53,42.322 43.822,51.5 32.5,51.5 C21.178,51.5 12,42.322 12,31 C12,19.678 21.178,10.5 32.5,10.5 C43.822,10.5 53,19.678 53,31" id="Fill-1" fill="#FFFFFF"/>
                        <path d="M13.0229,30.0474 L11.0249,29.9514 C11.1099,28.1684 11.4169,26.4034 11.9349,24.7074 L13.8479,25.2924 C13.3779,26.8304 13.0999,28.4294 13.0229,30.0474" id="Fill-3" fill="#005675"/>
                        <path d="M12.2847,38.3379 C11.6717,36.6509 11.2737,34.8869 11.1007,33.0959 L13.0917,32.9039 C13.2487,34.5269 13.6097,36.1259 14.1647,37.6549 L12.2847,38.3379 Z" id="Fill-5" fill="#005675"/>
                        <path d="M32.5,52.5 C24.725,52.5 17.533,48.282 13.73,41.493 L15.475,40.515 C18.924,46.674 25.448,50.5 32.5,50.5 C43.252,50.5 52,41.752 52,31 C52,20.248 43.252,11.5 32.5,11.5 C24.992,11.5 18.277,15.691 14.974,22.439 L13.178,21.56 C16.819,14.121 24.223,9.5 32.5,9.5 C44.355,9.5 54,19.145 54,31 C54,42.855 44.355,52.5 32.5,52.5" id="Fill-7" fill="#005675"/>
                        <path d="M32.5,47.25 C28.316,47.25 24.342,45.664 21.31,42.784 L22.688,41.333 C25.346,43.859 28.831,45.25 32.5,45.25 C40.357,45.25 46.75,38.857 46.75,31 C46.75,23.143 40.357,16.75 32.5,16.75 C28.802,16.75 25.296,18.16 22.63,20.721 L21.245,19.279 C24.286,16.358 28.283,14.75 32.5,14.75 C41.46,14.75 48.75,22.04 48.75,31 C48.75,39.96 41.46,47.25 32.5,47.25" id="Fill-9" fill="#005675"/>
                        <path d="M43,31 C43,37.075 38.075,42 32,42 C25.925,42 21,37.075 21,31 C21,24.925 25.925,20 32,20 C38.075,20 43,24.925 43,31" id="Fill-11" fill="#E9EAEB"/>
                        <mask id="mask-2" fill="white">
                            <use xlink:href="#path-1"/>
                        </mask>
                        <g id="Clip-14"/>
                        <polygon id="Fill-13" fill="#BCC0C4" mask="url(#mask-2)" points="16 5 22 5 22 3 16 3"/>
                        <path d="M57.0586,22.0811 C55.1586,16.7661 51.4876,12.1491 46.7216,9.0811 C45.1306,8.0581 43.4266,7.2101 41.6556,6.5611 L42.3426,4.6841 C44.2526,5.3821 46.0896,6.2961 47.8036,7.4001 C52.9386,10.7051 56.8936,15.6801 58.9416,21.4081 L57.0586,22.0811 Z" id="Fill-15" fill="#BCC0C4" mask="url(#mask-2)"/>
                        <path d="M33.5,59 L20,59 L20,57 L33.5,57 C41.699,57 49.222,53.228 54.138,46.652 L55.74,47.849 C50.442,54.936 42.336,59 33.5,59" id="Fill-16" fill="#BCC0C4" mask="url(#mask-2)"/>
                        <polygon id="Fill-17" fill="#005675" mask="url(#mask-2)" points="36 8 34 8 34 6 31 6 31 8 29 8 29 4 36 4"/>
                        <polygon id="Fill-18" fill="#89DBF7" mask="url(#mask-2)" points="27 5 38 5 38 1 27 1"/>
                        <path d="M28,4 L37,4 L37,2 L28,2 L28,4 Z M26,6 L39,6 L39,0 L26,0 L26,6 Z" id="Fill-19" fill="#005675" mask="url(#mask-2)"/>
                        <polygon id="Fill-20" fill="#005675" mask="url(#mask-2)" points="5 23 19 23 19 21 5 21"/>
                        <polygon id="Fill-21" fill="#005675" mask="url(#mask-2)" points="0 31 16 31 16 29 0 29"/>
                        <polygon id="Fill-22" fill="#005675" mask="url(#mask-2)" points="4 39 18 39 18 37 4 37"/>
                        <polygon id="Fill-23" fill="#005675" mask="url(#mask-2)" points="35.5132 29.2739 34.0582 27.9019 40.2722 21.3139 41.7272 22.6859"/>
                        <polygon id="Fill-24" fill="#BCC0C4" mask="url(#mask-2)" points="14 59 18 59 18 57 14 57"/>
                        <polygon id="Fill-25" fill="#BCC0C4" mask="url(#mask-2)" points="10 59 12 59 12 57 10 57"/>
                        <polygon id="Fill-26" fill="#BCC0C4" mask="url(#mask-2)" points="10 5 14 5 14 3 10 3"/>
                        <polygon id="Fill-27" fill="#BCC0C4" mask="url(#mask-2)" points="6 5 8 5 8 3 6 3"/>
                        <path d="M35.25,31 C35.25,32.519 34.019,33.75 32.5,33.75 C30.981,33.75 29.75,32.519 29.75,31 C29.75,29.481 30.981,28.25 32.5,28.25 C34.019,28.25 35.25,29.481 35.25,31" id="Fill-28" fill="#89DBF7" mask="url(#mask-2)"/>
                        <path d="M32.5,29.25 C31.535,29.25 30.75,30.035 30.75,31 C30.75,31.965 31.535,32.75 32.5,32.75 C33.465,32.75 34.25,31.965 34.25,31 C34.25,30.035 33.465,29.25 32.5,29.25 M32.5,34.75 C30.432,34.75 28.75,33.068 28.75,31 C28.75,28.932 30.432,27.25 32.5,27.25 C34.568,27.25 36.25,28.932 36.25,31 C36.25,33.068 34.568,34.75 32.5,34.75" id="Fill-29" fill="#005675" mask="url(#mask-2)"/>
                        <polygon id="Fill-30" fill="#005675" mask="url(#mask-2)" points="15.2671 15.5171 13.8531 14.1031 17.5291 10.4271 18.9431 11.8411"/>
                        <polygon id="Fill-31" fill="#005675" mask="url(#mask-2)" points="18.293 16.2808 15.691 13.6788 17.106 12.2648 19.707 14.8668"/>
                    </g>
                </g>
            </g>
        </g>
    </g>
</svg>