<?xml version="1.0" encoding="UTF-8"?>
<svg width="56px" height="62px" viewBox="0 0 56 62" version="1.1" xmlns="http://www.w3.org/2000/svg" xmlns:xlink="http://www.w3.org/1999/xlink">
    <!-- Generator: Sketch 50.2 (55047) - http://www.bohemiancoding.com/sketch -->
    <title>shared control</title>
    <desc>Created with Sketch.</desc>
    <defs>
        <polygon id="path-1" points="0 62 56 62 56 0 0 0"/>
    </defs>
    <g id="Page-1" stroke="none" stroke-width="1" fill="none" fill-rule="evenodd">
        <g id="Homepage-Desktop-HD---Export" transform="translate(-850.000000, -2609.000000)">
            <g id="Features-Section" transform="translate(161.000000, 2608.000000)">
                <g id="features">
                    <g id="shared-control" transform="translate(689.000000, 1.000000)">
                        <polygon id="Fill-1" fill="#005675" points="44.4888 15.3027 33.6198 8.8597 34.6388 7.1387 45.5088 13.5817"/>
                        <polygon id="Fill-2" fill="#005675" points="50 37 52 37 52 25.001 50 25.001"/>
                        <polygon id="Fill-3" fill="#005675" points="27.9995 58.6982 10.4905 48.3922 11.5045 46.6682 27.9995 56.3782 44.4925 46.6702 45.5075 48.3932"/>
                        <polygon id="Fill-4" fill="#005675" points="4 37 6 37 6 25.001 4 25.001"/>
                        <polygon id="Fill-5" fill="#005675" points="11.5093 15.3032 10.4893 13.5822 21.3583 7.1392 22.3773 8.8602"/>
                        <g id="Group-42">
                            <path d="M32,5 C32,7.209 30.209,9 28,9 C25.791,9 24,7.209 24,5 C24,2.791 25.791,1 28,1 C30.209,1 32,2.791 32,5" id="Fill-6" fill="#89DBF7"/>
                            <path d="M28,2 C26.346,2 25,3.346 25,5 C25,6.654 26.346,8 28,8 C29.654,8 31,6.654 31,5 C31,3.346 29.654,2 28,2 M28,10 C25.243,10 23,7.757 23,5 C23,2.243 25.243,0 28,0 C30.757,0 33,2.243 33,5 C33,7.757 30.757,10 28,10" id="Fill-8" fill="#005675"/>
                            <path d="M28,61 C25.791,61 24,59.209 24,57 C24,54.791 25.791,53 28,53 C30.209,53 32,54.791 32,57 C32,59.209 30.209,61 28,61" id="Fill-10" fill="#89DBF7"/>
                            <path d="M28,54 C26.346,54 25,55.346 25,57 C25,58.654 26.346,60 28,60 C29.654,60 31,58.654 31,57 C31,55.346 29.654,54 28,54 M28,62 C25.243,62 23,59.757 23,57 C23,54.243 25.243,52 28,52 C30.757,52 33,54.243 33,57 C33,59.757 30.757,62 28,62" id="Fill-12" fill="#005675"/>
                            <path d="M55,44 C55,46.209 53.209,48 51,48 C48.791,48 47,46.209 47,44 C47,41.791 48.791,40 51,40 C53.209,40 55,41.791 55,44" id="Fill-14" fill="#89DBF7"/>
                            <path d="M51,41 C49.346,41 48,42.346 48,44 C48,45.654 49.346,47 51,47 C52.654,47 54,45.654 54,44 C54,42.346 52.654,41 51,41 M51,49 C48.243,49 46,46.757 46,44 C46,41.243 48.243,39 51,39 C53.757,39 56,41.243 56,44 C56,46.757 53.757,49 51,49" id="Fill-16" fill="#005675"/>
                            <path d="M9,44 C9,46.209 7.209,48 5,48 C2.791,48 1,46.209 1,44 C1,41.791 2.791,40 5,40 C7.209,40 9,41.791 9,44" id="Fill-18" fill="#89DBF7"/>
                            <path d="M5,41 C3.346,41 2,42.346 2,44 C2,45.654 3.346,47 5,47 C6.654,47 8,45.654 8,44 C8,42.346 6.654,41 5,41 M5,49 C2.243,49 0,46.757 0,44 C0,41.243 2.243,39 5,39 C7.757,39 10,41.243 10,44 C10,46.757 7.757,49 5,49" id="Fill-20" fill="#005675"/>
                            <path d="M9,18 C9,20.209 7.209,22 5,22 C2.791,22 1,20.209 1,18 C1,15.791 2.791,14 5,14 C7.209,14 9,15.791 9,18" id="Fill-22" fill="#89DBF7"/>
                            <path d="M5,15 C3.346,15 2,16.346 2,18 C2,19.654 3.346,21 5,21 C6.654,21 8,19.654 8,18 C8,16.346 6.654,15 5,15 M5,23 C2.243,23 0,20.757 0,18 C0,15.243 2.243,13 5,13 C7.757,13 10,15.243 10,18 C10,20.757 7.757,23 5,23" id="Fill-24" fill="#005675"/>
                            <path d="M28.0015,16 C23.9955,16 20.2295,17.56 17.3975,20.394 C14.5635,23.227 13.0045,26.993 13.0045,31 C13.0045,39.271 19.7325,46 28.0015,46 C36.2715,46 42.9995,39.271 42.9995,31 C42.9995,22.729 36.2715,16 28.0015,16 M28.0015,48 C18.6295,48 11.0045,40.374 11.0045,31 C11.0035,26.459 12.7725,22.19 15.9825,18.979 C19.1925,15.769 23.4615,14 28.0015,14 C37.3745,14 44.9995,21.626 44.9995,31 C44.9995,40.374 37.3745,48 28.0015,48" id="Fill-26" fill="#005675"/>
                            <path d="M28,15.9585 C24.206,15.9585 21,22.8375 21,30.9795 C21,39.1215 24.206,46.0005 28,46.0005 C31.794,46.0005 35,39.1215 35,30.9795 C35,22.8375 31.794,15.9585 28,15.9585 M28,48.0005 C22.953,48.0005 19,40.5235 19,30.9795 C19,21.4355 22.953,13.9585 28,13.9585 C33.047,13.9585 37,21.4355 37,30.9795 C37,40.5235 33.047,48.0005 28,48.0005" id="Fill-28" fill="#005675"/>
                            <mask id="mask-2" fill="white">
                                <use xlink:href="#path-1"/>
                            </mask>
                            <g id="Clip-31"/>
                            <polygon id="Fill-30" fill="#005675" mask="url(#mask-2)" points="13 26 43 26 43 24 13 24"/>
                            <polygon id="Fill-32" fill="#005675" mask="url(#mask-2)" points="13 38 43 38 43 36 13 36"/>
                            <polygon id="Fill-33" fill="#005675" mask="url(#mask-2)" points="27 47 29 47 29 15 27 15"/>
                            <polygon id="Fill-34" fill="#005675" mask="url(#mask-2)" points="9.5273 42.834 8.4233 41.166 11.4483 39.166 12.5513 40.834"/>
                            <polygon id="Fill-35" fill="#005675" mask="url(#mask-2)" points="46.4482 42.834 43.4242 40.834 44.5272 39.166 47.5522 41.166"/>
                            <polygon id="Fill-36" fill="#005675" mask="url(#mask-2)" points="44.5273 22.834 43.4233 21.166 46.4483 19.166 47.5513 20.834"/>
                            <polygon id="Fill-37" fill="#005675" mask="url(#mask-2)" points="11.4482 22.834 8.4242 20.834 9.5272 19.166 12.5522 21.166"/>
                            <path d="M55,18 C55,20.209 53.209,22 51,22 C48.791,22 47,20.209 47,18 C47,15.791 48.791,14 51,14 C53.209,14 55,15.791 55,18" id="Fill-38" fill="#89DBF7" mask="url(#mask-2)"/>
                            <path d="M51,15 C49.346,15 48,16.346 48,18 C48,19.654 49.346,21 51,21 C52.654,21 54,19.654 54,18 C54,16.346 52.654,15 51,15 M51,23 C48.243,23 46,20.757 46,18 C46,15.243 48.243,13 51,13 C53.757,13 56,15.243 56,18 C56,20.757 53.757,23 51,23" id="Fill-39" fill="#005675" mask="url(#mask-2)"/>
                            <polygon id="Fill-40" fill="#005675" mask="url(#mask-2)" points="27 13 29 13 29 9 27 9"/>
                            <polygon id="Fill-41" fill="#005675" mask="url(#mask-2)" points="27 53 29 53 29 49 27 49"/>
                        </g>
                    </g>
                </g>
            </g>
        </g>
    </g>
</svg>