<?xml version="1.0" encoding="UTF-8"?>
<svg width="54px" height="54px" viewBox="0 0 54 54" version="1.1" xmlns="http://www.w3.org/2000/svg" xmlns:xlink="http://www.w3.org/1999/xlink">
    <!-- Generator: Sketch 50.2 (55047) - http://www.bohemiancoding.com/sketch -->
    <title>open eco</title>
    <desc>Created with Sketch.</desc>
    <defs>
        <polygon id="path-1" points="0.0002 0 54 0 54 54 0.0002 54"/>
        <polygon id="path-3" points="0 54 54 54 54 0 0 0"/>
    </defs>
    <g id="Page-1" stroke="none" stroke-width="1" fill="none" fill-rule="evenodd">
        <g id="Homepage-Desktop-HD---Export" transform="translate(-229.000000, -2793.000000)">
            <g id="Features-Section" transform="translate(161.000000, 2608.000000)">
                <g id="features">
                    <g id="open-eco" transform="translate(68.000000, 185.000000)">
                        <g id="Group-3">
                            <mask id="mask-2" fill="white">
                                <use xlink:href="#path-1"/>
                            </mask>
                            <g id="Clip-2"/>
                            <path d="M54.0002,27 C54.0002,41.912 41.9122,54 27.0002,54 C12.0882,54 0.0002,41.912 0.0002,27 C0.0002,12.088 12.0882,0 27.0002,0 C41.9122,0 54.0002,12.088 54.0002,27" id="Fill-1" fill="#E9EAEB" mask="url(#mask-2)"/>
                        </g>
                        <path d="M41.0002,27 L45.0002,27.0000084 L45.0002,7 L8.0002,7 L8.0002,27.0000084 L16.0002,27 C17.3702,27.002 17.3902,26.646 17.3892,25.901 C17.3872,25.084 16.0842,24.03 16.8842,22.563 C17.3232,21.758 18.5532,21.297 19.8012,21.32 C21.0502,21.301 22.2812,21.767 22.7242,22.574 C23.5292,24.042 22.2302,25.092 22.2322,25.909 C22.2332,26.654 22.6292,26.998 24.0002,27 L29.0002,27" id="Fill-4" fill="#FFFFFF"/>
                        <path d="M16.0173,28 L15.9983,28 L7.0003,28 L7.0003,6 L46.0003,6 L46.0003,28 L41.0003,28 L41.0003,26 L44.0003,26 L44.0003,8 L9.0003,8 L9.0003,26 L16.0003,26 C16.1673,26.015 16.2983,25.994 16.3903,25.986 C16.3893,25.959 16.3893,25.931 16.3893,25.902 C16.3773,25.835 16.2553,25.587 16.1743,25.424 C15.8203,24.708 15.2283,23.51 16.0063,22.084 C16.6083,20.98 18.1153,20.298 19.8203,20.32 C21.4843,20.293 22.9963,20.99 23.6003,22.093 C24.3823,23.519 23.7953,24.715 23.4443,25.43 C23.3643,25.593 23.2443,25.839 23.2313,25.925 L23.2313,25.927 C23.3353,25.957 23.5603,25.999 24.0023,26 L29.0003,26 L29.0003,28 L24.0003,28 C22.1643,27.997 21.2343,27.293 21.2323,25.91 C21.2313,25.4 21.4433,24.968 21.6483,24.549 C21.9903,23.853 22.1043,23.523 21.8473,23.055 C21.6423,22.682 20.8103,22.298 19.8163,22.32 C18.7723,22.309 17.9633,22.673 17.7623,23.042 C17.5073,23.509 17.6223,23.84 17.9673,24.538 C18.1743,24.957 18.3873,25.389 18.3893,25.898 C18.3893,26.349 18.3903,26.964 17.9103,27.444 C17.4233,27.93 16.7143,28 16.0173,28" id="Fill-6" fill="#005675"/>
                        <mask id="mask-4" fill="white">
                            <use xlink:href="#path-3"/>
                        </mask>
                        <g id="Clip-9"/>
                        <polygon id="Fill-8" fill="#89DBF7" mask="url(#mask-4)" points="8 13 45 13 45 7 8 7"/>
                        <path d="M9,12 L44,12 L44,8 L9,8 L9,12 Z M7,14 L46,14 L46,6 L7,6 L7,14 Z" id="Fill-10" fill="#005675" mask="url(#mask-4)"/>
                        <path d="M28.0002,49 L45.0002046,49 L45.0002,44 C44.9982,42.727 44.3652,42.076 43.6722,42.074 C42.9142,42.073 41.9382,43.28 40.5732,42.532 C39.8242,42.121 39.3912,40.978 39.4092,39.817 C39.3872,38.658 39.8162,37.516 40.5642,37.107 C41.9272,36.364 42.9062,37.574 43.6652,37.576 C44.3582,37.577 45.0022,37.273 45.0002,36 L45.0002,31 L39.0002,31 C37.7272,30.998 37.5312,30.691 37.5302,30 C37.5292,29.241 38.7372,28.529 37.9882,27.165 C37.5772,26.416 36.4332,25.983 35.2732,26.001 C34.1122,25.979 32.9702,26.408 32.5612,27.155 C31.8172,28.517 33.0282,29.233 33.0292,29.992 C33.0302,30.684 32.2722,31.002 31.0002,31 L28.0002,31" id="Fill-11" fill="#FFFFFF" mask="url(#mask-4)"/>
                        <path d="M46.0007033,50.0001 L28.0007,50.0001 L28.0007,48.0001 L44.0007,48.0001 L44.0007,44.0001 C43.9987,43.3551 43.7817,43.0741 43.6707,43.0741 C43.6227,43.0861 43.4127,43.1891 43.2597,43.2641 C42.5837,43.5971 41.4507,44.1541 40.0927,43.4091 C39.0447,42.8341 38.3847,41.4191 38.4097,39.8021 C38.3787,38.2181 39.0367,36.8021 40.0857,36.2291 C41.4417,35.4911 42.5767,36.0491 43.2527,36.3841 C43.4067,36.4591 43.6187,36.5641 43.6957,36.5781 C43.8207,36.5761 43.8927,36.5491 43.9057,36.5401 C43.9057,36.5391 44.0007,36.4261 44.0007,36.0011 L44.0007,32.0001 L39.0007,32.0001 C38.3237,31.9981 36.5337,31.9951 36.5307,30.0011 C36.5297,29.4751 36.7697,29.0491 36.9627,28.7061 C37.2507,28.1961 37.3237,28.0321 37.1117,27.6461 C36.9357,27.3251 36.1967,26.9841 35.2887,27.0011 C34.3687,26.9821 33.6127,27.3171 33.4387,27.6351 C33.2297,28.0181 33.3037,28.1831 33.5937,28.6961 C33.7877,29.0381 34.0287,29.4641 34.0297,29.9901 C34.0297,30.4751 33.8517,30.9111 33.5137,31.2491 C33.0067,31.7561 32.1387,32.0161 30.9987,32.0001 L28.0007,32.0001 L28.0007,30.0001 L31.0007,30.0001 C31.5307,30.0271 31.8217,29.9391 31.9707,29.8891 C31.9357,29.8271 31.8907,29.7471 31.8537,29.6811 C31.5307,29.1121 30.9317,28.0531 31.6837,26.6761 C32.2567,25.6281 33.6617,24.9851 35.2927,25.0011 C36.8917,24.9671 38.2907,25.6371 38.8657,26.6841 C39.6217,28.0621 39.0247,29.1201 38.7047,29.6881 C38.6527,29.7811 38.5857,29.8991 38.5507,29.9781 C38.6497,29.9901 38.7947,29.9991 39.0017,30.0001 L46.0007,30.0001 L46.0007,36.0001 C46.0017,36.8431 45.7727,37.5011 45.3187,37.9541 C44.9067,38.3681 44.3387,38.5751 43.6637,38.5761 C43.1737,38.5751 42.7457,38.3641 42.3677,38.1771 C41.7297,37.8621 41.4497,37.7641 41.0437,37.9851 C40.7257,38.1591 40.3927,38.9011 40.4097,39.7981 C40.3957,40.7321 40.7327,41.4791 41.0537,41.6551 C41.4627,41.8781 41.7427,41.7811 42.3787,41.4691 C42.7547,41.2841 43.1827,41.0741 43.6717,41.0741 L43.6737,41.0741 C44.7927,41.0771 45.9967,41.9931 46.0007,43.9981 L46.0007033,50.0001 Z" id="Fill-12" fill="#005675" mask="url(#mask-4)"/>
                        <path d="M8.0002,52 L8.0002,31 L12.0002,31 C13.3702,31 13.4382,31.368 13.4372,32.114 C13.4352,32.931 12.1322,33.985 12.9322,35.451 C13.3722,36.256 14.6012,36.718 15.8502,36.694 C17.0992,36.713 18.3302,36.248 18.7722,35.441 C19.5772,33.972 18.2782,32.922 18.2802,32.106 C18.2812,31.36 18.4062,31.04 19.7772,31.037 L25.0002,31 L25.0002,36 C24.9982,37.37 25.3882,37.613 26.1332,37.612 C26.9502,37.611 28.0042,36.308 29.4692,37.108 C30.2742,37.548 30.7352,38.778 30.7122,40.026 C30.7312,41.275 30.2652,42.507 29.4582,42.949 C27.9902,43.754 26.9402,42.455 26.1242,42.457 C25.3792,42.458 25.0022,42.63 25.0002,44 L25.0002,52 L8.0002,52 Z" id="Fill-13" fill="#89DBF7" mask="url(#mask-4)"/>
                        <path d="M9.0002,51 L24.0002,51 L24.0002,44 C24.0022,42.816 24.2452,41.459 26.1232,41.457 L26.1262,41.457 C26.6342,41.457 27.0662,41.668 27.4832,41.874 C28.1792,42.216 28.5082,42.33 28.9782,42.072 C29.3512,41.868 29.7282,41.052 29.7122,40.042 C29.7312,38.999 29.3602,38.188 28.9902,37.986 C28.5222,37.73 28.1922,37.847 27.4962,38.191 C27.0772,38.397 26.6442,38.611 26.1352,38.612 L26.1282,38.612 C25.7102,38.612 25.1032,38.556 24.6262,38.08 C24.0692,37.522 23.9992,36.674 24.0002,35.998 L24.0002,32.007 L19.7842,32.037 C19.5462,32.038 19.3862,32.049 19.2802,32.062 C19.2802,32.076 19.2802,32.091 19.2802,32.108 C19.2922,32.175 19.4122,32.421 19.4922,32.584 C19.8432,33.299 20.4312,34.496 19.6492,35.921 C19.0442,37.024 17.5512,37.704 15.8342,37.694 C14.1572,37.712 12.6572,37.034 12.0542,35.93 C11.2772,34.505 11.8692,33.307 12.2222,32.591 C12.3032,32.428 12.4252,32.18 12.4382,32.093 C12.4382,32.066 12.4372,32.042 12.4372,32.02 C12.3412,32.009 12.2012,32 12.0002,32 L9.0002,32 L9.0002,51 Z M26.0002,53 L7.0002,53 L7.0002,30 L12.0002,30 C12.6782,30 13.4392,30.068 13.9442,30.574 C14.4382,31.07 14.4372,31.725 14.4372,32.116 C14.4362,32.625 14.2222,33.058 14.0152,33.477 C13.6702,34.175 13.5562,34.506 13.8102,34.972 C14.0122,35.342 14.8342,35.704 15.8312,35.694 C16.8802,35.717 17.6912,35.333 17.8952,34.96 C18.1522,34.492 18.0392,34.162 17.6972,33.465 C17.4912,33.047 17.2792,32.614 17.2802,32.104 C17.2832,30.287 18.5432,30.04 19.7752,30.037 L26.0002,29.993 L26.0002,36 C26.0002,36.324 26.0252,36.511 26.0472,36.611 C26.0702,36.611 26.0882,36.6 26.1312,36.612 C26.1992,36.601 26.4472,36.479 26.6102,36.397 C27.3262,36.043 28.5242,35.452 29.9492,36.231 C31.0522,36.833 31.7442,38.33 31.7122,40.045 C31.7382,41.724 31.0422,43.221 29.9392,43.826 C28.5132,44.608 27.3172,44.02 26.6022,43.669 C26.4392,43.589 26.1932,43.468 26.1072,43.456 C26.0812,43.456 26.0572,43.457 26.0362,43.457 C26.0192,43.559 26.0002,43.729 26.0002,44.002 L26.0002,53 Z" id="Fill-14" fill="#005675" mask="url(#mask-4)"/>
                        <polygon id="Fill-15" fill="#005675" mask="url(#mask-4)" points="8 14 45 14 45 12 8 12"/>
                        <polygon id="Fill-16" fill="#005675" mask="url(#mask-4)" points="11 11 13 11 13 9 11 9"/>
                        <polygon id="Fill-17" fill="#005675" mask="url(#mask-4)" points="15 11 17 11 17 9 15 9"/>
                    </g>
                </g>
            </g>
        </g>
    </g>
</svg>