<?xml version="1.0" encoding="UTF-8"?>
<svg width="67px" height="75px" viewBox="0 0 67 75" version="1.1" xmlns="http://www.w3.org/2000/svg" xmlns:xlink="http://www.w3.org/1999/xlink">
    <!-- Generator: sketchtool 52.3 (67297) - http://www.bohemiancoding.com/sketch -->
    <title>59FCF5D6-D223-4DF9-B90D-38AA3564FDFE</title>
    <desc>Created with sketchtool.</desc>
    <g  stroke="none" stroke-width="1" fill="none" fill-rule="evenodd">
        <g  transform="translate(-978.000000, -3246.000000)" fill="#FFFFFF">
            <g  transform="translate(0.000000, 2895.000000)">
                <g  transform="translate(732.000000, 254.000000)">
                    <g  transform="translate(246.000000, 97.000000)">
                        <path d="M0,0 L0,75 L65.625,75 L65.625,0 L0,0 Z M60.9375,70.3125 L4.6875,70.3125 L4.6875,4.6875 L60.9375,4.6875 L60.9375,70.3125 Z"  fill-rule="nonzero"></path>
                        <path d="M56.25,11.71875 L32.8125,11.71875 L32.8125,35.15625 L56.25,35.15625 L56.25,11.71875 Z M51.5625,30.46875 L37.5,30.46875 L37.5,16.40625 L51.5625,16.40625 L51.5625,30.46875 Z"  fill-rule="nonzero"></path>
                        <rect  x="9.375" y="11.71875" width="18.75" height="4.6875"></rect>
                        <rect  x="9.375" y="21.09375" width="18.75" height="4.6875"></rect>
                        <rect  x="9.375" y="30.46875" width="18.75" height="4.6875"></rect>
                        <rect  x="9.375" y="39.84375" width="46.875" height="4.6875"></rect>
                        <rect  x="9.375" y="49.21875" width="46.875" height="4.6875"></rect>
                        <rect  x="9.375" y="58.59375" width="18.75" height="4.6875"></rect>
                        <rect  x="32.8125" y="58.59375" width="4.6875" height="4.6875"></rect>
                        <rect  x="42.1875" y="58.59375" width="4.6875" height="4.6875"></rect>
                    </g>
                </g>
            </g>
        </g>
    </g>
</svg>
