<svg height="252" viewBox="0 0 255 252" width="255" xmlns="http://www.w3.org/2000/svg" xmlns:xlink="http://www.w3.org/1999/xlink"><linearGradient id="a"><stop offset="0" stop-color="#000ee6"/><stop offset="1" stop-color="#fff"/></linearGradient><linearGradient id="b" x1="24.065748%" x2="1526.44757%" xlink:href="#a" y1="23.749579%" y2="1544.45313%"/><linearGradient id="c" x1="-168.241922%" x2="1333.86469%" xlink:href="#a" y1="-170.947593%" y2="1349.75596%"/><linearGradient id="d" x1="-360.71398%" x2="1141.94316%" xlink:href="#a" y1="-365.644765%" y2="1155.05879%"/><linearGradient id="e" x1="-552.885061%" x2="949.221552%" xlink:href="#a" y1="-560.341938%" y2="960.361616%"/><linearGradient id="f" x1="-745.343182%" x2="757.038642%" xlink:href="#a" y1="-755.039249%" y2="765.664306%"/><linearGradient id="g" x1="-170.631451%" x2="1331.75037%" xlink:href="#a" y1="-173.277252%" y2="1347.14773%"/><linearGradient id="h" x1="-362.903444%" x2="1139.20317%" xlink:href="#a" y1="-367.93876%" y2="1152.48623%"/><linearGradient id="i" x1="-555.446832%" x2="947.210306%" xlink:href="#a" y1="-562.600266%" y2="957.824721%"/><linearGradient id="j" x1="-747.546602%" x2="754.560011%" xlink:href="#a" y1="-757.261773%" y2="763.163213%"/><linearGradient id="k" x1="-940.040355%" x2="562.341469%" xlink:href="#a" y1="-951.923279%" y2="568.501707%"/><linearGradient id="l" x1="-365.328622%" x2="1137.0532%" xlink:href="#a" y1="-370.472098%" y2="1150.51013%"/><linearGradient id="m" x1="-557.56497%" x2="944.541643%" xlink:href="#a" y1="-565.20495%" y2="955.777275%"/><linearGradient id="n" x1="-750.179703%" x2="752.477434%" xlink:href="#a" y1="-759.937799%" y2="761.044426%"/><linearGradient id="o" x1="-942.208126%" x2="559.898487%" xlink:href="#a" y1="-954.670651%" y2="566.311574%"/><linearGradient id="p" x1="-1134.73756%" x2="367.644263%" xlink:href="#a" y1="-1149.4035%" y2="371.578725%"/><linearGradient id="q" x1="-560.02583%" x2="942.355995%" xlink:href="#a" y1="-567.35885%" y2="953.066137%"/><linearGradient id="r" x1="-752.22651%" x2="749.880103%" xlink:href="#a" y1="-762.020357%" y2="758.404629%"/><linearGradient id="s" x1="-944.912567%" x2="557.74457%" xlink:href="#a" y1="-956.681863%" y2="563.743123%"/><linearGradient id="t" x1="-1136.86964%" x2="365.236968%" xlink:href="#a" y1="-1151.34337%" y2="369.081616%"/><linearGradient id="u" x1="-1329.43475%" x2="172.947074%" xlink:href="#a" y1="-1346.00502%" y2="174.419969%"/><linearGradient id="v" x1="-754.723038%" x2="747.658787%" xlink:href="#a" y1="-764.5397%" y2="756.163855%"/><linearGradient id="w" x1="-946.888018%" x2="555.218595%" xlink:href="#a" y1="-959.236942%" y2="561.466612%"/><linearGradient id="x" x1="-1139.64545%" x2="363.011686%" xlink:href="#a" y1="-1153.93405%" y2="366.769509%"/><linearGradient id="y" x1="-1331.53117%" x2="170.575439%" xlink:href="#a" y1="-1348.63136%" y2="172.072199%"/><linearGradient id="z" x1="-1524.13194%" x2="-21.750114%" xlink:href="#a" y1="-1543.32853%" y2="-22.624974%"/><g fill="none" fill-rule="evenodd" transform="translate(-1 -1.5)"><path d="m128.5 250.527838c-.828325 0-1.5.671675-1.5 1.5 0 .828326.671675 1.5 1.5 1.5s1.5-.671674 1.5-1.5c0-.828325-.671675-1.5-1.5-1.5z" fill="url(#b)" transform="matrix(-.70710678 -.70710678 .70710678 -.70710678 41.152628 521.101653)"/><path d="m97.1260442 219.302973c-.8281737 0-1.5002748.671674-1.5002748 1.5 0 .828325.6721011 1.5 1.5002748 1.5.8281736 0 1.4997252-.671675 1.4997252-1.5 0-.828326-.6715516-1.5-1.4997252-1.5z" fill="url(#c)" transform="matrix(-.70710678 -.70710678 .70710678 -.70710678 9.672779 445.612542)"/><path d="m65.7511433 187.334601c-.8284772 0-1.4997252.671674-1.4997252 1.5 0 .828325.671248 1.5 1.4997252 1.5.8290269 0 1.5002748-.671675 1.5002748-1.5 0-.828326-.6712479-1.5-1.5002748-1.5z" fill="url(#d)" transform="matrix(-.70710678 -.70710678 .70710678 -.70710678 -21.281535 368.854101)"/><path d="m33.0322068 156.109691c-.8281737 0-1.4997253.671675-1.4997253 1.5 0 .828326.6715516 1.5 1.4997253 1.5.8281736 0 1.5002747-.671674 1.5002747-1.5 0-.828325-.6721011-1.5-1.5002747-1.5z" fill="url(#e)" transform="matrix(-.70710678 -.70710678 .70710678 -.70710678 -55.056907 292.414064)"/><path d="m3.00286309 126.371725c-.82832539 0-1.5.671674-1.5 1.5 0 .828325.67167461 1.5 1.5 1.5.8283254 0 1.5-.671675 1.5-1.5 0-.828326-.6716746-1.5-1.5-1.5z" fill="url(#f)" transform="matrix(-.70710678 -.70710678 .70710678 -.70710678 -85.292756 220.414034)"/><path d="m158.374231 220.803247c0 .828174.671674 1.499726 1.5 1.499726.828325 0 1.5-.671552 1.5-1.499726 0-.828173-.671675-1.500274-1.5-1.500274-.828326 0-1.5.672101-1.5 1.500274" fill="url(#g)" transform="matrix(-.70710678 -.70710678 .70710678 -.70710678 116.791104 489.982405)"/><path d="m127 188.834932c0 .828173.672101 1.499725 1.500275 1.499725.828173 0 1.499725-.671552 1.499725-1.499725 0-.828174-.671552-1.500275-1.499725-1.500275-.828174 0-1.500275.672101-1.500275 1.500275" fill="url(#h)" transform="matrix(-.70710678 -.70710678 .70710678 -.70710678 85.836955 413.224145)"/><path d="m95.6256488 157.61001c0 .828173.6712479 1.499725 1.4997251 1.499725.8290269 0 1.5002749-.671552 1.5002749-1.499725 0-.828174-.671248-1.500275-1.5002749-1.500275-.8284772 0-1.4997251.672101-1.4997251 1.500275" fill="url(#i)" transform="matrix(-.70710678 -.70710678 .70710678 -.70710678 54.356942 337.734852)"/><path d="m63.3549162 126.3851c0 .828174.6715516 1.499725 1.4997252 1.499725.8281737 0 1.5002748-.671551 1.5002748-1.499725s-.6721011-1.500275-1.5002748-1.500275c-.8281736 0-1.4997252.672101-1.4997252 1.500275" fill="url(#j)" transform="matrix(-.70710678 -.70710678 .70710678 -.70710678 21.3467 261.611743)"/><path d="m33.3252978 95.903684c0 .8281736.6716746 1.4997252 1.5 1.4997252s1.5-.6715516 1.5-1.4997252c0-.8281737-.6716746-1.5002748-1.5-1.5002748s-1.5.6721011-1.5 1.5002748" fill="url(#k)" transform="matrix(-.70710678 -.70710678 .70710678 -.70710678 -8.363448 188.342564)"/><path d="m190.196759 188.834888c0 .828477.671675 1.499725 1.5 1.499725s1.5-.671248 1.5-1.499725c0-.829027-.671675-1.500275-1.5-1.500275s-1.5.671248-1.5 1.500275" fill="url(#l)" transform="matrix(-.70710678 -.70710678 .70710678 -.70710678 193.720602 457.910927)"/><path d="m158.822528 157.610022c0 .828477.672102 1.499725 1.500275 1.499725.828174 0 1.499725-.671248 1.499725-1.499725 0-.829027-.671551-1.500275-1.499725-1.500275-.828173 0-1.500275.671248-1.500275 1.500275" fill="url(#m)" transform="matrix(-.70710678 -.70710678 .70710678 -.70710678 162.240754 382.421815)"/><path d="m127.448177 126.3851c0 .828477.671248 1.499725 1.499725 1.499725.829027 0 1.500275-.671248 1.500275-1.499725 0-.829027-.671248-1.500275-1.500275-1.500275-.828477 0-1.499725.671248-1.499725 1.500275" fill="url(#n)" transform="matrix(-.70710678 -.70710678 .70710678 -.70710678 130.760741 306.932522)"/><path d="m94.7292406 94.4167409c0 .8284772.6715516 1.4997251 1.4997253 1.4997251.8281736 0 1.5002747-.6712479 1.5002747-1.4997251 0-.8290269-.6721011-1.5002749-1.5002747-1.5002749-.8281737 0-1.4997253.671248-1.4997253 1.5002749" fill="url(#o)" transform="matrix(-.70710678 -.70710678 .70710678 -.70710678 97.511066 229.223338)"/><path d="m64.6996222 64.6787746c0 .8284771.6716746 1.4997251 1.5 1.4997251s1.5-.671248 1.5-1.4997251c0-.829027-.6716746-1.5002749-1.5-1.5002749s-1.5.6712479-1.5 1.5002749" fill="url(#p)" transform="matrix(-.70710678 -.70710678 .70710678 -.70710678 67.275218 157.223308)"/><path d="m222.019314 157.609416c0 .828174.671675 1.500275 1.5 1.500275.828326 0 1.5-.672101 1.5-1.500275 0-.828173-.671674-1.499725-1.5-1.499725-.828325 0-1.5.671552-1.5 1.499725" fill="url(#q)" transform="matrix(-.70710678 -.70710678 .70710678 -.70710678 270.124455 427.108595)"/><path d="m190.645084 126.384551c0 .828173.672101 1.500274 1.500275 1.500274.828173 0 1.499725-.672101 1.499725-1.500274 0-.828174-.671552-1.499726-1.499725-1.499726-.828174 0-1.500275.671552-1.500275 1.499726" fill="url(#r)" transform="matrix(-.70710678 -.70710678 .70710678 -.70710678 238.644609 351.619484)"/><path d="m159.270733 94.4161788c0 .8281736.671247 1.5002748 1.499725 1.5002748.829027 0 1.500275-.6721012 1.500275-1.5002748 0-.8281737-.671248-1.4997252-1.500275-1.4997252-.828478 0-1.499725.6715515-1.499725 1.4997252" fill="url(#s)" transform="matrix(-.70710678 -.70710678 .70710678 -.70710678 207.690294 274.861044)"/><path d="m126.551796 63.1912693c0 .8281736.671552 1.5002747 1.499725 1.5002747.828174 0 1.500275-.6721011 1.500275-1.5002747 0-.8281737-.672101-1.4997253-1.500275-1.4997253-.828173 0-1.499725.6715516-1.499725 1.4997253" fill="url(#t)" transform="matrix(-.70710678 -.70710678 .70710678 -.70710678 173.91492 198.421007)"/><path d="m96.5221775 33.4533029c0 .8281737.6716746 1.5002748 1.5 1.5002748s1.5-.6721011 1.5-1.5002748c0-.8281736-.6716746-1.4997252-1.5-1.4997252s-1.5.6715516-1.5 1.4997252" fill="url(#u)" transform="matrix(-.70710678 -.70710678 .70710678 -.70710678 143.679071 126.420976)"/><path d="m252.497137 127.871725c0 .828325.671675 1.5 1.5 1.5s1.5-.671675 1.5-1.5c0-.828326-.671675-1.5-1.5-1.5s-1.5.671674-1.5 1.5" fill="url(#v)" transform="matrix(-.70710678 -.70710678 .70710678 -.70710678 343.181271 397.893787)"/><path d="m221.122906 95.9034092c0 .8283254.672101 1.5 1.500275 1.5s1.499725-.6716746 1.499725-1.5-.671551-1.5-1.499725-1.5-1.500275.6716746-1.500275 1.5" fill="url(#w)" transform="matrix(-.70710678 -.70710678 .70710678 -.70710678 312.227122 321.135526)"/><path d="m189.748555 64.6784872c0 .8283254.671248 1.5 1.499725 1.5.829027 0 1.500275-.6716746 1.500275-1.5s-.671248-1.5-1.500275-1.5c-.828477 0-1.499725.6716746-1.499725 1.5" fill="url(#x)" transform="matrix(-.70710678 -.70710678 .70710678 -.70710678 280.747108 245.646234)"/><path d="m157.029618 31.9666781c0 .8283254.671552 1.5 1.499726 1.5.828173 0 1.500274-.6716746 1.500274-1.5s-.672101-1.5-1.500274-1.5c-.828174 0-1.499726.6716746-1.499726 1.5" fill="url(#y)" transform="matrix(-.70710678 -.70710678 .70710678 -.70710678 248.023131 166.667901)"/><path d="m127 2.97216157c0 .8283254.671675 1.5 1.5 1.5s1.5-.6716746 1.5-1.5c0-.82832539-.671675-1.5-1.5-1.5s-1.5.67167461-1.5 1.5" fill="url(#z)" transform="matrix(-.70710678 -.70710678 .70710678 -.70710678 217.261585 95.937019)"/></g></svg>