<svg height="13" viewBox="0 0 21 13" width="21" xmlns="http://www.w3.org/2000/svg"><path d="m18.1732026 2.05530267h-5.0251659v-1.21941402h5.0251659zm-2.478164 2.96986319c-.590042 0-1.0686244.172093-1.4357617.51628417-.3671372.34419116-.5703709.81130073-.609707 1.40134273h4.0122655c-.1180084-1.27842432-.7736008-1.9176269-1.9667968-1.9176269zm.1573437 5.75288064c.4130294 0 .8129408-.1048947 1.1997461-.3146874.3868053-.2097928.6359304-.49497544.7473828-.85555666h2.1733105c-.6556023 2.01269876-2.055292 3.01903316-4.1991112 3.01903316-1.4029888 0-2.5191348-.432691-3.3484716-1.2980859-.8293368-.865395-1.243999-2.00284775-1.243999-3.41239252 0-1.36365261.427774-2.49618845 1.2833349-3.3976415.8555609-.90145304 1.9585951-1.35217281 3.3091357-1.35217281.904731 0 1.6930809.22290141 2.3650731.66871092.6719923.44580951 1.1735205 1.03256469 1.5045996 1.76028315s.4966162 1.54065301.4966162 2.43882805c0 .11145238-.0065559.26551659-.019668.46219725h-6.4707615c0 .72771846.1884828 1.28988893.5654541 1.68652826.3769713.3966394.9227519.594956 1.6373583.594956zm-13.12836871-.4916992h2.91085929c1.34398454 0 2.01596673-.54741959 2.01596673-1.6422753 0-1.18008399-.65231442-1.77011713-1.95696283-1.77011713h-2.96986319zm0-5.2808494h2.76334952c.51136973 0 .91619803-.11964561 1.21449704-.35894042s.44744627-.61134349.44744627-1.1161572c0-.94406719-.62281276-1.4160937-1.86845697-1.4160937h-2.55683586zm-2.72401359-5.0054979h5.84138654c.57037393 0 1.07845803.04589147 1.52426753.13767578.44580951.09178431.86047169.2474875 1.24399899.46711424s.67854387.53595007.88505857.94897946c.20651469.4130294.30977049.91783554.30977049 1.51443355 0 1.18664001-.56380944 2.048744-1.69144526 2.58633781.74738653.20979271 1.31119598.58675833 1.69144526 1.13090817s.57037108 1.21285407.57037108 2.00613275c0 .49170167-.0803101.93914347-.2409326 1.34233884-.16062255.4031954-.37696804.7424644-.64904296 1.0178173-.27207492.275353-.59495417.5080883-.96864743.6982129-.37369326.1901247-.77032665.3277991-1.18991207.4130273-.41958542.0852283-.85883232.1278418-1.31775387.1278418h-6.00856427z" fill="#2d2d2d" fill-rule="evenodd"/></svg>