<svg height="22" viewBox="0 0 22 22" width="22" xmlns="http://www.w3.org/2000/svg"><path d="m20.7858055 0h-19.57161105c-.67073321 0-1.21419445.54353959-1.21419445 1.21418535v19.57154685c0 .6705633.54346124 1.2142678 1.21419445 1.2142678h10.53670195v-8.5195751h-2.86699911v-3.320257h2.86699911v-2.44856596c0-2.84150696 1.735482-4.3887896 4.2703705-4.3887896 1.2141945 0 2.2578412.09034265 2.562008.13073306v2.96960228l-1.7581502.00082429c-1.37856 0-1.6455509.6550666-1.6455509 1.6163585v2.11983743h3.2878869l-.4281416 3.320257h-2.8597453v8.5195751h5.6062317c.670486 0 1.2141945-.5437045 1.2141945-1.2142678v-19.57154685c0-.67064576-.5437085-1.21418535-1.2141945-1.21418535" fill="#3f3f3f" fill-rule="evenodd"/></svg>