<svg height="22" viewBox="0 0 22 22" width="22" xmlns="http://www.w3.org/2000/svg" xmlns:xlink="http://www.w3.org/1999/xlink"><mask id="a" fill="#fff"><path d="m0 21.997381h21.9930595v-21.99044052h-21.9930595z" fill="#fff" fill-rule="evenodd"/></mask><g fill="#3f3f3f" fill-rule="evenodd"><path d="m10.9965516.00694048c-2.98650001 0-3.36098017.01265873-4.533877.0661746-1.17045238.05338492-1.96982936.23929365-2.66928968.51115079-.72311905.28098016-1.33636905.6569881-1.94774206 1.26831746-.61132937.61137302-.9873373 1.22462302-1.26831746 1.94774207-.27185715.69946031-.45776588 1.4988373-.5111508 2.66928968-.05351587 1.17289682-.0661746 1.54737698-.0661746 4.53387702 0 2.9864563.01265873 3.3609365.0661746 4.5338333.05338492 1.1704524.23929365 1.9698294.5111508 2.6692897.28098016.723119.65698809 1.336369 1.26831746 1.947742.61137301.6113294 1.22462301.9873373 1.94774206 1.2683612.69946032.2718134 1.4988373.4577222 2.66928968.5111071 1.17289683.0535159 1.54737699.0661746 4.533877.0661746 2.9864563 0 3.3609365-.0126587 4.5338333-.0661746 1.1704524-.0533849 1.9698294-.2392937 2.6692897-.5111071.7231191-.2810239 1.3363691-.6570318 1.9477421-1.2683612.6113293-.611373.9873373-1.224623 1.2683611-1.947742.2718135-.6994603.4577222-1.4988373.5111071-2.6692897.0535159-1.1728968.0661746-1.547377.0661746-4.5338333 0-2.98650004-.0126587-3.3609802-.0661746-4.53387702-.0533849-1.17045238-.2392936-1.96982937-.5111071-2.66928968-.2810238-.72311905-.6570318-1.33636905-1.2683611-1.94774207-.611373-.61132936-1.224623-.9873373-1.9477421-1.26831746-.6994603-.27185714-1.4988373-.45776587-2.6692897-.51115079-1.1728968-.05351587-1.547377-.0661746-4.5338333-.0661746zm0 1.98135317c2.9361706 0 3.2839801.01121825 4.4435198.06412302 1.0721508.04888889 1.6544088.22803174 2.0418969.37862698.5132896.19948413.8796071.43777381 1.2643888.82259921.3848254.38478174.6231151.7510992.8225992 1.26438889.1505953.38748809.3297381.96974603.378627 2.04189682.0529048 1.15953968.064123 1.50734921.064123 4.44356353 0 2.9361706-.0112182 3.2839801-.064123 4.4435198-.0488889 1.0721508-.2280317 1.6544087-.378627 2.0418968-.1994841.5132897-.4377738.8796072-.8225992 1.2643889-.3847817.3848254-.7510992.6231151-1.2643888.8225992-.3874881.1505953-.9697461.3297381-2.0418969.378627-1.1593651.0529048-1.5071309.064123-4.4435198.064123-2.93643255 0-3.28415477-.0112182-4.4435635-.064123-1.0721508-.0488889-1.65440873-.2280317-2.04189683-.378627-.51328968-.1994841-.87960714-.4377738-1.26438889-.8225992-.38478175-.3847817-.62311508-.7510992-.82259921-1.2643889-.15059523-.3874881-.32973809-.969746-.37862698-2.0418968-.05290476-1.1595397-.06412302-1.5073492-.06412302-4.4435198 0-2.93621432.01121826-3.28402385.06412302-4.44356353.04888889-1.07215079.22803175-1.65440873.37862698-2.04189682.19948413-.51328969.43777381-.87960715.82259921-1.26438889.38478175-.3848254.75109921-.62311508 1.26438889-.82259921.3874881-.15059524.96974603-.32973809 2.04189683-.37862698 1.15953968-.05290477 1.5073492-.06412302 4.4435635-.06412302z" mask="url(#a)"/><path d="m11.0000221 14.7129848c-2.05065655 0-3.71300688-1.6623504-3.71300688-3.7129627 0-2.05065655 1.66235033-3.71300688 3.71300688-3.71300688 2.0506123 0 3.7129627 1.66235033 3.7129627 3.71300688 0 2.0506123-1.6623504 3.7129627-3.7129627 3.7129627zm0-9.4329848c-3.15911119 0-5.7200221 2.56091091-5.7200221 5.7200221 0 3.159067 2.56091091 5.7199779 5.7200221 5.7199779 3.159067 0 5.7199779-2.5609109 5.7199779-5.7199779 0-3.15911119-2.5609109-5.7200221-5.7199779-5.7200221z"/><path d="m18.48 4.84002183c0 .72902268-.5909992 1.31997817-1.3200218 1.31997817-.728979 0-1.3199782-.59095549-1.3199782-1.31997817 0-.72902267.5909992-1.32002183 1.3199782-1.32002183.7290226 0 1.3200218.59099916 1.3200218 1.32002183"/></g></svg>