<svg height="22" viewBox="0 0 22 22" width="22" xmlns="http://www.w3.org/2000/svg"><path d="m18.7465348 18.746382h-3.2607983v-5.1056915c0-1.2174523-.0223049-2.7835338-1.6956334-2.7835338-1.6977723 0-1.958404 1.3262271-1.958404 2.6955363v5.193689h-3.2601872v-10.49890276h3.1295658v1.43454348h.0436933c.4357101-.82528263 1.5000833-1.69548068 3.0875531-1.69548068 3.304186 0 3.9142107 2.17457846 3.9142107 5.00119446zm-13.85258741-11.93405734c-1.04588761 0-1.89225299-.84774034-1.89225299-1.892253 0-1.04359601.84636538-1.89133635 1.89225299-1.89133635 1.04329046 0 1.89103081.84774034 1.89103081 1.89133635 0 1.04451266-.84774035 1.892253-1.89103081 1.892253zm-1.63223244 11.93405734h3.26324269v-10.49890276h-3.26324269zm17.10987195-18.746382h-18.74775701c-.895864 0-1.62382989.71009139-1.62382989 1.58517819v18.82689371c0 .8761562.72796589 1.587317 1.62382989 1.587317h18.74775701c.8973917 0 1.6284131-.7111608 1.6284131-1.587317v-18.82689371c0-.8750868-.7310214-1.58517819-1.6284131-1.58517819z" fill="#3f3f3f" fill-rule="evenodd"/></svg>