<svg height="16" viewBox="0 0 20 16" width="20" xmlns="http://www.w3.org/2000/svg"><path d="m19.3482143 1.86607143c-.5483659.80208734-1.2113057 1.48548825-1.9888393 2.05022321.0081846.11458391.0122768.28645719.0122768.515625 0 1.06399342-.1555044 2.12592476-.4665179 3.1858259-.3110134 1.05990113-.783665 2.07681804-1.4179687 3.05078126-.6343038.9739632-1.3893186 1.8353757-2.265067 2.5842634s-1.9315414 1.3463519-3.1674107 1.7924107c-1.23586927.4460588-2.55765665.6690848-3.96540179.6690848-2.21801704 0-4.24775865-.593372-6.08928571-1.7801339.28645977.0327382.605653.0491071.95758929.0491071 1.84152706 0 3.48250767-.5647265 4.92299107-1.6941964-.8593793-.0163691-1.62871684-.2803174-2.30803572-.7918527-.67931887-.5115353-1.14583206-1.1642445-1.39955357-1.9581473.27009064.04092282.51971612.06138393.74888393.06138393.35193628 0 .69977507-.04501443 1.04352679-.13504464-.91667125-.18824499-1.67577825-.64452763-2.27734375-1.36886161-.60156551-.72433398-.90234375-1.56528539-.90234375-2.52287947v-.04910714c.5565504.31101346 1.15401466.47879452 1.79241071.50334822-.54018127-.36012085-.96986448-.83072627-1.2890625-1.41183036-.31919802-.5811041-.47879464-1.21130613-.47879464-1.890625 0-.7202417.18005772-1.38727372.54017857-2.00111607.99033233 1.21950014 2.19549141 2.19549485 3.61551339 2.92801339s2.94028208 1.13969453 4.56082589 1.22154018c-.06547651-.31101346-.09821428-.61383781-.09821428-.90848214 0-1.09673168.38671488-2.03180417 1.16015627-2.80524554.7734413-.77344137 1.7085138-1.16015625 2.8052455-1.16015625 1.1458391 0 2.1116032.41740654 2.8973214 1.25223214.8921176-.17187586 1.7310229-.49106909 2.5167411-.95758928-.3028289.94122494-.8839243 1.66964028-1.7433036 2.18526785.7611646-.08184564 1.5223177-.28645669 2.2834822-.61383928z" fill="#2d2d2d" fill-rule="evenodd"/></svg>