<svg height="57" viewBox="0 0 57 57" width="57" xmlns="http://www.w3.org/2000/svg"><g fill="#898989" fill-rule="evenodd"><path d="m21.4082 29.2687-5.545 6.721h10.754v-2.256h-5.977l2.497-2.952c.959-1.129 1.704-2.017 2.28-2.881.647-.96 1.151-2.04 1.151-3.361 0-2.496-1.752-4.824-5.16-4.824-2.016 0-3.168.912-3.744 1.561-.624.695-1.272 1.943-1.344 3.504h2.352c.095-1.512 1.032-2.905 2.832-2.905 1.777 0 2.664 1.248 2.664 2.592 0 .937-.383 1.633-.84 2.305-.527.767-1.367 1.824-1.92 2.496"/><path d="m33.4316 30.757 3.648-5.16v5.16zm6.001 5.232v-3.024h1.728v-2.256h-1.728v-11.905l-10.272 14.161h7.919v3.024z"/><path d="m5.7793 14.8155c3.638-6.054 9.414-10.328 16.267-12.037 6.853-1.707 13.96-.646 20.014 2.992 2.918 1.752 5.411 4.019 7.448 6.711l-5.284-1.218-.449 1.949 7.797 1.797 1.796-7.796-1.949-.449-.878 3.814c-2.088-2.587-4.572-4.793-7.451-6.523-13.44-8.076-30.948-3.711-39.026 9.73-2.917 4.852-4.31 10.4-4.029 16.042l1.998-.1c-.262-5.244 1.033-10.4 3.746-14.912"/><path d="m56.6182 26.9396-1.998.1c.262 5.241-1.034 10.398-3.746 14.913-3.637 6.052-9.414 10.327-16.267 12.036-6.852 1.706-13.96.646-20.014-2.992-2.44-1.465-4.578-3.29-6.407-5.415l3.876.795.403-1.959-7.837-1.609-1.608 7.837 1.959.402 1.025-4.994c2.106 2.644 4.627 4.897 7.559 6.657 4.482 2.693 9.5 4.074 14.598 4.074 2.308 0 4.633-.283 6.93-.856 7.371-1.838 13.586-6.435 17.498-12.947 2.917-4.855 4.31-10.402 4.029-16.042"/></g></svg>