<svg height="31" viewBox="0 0 97 31" width="97" xmlns="http://www.w3.org/2000/svg" xmlns:xlink="http://www.w3.org/1999/xlink"><mask id="a" fill="#fff"><path d="m0 30.6002218h96.9628725v-30.6002218h-96.9628725z" fill="#fff" fill-rule="evenodd"/></mask><g fill="#3f3f3f" fill-rule="evenodd" opacity=".5"><path d="m31.1991974 21.5687526c0 1.9542106 1.2110373 2.8045664 2.8049403 3.3863429l1.7285043.6185426c1.0685844.4072934 1.6780289.7715892 1.6780289 1.69959 0 1.0655931-.9567905 1.5479143-2.3193789 1.5479143-1.3984819 0-2.7043633-.5031345-3.7912683-1.3743037v2.112741c.8358986.5800317 2.194748 1.0395454 3.7912683 1.0395454 2.4312973 0 4.2839339-1.1962062 4.2839339-3.3625385 0-1.7211511-.8570859-2.7686728-2.7233072-3.4431746l-1.926418-.6954397c-.9948029-.3504618-1.5603774-.6984309-1.5603774-1.5707218 0-.9641437.9003328-1.4267732 2.1051385-1.4267732 1.3997284 0 2.4885029.5208321 3.4834304 1.2774655v-2.0729837c-.9571644-.6162993-2.1820357-.9636452-3.5260541-.9636452-2.193751 0-4.0284407 1.1365081-4.0284407 3.2274387"/><path d="m44.6275409 30.4176377h2.0276182v-11.8739484h-2.0276182z" mask="url(#a)"/><path d="m8.08043671 30.4172639h2.02998619v-11.8736992h-2.02998619z" mask="url(#a)"/><path d="m52.5836584 18.5435398v11.8736991h4.5798073c3.5253063 0 5.804554-2.3214975 5.804554-5.939903 0-3.6136695-2.2792477-5.9337961-5.804554-5.9337961zm2.0241285 1.7786058h2.4797787c2.5078206 0 3.8489724 1.6008824 3.8489724 4.1551903 0 2.5362364-1.3411518 4.1433503-3.8489724 4.1433503h-2.4797787z" mask="url(#a)"/><path d="m67.2524895 18.5434151v11.8736992h7.2430425v-1.7965527h-5.2587958v-3.6833381h4.7166519v-1.7582911h-4.7166519v-2.8571606h5.2587958v-1.7783567z" mask="url(#a)"/><path d="m80.5536598 18.5435398v11.8734499h2.0206388v-4.8173536h1.4384885l4.1600509 4.8173536h2.299064l-4.2968955-4.8921321c1.8891534-.2922592 2.7751537-1.4340018 2.7751537-3.4217381 0-2.324738-1.596645-3.5595797-4.0662039-3.5595797zm2.0206388 1.7418398h2.2710221c1.3446415 0 2.1027706.7165023 2.1027706 1.8177399 0 1.1004898-.7581291 1.8173661-2.1027706 1.8173661h-2.2710221z" mask="url(#a)"/><path d="m27.4218129 3.28990366c0 1.98499445 1.2161471 2.84930892 2.8247566 3.43906178l1.7455788.62851303c1.078804.41277715 1.6865037.78604634 1.6865037 1.72900283 0 1.0812967-.9605294 1.5722173-2.3339606 1.5722173-1.4121914 0-2.726423-.5107369-3.8241709-1.3948677v2.1415307c.8428779.5897529 2.2159352 1.0613557 3.8241709 1.0613557 2.4523598 0 4.3154654-1.2182658 4.3154654-3.41899617 0-1.74906839-.8629435-2.80980097-2.7461146-3.49788751l-1.941623-.70752895c-1.0005359-.35357752-1.5694754-.70740431-1.5694754-1.59153507 0-.98283835.9024515-1.4539427 2.1187233-1.4539427 1.4121913 0 2.5101885.52980545 3.5105998 1.29640939v-2.10239665c-.9609033-.62888692-2.1967421-.98283834-3.5501078-.98283834-2.2166831 0-4.0603462 1.15944015-4.0603462 3.28190236" mask="url(#a)"/><path d="m88.7247654 3.28186498c0 1.9843713 1.2162718 2.84930892 2.8243827 3.43918641l1.745828.62851303c1.0785548.41227862 1.6866284.78629559 1.6866284 1.72912746 0 1.08067352-.9609033 1.57196802-2.333836 1.57196802-1.4121914 0-2.726423-.5107369-3.8250433-1.39511695v2.14177995c.8437504.5895036 2.2159353 1.0614804 3.8250433 1.0614804 2.4516121 0 4.3152162-1.2187644 4.3152162-3.41937012 0-1.74881912-.8634421-2.81029949-2.7463639-3.49788751l-1.941623-.70715505c-1.0005359-.35395142-1.5691015-.70752895-1.5691015-1.59190897 0-.98246445.9025761-1.45406733 2.1177262-1.45406733 1.4129392 0 2.5113103.53042861 3.5115969 1.29690791v-2.10239665c-.9611526-.62926081-2.1967421-.98283834-3.5501078-.98283834-2.2166831 0-4.0603462 1.15944016-4.0603462 3.28177774" mask="url(#a)"/><path d="m76.4050625 3.28186498c0 1.9843713 1.2161472 2.84930892 2.824632 3.43918641l1.7457034.62851303c1.0786794.41227862 1.686753.78629559 1.686753 1.72912746 0 1.08067352-.9616511 1.57196802-2.333836 1.57196802-1.4124407 0-2.726423-.5107369-3.8250433-1.39511695v2.14177995c.8430026.5895036 2.2163091 1.0614804 3.8250433 1.0614804 2.4516121 0 4.3150915-1.2187644 4.3150915-3.41937012 0-1.74881912-.8636913-2.81029949-2.7462393-3.49788751l-1.9419968-.70715505c-1.0000374-.35395142-1.5683537-.70752895-1.5683537-1.59190897 0-.98246445.9018283-1.45406733 2.1173523-1.45406733 1.4129392 0 2.5111856.53042861 3.5115969 1.29690791v-2.10239665c-.9611526-.62926081-2.1969914-.98283834-3.5497339-.98283834-2.2169324 0-4.0609694 1.15944016-4.0609694 3.28177774" mask="url(#a)"/><path d="m64.4588781.20480576v12.06525664h7.2950135v-1.8252178h-5.2963097v-3.74316084h4.7501776v-1.78658225h-4.7501776v-2.90327405h5.2963097v-1.8070217z" mask="url(#a)"/><path d="m0 .20480576v12.06563054h4.60959408c2.51056246 0 4.07966399-1.1990727 4.07966399-3.45837952 0-1.27746551-.82343557-2.39764697-1.96143923-2.77091616.88275982-.31469272 1.56910153-1.25814774 1.56910153-2.55493102 0-2.16122237-1.56910153-3.28140384-4.08003788-3.28140384zm1.9811309 1.76913394h2.21630918c1.39287362 0 2.13841495.49079602 2.13841495 1.63029525 0 1.1397485-.74554133 1.67067563-2.13841495 1.67067563h-2.21630918zm0 4.99046575h2.58895522c1.37343121 0 2.11834939.66851951 2.11834939 1.76863542 0 1.08079813-.74491818 1.76838613-2.11834939 1.76838613h-2.58895522z" mask="url(#a)"/><path d="m40.9094308 12.2700251h2.0397074v-12.06575525h-2.0397074z" mask="url(#a)"/><path d="m20.6766579.20443187v7.03490908c0 2.31888032-.9807196 3.39967845-2.7852487 3.39967845s-2.7852487-1.08079813-2.7852487-3.39967845v-7.03490908h-2.0400813v7.25176664c0 3.32028869 1.9614393 5.01053129 4.82533 5.01053129 2.8832085 0 4.82533-1.6902426 4.82533-4.99158741v-7.27071052z" mask="url(#a)"/><path d="m57.047609.20443187v7.71427147l-8.2785997-7.90209006v12.25357382h1.9653028v-7.84824959l8.2729913 8.03606819v-12.25357383z" mask="url(#a)"/><path d="m15.9235266 30.4163291h1.9507209v-7.722871l8.2122961 7.9068261v-12.0575296h-1.9457357v7.5910116l-8.2172813-7.7744681z" mask="url(#a)"/></g></svg>