<svg height="67" viewBox="0 0 66 67" width="66" xmlns="http://www.w3.org/2000/svg" xmlns:xlink="http://www.w3.org/1999/xlink"><mask id="a" fill="#fff"><path d="m0 .8592h66.006v65.1407888h-66.006z" fill="#fff" fill-rule="evenodd"/></mask><g fill="#898989" fill-rule="evenodd"><path d="m19 31.4327-5 2.405v2.303l2.188 1.053 2.812 1.352 3 1.444v-2.477l-3-1.453-1.42-.689-.857-.415 1.836-.866.441-.208 3-1.416v-2.476l-.491.236z"/><path d="m7.5 9.9894c-.828 0-1.5-.671-1.5-1.5 0-.828.672-1.5 1.5-1.5s1.5.672 1.5 1.5c0 .829-.672 1.5-1.5 1.5m0-5c-1.93 0-3.5 1.57-3.5 3.5s1.57 3.5 3.5 3.5 3.5-1.57 3.5-3.5-1.57-3.5-3.5-3.5"/><path d="m16.5 9.9894c-.828 0-1.5-.671-1.5-1.5 0-.828.672-1.5 1.5-1.5s1.5.672 1.5 1.5c0 .829-.672 1.5-1.5 1.5m0-5c-1.93 0-3.5 1.57-3.5 3.5s1.57 3.5 3.5 3.5 3.5-1.57 3.5-3.5-1.57-3.5-3.5-3.5"/><path d="m25.5 9.9894c-.828 0-1.5-.671-1.5-1.5 0-.828.672-1.5 1.5-1.5s1.5.672 1.5 1.5c0 .829-.672 1.5-1.5 1.5m0-5c-1.93 0-3.5 1.57-3.5 3.5s1.57 3.5 3.5 3.5 3.5-1.57 3.5-3.5-1.57-3.5-3.5-3.5"/><path d="m51.333 9.4894c.553 0 1-.447 1-1s-.447-1-1-1h-12.464-6.369c-.553 0-1 .447-1 1s.447 1 1 1h4.842z"/><path d="m31.4717 27.9894-.472.947-4 8.031-3 6.022h2.514l.486-.974 4-8.014 3-6.012z"/><path d="m39 47.9806c-.008.003-.017.006-.024.009h.024z"/><path d="m63.8799 40.0752c-.156 1.004-.46 1.994-.916 2.937-.304.627-.675 1.235-1.114 1.811-.547.715-1.174 1.33-1.85 1.863-.412.326-.838.628-1.287.884-.232.133-.473.248-.713.362-.644.305-1.313.545-2 .713-1.156.283-2.355.361-3.545.243-.192-.02-.385-.033-.576-.062-.538-.084-1.07-.222-1.595-.392-.647-.208-1.278-.482-1.887-.823-.126-.07-.255-.131-.379-.207-.302-.185-.598-.389-.886-.608-.406-.311-.773-.653-1.121-1.007-.291-.296-.562-.607-.812-.93-.086-.112-.18-.219-.262-.333-.078-.11-.143-.226-.216-.34-.114-.173-.234-.346-.337-.526-.266-.466-.482-.953-.672-1.448-.052-.135-.111-.268-.158-.405-.322-.958-.505-1.958-.543-2.965-.016-.41-.004-.819.031-1.228s.095-.816.176-1.223l.782-2.398c-.132.281-.256.565-.361.853.105-.288.229-.572.361-.853.164-.349.345-.693.55-1.028.186-.303.389-.599.608-.887 1.051-1.376 2.379-2.411 3.842-3.106.682-.323 1.39-.578 2.117-.747 1.596-.372 3.271-.365 4.883.03.682.166 1.352.4 2 .708.325.155.646.327.959.516.314.191.619.399.917.626.044.033.081.072.124.105.809.636 1.504 1.365 2.071 2.165.2.281.384.57.553.866.338.593.615 1.213.83 1.852s.367 1.296.457 1.962c.044.332.073.668.086 1.004.026.672-.013 1.347-.117 2.016zm-7.88 16.784h-8.408-1.224-1.259l.745-.973c.251-.331.384-.712.407-1.097.015-.256-.02-.514-.102-.757-.014-.043-.038-.082-.054-.123l1.296-1.697.996-1.305.612-.803c.675.26 1.364.458 2.062.596.8.157 1.61.245 2.418.245.845 0 1.685-.098 2.511-.266zm-13.702-6.205 1.214-1.59 1.273-1.669c.356.347.729.682 1.133.991.404.308.825.578 1.253.83l-1.274 1.67-1.214 1.588zm.313 6.181-.017.024-1.279 1.675-.248.325-1.528 2-1.647 2.157c-.334.438-.796.738-1.318.882-.11.031-.22.064-.337.079-.662.092-1.318-.085-1.849-.491-.531-.405-.872-.992-.961-1.654-.016-.116-.013-.232-.013-.347.001-.213.019-.423.072-.626.084-.313.229-.611.432-.877l.857-1.123 1.526-2 1.039-1.361 1.297-1.699 1.65-2.163.798.609 2.384 1.82.795.607zm-11.341.024h-3.914-25.356l-.002-40.5h29.999 24.003v9.86c-2.347-.475-4.778-.266-7 .589-2.083.802-3.98 2.156-5.432 4.056-.495.648-.91 1.332-1.259 2.036l-3.309-1.595-3-1.446v2.474l3 1.414 2.277 1.072-2.277 1.102-3 1.452v2.486l3-1.441 2.061-.989c-.183 2.263.255 4.545 1.27 6.591.141.284.288.565.452.839.203.342.424.675.661.998l-1.607 2.106-1.297 1.698c-.3-.037-.603-.016-.889.081-.244.081-.473.211-.673.386-.101.087-.194.185-.278.295l-2.197 2.878-2.717 3.558zm-29.273-54h.003 40.306 13.694v11.5h-22.475-31.527zm63.897 33.93c-.445-3.31-2.151-6.247-4.804-8.274-.354-.27-.718-.516-1.09-.743-.644-.391-1.314-.713-2-.976v-23.287-.65c0-1.104-.895-2-2-2h-1.47-10.698-41.832c-1.104 0-2 .896-2 2v54c0 1.105.896 2 2 2h27.97.006 2.297c-.144.198-.268.404-.372.616-.106.213-.193.431-.264.653-.027.084-.069.163-.091.248-.041.159-.052.322-.075.483-.142.987.027 2.001.525 2.873.29.508.684.967 1.178 1.344.741.565 1.601.866 2.466.916.865.051 1.736-.149 2.498-.584.075-.043.14-.104.215-.152.419-.274.807-.605 1.129-1.026l2.574-3.371 1.526-2h2.517 9.901c1.105 0 2-.895 2-2v-6.766c.691-.265 1.36-.587 2-.976 1.293-.785 2.468-1.809 3.44-3.081 2.026-2.653 2.897-5.938 2.454-9.247z" mask="url(#a)" transform="translate(0 .13)"/></g></svg>