<svg height="15" viewBox="0 0 13 15" width="13" xmlns="http://www.w3.org/2000/svg"><path d="m148.656 19.4v-9.344h-7.312v9.344zm0-10.656c.362668 0 .677332.12799872.944.384s.4.56533152.4.928v9.344c0 .3626685-.133332.677332-.4.944s-.581332.4-.944.4h-7.312c-.362668 0-.677332-.133332-.944-.4s-.4-.5813315-.4-.944v-9.344c0-.36266848.133332-.67199872.4-.928s.581332-.384.944-.384zm-2-2.688v1.344h-8v9.344h-1.312v-9.344c0-.36266848.127999-.677332.384-.944s.565332-.4.928-.4z" fill="#000ee6" fill-rule="evenodd" transform="translate(-137 -6)"/></svg>