<svg height="61" viewBox="0 0 55 61" width="55" xmlns="http://www.w3.org/2000/svg"><g fill="#898989" fill-rule="evenodd"><path d="m8.5 22.1085h7.513 17.987c.553 0 1-.447 1-1s-.447-1-1-1h-16.786-8.714c-.553 0-1 .447-1 1s.447 1 1 1"/><path d="m52.6123 39.8859c-.082.335-.181.667-.297.996-.232.658-.534 1.302-.907 1.924-.187.31-.387.608-.6.892-1.062 1.42-2.432 2.505-3.961 3.216-.904.421-1.864.709-2.847.861-.659.101-1.329.139-2 .114-.669-.025-1.338-.116-2-.272-.027-.006-.054-.009-.08-.015-1.004-.245-1.988-.644-2.92-1.204s-1.746-1.241-2.433-2.013c-.459-.514-.86-1.067-1.204-1.651-.344-.583-.629-1.197-.854-1.831-.111-.317-.185-.645-.266-.971-.027-.108-.066-.214-.089-.324-.023-.109-.045-.218-.065-.327-.081-.442-.144-.886-.167-1.335-.019-.336-.021-.675-.006-1.013.036-.819.18-1.638.413-2.443.197-.682.468-1.351.811-2 .089-.167.169-.336.268-.5 1.493-2.486 3.852-4.13 6.46-4.781.043-.01.088-.015.132-.025.655-.155 1.324-.246 2-.274.627-.025 1.258 0 1.887.09.038.005.076.016.113.022.974.148 1.94.432 2.868.869.321.151.638.32.948.507.311.186.608.386.892.598.568.426 1.083.901 1.541 1.414.459.514.86 1.068 1.204 1.652.515.875.899 1.818 1.143 2.796.162.652.263 1.319.298 1.992.019.337.02.675.005 1.013-.029.676-.124 1.354-.287 2.023zm-12.612 19.104h-20.876-17.124l-.001-10.29v-3.269l-.002-38.441h.003 7 2v2c0 .414.126.798.341 1.118.144.213.328.396.541.54.319.216.704.342 1.118.342h9.693 6.307c.414 0 .799-.126 1.118-.342.213-.144.396-.327.54-.54.216-.32.342-.704.342-1.118v-2h2 7v18.157c-.205.041-.411.071-.616.122-3.24.807-5.971 2.829-7.69 5.69-.298.495-.545 1.009-.769 1.531h-21.15-1.275c-.553 0-1 .447-1 1 0 .552.447 1 1 1h.073 21.678c-.464 1.928-.465 3.952.028 5.931.407 1.635 1.125 3.139 2.103 4.449h-23.882c-.553 0-1 .448-1 1 0 .553.447 1 1 1h25.5c.076 0 .143-.027.214-.043.544.471 1.126.907 1.755 1.285 1.264.759 2.625 1.279 4.031 1.555zm-27.003-56h.003 14.5 1.5v2 2 2h-5.105-10.895l-.001-2-.001-2zm41.54 31.384c-.808-3.24-2.829-5.971-5.691-7.69-1.506-.906-3.153-1.465-4.846-1.682-.661-.085-1.329-.118-2-.095v-17.917c0-1.105-.896-2-2-2h-7-2v-2c0-1.105-.896-2-2-2h-.298-15.702c-1.105 0-2 .895-2 2v2h-2-7c-1.105 0-2 .895-2 2v52c0 1.104.895 2 2 2h20.453 17.547c1.104 0 2-.896 2-2v-9.1c.129.004.257.013.385.013.538 0 1.077-.04 1.615-.111.478-.061.956-.147 1.431-.265 3.241-.808 5.972-2.829 7.692-5.691h-.001c1.72-2.862 2.222-6.222 1.415-9.462z"/><path d="m44 36.6329-.49.49-1.51 1.51-1.548 1.548-.452-.452-1.385-1.385-.615-.615-1.023 1.023-.391.391 3.414 3.414.452.452 1.548-1.548 2-2 3.277-3.277 2.195-2.195-1.414-1.414z"/></g></svg>