<svg height="25" viewBox="0 0 92 25" width="92" xmlns="http://www.w3.org/2000/svg" xmlns:xlink="http://www.w3.org/1999/xlink"><mask id="a" fill="#fff"><path d="m.03836614.03427805h12.49864256v17.78961655h-12.49864256z" fill="#fff" fill-rule="evenodd"/></mask><mask id="b" fill="#fff"><path d="m.01805737.03714455h15.13025463v17.80631805h-15.13025463z" fill="#fff" fill-rule="evenodd"/></mask><mask id="c" fill="#fff"><path d="m.01521766.00648825h17.11802304v24.34013165h-17.11802304z" fill="#fff" fill-rule="evenodd"/></mask><g fill="#3f3f3f" fill-rule="evenodd" opacity=".5"><path d="m26.7621392 21.1467439c-.3109523.584281-.8940129 1.1216648-1.3668153 1.2596018-1.824.5322676-3.1300131-1.1751211-3.6359196-4.7532191-.1634519-1.156231-.1625842-4.3066128.0015351-5.6289847.3570712-2.87686901 1.260962-4.33789947 2.6850422-4.34012955.6416604-.00104945.9974635.15321962 1.4993655.649806 1.1950874 1.18272958 1.7612622 3.44134165 1.7523855 6.99084215-.0070747 2.8322018-.2937328 4.6158724-.9355934 5.8220834m6.0620685-7.4607332c-.3492624-2.9107793-1.604885-5.04122735-3.6777003-6.24028898-2.3032096-1.33221053-5.8033754-1.40927948-8.290193-.18247303-1.7957013.88586655-3.2629637 2.59214024-3.9146354 4.55231511-.6723618 2.0226171-.6721616 4.6773308.0006674 6.7420571.4308882 1.3225031 1.0154172 2.2876687 1.9171055 3.1653364 1.0808913 1.0522043 2.4963618 1.7254261 4.1147288 1.9569609.5796567.0829721 2.407461.0846775 3.0064731.0028204.2829873-.0386984.7732094-.1439713 1.0893676-.2339616 2.9336572-.8350339 4.9361261-3.0504873 5.6237052-6.2219893.1679903-.7748872.2371353-2.6520244.1304811-3.540777"/><path d="m44.7583861 6.39238681c-.7652425 0-1.1784866.08622697-1.7978588.37528178-1.1283046.52641366-1.9767886 1.3888175-2.7334039 2.77790319l-.2363559.43401804.0304253-.77108102c.0167273-.42409456.0447818-1.2161624.0622994-1.76007624l.03194-.98899522h-.1625975c-.2084331 0-6.7324214 1.32766741-6.9295274 1.41013956-.1282867.05377452-.1481751.11150502-.1481751.43100076 0 .32861462.0162005.37239861.1481751.40035868.0815293.01729903.3811725.076974.6659322.13255888.5770271.11277898.7484493.20390064.986254.5244692.4387302.59145266.5290841 1.63475878.5243425 6.05271778-.0038196 3.6122799-.0779072 5.4111114-.245839 5.9733971-.206194.6902181-.5726806 1.0426356-1.2102949 1.163863-.2060623.0392245-.4783753.0938036-.6051474.1212944l-.2304947.0499526-.0196908.4633191c-.0138297.3252621.0057953.4798806.0658556.518837.0470868.030575 2.278539.0483434 4.9588633.0395598l4.8733169-.0159581.0192298-.5196415c.0106028-.2858364-.0042147-.5197086-.0329278-.5197086-.3785382-.0004023-1.5385193-.1622623-1.7218614-.240175-.5495652-.2337381-.8156878-.7357454-.9304742-1.7553827-.1347406-1.1968518-.2146235-4.1726882-.1774151-6.6123215.0375377-2.4635033.0381963-2.4734267.1892691-2.638371.3532496-.3856076 1.2477008-.6859269 2.0485053-.6876702.6430144-.0014751 1.3054563.167224 2.0115604.5121989.3384979.1654137.6507195.2869763.6937232.2702137.0882465-.034464 1.6870896-4.33582215 1.6870896-4.53864998 0-.30159325-.9072272-.60305241-1.8147178-.60305241"/><path d="m8.89334518 2.72058966h2.11667842c2.432196 0 2.8303764.04932582 3.6916433.45704269 1.2486855.59119595 2.1612719 1.76210012 2.9571618 3.79406442.3239924.82724597.3196205.82464987 1.0398427.61352237l.478489-.14018918-.0437191-2.99505099c-.0241464-1.64722287-.0634264-3.1118104-.0873037-3.25459568l-.0435174-.25960959-9.28002404-.01836738c-5.10404013-.01012477-9.37970367-.00136295-9.50137737.01966543l-.22121879.0379679.0194382.53206986.01950545.53200497.70623209.08158231c.91689102.10598562 1.46432177.35423729 1.78918853.81153959.73212725 1.03065009.86530245 2.43338563.86382272 9.10184752-.00161424 7.1007118-.15463119 8.8252334-.86254478 9.7208216-.36515562.4619753-.66096597.6133277-1.48779558.76137-1.07804646.1929549-1.04253307.1688761-1.04253307.7066574 0 .2995245.02811476.4612613.08407524.4830685.12120288.0471191 11.9909463.0506239 12.1181354.0035696.1625679-.0601645.1528824-.9064269-.0112997-.9882688-.0647043-.0322565-.4657769-.1089062-.8911977-.1703688-.4254207-.0614626-.8948969-.1628401-1.0432729-.2252113-.77705706-.3267187-1.20980917-1.2295759-1.37237707-2.8634938-.11656193-1.1720075-.20749771-3.3316998-.20749771-4.9280392v-1.4649769l.72304713.0212231c1.53978775.045237 2.33574485.1232496 2.65745045.2605831.6965466.297253 1.2602543 1.1266408 1.5531725 2.2851486l.1558418.6165728.5491796.0188217.5492467.0188866v-3.8994011-3.89940096l-.5489777.01882169-.5489777.0188866-.1604829.61611847c-.3107421 1.1935551-.8180185 1.9266277-1.5635978 2.2597068-.303478.1355162-.5189797.1727053-1.2443137.2145024-.4824574.0277783-1.15727892.0521167-1.49943155.0539988l-.62215683.0034399-.00073987-1.9308464c-.00080712-1.93564913.10728002-6.04598293.1757509-6.68494705z"/><path d="m12.1060396 9.90032739c-.5523174-1.13228553-1.5683242-1.90709581-3.69756607-2.81967109-1.7384246-.74504873-2.61111637-1.2610278-3.14373868-1.85881747-.43224273-.48507285-.5586199-.87715769-.51666924-1.60261228.03873378-.66963485.19846139-1.0683184.60798905-1.51730032.52487556-.57556951 1.24703079-.7772343 2.1115819-.58964227 1.41850983.30771556 2.32888497 1.31529886 3.11248904 3.44466362.2795397.75959284.3125619.78363101.8150507.59226829l.3178796-.12106621-.0111606-.87527234c-.0061712-.48136949-.0301336-1.49225215-.0533738-2.24632361l-.0422133-1.37105127-.23667-.10275141c-1.297319-.56338208-3.77326106-.91432595-5.38635889-.76336353-1.83177957.17149925-3.17643261.7678749-4.21226582 1.86831154-1.02926816 1.09350125-1.49374527 2.37674922-1.41135392 3.89889758.06821084 1.25968112.43145492 2.16410901 1.18833925 2.95871543.70160664.73656467 1.29088531 1.08488253 2.98000639 1.76165475 2.72659556 1.0923566 3.44829124 1.7393673 3.44218574 3.0860437-.00505508 1.1370662-.59282379 1.9694469-1.66463346 2.3574918-.38274227.1385056-1.35174329.1373609-1.86860949-.0023567-1.35496016-.3661613-2.39230333-1.5700901-3.27674653-3.8028796l-.22675675-.5722701-.26608137.0125914c-.14640057.0070027-.34775057.052857-.44760495.1018761l-.18139226.0891499.01687217.9755324c.00932237.5365159.03551691 1.6677241.05823197 2.5137736l.04129415 1.5381738.30271434.133523c.61980614.2731733 2.48119408.6911816 3.6508886.8197892.14443105.0158908.94208433.0212102 1.77256285.0119181 1.44115924-.0162274 1.54455874-.0261928 2.26933999-.2203836 2.13961469-.5732128 3.52470839-1.7958603 4.13814639-3.6529271.1882856-.5696441.2146771-.7440387.2417907-1.5923775.0361078-1.1305349-.0654535-1.7179551-.4241677-2.45330781" mask="url(#a)" transform="translate(79.448236 6.392387)"/><path d="m8.8593029 6.76673929c-.64724605.02242216-1.74754404.04989436-2.44504652.06113911l-1.26824783.02040215.00121752-.27236531c.0006764-.14981775.04369537-.54499995.09557516-.87830236.42247871-2.71166765 1.43870033-4.33905877 2.71026251-4.34047278 1.16996707-.00121201 1.89127879 1.60227561 2.0406953 4.53668353l.04241016.8321787zm2.5972363-6.07694469c-1.85759417-.92678272-4.7274868-.85998757-6.82648768.15870581-1.98874787.965163-3.35784676 2.57545133-4.12170397 4.84803513-.3978578 1.18359391-.5231945 2.13609814-.48321933 3.67077059.02529731.97001107.069872 1.47144597.17072306 1.91948527.78421682 3.4839192 3.18401226 5.8527904 6.53969455 6.4552934.73883045.132715 2.41609665.1356777 3.16277333.005656 1.06607224-.1856393 2.29556234-.6577167 3.07085074-1.1790152.9464849-.6365066 1.9169819-1.5933202 1.9169819-1.8900603 0-.181128-.3253478-.5979917-.4666475-.5979917-.0618229 0-.3245362.1364857-.5838675.3034062-.9256518.5957697-1.810855.8401914-3.0416979.8401914-1.69762584 0-2.77370876-.420971-3.85547342-1.5081429-.47889038-.4812348-.675993-.7411434-.92362262-1.2177995-.54483926-1.0487243-.83941096-2.2550097-.8835798-3.61878887l-.01907445-.58876693 5.00535139-.01723746 5.0053514-.01723746.0222536-.3366691c.0122428-.18516801-.0121076-.66997152-.0541119-1.07734114-.3122258-3.02571259-1.5430011-5.10908835-3.6344939-6.15249324z" mask="url(#b)" transform="translate(63.923868 6.392387)"/><path d="m11.9629413 17.16493c-.2948363 2.336104-1.0444334 4.2215758-2.04146722 5.1349473-.39777623.3644122-.76830751.5577888-1.24519257.6498951-.34591235.0668892-.44944315.0686952-1.07502654.0186621-.26581877-.0212707-.32483855-.0517053-.37840934-.1952494-.0839013-.2250152-.18395263-8.0650941-.14278978-11.1967778l.03210308-2.4447321.4348031-.13050076c.29043771-.08722347.63208278-.13050075 1.02920251-.13050075.55520607 0 .62742159.01658851 1.09557513.25237281 1.12846603.56842412 1.90195993 1.9801868 2.26198713 4.1280647.1330735.7941751.1492892 2.9622536.0292145 3.9138188m-.0621054-10.17778828c-.3868782-.08153789-.7360731-.09832707-1.4900688-.0715714-1.13240508.04026727-1.91207012.21304198-2.75791085.61123318-.28065578.13210609-.52559771.24019898-.5444394.24019898-.01877603 0-.01595306-1.74587406.0063681-3.8795715.03144658-3.00640036.02271506-3.87990595-.03866813-3.88097618-.21349535-.00361201-6.91824712 1.2993889-6.99190695 1.35892026-.05494945.04434751-.07825537.188895-.06565048.40782323.02179596.37993045-.02258376.34989721.79489596.5370531.24592668.05625378.53386967.16521623.63982953.24213877.27277773.19785815.49960012.62628324.65676736 1.24045954.12401375.48467888.14075462.83116475.19800184 4.10793111.05836327 3.34492639.04700574 6.78450099-.04326367 13.08512579l-.03748642 2.6169716.48095539.1114374c.69523853.1610022 2.68549835.498458 3.33675107.5657485.95534572.0987284 3.1822755.0850162 3.89143194-.0238794 3.07867901-.4728395 5.39948901-2.2922916 6.48114621-5.0811684.28663-.7391253.5620994-1.8779802.6586713-2.7232586.113247-.9917656.0498287-2.9717517-.1207969-3.7684017-.6540757-3.05395853-2.5256395-5.16304075-5.0546271-5.69621428" mask="url(#c)" transform="translate(44.746708)"/></g></svg>