<svg height="20" viewBox="0 0 20 20" width="20" xmlns="http://www.w3.org/2000/svg"><path d="m21 9c-5.5138462 0-10 4.4857692-10 10s4.4861538 10 10 10 10-4.4857692 10-10-4.4861538-10-10-10zm5.575 6.665-6.1538462 6.9230769c-.1515384.1703846-.3626923.2580769-.5753846.2580769-.1688461 0-.3384615-.0553846-.4803846-.1684615l-3.8461538-3.0769231c-.3315385-.265-.3853846-.7492307-.12-1.0811538.265-.3319231.7496154-.3857692 1.0811538-.1203846l3.2757692 2.6203846 5.6688462-6.3773077c.2815385-.3176923.7684615-.3461539 1.0857692-.0638462.3176923.2826923.3465385.7688462.0642308 1.0865385z" fill="#7ed321" transform="translate(-11 -9)"/></svg>