<svg height="26" viewBox="0 0 184 26" width="184" xmlns="http://www.w3.org/2000/svg" xmlns:xlink="http://www.w3.org/1999/xlink"><mask id="a" fill="#fff"><path d="m.59385863.44919109h10.38600907v15.70876191h-10.38600907z" fill="#fff" fill-rule="evenodd"/></mask><mask id="b" fill="#fff"><path d="m0 25.8527248h183.331366v-25.8527248h-183.331366z" fill="#fff" fill-rule="evenodd"/></mask><g fill="#3f3f3f" fill-rule="evenodd" opacity=".5"><path d="m68.9121615 10.1013059v11.4430623h-4.180601v-11.4430623h-4.2236889v-3.6420026h12.6279788v3.6420026z"/><path d="m77.7665043 12.8595762c-.8833014 0-1.378812.6032302-1.5080756 1.723515h3.2326678c-.1949726-1.1418287-.5827635-1.723515-1.7245922-1.723515m5.1285343 4.1375132h-6.6366099c.1292636 1.2495483.8606803 1.8096907 1.9174104 1.8096907.9910212 0 1.810768-.2154394 2.9310527-.7971257l1.4854545 2.47863c-1.3992787.8175924-2.8437997 1.2926363-4.6104026 1.2926363-3.4050193 0-5.2793418-2.4139982-5.2793418-5.8836493 0-3.8994527 2.1974816-5.90411606 5.1716221-5.90411606 3.102327 0 5.0423585 2.04775126 5.0423585 6.24881906 0 .3242362 0 .5612195-.0215439.755115"/><path d="m90.1110727 21.7805975c-3.3177663 0-5.3008858-2.1113059-5.3008858-5.92566 0-3.4696511 1.7676801-5.86102812 5.3870616-5.86102812 2.1339269 0 3.3619314.99102112 4.3529525 2.58527252l-2.6714482 2.0251301c-.5385985-.9910211-.9059226-1.4649878-1.745059-1.4649878-.9920983 0-1.4876088.9910211-1.4876088 2.7802451s.5385984 2.7145361 1.5942513 2.7145361c.7324939 0 1.2495484-.4093348 1.9604983-1.4649877l2.4570861 1.9174104c-1.3141802 1.9400316-2.5432618 2.6940694-4.546848 2.6940694"/><path d="m103.339373 21.5439373v-6.4222477c0-1.4649877-.49551-1.8527786-1.292636-1.8527786-.819747 0-1.315257.3877909-1.315257 1.8096907v6.4653356h-3.8779089v-14.15759838l3.8779089-1.55116349v5.14900107c.71095-.5385985 1.508075-.99102116 2.844877-.99102116 2.47863 0 3.663546 1.65888316 3.663546 4.63302376v6.9177582z"/><path d="m116.524478 21.7805975c-4.482216 0-6.87467-3.3188435-6.87467-7.7795158 0-4.84846308 2.844877-7.77843856 6.896214-7.77843856 3.706635 0 5.171623 1.59425137 6.205732 4.43912826l-3.791733 1.4865317c-.539676-1.4003559-1.056731-2.28473454-2.435543-2.28473454-1.745058 0-2.499096 1.74613614-2.499096 4.13751314 0 2.3062785.731416 4.1375132 2.542184 4.1375132 1.314181 0 1.874323-.7109499 2.692993-2.1328498l3.534282 1.8743225c-1.012565 1.9831195-2.694069 3.9005299-6.270363 3.9005299"/><path d="m132.336328 14.4969154c-.49551-.5385984-1.054576-.9479332-1.809691-.9479332-.94901 0-1.530696.4524227-1.530696 1.8312347v6.1637204h-3.877909v-11.3137987h3.877909v.8186697c.668939-.6463182 1.422977-1.05565296 2.415075-1.05565296.817592 0 1.378812.19389546 1.831235.47396666z"/><path d="m141.55778 21.5439373v-.755115c-.690484.5385985-1.508076.9920984-2.822256.9920984-2.47863 0-3.663547-1.6588832-3.663547-4.634101v-6.9166811h3.90053v6.4222478c0 1.4639105.495511 1.8527786 1.292636 1.8527786.797126 0 1.292637-.3888681 1.292637-1.8107679v-6.4642585h3.90053v11.3137987z"/><path d="m154.742885 21.5439373v-6.4222477c0-1.4649877-.495511-1.8527786-1.292636-1.8527786-.819747 0-1.315258.3877909-1.315258 1.8096907v6.4653356h-3.877909v-11.3137987h3.877909v.7540379c.71095-.5385985 1.508076-.99102116 2.844877-.99102116 2.47863 0 3.663547 1.65888316 3.663547 4.63302376v6.9177582z"/><path d="m166.202859 21.7805975c-3.317766 0-5.300886-2.1113059-5.300886-5.92566 0-3.4696511 1.76768-5.86102812 5.387062-5.86102812 2.133927 0 3.361931.99102112 4.352952 2.58527252l-2.671448 2.0251301c-.538598-.9910211-.905922-1.4649878-1.745059-1.4649878-.992098 0-1.487609.9910211-1.487609 2.7802451s.538599 2.7145361 1.594252 2.7145361c.732494 0 1.249548-.4093348 1.960498-1.4649877l2.457086 1.9174104c-1.31418 1.9400316-2.543262 2.6940694-4.546848 2.6940694"/><path d="m7.07966097 16.157953v-6.42224771c0-1.46498774-.49551056-1.85277861-1.29263624-1.85277861-.81974682 0-1.31525737.38779087-1.31525737 1.80969073v6.46533559h-3.87790873v-14.15759842l3.87790873-1.55116349v5.14900103c.71094993-.53859843 1.50807561-.99102112 2.84487692-.99102112 2.47862999 0 3.66354652 1.65888318 3.66354652 4.63302373v6.91775827z" mask="url(#a)" transform="translate(172.351499 5.385984)"/><path d="m0 0v8.61757494h8.61757494v17.23514986h8.61757496v-17.23514986h8.6175749v-8.61757494z"/><path d="m34.4702998 17.2351499v-8.61757496h-8.617575v17.23514986h25.8527248v-8.6175749z"/><path d="m34.4702998 8.61757494h17.2351498v-8.61757494h-17.2351498z" mask="url(#b)"/></g></svg>