<?xml version="1.0" encoding="UTF-8"?>
<svg width="34px" height="40px" viewBox="0 0 34 40" version="1.1" xmlns="http://www.w3.org/2000/svg" xmlns:xlink="http://www.w3.org/1999/xlink">
    <!-- Generator: Sketch 50.2 (55047) - http://www.bohemiancoding.com/sketch -->
    <title>square</title>
    <desc>Created with Sketch.</desc>
    <defs/>
    <g id="Page-1" stroke="none" stroke-width="1" fill="none" fill-rule="evenodd">
        <g id="Homepage-Desktop-HD---Export" transform="translate(-487.000000, -720.000000)">
            <g id="Masthead" transform="translate(0.000000, -5.000000)">
                <g id="Supports" transform="translate(79.000000, 616.000000)">
                    <g id="logos" transform="translate(0.000000, 64.000000)">
                        <g id="square" transform="translate(408.301279, 45.000000)">
                            <polygon id="Fill-1" fill="#9D5025" points="0 8.23165854 0 31.545561 2.0995122 32.5953171 2.44390244 31.9838537 2.44390244 7.63117073 2.0995122 7.18190244"/>
                            <polygon id="Fill-2" fill="#F68536" points="6.13239024 8.17631707 2.09946341 7.18192683 2.09946341 32.5953415 6.13239024 31.6560732"/>
                            <polygon id="Fill-3" fill="#6B3A19" points="18.5075854 10.1100488 21.3802683 8.61834146 30.9380732 12.3198049 28.3966098 12.6512683"/>
                            <polygon id="Fill-4" fill="#FBBF93" points="18.6180976 29.6672439 21.4356585 31.1589512 30.9929756 27.4572439 28.4517561 27.1257805"/>
                            <path d="M4.58539024,5.91129268 L7.67929268,4.36446341 L8.01734146,5.01617073 L8.01734146,34.7273902 L7.67929268,35.413 L4.58539024,33.8659268 L4.58539024,5.91129268 Z M19.3363659,25.5788537 L24.3636829,26.2417805 L24.6522195,25.7239756 L24.6522195,14.148122 L24.3636829,13.5351951 L19.3363659,14.198122 L19.3363659,25.5788537 Z" id="Fill-5" fill="#9D5025"/>
                            <polygon id="Fill-6" fill="#F68536" points="13.9772927 33.3135122 7.6792439 35.3574146 7.6792439 4.3644878 13.9772927 6.40839024"/>
                            <path d="M16.4634146,-4.87804878e-05 L11.5465854,2.48604878 L11.5465854,37.2911707 L16.4634146,39.7772683 L16.9780488,39.1862927 L16.9780488,0.72897561 L16.4634146,-4.87804878e-05 Z M28.2860976,12.6514146 L28.2860976,27.1811707 L30.8273171,27.5123902 L31.0456098,27.1387317 L31.0456098,12.6367805 L30.8273171,12.3199512 L28.2860976,12.6514146 Z" id="Fill-7" fill="#9D5025"/>
                            <polygon id="Fill-8" fill="#F68536" points="24.3636341 13.5352683 24.3636341 26.2972195 29.6121707 19.8886829"/>
                            <path d="M16.4634146,-4.87804878e-05 L16.4634146,39.7772683 L32.9268293,31.545561 L32.9268293,8.23165854 L30.8273171,7.18190244 L16.4634146,-4.87804878e-05 Z M21.3802439,9.42409756 L30.8273171,12.2453171 L30.8273171,27.5319024 L21.3802439,30.3533659 L21.3802439,9.42409756 Z" id="Fill-9" fill="#F68536"/>
                        </g>
                    </g>
                </g>
            </g>
        </g>
    </g>
</svg>