<?xml version="1.0" encoding="UTF-8"?>
<svg width="50px" height="30px" viewBox="0 0 50 30" version="1.1" xmlns="http://www.w3.org/2000/svg" xmlns:xlink="http://www.w3.org/1999/xlink">
    <!-- Generator: Sketch 50.2 (55047) - http://www.bohemiancoding.com/sketch -->
    <title>AWS</title>
    <desc>Created with Sketch.</desc>
    <defs>
        <polygon id="path-1" points="0 0.0980565426 45.5369802 0.0980565426 45.5369802 10.3534091 0 10.3534091"/>
        <polygon id="path-3" points="0.167615437 0.120035319 9.52550505 0.120035319 9.52550505 9.33816817 0.167615437 9.33816817"/>
    </defs>
    <g id="Page-1" stroke="none" stroke-width="1" fill="none" fill-rule="evenodd">
        <g id="Homepage-Desktop-HD---Export" transform="translate(-619.000000, -676.000000)">
            <g id="Masthead" transform="translate(0.000000, -5.000000)">
                <g id="Supports" transform="translate(79.000000, 616.000000)">
                    <g id="logos" transform="translate(0.000000, 64.000000)">
                        <g id="AWS" transform="translate(540.000000, 1.000000)">
                            <path d="M42.0019949,15.608333 C41.1386111,15.608333 40.2749747,15.5085935 39.4446717,15.3093672 C38.6143687,15.1101409 37.9668939,14.8942493 37.5350758,14.6452796 C37.2694192,14.4957967 37.0865909,14.329901 37.0201768,14.1804182 C36.9537626,14.0309353 36.9206818,13.8647872 36.9206818,13.7153043 L36.9206818,12.8684031 C36.9206818,12.5199465 37.0532576,12.3537983 37.3025,12.3537983 C37.4019949,12.3537983 37.5017424,12.3704636 37.6012374,12.4035418 C37.7012374,12.4368724 37.8507323,12.5032812 38.0166414,12.5696899 C38.5810354,12.8186597 39.1956818,13.017886 39.8431566,13.150956 C40.5075505,13.2835211 41.1550253,13.3501823 41.8191667,13.3501823 C42.8656313,13.3501823 43.6792677,13.1673689 44.2439141,12.8019944 C44.8083081,12.4368724 45.107298,11.9053498 45.107298,11.2245968 C45.107298,10.7597354 44.957803,10.3779481 44.6588131,10.0623171 C44.3600758,9.74693856 43.7956818,9.46463817 42.9817929,9.1990031 L40.5739646,8.45158883 C39.3615909,8.06980155 38.4648737,7.50520077 37.9168939,6.75803901 C37.3689141,6.02754256 37.0865909,5.21371953 37.0865909,4.35040555 C37.0865909,3.65298723 37.2360859,3.03864301 37.5350758,2.50712036 C37.8338131,1.97585022 38.232298,1.51098884 38.7305303,1.14561437 C39.2290152,0.763574576 39.7934091,0.481526692 40.457803,0.282047884 C41.1219444,0.082821581 41.8191667,0 42.5499747,0 C42.9153788,0 43.297197,0.0164128133 43.662601,0.0664087677 C44.0446717,0.116152217 44.3934091,0.182560985 44.7421465,0.248969753 C45.0742172,0.332043838 45.3896212,0.415117924 45.6886111,0.514604823 C45.9873485,0.614344227 46.2199242,0.713831127 46.3858333,0.81357053 C46.6184091,0.946388066 46.7845707,1.0792056 46.8843182,1.22868845 C46.9840657,1.36150599 47.0338131,1.54406698 47.0338131,1.77662391 L47.0338131,2.55686381 C47.0338131,2.90557297 46.9007323,3.08838646 46.6517424,3.08838646 C46.5189141,3.08838646 46.3030051,3.02197769 46.0206818,2.88916015 C45.0742172,2.45737691 44.0113384,2.24148529 42.832298,2.24148529 C41.8858333,2.24148529 41.1386111,2.39096814 40.6237121,2.70634666 C40.1090657,3.02197769 39.8431566,3.50350438 39.8431566,4.18425737 C39.8431566,4.64911875 40.0093182,5.04782386 40.3413889,5.36320238 C40.6734596,5.6785809 41.2881061,5.99421193 42.1681566,6.27651231 L44.5262374,7.02367408 C45.7216919,7.40571387 46.5850758,7.93698401 47.0999747,8.61773701 C47.6148737,9.29849 47.8641162,10.0789824 47.8641162,10.9422964 C47.8641162,11.65638 47.7146212,12.3040549 47.432298,12.8684031 C47.1333081,13.4330039 46.7348232,13.9311959 46.2199242,14.329901 C45.7052778,14.745019 45.0906313,15.0437322 44.3767424,15.2596238 C43.6292677,15.4921807 42.8489646,15.608333 42.0019949,15.608333 Z M20.6633586,15.1601369 C20.3641162,15.1601369 20.1648737,15.1101409 20.032298,14.9939887 C19.8994697,14.8942493 19.7833081,14.6616924 19.6835606,14.3463139 L15.7810354,1.51098884 C15.6815404,1.1786925 15.6315404,0.962800879 15.6315404,0.846648662 C15.6315404,0.581013591 15.7646212,0.431530738 16.0300253,0.431530738 L17.6575505,0.431530738 C17.9732071,0.431530738 18.1888636,0.481526692 18.3050253,0.597678909 C18.4381061,0.697165808 18.537601,0.929722748 18.6373485,1.24535377 L21.4269949,12.2373936 L24.0176515,1.24535377 C24.1007323,0.91305743 24.2004798,0.697165808 24.3330556,0.597678909 C24.4661364,0.497939505 24.6987121,0.431530738 24.9974495,0.431530738 L26.3259848,0.431530738 C26.6413889,0.431530738 26.857298,0.481526692 26.9901263,0.597678909 C27.1229545,0.697165808 27.2391162,0.929722748 27.3057828,1.24535377 L29.9292677,12.3704636 L32.8022475,1.24535377 C32.9019949,0.91305743 33.0181566,0.697165808 33.1345707,0.597678909 C33.2671465,0.497939505 33.4833081,0.431530738 33.7820455,0.431530738 L35.3262374,0.431530738 C35.5921465,0.431530738 35.7416414,0.564348273 35.7416414,0.846648662 C35.7416414,0.929722748 35.7249747,1.01279683 35.7083081,1.11228373 C35.6918939,1.21202314 35.6585606,1.34484067 35.5921465,1.52740166 L31.5901263,14.3629792 C31.4903788,14.695023 31.3742172,14.9109146 31.2413889,15.0104015 C31.1083081,15.1101409 30.8926515,15.1765497 30.6103283,15.1765497 L29.1820455,15.1765497 C28.8666414,15.1765497 28.6507323,15.1268063 28.517904,15.0104015 C28.3850758,14.8942493 28.2686616,14.6783577 28.2025,14.3463139 L25.6285101,3.63632191 L23.0711869,14.329901 C22.9881061,14.6616924 22.8886111,14.877584 22.7555303,14.9939887 C22.622702,15.1101409 22.3903788,15.1601369 22.0913889,15.1601369 L20.6633586,15.1601369 Z M7.3285101,13.3665952 C7.8764899,13.3665952 8.44138889,13.2671083 9.03911616,13.0676295 C9.63684343,12.8684031 10.1681566,12.5032812 10.6166414,12.0050892 C10.882298,11.6894581 11.0815404,11.3410015 11.1810354,10.9422964 C11.2807828,10.5438438 11.347197,10.0623171 11.347197,9.4977163 L11.347197,8.80029799 C10.8656313,8.68414577 10.3507323,8.58465887 9.81967172,8.5179976 C9.28810606,8.45158883 8.77320707,8.4185107 8.25856061,8.4185107 C7.14593434,8.4185107 6.33229798,8.63440232 5.78406566,9.08259838 C5.23608586,9.53104694 4.97042929,10.1620565 4.97042929,10.9922923 C4.97042929,11.7727847 5.16992424,12.3537983 5.58482323,12.7522509 C5.98356061,13.1673689 6.56462121,13.3665952 7.3285101,13.3665952 Z M14.0706818,10.8428095 C14.0706818,11.4571537 14.137096,11.9553457 14.2532576,12.3204677 C14.3863384,12.6858422 14.5522475,13.0842948 14.7848232,13.516078 C14.8676515,13.6488955 14.9009848,13.7817131 14.9009848,13.8981178 C14.9009848,14.0640135 14.8012374,14.2301616 14.5855808,14.3960573 L13.5391162,15.0934756 C13.3896212,15.193215 13.2403788,15.2429585 13.1075505,15.2429585 C12.9413889,15.2429585 12.7754798,15.1601369 12.6090657,15.0104015 C12.3769949,14.7614318 12.1777525,14.4957967 12.0113384,14.2301616 C11.8454293,13.9478613 11.6795202,13.6322302 11.4966919,13.2504429 C10.2012374,14.7780971 8.57396465,15.5419242 6.61436869,15.5419242 C5.21967172,15.5419242 4.10704545,15.1434716 3.29340909,14.3463139 C2.4795202,13.5494086 2.06462121,12.4866159 2.06462121,11.158188 C2.06462121,9.74693856 2.56260101,8.60107169 3.5754798,7.73775771 C4.58861111,6.87419122 5.93381313,6.44240798 7.64391414,6.44240798 C8.20881313,6.44240798 8.78987374,6.49215143 9.40426768,6.57547802 C10.0189141,6.6582996 10.6499747,6.79136964 11.3141162,6.94059999 L11.3141162,5.72857685 C11.3141162,4.46655776 11.0484596,3.58657847 10.5335606,3.07172114 C10.0019949,2.55686381 9.10527778,2.30789406 7.82674242,2.30789406 C7.24542929,2.30789406 6.64770202,2.37430282 6.03330808,2.52378568 C5.41891414,2.67326853 4.82118687,2.85582952 4.23987374,3.08838646 C3.97421717,3.20453867 3.77497475,3.27094744 3.65856061,3.30427808 C3.54239899,3.33735621 3.45931818,3.35402153 3.39290404,3.35402153 C3.16058081,3.35402153 3.04441919,3.18812586 3.04441919,2.8394167 L3.04441919,2.02559367 C3.04441919,1.7599586 3.07724747,1.56073229 3.16058081,1.44458008 C3.24366162,1.32817535 3.39290404,1.21202314 3.6254798,1.09587092 C4.2065404,0.796905212 4.90426768,0.547682955 5.71765152,0.348456652 C6.5315404,0.132565031 7.39492424,0.0330781314 8.30830808,0.0330781314 C10.2843182,0.0330781314 11.7292677,0.481526692 12.6593182,1.37817131 C13.5724495,2.27481592 14.037601,3.63632191 14.037601,5.46294178 L14.037601,10.8428095 L14.0706818,10.8428095 Z" id="Fill-1" fill="#262F3E"/>
                            <g id="Group-5" transform="translate(0.000000, 19.504040)">
                                <mask id="mask-2" fill="white">
                                    <use xlink:href="#path-1"/>
                                </mask>
                                <g id="Clip-4"/>
                                <path d="M45.1405556,4.17613636 C39.6771717,8.21123737 31.7395455,10.3534091 24.9142929,10.3534091 C15.3491414,10.3534091 6.73070707,6.8165404 0.221111111,0.938005051 C-0.293535354,0.472853535 0.171363636,-0.158207071 0.785757576,0.20719697 C7.82666667,4.29229798 16.5117677,6.7665404 25.4956061,6.7665404 C31.5567172,6.7665404 38.2158081,5.50467172 44.3435859,2.91401515 C45.2567172,2.49886364 46.0372727,3.51199495 45.1405556,4.17613636" id="Fill-3" fill="#F8991D" mask="url(#mask-2)"/>
                            </g>
                            <g id="Group-8" transform="translate(40.404040, 18.493939)">
                                <mask id="mask-4" fill="white">
                                    <use xlink:href="#path-3"/>
                                </mask>
                                <g id="Clip-7"/>
                                <path d="M7.01146465,2.59563131 C6.3139899,1.69891414 2.39505051,2.16381313 0.618282828,2.37972222 C0.0867171717,2.44613636 0.00388888889,1.98123737 0.48520202,1.6325 C3.60742424,-0.559419192 8.73873737,0.0713888889 9.33646465,0.80219697 C9.93419192,1.54941919 9.17030303,6.68073232 6.24782828,9.13856061 C5.79934343,9.52037879 5.36752525,9.32113636 5.56676768,8.82290404 C6.23090909,7.17896465 7.70919192,3.47568182 7.01146465,2.59563131" id="Fill-6" fill="#F8991D" mask="url(#mask-4)"/>
                            </g>
                        </g>
                    </g>
                </g>
            </g>
        </g>
    </g>
</svg>