<?xml version="1.0" encoding="UTF-8"?>
<svg width="64px" height="36px" viewBox="0 0 64 36" version="1.1" xmlns="http://www.w3.org/2000/svg" xmlns:xlink="http://www.w3.org/1999/xlink">
    <!-- Generator: Sketch 50.2 (55047) - http://www.bohemiancoding.com/sketch -->
    <title>docker</title>
    <desc>Created with Sketch.</desc>
    <defs>
        <polygon id="path-1" points="0.107656447 0.0504956201 55.6045032 0.0504956201 55.6045032 35.9612425 0.107656447 35.9612425"/>
        <polygon id="path-3" points="0 36.0606155 63.2462886 36.0606155 63.2462886 0.149838635 0 0.149838635"/>
    </defs>
    <g id="Page-1" stroke="none" stroke-width="1" fill="none" fill-rule="evenodd">
        <g id="Homepage-Desktop-HD---Export" transform="translate(-218.000000, -721.000000)">
            <g id="Masthead" transform="translate(0.000000, -5.000000)">
                <g id="Supports" transform="translate(79.000000, 616.000000)">
                    <g id="logos" transform="translate(0.000000, 64.000000)">
                        <g id="docker" transform="translate(139.101894, 46.000000)">
                            <g id="Group-3" transform="translate(7.641770, 0.099343)">
                                <mask id="mask-2" fill="white">
                                    <use xlink:href="#path-1"/>
                                </mask>
                                <g id="Clip-2"/>
                                <path d="M28.930529,11.3905533 L34.6005728,11.3905533 L34.6005728,17.186911 L37.4674355,17.186911 C38.7915595,17.186911 40.1529933,16.951065 41.406843,16.5262725 C42.0229795,16.3172476 42.7143349,16.0265606 43.3220805,15.6608045 C42.5216425,14.6158299 42.1130325,13.2965007 41.9930118,11.9959013 C41.829388,10.2266067 42.1864534,7.92403642 43.3836641,6.53937759 L43.9797222,5.84997003 L44.6899574,6.42115491 C46.4779818,7.85750807 47.9819122,9.8650461 48.2469767,12.1536814 C50.4000081,11.5203135 52.9280855,11.6700023 54.8257918,12.7653227 L55.6045032,13.2146888 L55.1948444,14.0146773 C53.5896231,17.1469041 50.2339869,18.1175588 46.9532699,17.9456939 C42.0444064,30.1728262 31.3565664,35.9612425 18.3980717,35.9612425 C11.702832,35.9612425 5.56079645,33.4584878 2.06281351,27.5187344 L2.00572499,27.4219387 L1.49612379,26.3849055 C0.313896957,23.7703711 -0.0789799447,20.9062056 0.18728331,18.043988 L0.26744698,17.186911 L5.11607538,17.186911 L5.11607538,11.3905533 L10.7859693,11.3905533 L10.7859693,5.72050945 L22.1263566,5.72050945 L22.1263566,0.0504656524 L28.930529,0.0504656524 L28.930529,11.3905533" id="Fill-1" fill="#364548" mask="url(#mask-2)"/>
                            </g>
                            <path d="M54.9423213,13.6343269 C55.322462,10.679509 53.1112932,8.35880821 51.73997,7.25689488 C50.1597718,9.0840272 49.9141863,13.8722706 52.3934163,15.8881996 C51.0098064,17.1170263 48.094396,18.2310765 45.1091609,18.2310765 L8.77059474,18.2310765 C8.48050715,21.3472706 9.02741817,24.2169802 10.2770724,26.6731351 L10.6904772,27.4292208 C10.9520954,27.8731927 11.2381374,28.3024804 11.5471047,28.7148363 C13.0411457,28.8107331 14.4186123,28.8438474 15.6787552,28.8159774 L15.6793545,28.8159774 C18.1557377,28.7614361 20.1764615,28.4688013 21.7078124,27.9382227 C21.9381143,27.86645 22.1829507,27.9951614 22.2545735,28.2254633 C22.3229,28.4454265 22.2088728,28.6805233 21.9937045,28.7629345 C21.7899239,28.8338082 21.5776026,28.899887 21.3583887,28.9625196 L21.3576395,28.9625196 C20.1517381,29.3069986 18.8587805,29.5386491 17.1904772,29.6414385 C17.2895205,29.6432365 17.0872384,29.6564223 17.086639,29.6564223 C17.03,29.6600184 16.958527,29.6682596 16.9014385,29.6711065 C16.2448456,29.7081166 15.5362586,29.7157584 14.811639,29.7157584 C14.0191425,29.7157584 13.2387828,29.7010742 12.3662725,29.6564223 L12.3437967,29.6711065 C15.371586,33.0742416 20.1057377,35.1153435 26.0400968,35.1153435 C38.5992716,35.1153435 49.2518995,29.5479391 53.9692692,17.0491494 C57.3159152,17.3925795 60.5322015,16.5390987 61.9952259,13.6830244 C59.6649355,12.3383725 56.6680129,12.7670609 54.9423213,13.6343269" id="Fill-4" fill="#22A0C8"/>
                            <path d="M54.9423213,13.6343269 C55.322462,10.679509 53.1112932,8.35880821 51.73997,7.25689488 C50.1597718,9.0840272 49.9141863,13.8722706 52.3934163,15.8881996 C51.0098064,17.1170263 48.094396,18.2310765 45.1091609,18.2310765 L10.9225772,18.2310765 C10.774237,23.0032872 12.5451798,26.6259359 15.6784555,28.8159774 L15.6793545,28.8159774 C18.1557377,28.7614361 20.1764615,28.4688013 21.7078124,27.9382227 C21.9381143,27.86645 22.1829507,27.9951614 22.2545735,28.2254633 C22.3229,28.4454265 22.2088728,28.6805233 21.9937045,28.7629345 C21.7899239,28.8338082 21.5776026,28.899887 21.3583887,28.9625196 L21.3576395,28.9625196 C20.1517381,29.3069986 18.7476003,29.5683172 17.0792969,29.6711065 C17.0788474,29.6711065 17.0388405,29.6327478 17.038391,29.6327478 C21.3126879,31.8253366 27.5100138,31.8173951 34.6156616,29.0880844 C42.5828815,26.0270309 49.9967473,20.1959106 55.1697764,13.5262932 C55.0918603,13.5615053 55.0158921,13.5974666 54.9423213,13.6343269" id="Fill-6" fill="#37B1D9"/>
                            <path d="M8.83884624,22.0172291 C9.06450323,23.6865814 9.55297718,25.2493983 10.2771473,26.6730152 L10.6904023,27.4292508 C10.9521704,27.8732227 11.2382123,28.3023605 11.5470297,28.7147165 C13.0413704,28.810763 14.418837,28.8438774 15.6792796,28.8160074 C18.1558126,28.7614661 20.1763866,28.4688313 21.7078873,27.9382527 C21.9381893,27.8664799 22.1830256,27.9951913 22.2544986,28.2254933 C22.322825,28.4453066 22.2087978,28.6805533 21.9937794,28.7629645 C21.7899988,28.8338382 21.5776775,28.899917 21.3584636,28.9625496 L21.3577144,28.9625496 C20.151813,29.3068787 18.7551671,29.5535131 17.0867139,29.6564523 C17.0294756,29.6600484 16.9295332,29.6607976 16.8716955,29.6639442 C16.2155521,29.7006547 15.5141574,29.7232803 14.789388,29.7232803 C13.9970413,29.7232803 13.1867139,29.7081466 12.3145032,29.6637944 C15.3422925,33.0669295 20.1056627,35.1153734 26.0401717,35.1153734 C36.7919929,35.1153734 46.146269,31.0343684 51.575672,22.0172291 L8.83884624,22.0172291" id="Fill-8" fill="#1B81A5"/>
                            <path d="M11.2495701,22.0172291 C11.892228,24.9482227 13.4369145,27.2489949 15.6792497,28.8160074 C18.1557826,28.7614661 20.1763566,28.4688313 21.7078573,27.9382527 C21.9381593,27.8664799 22.1829956,27.9951913 22.2544686,28.2254933 C22.3227951,28.4453066 22.2089177,28.6805533 21.9937494,28.7629645 C21.7899689,28.8338382 21.5776475,28.899917 21.3584336,28.9625496 L21.3576844,28.9625496 C20.1517831,29.3068787 18.7256189,29.5535131 17.0570159,29.6564523 C21.3308633,31.8485915 27.5105083,31.8171254 34.6155567,29.0879645 C38.9138278,27.4365929 43.0507227,24.9781904 46.7620758,22.0172291 L11.2495701,22.0172291" id="Fill-10" fill="#1D91B4"/>
                            <mask id="mask-4" fill="white">
                                <use xlink:href="#path-3"/>
                            </mask>
                            <g id="Clip-13"/>
                            <path d="M23.4894537,11.2695136 L23.8778354,11.2695136 L23.8778354,7.17457354 L23.4894537,7.17457354 L23.4894537,11.2695136 Z M22.7452052,11.2695136 L23.1485708,11.2695136 L23.1485708,7.17457354 L22.7452052,7.17457354 L22.7452052,11.2695136 Z M22.0005071,11.2695136 L22.4035731,11.2695136 L22.4035731,7.17457354 L22.0005071,7.17457354 L22.0005071,11.2695136 Z M21.2558091,11.2695136 L21.6588751,11.2695136 L21.6588751,7.17457354 L21.2558091,7.17457354 L21.2558091,11.2695136 Z M20.5114108,7.17457354 L20.9146266,7.17457354 L20.9146266,11.2695136 L20.5115606,11.2695136 L20.5115606,7.17457354 L20.5114108,7.17457354 Z M19.782296,11.2695136 L20.1699285,11.2695136 L20.1699285,7.17457354 L19.782296,7.17457354 L19.782296,11.2695136 Z M19.372787,6.76491471 L24.2873444,6.76491471 L24.2873444,11.6790226 L19.3724873,11.6790226 L19.3724873,6.76491471 L19.372787,6.76491471 Z M17.8195597,16.9398571 L18.2076418,16.9398571 L18.2076418,12.8446173 L17.8195597,12.8446173 L17.8195597,16.9398571 Z M17.0751614,16.9398571 L17.4782273,16.9398571 L17.4782273,12.8446173 L17.0751614,12.8446173 L17.0751614,16.9398571 Z M16.3304633,16.9398571 L16.7335293,16.9398571 L16.7335293,12.8446173 L16.3304633,12.8446173 L16.3304633,16.9398571 Z M15.5854657,16.9398571 L15.9888313,16.9398571 L15.9888313,12.8446173 L15.5854657,12.8446173 L15.5854657,16.9398571 Z M14.8412172,12.8446173 L15.2445828,12.8446173 L15.2445828,16.9398571 L14.841367,16.9398571 L14.841367,12.8446173 L14.8412172,12.8446173 Z M14.1121024,16.9398571 L14.4998847,16.9398571 L14.4998847,12.8446173 L14.1121024,12.8446173 L14.1121024,16.9398571 Z M13.7027432,17.3492162 L18.6170009,17.3492162 L18.6170009,12.4349585 L13.7027432,12.4349585 L13.7027432,17.3492162 Z" id="Fill-12" fill="#23A3C2" mask="url(#mask-4)"/>
                            <path d="M23.4894537,16.9398571 L23.8778354,16.9398571 L23.8778354,12.8446173 L23.4894537,12.8446173 L23.4894537,16.9398571 Z M22.7452052,16.9398571 L23.1485708,16.9398571 L23.1485708,12.8446173 L22.7452052,12.8446173 L22.7452052,16.9398571 Z M22.0005071,16.9398571 L22.4035731,16.9398571 L22.4035731,12.8446173 L22.0005071,12.8446173 L22.0005071,16.9398571 Z M21.2558091,16.9398571 L21.6588751,16.9398571 L21.6588751,12.8446173 L21.2558091,12.8446173 L21.2558091,16.9398571 Z M20.5114108,12.8446173 L20.9146266,12.8446173 L20.9146266,16.9398571 L20.5115606,16.9398571 L20.5115606,12.8446173 L20.5114108,12.8446173 Z M19.782296,16.9398571 L20.1699285,16.9398571 L20.1699285,12.8446173 L19.782296,12.8446173 L19.782296,16.9398571 Z M19.372787,12.4349585 L24.2873444,12.4349585 L24.2873444,17.3492162 L19.3724873,17.3492162 L19.3724873,12.4349585 L19.372787,12.4349585 Z" id="Fill-14" fill="#34BBDE" mask="url(#mask-4)"/>
                            <path d="M29.1597971,16.9398571 L29.5475795,16.9398571 L29.5475795,12.8446173 L29.1597971,12.8446173 L29.1597971,16.9398571 Z M28.4150991,16.9398571 L28.8187644,16.9398571 L28.8187644,12.8446173 L28.4150991,12.8446173 L28.4150991,16.9398571 Z M27.6708506,16.9398571 L28.0739166,16.9398571 L28.0739166,12.8446173 L27.6708506,12.8446173 L27.6708506,16.9398571 Z M26.9261526,16.9398571 L27.3292185,16.9398571 L27.3292185,12.8446173 L26.9261526,12.8446173 L26.9261526,16.9398571 Z M26.1814546,16.9398571 L26.5845205,16.9398571 L26.5845205,12.8446173 L26.1814546,12.8446173 L26.1814546,16.9398571 Z M25.4524896,16.9398571 L25.8399723,16.9398571 L25.8399723,12.8446173 L25.4524896,12.8446173 L25.4524896,16.9398571 Z M25.0431305,17.3492162 L29.9573882,17.3492162 L29.9573882,12.4349585 L25.0431305,12.4349585 L25.0431305,17.3492162 Z" id="Fill-15" fill="#23A3C2" mask="url(#mask-4)"/>
                            <path d="M34.8301406,16.9398571 L35.217923,16.9398571 L35.217923,12.8446173 L34.8301406,12.8446173 L34.8301406,16.9398571 Z M34.0854426,16.9398571 L34.4888082,16.9398571 L34.4888082,12.8446173 L34.0854426,12.8446173 L34.0854426,16.9398571 Z M33.3408944,16.9398571 L33.74426,16.9398571 L33.74426,12.8446173 L33.3408944,12.8446173 L33.3408944,16.9398571 Z M32.5961964,16.9398571 L32.9992623,16.9398571 L32.9992623,12.8446173 L32.5961964,12.8446173 L32.5961964,16.9398571 Z M31.8517981,16.9398571 L32.254864,16.9398571 L32.254864,12.8446173 L31.8517981,12.8446173 L31.8517981,16.9398571 Z M31.1226833,16.9398571 L31.5103158,16.9398571 L31.5103158,12.8446173 L31.1226833,12.8446173 L31.1226833,16.9398571 Z M30.7130244,17.3492162 L35.6272822,17.3492162 L35.6272822,12.4349585 L30.7130244,12.4349585 L30.7130244,17.3492162 Z M29.1597971,11.2695136 L29.5475795,11.2695136 L29.5475795,7.17457354 L29.1597971,7.17457354 L29.1597971,11.2695136 Z M28.4150991,11.2695136 L28.8187644,11.2695136 L28.8187644,7.17457354 L28.4150991,7.17457354 L28.4150991,11.2695136 Z M27.6708506,11.2695136 L28.0739166,11.2695136 L28.0739166,7.17457354 L27.6708506,7.17457354 L27.6708506,11.2695136 Z M26.9261526,11.2695136 L27.3292185,11.2695136 L27.3292185,7.17457354 L26.9261526,7.17457354 L26.9261526,11.2695136 Z M26.1814546,11.2695136 L26.5845205,11.2695136 L26.5845205,7.17457354 L26.1814546,7.17457354 L26.1814546,11.2695136 Z M25.4524896,11.2695136 L25.8399723,11.2695136 L25.8399723,7.17457354 L25.4524896,7.17457354 L25.4524896,11.2695136 Z M25.0431305,11.6790226 L29.9573882,11.6790226 L29.9573882,6.76491471 L25.0431305,6.76491471 L25.0431305,11.6790226 Z" id="Fill-16" fill="#34BBDE" mask="url(#mask-4)"/>
                            <path d="M34.8301406,11.2695136 L35.217923,11.2695136 L35.217923,7.17457354 L34.8301406,7.17457354 L34.8301406,11.2695136 Z M34.0854426,11.2695136 L34.4888082,11.2695136 L34.4888082,7.17457354 L34.0854426,7.17457354 L34.0854426,11.2695136 Z M33.3408944,11.2695136 L33.74426,11.2695136 L33.74426,7.17457354 L33.3408944,7.17457354 L33.3408944,11.2695136 Z M32.5961964,11.2695136 L32.9992623,11.2695136 L32.9992623,7.17457354 L32.5961964,7.17457354 L32.5961964,11.2695136 Z M31.8517981,11.2695136 L32.254864,11.2695136 L32.254864,7.17457354 L31.8517981,7.17457354 L31.8517981,11.2695136 Z M31.1226833,11.2695136 L31.5103158,11.2695136 L31.5103158,7.17457354 L31.1226833,7.17457354 L31.1226833,11.2695136 Z M30.7130244,11.6790226 L35.6272822,11.6790226 L35.6272822,6.76491471 L30.7130244,6.76491471 L30.7130244,11.6790226 Z" id="Fill-17" fill="#23A3C2" mask="url(#mask-4)"/>
                            <path d="M34.8301406,1.50397533 L35.217923,1.50397533 L35.217923,5.59951475 L34.8301406,5.59951475 L34.8301406,1.5038255 L34.8301406,1.50397533 Z M34.0854426,1.50397533 L34.488958,1.50397533 L34.488958,5.59951475 L34.0854426,5.59951475 L34.0854426,1.5038255 L34.0854426,1.50397533 Z M33.3408944,1.50397533 L33.74426,1.50397533 L33.74426,5.59951475 L33.3408944,5.59951475 L33.3408944,1.5038255 L33.3408944,1.50397533 Z M32.5961964,1.50397533 L32.9992623,1.50397533 L32.9992623,5.59951475 L32.5961964,5.59951475 L32.5961964,1.5038255 L32.5961964,1.50397533 Z M31.8517981,1.50397533 L32.254864,1.50397533 L32.254864,5.59951475 L31.8517981,5.59951475 L31.8517981,1.5038255 L31.8517981,1.50397533 Z M31.1226833,1.50397533 L31.5103158,1.50397533 L31.5103158,5.59951475 L31.1226833,5.59951475 L31.1226833,1.5038255 L31.1226833,1.50397533 Z M30.7130244,6.00947326 L35.6272822,6.00947326 L35.6272822,1.09476602 L30.7130244,1.09476602 L30.7130244,6.00947326 Z" id="Fill-18" fill="#34BBDE" mask="url(#mask-4)"/>
                            <path d="M40.4998847,16.9398571 L40.8876671,16.9398571 L40.8876671,12.8446173 L40.4998847,12.8446173 L40.4998847,16.9398571 Z M39.7554864,16.9398571 L40.1585523,16.9398571 L40.1585523,12.8446173 L39.7554864,12.8446173 L39.7554864,16.9398571 Z M39.0104887,16.9398571 L39.4138543,16.9398571 L39.4138543,12.8446173 L39.0104887,12.8446173 L39.0104887,16.9398571 Z M38.2662402,16.9398571 L38.6696058,16.9398571 L38.6696058,12.8446173 L38.2662402,12.8446173 L38.2662402,16.9398571 Z M37.5212425,12.8446173 L37.9246081,12.8446173 L37.9246081,16.9398571 L37.5215422,16.9398571 L37.5215422,12.8446173 L37.5212425,12.8446173 Z M36.7922775,12.8446173 L37.1803596,12.8446173 L37.1803596,16.9398571 L36.7925772,16.9398571 L36.7925772,12.8446173 L36.7922775,12.8446173 Z M36.3830682,17.3492162 L41.297326,17.3492162 L41.297326,12.4349585 L36.3830682,12.4349585 L36.3830682,17.3492162 Z" id="Fill-19" fill="#23A3C2" mask="url(#mask-4)"/>
                            <path d="M23.9795609,25.316616 C24.7283045,25.3067266 25.3433921,25.9057815 25.3532815,26.6545251 C25.3631708,27.4032688 24.764116,28.0182065 24.0153723,28.0282457 C24.0032354,28.0283956 23.9910984,28.0283956 23.9789615,28.0282457 C23.2302178,28.0180567 22.6314627,27.4028193 22.6415018,26.6540756 C22.651541,25.9194168 23.244902,25.3262056 23.9795609,25.316616" id="Fill-20" fill="#D3ECEC" mask="url(#mask-4)"/>
                            <path d="M-2.99677271e-05,22.5071415 L63.0649539,22.5071415 C61.6919825,22.1590664 58.7206823,21.6884232 59.2105048,19.8885615 C56.713444,22.7780498 50.6921784,21.9158783 49.1723651,20.4912125 C47.4802374,22.9455694 37.6283472,22.0125242 36.941337,20.1004334 C34.8196219,22.590302 28.2457515,22.590302 26.1241863,20.1004334 C25.4365768,22.0125242 15.585136,22.9455694 13.8927086,20.4909129 C12.3730452,21.9158783 6.3520793,22.7780498 3.85501844,19.8888612 C4.34484094,21.6884232 1.3735408,22.1590664 -2.99677271e-05,22.5074412 M23.9795459,25.7012517 C24.1034624,25.7012517 24.2216851,25.7246266 24.3309175,25.7670309 C24.1415214,25.8768626 24.0772407,26.1193015 24.1870724,26.3085477 C24.2579461,26.4305164 24.388006,26.5055855 24.5287045,26.506035 C24.6786929,26.506035 24.8089027,26.4228746 24.8763301,26.2998571 C25.0820586,26.7950738 24.8471116,27.363112 24.3518949,27.5686906 C23.856828,27.7741194 23.2887898,27.5394721 23.0832112,27.0442554 C22.8776325,26.5491886 23.1124297,25.9810005 23.6076464,25.7754219 C23.7255694,25.7264246 23.8518834,25.7012517 23.9795459,25.7012517" id="Fill-21" fill="#364548" mask="url(#mask-4)"/>
                            <path d="M27.5831501,35.0861249 C24.2257158,33.4928907 22.3831501,31.3268234 21.3576544,28.9628193 C20.1103976,29.318686 18.6114119,29.5461411 16.8695378,29.6439857 C16.2133944,29.6806962 15.5230878,29.6995758 14.7990675,29.6995758 C13.9637172,29.6995758 13.0837148,29.6747026 12.1598098,29.6258552 C15.2388439,32.7032411 19.0266148,35.0721899 26.0401118,35.1153435 C26.5578043,35.1153435 27.071601,35.1054541 27.5831501,35.0861249" id="Fill-22" fill="#BDD9D7" mask="url(#mask-4)"/>
                            <path d="M22.6048213,31.1443649 C22.1403216,30.5138439 21.6897568,29.7213474 21.3584636,28.9622649 C20.1110569,29.3185811 18.6117716,29.546186 16.8695977,29.6441805 C18.0662091,30.2935811 19.7775161,30.8954829 22.6049712,31.1443649" id="Fill-23" fill="#D3ECEC" mask="url(#mask-4)"/>
                        </g>
                    </g>
                </g>
            </g>
        </g>
    </g>
</svg>