<?xml version="1.0" encoding="UTF-8"?>
<svg width="102px" height="30px" viewBox="0 0 102 30" version="1.1" xmlns="http://www.w3.org/2000/svg" xmlns:xlink="http://www.w3.org/1999/xlink">
    <!-- Generator: Sketch 50.2 (55047) - http://www.bohemiancoding.com/sketch -->
    <title>fission</title>
    <desc>Created with Sketch.</desc>
    <defs/>
    <g id="Page-1" stroke="none" stroke-width="1" fill="none" fill-rule="evenodd">
        <g id="Homepage-Desktop-HD---Export" transform="translate(-567.000000, -725.000000)">
            <g id="Masthead" transform="translate(0.000000, -5.000000)">
                <g id="Supports" transform="translate(79.000000, 616.000000)">
                    <g id="logos" transform="translate(0.000000, 64.000000)">
                        <g id="fission" transform="translate(488.000000, 50.000000)">
                            <path d="M40.5740377,8.16684906 C39.5251698,8.16684906 38.9625283,8.62703774 38.9625283,9.70137736 L38.9625283,11.6191132 L41.3155472,11.6191132 L41.6987547,14.1249623 L38.9625283,14.1249623 L38.9625283,23.9700566 L35.9195094,23.9700566 L35.9195094,14.1249623 L34.1296981,14.1249623 L34.1296981,11.6191132 L35.9195094,11.6191132 L35.9195094,9.39401887 C35.9195094,6.65835849 37.6589434,5.661 40.1902642,5.661 C40.6504528,5.661 41.0851698,5.6864717 41.4429057,5.73741509 L41.8521509,8.26930189 C41.5453585,8.21779245 41.0851698,8.16684906 40.5740377,8.16684906" id="Fill-1" fill="#060000"/>
                            <path d="M43.410566,23.97 L46.4796226,23.97 L46.4796226,11.6190566 L43.410566,11.6190566 L43.410566,23.97 Z M44.970566,9.54792453 C43.9483019,9.54792453 43.1298113,8.83188679 43.1298113,7.8090566 C43.1298113,6.76075472 43.9483019,6.01924528 44.970566,6.01924528 C45.9679245,6.01924528 46.7864151,6.76075472 46.7864151,7.8090566 C46.7864151,8.83188679 45.9679245,9.54792453 44.970566,9.54792453 Z" id="Fill-3" fill="#060000"/>
                            <path d="M53.6387547,24.2256792 C51.8489434,24.2256792 50.0076226,23.6630377 48.8313962,23.0239811 L49.2406415,20.4666226 C50.5702642,21.3360566 52.2072453,21.9241698 53.7412075,21.9241698 C55.0708302,21.9241698 55.7868679,21.4385094 55.7868679,20.6200189 C55.7868679,19.7505849 55.2502642,19.3928491 53.2810189,18.9071887 C50.2889434,18.1396415 49.0357358,17.2702075 49.0357358,15.0202075 C49.0357358,12.8720943 50.7242264,11.3630377 53.5878113,11.3630377 C55.1987547,11.3630377 56.6817736,11.6958679 57.9095094,12.2330377 L57.5002642,14.7898302 C56.2725283,14.0992642 54.8149811,13.6645472 53.5878113,13.6645472 C52.4370566,13.6645472 51.8749811,14.1253019 51.8749811,14.7898302 C51.8749811,15.4549245 52.3346038,15.8386981 54.1759245,16.3243585 C57.3729057,17.142283 58.6255472,18.011717 58.6255472,20.3386981 C58.6255472,22.7681321 56.8866792,24.2256792 53.6387547,24.2256792" id="Fill-5" fill="#060000"/>
                            <path d="M64.8633396,24.2256792 C63.0735283,24.2256792 61.2327736,23.6630377 60.0559811,23.0239811 L60.4646604,20.4666226 C61.7948491,21.3360566 63.4318302,21.9241698 64.9657925,21.9241698 C66.2954151,21.9241698 67.0114528,21.4385094 67.0114528,20.6200189 C67.0114528,19.7505849 66.4748491,19.3928491 64.5056038,18.9071887 C61.5135283,18.1396415 60.2603208,17.2702075 60.2603208,15.0202075 C60.2603208,12.8720943 61.9488113,11.3630377 64.8123962,11.3630377 C66.4233396,11.3630377 67.9063585,11.6958679 69.1340943,12.2330377 L68.724283,14.7898302 C67.4971132,14.0992642 66.039566,13.6645472 64.8123962,13.6645472 C63.6616415,13.6645472 63.099,14.1253019 63.099,14.7898302 C63.099,15.4549245 63.5591887,15.8386981 65.4005094,16.3243585 C68.5969245,17.142283 69.8501321,18.011717 69.8501321,20.3386981 C69.8501321,22.7681321 68.1112642,24.2256792 64.8633396,24.2256792" id="Fill-6" fill="#060000"/>
                            <path d="M72.15,23.97 L75.2184906,23.97 L75.2184906,11.6190566 L72.15,11.6190566 L72.15,23.97 Z M73.71,9.54792453 C72.6866038,9.54792453 71.8686792,8.83188679 71.8686792,7.8090566 C71.8686792,6.76075472 72.6866038,6.01924528 73.71,6.01924528 C74.7067925,6.01924528 75.525283,6.76075472 75.525283,7.8090566 C75.525283,8.83188679 74.7067925,9.54792453 73.71,9.54792453 Z" id="Fill-7" fill="#060000"/>
                            <path d="M83.3491132,13.8695094 C81.5338302,13.8695094 80.5619434,15.5059245 80.5619434,17.7819623 C80.5619434,20.058 81.5593019,21.7198868 83.3491132,21.7198868 C85.2419434,21.7198868 86.2138302,20.1083774 86.2138302,17.807434 C86.2138302,15.5313962 85.190434,13.8695094 83.3491132,13.8695094 M83.3491132,24.2257358 C79.9993019,24.2257358 77.5698679,21.8217736 77.5698679,17.807434 C77.5698679,13.7925283 80.0247736,11.3630943 83.3751509,11.3630943 C86.750434,11.3630943 89.2053396,13.7670566 89.2053396,17.7819623 C89.2053396,21.7963019 86.7249623,24.2257358 83.3491132,24.2257358" id="Fill-8" fill="#060000"/>
                            <path d="M98.5298491,23.97 L98.5298491,15.8898113 C98.5298491,14.8154717 98.0696604,14.0739623 96.9443774,14.0739623 C95.9979623,14.0739623 95.0266415,14.6875472 94.1311698,15.6339623 L94.1311698,23.97 L91.0632453,23.97 L91.0632453,11.6190566 L93.6715472,11.6190566 L93.9523019,13.3579245 C95.1030566,12.2581132 96.4072075,11.3632075 98.0696604,11.3632075 C100.37117,11.3632075 101.59834,12.7698113 101.59834,15.0713208 L101.59834,23.97 L98.5298491,23.97 Z" id="Fill-9" fill="#060000"/>
                            <path d="M13.0874717,29.1276226 C13.0059623,29.417434 12.7053962,29.5872453 12.4155849,29.5057358 C12.1257736,29.4247925 11.9559623,29.1236604 12.0374717,28.8338491 C12.1184151,28.5440377 12.4189811,28.3742264 12.7093585,28.4557358 C12.9997358,28.5366792 13.1689811,28.8378113 13.0874717,29.1276226" id="Fill-10" fill="#592C82"/>
                            <path d="M15.9022075,27.677717 C15.9106981,28.0790377 15.5920189,28.4113019 15.1906981,28.4203585 C14.7893774,28.4288491 14.4565472,28.1101698 14.4486226,27.7088491 C14.439566,27.3075283 14.7582453,26.9746981 15.159566,26.9662075 C15.5608868,26.957717 15.8931509,27.2763962 15.9022075,27.677717" id="Fill-11" fill="#592C82"/>
                            <path d="M17.8214151,25.7933208 C17.9080189,26.2874717 17.5780189,26.7589811 17.0838679,26.8461509 C16.589717,26.9333208 16.1187736,26.6033208 16.0316038,26.1091698 C15.945,25.6150189 16.274434,25.1435094 16.7691509,25.0563396 C17.2633019,24.9691698 17.7342453,25.2991698 17.8214151,25.7933208" id="Fill-12" fill="#592C82"/>
                            <path d="M19.3680566,23.0070566 C19.6086226,23.6676226 19.2678679,24.3972453 18.6073019,24.6378113 C17.9473019,24.8778113 17.2171132,24.5376226 16.9765472,23.8776226 C16.7371132,23.2170566 17.0767358,22.4868679 17.7373019,22.2468679 C18.3973019,22.0063019 19.1274906,22.3464906 19.3680566,23.0070566" id="Fill-13" fill="#592C82"/>
                            <path d="M18.0602264,28.9612642 C18.083434,29.2618302 17.858717,29.5239057 17.5581509,29.5465472 C17.2581509,29.5697547 16.9960755,29.3444717 16.9728679,29.0444717 C16.9502264,28.7439057 17.1755094,28.4818302 17.4755094,28.4591887 C17.7755094,28.4359811 18.0375849,28.6612642 18.0602264,28.9612642" id="Fill-14" fill="#592C82"/>
                            <path d="M20.2093585,26.6362642 C20.3548302,27.0104151 20.1691698,27.4315472 19.7950189,27.5770189 C19.4203019,27.7224906 18.9991698,27.5368302 18.8536981,27.1626792 C18.7087925,26.7885283 18.8944528,26.3668302 19.2686038,26.2219245 C19.6427547,26.0764528 20.0638868,26.2615472 20.2093585,26.6362642" id="Fill-15" fill="#592C82"/>
                            <path d="M21.3685472,24.2090943 C21.6193019,24.6438113 21.470434,25.1996604 21.035717,25.4504151 C20.601566,25.7011698 20.045717,25.5523019 19.7949623,25.1175849 C19.5436415,24.6828679 19.6925094,24.1275849 20.1272264,23.8768302 C20.5613774,23.6255094 21.1177925,23.7743774 21.3685472,24.2090943" id="Fill-16" fill="#592C82"/>
                            <path d="M21.8688113,21.0618679 C22.3205094,21.6001698 22.2503208,22.4028113 21.7120189,22.8545094 C21.173717,23.3056415 20.3710755,23.2354528 19.9199434,22.6971509 C19.4682453,22.1588491 19.538434,21.3567736 20.0761698,20.9050755 C20.6144717,20.4533774 21.4171132,20.523566 21.8688113,21.0618679" id="Fill-17" fill="#592C82"/>
                            <path d="M22.6736038,27.1042075 C22.7981321,27.3781698 22.676434,27.7013774 22.4019057,27.8259057 C22.1273774,27.9498679 21.8047358,27.8281698 21.6802075,27.5542075 C21.5556792,27.2796792 21.6773774,26.9564717 21.9519057,26.8325094 C22.226434,26.7079811 22.5490755,26.8296792 22.6736038,27.1042075" id="Fill-18" fill="#592C82"/>
                            <path d="M23.8974906,24.1844717 C24.1623962,24.4861698 24.1318302,24.9457925 23.8301321,25.2101321 C23.5278679,25.4750377 23.0682453,25.4444717 22.8039057,25.1422075 C22.539566,24.8405094 22.569566,24.3814528 22.8718302,24.1165472 C23.1735283,23.8522075 23.6325849,23.8822075 23.8974906,24.1844717" id="Fill-19" fill="#592C82"/>
                            <path d="M24.1567358,21.5071132 C24.5410755,21.8297547 24.5914528,22.4031509 24.2682453,22.7874906 C23.9461698,23.1718302 23.3727736,23.2216415 22.989,22.899 C22.6040943,22.5769245 22.554283,22.0035283 22.8763585,21.6191887 C23.199566,21.2348491 23.7718302,21.1844717 24.1567358,21.5071132" id="Fill-20" fill="#592C82"/>
                            <path d="M23.5503396,18.3784528 C24.1588302,18.7299623 24.3671321,19.5082642 24.0161887,20.1161887 C23.6646792,20.7252453 22.8863774,20.9335472 22.2784528,20.5820377 C21.6699623,20.2305283 21.4616604,19.4527925 21.8126038,18.8443019 C22.1641132,18.2358113 22.9418491,18.0269434 23.5503396,18.3784528" id="Fill-21" fill="#592C82"/>
                            <path d="M26.3761132,23.7800943 C26.5866792,23.9951887 26.582717,24.3404717 26.3676226,24.5510377 C26.1519623,24.7616038 25.8072453,24.7582075 25.5966792,24.5425472 C25.3861132,24.3274528 25.3900755,23.9821698 25.6051698,23.7716038 C25.8208302,23.5610377 26.1655472,23.565 26.3761132,23.7800943" id="Fill-22" fill="#592C82"/>
                            <path d="M26.5275283,20.6176981 C26.8796038,20.811283 27.0086604,21.2533585 26.8150755,21.6048679 C26.6214906,21.9569434 26.1799811,22.085434 25.8279057,21.8924151 C25.4758302,21.6988302 25.3473396,21.2567547 25.5403585,20.9052453 C25.7339434,20.5531698 26.1760189,20.4246792 26.5275283,20.6176981" id="Fill-23" fill="#592C82"/>
                            <path d="M25.8553585,18.0135849 C26.3268679,18.1850943 26.5702642,18.7064151 26.3987547,19.1779245 C26.2266792,19.65 25.7053585,19.8928302 25.2338491,19.7213208 C24.7623396,19.5492453 24.5195094,19.0279245 24.6904528,18.5564151 C24.8625283,18.0849057 25.3838491,17.8420755 25.8553585,18.0135849" id="Fill-24" fill="#592C82"/>
                            <path d="M24.2158868,15.2806981 C24.9081509,15.4029623 25.3700377,16.0623962 25.2477736,16.7546604 C25.1255094,17.4469245 24.4655094,17.9088113 23.7743774,17.7865472 C23.0821132,17.6648491 22.6202264,17.0048491 22.7419245,16.3125849 C22.8636226,15.6208868 23.5236226,15.159 24.2158868,15.2806981" id="Fill-25" fill="#592C82"/>
                            <path d="M28.7220566,19.3872453 C28.9931887,19.517434 29.1080943,19.8434717 28.9773396,20.1146038 C28.8471509,20.3863019 28.5216792,20.5006415 28.2499811,20.3704528 C27.9788491,20.2402642 27.8639434,19.9147925 27.9941321,19.6430943 C28.1243208,19.3713962 28.4503585,19.2570566 28.7220566,19.3872453" id="Fill-26" fill="#592C82"/>
                            <path d="M27.7823208,16.3638679 C28.1791132,16.425 28.4513774,16.7963208 28.3902453,17.1931132 C28.3291132,17.5904717 27.9577925,17.8621698 27.560434,17.8010377 C27.1636415,17.7393396 26.8919434,17.3680189 26.9530755,16.9712264 C27.0147736,16.574434 27.3860943,16.3027358 27.7823208,16.3638679" id="Fill-27" fill="#592C82"/>
                            <path d="M26.2600189,14.1464151 C26.7620943,14.1464151 27.1685094,14.5533962 27.1685094,15.0549057 C27.1685094,15.5569811 26.7620943,15.9633962 26.2600189,15.9633962 C25.7585094,15.9633962 25.3520943,15.5569811 25.3520943,15.0549057 C25.3520943,14.5533962 25.7585094,14.1464151 26.2600189,14.1464151" id="Fill-28" fill="#592C82"/>
                            <path d="M23.7846792,12.1393019 C24.4769434,12.0176038 25.1369434,12.4794906 25.2586415,13.1711887 C25.3803396,13.8634528 24.9184528,14.5228868 24.2261887,14.6451509 C23.5350566,14.7674151 22.8750566,14.3055283 22.7527925,13.6132642 C22.6305283,12.921 23.0924151,12.261566 23.7846792,12.1393019" id="Fill-29" fill="#592C82"/>
                            <path d="M29.421283,14.4609623 C29.721283,14.4903962 29.9403396,14.757566 29.9103396,15.057 C29.8809057,15.357 29.6143019,15.5760566 29.3148679,15.5460566 C29.0148679,15.5166226 28.7963774,15.2500189 28.8252453,14.9500189 C28.8546792,14.6505849 29.1218491,14.4315283 29.421283,14.4609623" id="Fill-30" fill="#592C82"/>
                            <path d="M27.5048491,11.9411321 C27.8988113,11.8630189 28.2814528,12.1188679 28.359566,12.5128302 C28.4371132,12.9067925 28.1818302,13.2888679 27.7878679,13.3675472 C27.3944717,13.4456604 27.0112642,13.1898113 26.9331509,12.7958491 C26.8556038,12.4018868 27.1114528,12.0192453 27.5048491,11.9411321" id="Fill-31" fill="#592C82"/>
                            <path d="M25.3158679,10.3781887 C25.7873774,10.2066792 26.3092642,10.4495094 26.4807736,10.9210189 C26.652283,11.3925283 26.4094528,11.9138491 25.9379434,12.0859245 C25.466434,12.257434 24.9445472,12.0146038 24.7730377,11.5425283 C24.6009623,11.0710189 24.8443585,10.5496981 25.3158679,10.3781887" id="Fill-32" fill="#592C82"/>
                            <path d="M22.3033019,9.33871698 C22.9117925,8.98720755 23.6900943,9.19607547 24.0410377,9.80456604 C24.3925472,10.4130566 24.1842453,11.1907925 23.5757547,11.5423019 C22.9672642,11.8938113 22.1889623,11.6855094 21.8380189,11.0764528 C21.4865094,10.4685283 21.6948113,9.69022642 22.3033019,9.33871698" id="Fill-33" fill="#592C82"/>
                            <path d="M28.3936981,9.5954717 C28.6857736,9.52075472 28.9823774,9.69679245 29.0570943,9.98830189 C29.1318113,10.2798113 28.9557736,10.5769811 28.6642642,10.6516981 C28.3727547,10.7269811 28.0755849,10.5503774 28.0008679,10.2588679 C27.9261509,9.96735849 28.1016226,9.67018868 28.3936981,9.5954717" id="Fill-34" fill="#592C82"/>
                            <path d="M25.731,7.88298113 C26.0740189,7.67467925 26.5211887,7.78449057 26.7294906,8.12807547 C26.9377925,8.47166038 26.8274151,8.91826415 26.4843962,9.12656604 C26.1413774,9.33430189 25.6942075,9.2250566 25.4859057,8.8814717 C25.2776038,8.53845283 25.3874151,8.09128302 25.731,7.88298113" id="Fill-35" fill="#592C82"/>
                            <path d="M23.1390566,7.16298113 C23.5239623,6.84033962 24.0967925,6.89071698 24.419434,7.2750566 C24.7420755,7.65939623 24.6916981,8.23279245 24.3073585,8.55486792 C23.9230189,8.87750943 23.3496226,8.82769811 23.0275472,8.44335849 C22.7043396,8.05901887 22.754717,7.48562264 23.1390566,7.16298113" id="Fill-36" fill="#592C82"/>
                            <path d="M19.9528868,7.21658491 C20.4045849,6.67828302 21.2072264,6.60809434 21.7449623,7.05979245 C22.2832642,7.51149057 22.3534528,8.31413208 21.9017547,8.85243396 C21.4506226,9.39073585 20.6479811,9.46092453 20.1096792,9.00922642 C19.5713774,8.5575283 19.5011887,7.75488679 19.9528868,7.21658491" id="Fill-37" fill="#592C82"/>
                            <path d="M25.7630943,5.37203774 C26.0115849,5.20222642 26.3512075,5.26562264 26.5210189,5.51411321 C26.6913962,5.76260377 26.627434,6.10222642 26.3789434,6.27203774 C26.1298868,6.44241509 25.7908302,6.37845283 25.6210189,6.12996226 C25.4506415,5.8814717 25.5146038,5.54184906 25.7630943,5.37203774" id="Fill-38" fill="#592C82"/>
                            <path d="M22.6753019,4.67360377 C22.9266226,4.36058491 23.3845472,4.31077358 23.697566,4.56209434 C24.0100189,4.81398113 24.0598302,5.27133962 23.8085094,5.58435849 C23.5571887,5.89737736 23.0998302,5.94718868 22.7862453,5.69586792 C22.4737925,5.44398113 22.4239811,4.98662264 22.6753019,4.67360377" id="Fill-39" fill="#592C82"/>
                            <path d="M19.9938113,4.88337736 C20.244566,4.44866038 20.8004151,4.29979245 21.234566,4.55111321 C21.669283,4.80130189 21.818717,5.35715094 21.5673962,5.79186792 C21.3166415,6.22658491 20.7607925,6.37545283 20.3266415,6.12469811 C19.8913585,5.8739434 19.7430566,5.31809434 19.9938113,4.88337736" id="Fill-40" fill="#592C82"/>
                            <path d="M17.0176981,6.02371698 C17.2582642,5.36315094 17.9884528,5.02296226 18.6484528,5.26296226 C19.3090189,5.5035283 19.6492075,6.23371698 19.4092075,6.89371698 C19.1686415,7.55428302 18.4384528,7.8944717 17.7784528,7.6544717 C17.1178868,7.41390566 16.7771321,6.68371698 17.0176981,6.02371698" id="Fill-41" fill="#592C82"/>
                            <path d="M21.8439057,2.30275472 C22.0193774,2.05766038 22.359566,2.00162264 22.6046604,2.17709434 C22.8491887,2.35256604 22.9052264,2.69332075 22.7297547,2.93784906 C22.5548491,3.1829434 22.2135283,3.23898113 21.969566,3.06350943 C21.7244717,2.88803774 21.6678679,2.54728302 21.8439057,2.30275472" id="Fill-42" fill="#592C82"/>
                            <path d="M18.7030755,2.70266038 C18.8326981,2.32228302 19.2453396,2.11907547 19.6251509,2.24813208 C20.0055283,2.37775472 20.2087358,2.79039623 20.0796792,3.17077358 C19.9506226,3.55058491 19.5379811,3.75379245 19.1576038,3.62473585 C18.7772264,3.49567925 18.5734528,3.0824717 18.7030755,2.70266038" id="Fill-43" fill="#592C82"/>
                            <path d="M16.2548491,3.81679245 C16.3420189,3.32264151 16.8135283,2.99264151 17.3076792,3.07981132 C17.8018302,3.16698113 18.1318302,3.63849057 18.0446604,4.13264151 C17.9574906,4.62679245 17.4865472,4.95679245 16.9923962,4.8690566 C16.4982453,4.78245283 16.1682453,4.3109434 16.2548491,3.81679245" id="Fill-44" fill="#592C82"/>
                            <path d="M13.8486226,5.90598113 C13.8486226,5.2035283 14.4180566,4.6335283 15.1205094,4.6335283 C15.8235283,4.6335283 16.3929623,5.2035283 16.3929623,5.90598113 C16.3929623,6.609 15.8235283,7.17843396 15.1205094,7.17843396 C14.4180566,7.17843396 13.8486226,6.609 13.8486226,5.90598113" id="Fill-45" fill="#592C82"/>
                            <path d="M17.1138679,0.758037736 C17.1953774,0.468226415 17.4959434,0.298415094 17.7857547,0.379924528 C18.075566,0.461433962 18.2448113,0.762 18.1638679,1.05181132 C18.0829245,1.34218868 17.7823585,1.51143396 17.4919811,1.42992453 C17.2016038,1.34898113 17.0323585,1.04841509 17.1138679,0.758037736" id="Fill-46" fill="#592C82"/>
                            <path d="M14.2991321,2.2079434 C14.2906415,1.80662264 14.6093208,1.47435849 15.0106415,1.46530189 C15.4119623,1.45681132 15.7447925,1.77549057 15.752717,2.17681132 C15.7617736,2.57813208 15.4430943,2.91096226 15.0417736,2.91945283 C14.6404528,2.9279434 14.3081887,2.60926415 14.2991321,2.2079434" id="Fill-47" fill="#592C82"/>
                            <path d="M12.3799245,4.09233962 C12.2927547,3.59818868 12.6227547,3.12667925 13.1169057,3.03950943 C13.6110566,2.95233962 14.082566,3.28233962 14.1697358,3.77649057 C14.2563396,4.27064151 13.9263396,4.74215094 13.4321887,4.82932075 C12.9380377,4.91649057 12.4670943,4.58649057 12.3799245,4.09233962" id="Fill-48" fill="#592C82"/>
                            <path d="M10.833283,6.87860377 C10.592717,6.21803774 10.9334717,5.48841509 11.5940377,5.24784906 C12.2540377,5.00784906 12.9842264,5.34803774 13.2247925,6.00860377 C13.4642264,6.66860377 13.1240377,7.39879245 12.4640377,7.63935849 C11.8034717,7.87935849 11.0738491,7.53916981 10.833283,6.87860377" id="Fill-49" fill="#592C82"/>
                            <path d="M12.1438868,0.925528302 C12.1206792,0.624962264 12.3453962,0.36345283 12.6459623,0.340245283 C12.9459623,0.317603774 13.2080377,0.542320755 13.2312453,0.842320755 C13.2538868,1.14288679 13.0286038,1.40496226 12.7286038,1.42760377 C12.4286038,1.45081132 12.1665283,1.2255283 12.1438868,0.925528302" id="Fill-50" fill="#592C82"/>
                            <path d="M9.99469811,3.2504717 C9.84922642,2.87632075 10.0348868,2.45518868 10.4090377,2.30971698 C10.7837547,2.16424528 11.2048868,2.34990566 11.3503585,2.7240566 C11.4952642,3.09820755 11.3096038,3.51990566 10.9354528,3.66481132 C10.5613019,3.81028302 10.1401698,3.62518868 9.99469811,3.2504717" id="Fill-51" fill="#592C82"/>
                            <path d="M8.83556604,5.67769811 C8.58481132,5.24298113 8.73367925,4.68713208 9.16839623,4.43637736 C9.60254717,4.18562264 10.1589623,4.33449057 10.4091509,4.76920755 C10.6604717,5.20392453 10.5116038,5.75920755 10.0768868,6.00996226 C9.64273585,6.26128302 9.08632075,6.11241509 8.83556604,5.67769811" id="Fill-52" fill="#592C82"/>
                            <path d="M8.33530189,8.82515094 C7.88360377,8.28684906 7.95379245,7.48420755 8.49209434,7.03250943 C9.03039623,6.58081132 9.83303774,6.651 10.2841698,7.18930189 C10.7358679,7.72760377 10.6656792,8.53024528 10.1279434,8.9819434 C9.58964151,9.43364151 8.787,9.36345283 8.33530189,8.82515094" id="Fill-53" fill="#592C82"/>
                            <path d="M7.52767925,2.7825283 C7.40315094,2.50856604 7.52484906,2.18535849 7.79881132,2.06083019 C8.07333962,1.93686792 8.39654717,2.05856604 8.52107547,2.3325283 C8.64560377,2.6070566 8.52333962,2.93026415 8.24881132,3.05422642 C7.97484906,3.17875472 7.65164151,3.0570566 7.52767925,2.7825283" id="Fill-54" fill="#592C82"/>
                            <path d="M6.30328302,5.70254717 C6.0389434,5.40028302 6.06950943,4.94122642 6.37120755,4.67688679 C6.67290566,4.41198113 7.1325283,4.44198113 7.39743396,4.74424528 C7.66177358,5.0459434 7.63177358,5.50556604 7.3289434,5.7704717 C7.02724528,6.03481132 6.56818868,6.00424528 6.30328302,5.70254717" id="Fill-55" fill="#592C82"/>
                            <path d="M6.04460377,8.37962264 C5.65969811,8.05698113 5.60988679,7.48358491 5.9325283,7.09924528 C6.25516981,6.71490566 6.828,6.66509434 7.21233962,6.98773585 C7.59667925,7.30981132 7.6470566,7.88320755 7.32441509,8.26754717 C7.00177358,8.65188679 6.4289434,8.70226415 6.04460377,8.37962264" id="Fill-56" fill="#592C82"/>
                            <path d="M6.65043396,11.5083396 C6.0419434,11.1568302 5.83364151,10.3790943 6.18515094,9.77060377 C6.53609434,9.16154717 7.31439623,8.95324528 7.92288679,9.30475472 C8.53137736,9.65626415 8.73967925,10.434 8.38816981,11.0424906 C8.03722642,11.6509811 7.25892453,11.8598491 6.65043396,11.5083396" id="Fill-57" fill="#592C82"/>
                            <path d="M3.82081132,6.10828302 C3.61024528,5.89318868 3.61420755,5.54790566 3.82930189,5.33733962 C4.04496226,5.12677358 4.38967925,5.13016981 4.60024528,5.34583019 C4.81081132,5.56092453 4.80684906,5.90620755 4.59175472,6.11677358 C4.37666038,6.32733962 4.03137736,6.32337736 3.82081132,6.10828302" id="Fill-58" fill="#592C82"/>
                            <path d="M3.66933962,9.27067925 C3.31726415,9.07766038 3.18877358,8.63501887 3.38179245,8.28350943 C3.57537736,7.93143396 4.01745283,7.8029434 4.36896226,7.9965283 C4.72103774,8.18954717 4.85009434,8.63162264 4.65650943,8.98369811 C4.46292453,9.33520755 4.02141509,9.46369811 3.66933962,9.27067925" id="Fill-59" fill="#592C82"/>
                            <path d="M4.34150943,11.8750755 C3.87,11.703566 3.62660377,11.1816792 3.79811321,10.7101698 C3.97018868,10.2386604 4.49150943,9.99583019 4.96301887,10.1673396 C5.4345283,10.3388491 5.67735849,10.8607358 5.50641509,11.3322453 C5.33433962,11.8037547 4.81301887,12.0465849 4.34150943,11.8750755" id="Fill-60" fill="#592C82"/>
                            <path d="M5.98103774,14.6077358 C5.28877358,14.4860377 4.82745283,13.8260377 4.94915094,13.1337736 C5.07141509,12.4420755 5.73141509,11.9796226 6.42311321,12.1018868 C7.11481132,12.2241509 7.57669811,12.8835849 7.455,13.5758491 C7.33330189,14.2675472 6.67330189,14.73 5.98103774,14.6077358" id="Fill-61" fill="#592C82"/>
                            <path d="M1.47815094,10.4981321 C1.20701887,10.3679434 1.09211321,10.0424717 1.22286792,9.77077358 C1.35249057,9.49907547 1.6785283,9.38473585 1.95022642,9.51492453 C2.22135849,9.64511321 2.33626415,9.97115094 2.20550943,10.242283 C2.07588679,10.5139811 1.74984906,10.6283208 1.47815094,10.4981321" id="Fill-62" fill="#592C82"/>
                            <path d="M2.41788679,13.5217925 C2.02109434,13.4606604 1.74883019,13.0887736 1.80996226,12.6925472 C1.87109434,12.2951887 2.24241509,12.0234906 2.63977358,12.0846226 C3.03656604,12.1457547 3.30826415,12.5176415 3.24713208,12.9138679 C3.18543396,13.3106604 2.81411321,13.5829245 2.41788679,13.5217925" id="Fill-63" fill="#592C82"/>
                            <path d="M3.93967925,15.7389623 C3.43816981,15.7389623 3.03175472,15.3319811 3.03175472,14.8304717 C3.03175472,14.3283962 3.43816981,13.9219811 3.93967925,13.9219811 C4.44175472,13.9219811 4.84816981,14.3283962 4.84816981,14.8304717 C4.84816981,15.3319811 4.44175472,15.7389623 3.93967925,15.7389623" id="Fill-64" fill="#592C82"/>
                            <path d="M6.4155283,17.7460755 C5.72326415,17.8683396 5.06326415,17.4058868 4.94156604,16.7141887 C4.81986792,16.0224906 5.28175472,15.3624906 5.97401887,15.2402264 C6.66515094,15.1179623 7.32515094,15.5804151 7.44741509,16.2721132 C7.56967925,16.9643774 7.10779245,17.6243774 6.4155283,17.7460755" id="Fill-65" fill="#592C82"/>
                            <path d="M0.78,15.4219245 C0.480566038,15.3924906 0.261509434,15.1253208 0.290943396,14.8258868 C0.320377358,14.5258868 0.58754717,14.3068302 0.886981132,14.3368302 C1.18698113,14.3662642 1.4054717,14.6328679 1.37660377,14.9328679 C1.34660377,15.2323019 1.07943396,15.4513585 0.78,15.4219245" id="Fill-66" fill="#592C82"/>
                            <path d="M2.6970566,17.9417547 C2.30309434,18.0198679 1.92045283,17.7640189 1.84233962,17.3700566 C1.76422642,16.9760943 2.02007547,16.5934528 2.41403774,16.5153396 C2.80743396,16.4372264 3.19007547,16.6930755 3.26875472,17.0870377 C3.34630189,17.481 3.09045283,17.8636415 2.6970566,17.9417547" id="Fill-67" fill="#592C82"/>
                            <path d="M4.88598113,19.5046981 C4.41390566,19.6762075 3.89258491,19.4333774 3.72107547,18.9618679 C3.54956604,18.4903585 3.79239623,17.9684717 4.26390566,17.7969623 C4.73541509,17.6254528 5.25673585,17.868283 5.42881132,18.3397925 C5.60032075,18.8113019 5.35749057,19.3331887 4.88598113,19.5046981" id="Fill-68" fill="#592C82"/>
                            <path d="M7.89860377,20.5442264 C7.29011321,20.8957358 6.51181132,20.6868679 6.16086792,20.0783774 C5.80935849,19.4698868 6.01766038,18.6921509 6.62615094,18.3406415 C7.23464151,17.9891321 8.0129434,18.197434 8.36388679,18.8059245 C8.71539623,19.4144151 8.50709434,20.192717 7.89860377,20.5442264" id="Fill-69" fill="#592C82"/>
                            <path d="M1.80764151,20.2904717 C1.51556604,20.3651887 1.21896226,20.1891509 1.14424528,19.8976415 C1.06896226,19.6061321 1.24556604,19.3089623 1.53650943,19.2336792 C1.82858491,19.1589623 2.12575472,19.335 2.2004717,19.6270755 C2.27518868,19.9185849 2.09971698,20.2157547 1.80764151,20.2904717" id="Fill-70" fill="#592C82"/>
                            <path d="M4.47033962,22.0026792 C4.12732075,22.2109811 3.68015094,22.1011698 3.47184906,21.7575849 C3.26354717,21.414566 3.37392453,20.9673962 3.7169434,20.7590943 C4.05996226,20.5513585 4.50713208,20.6606038 4.71543396,21.0041887 C4.92373585,21.3477736 4.81335849,21.7943774 4.47033962,22.0026792" id="Fill-71" fill="#592C82"/>
                            <path d="M7.06171698,22.7229623 C6.67737736,23.0456038 6.10454717,22.9952264 5.78190566,22.6108868 C5.45926415,22.2265472 5.50964151,21.6531509 5.89398113,21.3310755 C6.27832075,21.008434 6.85115094,21.0582453 7.17379245,21.4425849 C7.49643396,21.8269245 7.44662264,22.4003208 7.06171698,22.7229623" id="Fill-72" fill="#592C82"/>
                            <path d="M10.2484528,22.6690755 C9.79675472,23.2073774 8.99411321,23.277566 8.45581132,22.8258679 C7.91807547,22.3741698 7.84788679,21.5720943 8.29958491,21.0332264 C8.75071698,20.4954906 9.55279245,20.4253019 10.0916604,20.876434 C10.6299623,21.3281321 10.7001509,22.1307736 10.2484528,22.6690755" id="Fill-73" fill="#592C82"/>
                            <path d="M4.43603774,24.5139057 C4.18754717,24.683717 3.84849057,24.6203208 3.67811321,24.3718302 C3.50830189,24.1233396 3.57226415,23.783717 3.82018868,23.6139057 C4.06924528,23.4435283 4.40830189,23.5074906 4.57811321,23.7559811 C4.74849057,24.0044717 4.6845283,24.3440943 4.43603774,24.5139057" id="Fill-74" fill="#592C82"/>
                            <path d="M7.52383019,25.2123396 C7.27307547,25.5253585 6.81515094,25.5751698 6.50156604,25.3238491 C6.18911321,25.0719623 6.13930189,24.6146038 6.39062264,24.3015849 C6.6419434,23.988566 7.09986792,23.9387547 7.41288679,24.1900755 C7.72533962,24.4419623 7.77515094,24.8993208 7.52383019,25.2123396" id="Fill-75" fill="#592C82"/>
                            <path d="M10.2053208,25.002566 C9.95456604,25.437283 9.39871698,25.5861509 8.96456604,25.3348302 C8.52984906,25.0840755 8.38041509,24.5287925 8.63173585,24.0940755 C8.88249057,23.6593585 9.43890566,23.5104906 9.8730566,23.7612453 C10.3077736,24.012 10.4560755,24.5678491 10.2053208,25.002566" id="Fill-76" fill="#592C82"/>
                            <path d="M13.181434,23.8622264 C12.9408679,24.5227925 12.2112453,24.8629811 11.5506792,24.6229811 C10.8906792,24.3824151 10.5504906,23.6522264 10.7899245,22.9916604 C11.0304906,22.3316604 11.7606792,21.9914717 12.4212453,22.2314717 C13.0812453,22.4720377 13.422,23.2016604 13.181434,23.8622264" id="Fill-77" fill="#592C82"/>
                            <path d="M8.35245283,27.5831887 C8.17698113,27.827717 7.83679245,27.8837547 7.59169811,27.7088491 C7.34716981,27.5333774 7.29056604,27.1926226 7.46660377,26.9475283 C7.64150943,26.703 7.98226415,26.6469623 8.22679245,26.822434 C8.47188679,26.9973396 8.52849057,27.3380943 8.35245283,27.5831887" id="Fill-78" fill="#592C82"/>
                            <path d="M11.493283,27.183283 C11.3636604,27.5630943 10.9510189,27.7668679 10.5706415,27.6372453 C10.1902642,27.5081887 9.98762264,27.0955472 10.1161132,26.7151698 C10.2457358,26.3347925 10.6583774,26.1315849 11.0387547,26.2612075 C11.4191321,26.3902642 11.6229057,26.8029057 11.493283,27.183283" id="Fill-79" fill="#592C82"/>
                            <path d="M13.9409434,26.0688679 C13.8543396,26.5630189 13.3828302,26.8930189 12.8886792,26.8058491 C12.3945283,26.7186792 12.0645283,26.2477358 12.1516981,25.7535849 C12.2383019,25.259434 12.7098113,24.929434 13.2039623,25.0166038 C13.6981132,25.1032075 14.0281132,25.574717 13.9409434,26.0688679" id="Fill-80" fill="#592C82"/>
                            <path d="M16.3477358,23.9796792 C16.3477358,24.6821321 15.7777358,25.2521321 15.075283,25.2521321 C14.3728302,25.2521321 13.8033962,24.6821321 13.8033962,23.9796792 C13.8033962,23.2772264 14.3728302,22.7072264 15.075283,22.7072264 C15.7777358,22.7072264 16.3477358,23.2772264 16.3477358,23.9796792" id="Fill-81" fill="#592C82"/>
                        </g>
                    </g>
                </g>
            </g>
        </g>
    </g>
</svg>