<?xml version="1.0" encoding="UTF-8"?>
<svg width="120px" height="20px" viewBox="0 0 120 20" version="1.1" xmlns="http://www.w3.org/2000/svg" xmlns:xlink="http://www.w3.org/1999/xlink">
    <!-- Generator: Sketch 50.2 (55047) - http://www.bohemiancoding.com/sketch -->
    <title>google cloud</title>
    <desc>Created with Sketch.</desc>
    <defs>
        <polygon id="path-1" points="0.0169333333 0.534 14.1542667 0.534 14.1542667 6.94853333 0.0169333333 6.94853333"/>
        <polygon id="path-3" points="0 0.530622777 11.2524667 0.530622777 11.2524667 11.792 0 11.792"/>
        <polygon id="path-5" points="0.0827435798 0.48303382 49.6345333 0.48303382 49.6345333 16.6666667 0.0827435798 16.6666667"/>
    </defs>
    <g id="Page-1" stroke="none" stroke-width="1" fill="none" fill-rule="evenodd">
        <g id="Homepage-Desktop-HD---Export" transform="translate(-459.000000, -676.000000)">
            <g id="Masthead" transform="translate(0.000000, -5.000000)">
                <g id="Supports" transform="translate(79.000000, 616.000000)">
                    <g id="logos" transform="translate(0.000000, 64.000000)">
                        <g id="google-cloud" transform="translate(380.000000, 1.000000)">
                            <g id="Group-3" transform="translate(2.666667, 0.132733)">
                                <mask id="mask-2" fill="white">
                                    <use xlink:href="#path-1"/>
                                </mask>
                                <g id="Clip-2"/>
                                <path d="M11.4482667,5.4652 L11.5182667,5.4652 L11.4762667,5.42986667 L14.1489333,2.7572 L14.1542667,2.7092 C11.9042667,0.722533333 8.78293333,0.0372 5.9076,0.899866667 C3.0316,1.76586667 0.804933333,4.0512 0.0169333333,6.94853333 C0.0636,6.92986667 0.1116,6.91386667 0.160266667,6.90186667 C1.15293333,6.24786667 2.33293333,5.87253333 3.57893333,5.86386667 C3.99426667,5.86253333 4.40426667,5.90253333 4.80493333,5.98053333 C4.82493333,5.96853333 4.84493333,5.9632 4.8616,5.96586667 C6.58226667,4.07586667 9.47626667,3.85653333 11.4622667,5.4652 L11.4482667,5.4652 Z" id="Fill-1" fill="#EA4335" mask="url(#mask-2)"/>
                            </g>
                            <path d="M19.4818,7.08133333 C19.0371333,5.446 18.1244667,3.976 16.8564667,2.84866667 L14.1431333,5.56266667 C15.2878,6.49866667 15.9411333,7.908 15.9131333,9.38866667 L15.9131333,9.86933333 C19.1324667,9.86933333 19.1324667,14.7 15.9131333,14.7 L11.0824667,14.7 L11.0751333,14.7073333 L11.0751333,18.5406667 L11.0551333,18.5406667 L11.0824667,18.5686667 L15.9131333,18.5686667 C18.6838,18.5906667 21.1391333,16.7946667 21.9631333,14.1493333 C22.7824667,11.5053333 21.7744667,8.63266667 19.4818,7.08133333" id="Fill-4" fill="#4285F4"/>
                            <path d="M6.2458,18.541 L11.0751333,18.541 L11.0751333,14.675 L6.2458,14.675 C5.90446667,14.675 5.56446667,14.6023333 5.25446667,14.4583333 L2.46113333,17.2503333 L2.4538,17.2796667 C3.5458,18.103 4.87846667,18.5483333 6.2458,18.541" id="Fill-6" fill="#34A853"/>
                            <g id="Group-10" transform="translate(0.000000, 5.466067)">
                                <mask id="mask-4" fill="white">
                                    <use xlink:href="#path-3"/>
                                </mask>
                                <g id="Clip-9"/>
                                <path d="M6.2458,0.530666667 C3.5638,0.548666667 1.1858,2.266 0.3298,4.80666667 C-0.528866667,7.35 0.327133333,10.156 2.4538,11.792 L5.25646667,8.99 C3.7158,8.294 3.3478,6.27666667 4.54246667,5.08133333 C5.73646667,3.888 7.75446667,4.25533333 8.45046667,5.79466667 L11.2524667,2.994 C10.0611333,1.43533333 8.20646667,0.523333333 6.2458,0.530666667" id="Fill-8" fill="#FBBC05" mask="url(#mask-4)"/>
                            </g>
                            <g id="Group-13" transform="translate(28.666667, 2.799400)">
                                <mask id="mask-6" fill="white">
                                    <use xlink:href="#path-5"/>
                                </mask>
                                <g id="Clip-12"/>
                                <path d="M43.8958667,8.88286667 L47.5032,7.38486667 C47.3945333,7.11953333 47.1958667,6.90086667 46.9418667,6.7662 C46.6598667,6.60753333 46.3372,6.52286667 46.0125333,6.5302 C45.4612,6.54353333 44.9345333,6.77286667 44.5532,7.17286667 C44.0905333,7.6182 43.8498667,8.24286667 43.8958667,8.88286667 Z M46.1605333,13.0415333 C45.0898667,13.0695333 44.0552,12.6488667 43.3058667,11.8828667 C42.5465333,11.1188667 42.1325333,10.0802 42.1578667,9.00686667 C42.1185333,7.92486667 42.5185333,6.87886667 43.2638667,6.1022 C43.9698667,5.3602 44.9558667,4.94686667 45.9772,4.96753333 C46.4432,4.9642 46.9065333,5.05286667 47.3345333,5.23286667 C47.7225333,5.3882 48.0765333,5.61886667 48.3725333,5.91086667 C48.6305333,6.1582 48.8565333,6.4342 49.0505333,6.73086667 C49.2105333,6.98486667 49.3445333,7.2502 49.4512,7.5262 L49.6345333,7.98886667 L44.2072,10.2188667 C44.5425333,10.9922 45.3198667,11.4762 46.1605333,11.4408667 C46.9732,11.4408667 47.7292,11.0175333 48.1505333,10.3208667 L49.5072,11.2362 C49.1598667,11.7308667 48.7152,12.1508667 48.2038667,12.4728667 C47.5918667,12.8582 46.8852,13.0555333 46.1605333,13.0415333 Z M39.5325333,12.7975333 L41.3058667,12.7975333 L41.3058667,0.939533333 L39.5325333,0.939533333 L39.5325333,12.7975333 Z M34.5958667,11.4548667 C35.1825333,11.4662 35.7438667,11.2182 36.1298667,10.7768667 C36.5465333,10.2962 36.7692,9.6742 36.7445333,9.0382 C36.7692,8.39153333 36.5498667,7.75886667 36.1298667,7.26753333 C35.7438667,6.82286667 35.1825333,6.57553333 34.5958667,6.58953333 C33.9918667,6.5782 33.4152,6.82286667 33.0058667,7.26753333 C32.5565333,7.74086667 32.3125333,8.3742 32.3272,9.02353333 C32.3125333,9.67086667 32.5605333,10.2962 33.0058667,10.7622 C33.4118667,11.2108667 33.9918667,11.4628667 34.5958667,11.4548667 Z M34.4718667,16.6642 C33.6598667,16.6922 32.8612,16.4375333 32.2145333,15.9468667 C31.6378667,15.5108667 31.1818667,14.9362 30.8958667,14.2748667 L32.4438667,13.6315333 C32.6132,14.0282 32.8745333,14.3735333 33.2112,14.6422 C33.5678667,14.9322 34.0198667,15.0848667 34.4792,15.0702 C35.0698667,15.1055333 35.6452,14.8828667 36.0585333,14.4582 C36.4685333,13.9675333 36.6698667,13.3355333 36.6245333,12.6955333 L36.6245333,12.1122 L36.5605333,12.1122 C36.0378667,12.7342 35.2492,13.0735333 34.4398667,13.0275333 C33.4085333,13.0315333 32.4258667,12.6028667 31.7265333,11.8468667 C30.9665333,11.0975333 30.5465333,10.0702 30.5645333,9.00686667 C30.5465333,7.93153333 30.9632,6.89686667 31.7265333,6.14086667 C32.4225333,5.38486667 33.4085333,4.95286667 34.4398667,4.95286667 C34.8712,4.95286667 35.2958667,5.04953333 35.6878667,5.23286667 C36.0232,5.38153333 36.3265333,5.6002 36.5672,5.87553333 L36.6318667,5.87553333 L36.6318667,5.23286667 L38.3125333,5.23286667 L38.3125333,12.4582 C38.4018667,13.6148667 38.0125333,14.7555333 37.2358667,15.6148667 C36.4932,16.3208667 35.4965333,16.7028667 34.4718667,16.6642 Z M24.1858667,10.7555333 C25.0552,11.6815333 26.5292,11.6815333 27.3985333,10.7555333 C27.8505333,10.2855333 28.0938667,9.65686667 28.0765333,9.00686667 C28.0938667,8.3522 27.8505333,7.71686667 27.3985333,7.24753333 C26.5178667,6.33153333 25.0512,6.33153333 24.1745333,7.24753333 C23.7192,7.71686667 23.4765333,8.3522 23.4965333,9.00686667 C23.4792,9.65686667 23.7265333,10.2888667 24.1785333,10.7555333 L24.1858667,10.7555333 Z M28.6665333,11.8895333 C27.0592,13.4268667 24.5252,13.4268667 22.9178667,11.8895333 C22.1398667,11.1328667 21.7152,10.0882 21.7445333,9.00686667 C21.7152,7.9222 22.1398667,6.87553333 22.9178667,6.12286667 C24.5252,4.5822 27.0592,4.5822 28.6665333,6.12286667 C29.4438667,6.87553333 29.8678667,7.9222 29.8398667,9.00686667 C29.8678667,10.0882 29.4438667,11.1328667 28.6665333,11.8895333 Z M15.3552,10.7555333 C16.2212,11.6815333 17.6952,11.6815333 18.5638667,10.7555333 C19.0165333,10.2855333 19.2605333,9.65686667 19.2425333,9.00686667 C19.2605333,8.3522 19.0165333,7.71686667 18.5638667,7.24753333 C17.6845333,6.33153333 16.2178667,6.33153333 15.3418667,7.24753333 C14.8865333,7.71686667 14.6418667,8.3522 14.6632,9.00686667 C14.6458667,9.65686667 14.8932,10.2888667 15.3485333,10.7555333 L15.3552,10.7555333 Z M19.8318667,11.8895333 C18.2252,13.4268667 15.6912,13.4268667 14.0872,11.8895333 C13.3065333,11.1328667 12.8818667,10.0882 12.9105333,9.00686667 C12.8818667,7.9222 13.3105333,6.87553333 14.0872,6.12286667 C15.6912,4.5862 18.2252,4.5862 19.8318667,6.12286667 C20.6098667,6.87553333 21.0345333,7.9222 21.0052,9.00686667 C21.0345333,10.0882 20.6065333,11.1328667 19.8258667,11.8895333 L19.8318667,11.8895333 Z M6.44053333,13.0415333 C4.75786667,13.0628667 3.1432,12.3982 1.96053333,11.2042 C0.744533333,10.0562 0.0625333333,8.4522 0.0832,6.7802 C0.0625333333,5.10486667 0.744533333,3.50153333 1.96053333,2.3562 C3.13653333,1.14753333 4.75453333,0.468866667 6.44053333,0.483533333 C8.04453333,0.462866667 9.59253333,1.0842 10.7338667,2.21553333 L9.5252,3.44153333 C8.69853333,2.64286667 7.58853333,2.2042 6.44053333,2.2222 C5.23186667,2.2042 4.07653333,2.69886667 3.2492,3.57886667 C2.39453333,4.42686667 1.92186667,5.59286667 1.94253333,6.80086667 C1.9312,7.99286667 2.40186667,9.1402 3.2492,9.98153333 C4.9992,11.7242 7.81453333,11.7555333 9.5992,10.0562 C10.1332,9.47286667 10.4578667,8.73086667 10.5285333,7.94686667 L6.45786667,7.94686667 L6.45786667,6.2082 L12.2212,6.2082 C12.2778667,6.5582 12.2985333,6.9142 12.2892,7.26753333 C12.3592,8.74886667 11.8225333,10.1968667 10.8012,11.2715333 C9.66653333,12.4548667 8.07986667,13.0975333 6.44053333,13.0415333 Z" id="Fill-11" fill="#5F6368" mask="url(#mask-6)"/>
                            </g>
                            <path d="M87.5768,15.8411333 C86.0534667,15.8658 84.5874667,15.2718 83.5161333,14.1911333 C82.4428,13.1131333 81.8554667,11.6431333 81.8921333,10.1204667 C81.8554667,8.60113333 82.4428,7.13113333 83.5161333,6.0498 C84.5874667,4.97246667 86.0534667,4.37513333 87.5768,4.40313333 C89.1208,4.3538 90.6008,5.01446667 91.6008,6.19513333 L90.6221333,7.14246667 C89.8908,6.22313333 88.7594667,5.7038 87.5834667,5.75246667 C86.4521333,5.72846667 85.3641333,6.16313333 84.5628,6.96113333 C83.7321333,7.79513333 83.2861333,8.9438 83.3368,10.1204667 C83.2861333,11.2998 83.7321333,12.4451333 84.5628,13.2831333 C85.3641333,14.0811333 86.4521333,14.5164667 87.5834667,14.4918 C88.8981333,14.5051333 90.1461333,13.9231333 90.9754667,12.9051333 L91.9514667,13.8804667 C91.4421333,14.4918 90.7988,14.9831333 90.0741333,15.3111333 C89.2901333,15.6711333 88.4388,15.8551333 87.5768,15.8411333" id="Fill-14" fill="#5F6368"/>
                            <polygon id="Fill-16" fill="#5F6368" points="93.1733333 15.5967333 94.576 15.5967333 94.576 4.6394 93.1733333 4.6394"/>
                            <path d="M97.9153333,13.8196667 C98.8486667,14.8056667 100.421333,14.8056667 101.353333,13.8196667 C101.852,13.2863333 102.113333,12.5796667 102.082,11.8523333 C102.113333,11.1236667 101.852,10.417 101.353333,9.88366667 C100.421333,8.89766667 98.8486667,8.89766667 97.9153333,9.88366667 C97.4206667,10.417 97.1593333,11.1236667 97.1913333,11.8523333 C97.1626667,12.5763333 97.424,13.283 97.9226667,13.813 L97.9153333,13.8196667 Z M96.87,9.00366667 C98.4026667,7.48166667 100.876667,7.48166667 102.406667,9.00366667 C103.134667,9.771 103.523333,10.7956667 103.490667,11.8523333 C103.523333,12.909 103.134667,13.9323333 102.406667,14.6996667 C100.876667,16.223 98.4026667,16.223 96.87,14.6996667 C96.1453333,13.9323333 95.754,12.909 95.7853333,11.8523333 C95.754,10.7956667 96.1453333,9.771 96.87,9.00366667 Z" id="Fill-18" fill="#5F6368"/>
                            <path d="M111.276067,15.597 L109.9194,15.597 L109.9194,14.5583333 L109.876733,14.5583333 C109.636067,14.9536667 109.292733,15.2763333 108.886733,15.495 C108.4634,15.739 107.982733,15.869 107.494733,15.869 C106.692733,15.9223333 105.908067,15.6083333 105.364733,15.015 C104.8514,14.3636667 104.594067,13.5483333 104.640067,12.7216667 L104.640067,8.10633333 L106.042733,8.10633333 L106.042733,12.463 C106.042733,13.859 106.660733,14.5583333 107.894733,14.5583333 C108.452733,14.5756667 108.982733,14.3216667 109.322067,13.8803333 C109.6854,13.417 109.876733,12.8443333 109.870067,12.2583333 L109.870067,8.10633333 L111.276067,8.10633333 L111.276067,15.597 Z" id="Fill-19" fill="#5F6368"/>
                            <path d="M116.2754,14.5586 C116.9154,14.5692667 117.530067,14.3006 117.964733,13.8266 C118.442067,13.2832667 118.6854,12.5726 118.6434,11.8519333 C118.6854,11.1312667 118.442067,10.4212667 117.964733,9.8766 C117.0534,8.87726667 115.480733,8.87726667 114.572067,9.8766 C114.092067,10.4172667 113.848067,11.1239333 113.894067,11.8446 C113.848067,12.5659333 114.092067,13.2719333 114.572067,13.8132667 C115.004067,14.2972667 115.6254,14.5692667 116.2754,14.5586 M116.042067,15.8412667 C115.078067,15.8452667 114.162733,15.4246 113.534067,14.6926 C112.8314,13.9186 112.4534,12.8979333 112.4814,11.8519333 C112.4534,10.8019333 112.8314,9.7846 113.534067,9.00726667 C114.162733,8.27926667 115.078067,7.85993333 116.042067,7.86193333 C116.576067,7.85593333 117.106067,7.9786 117.576067,8.2306 C117.9934,8.43793333 118.342733,8.75326667 118.594733,9.14526667 L118.6534,9.14526667 L118.594733,8.1066 L118.594733,4.63993333 L120.000067,4.63993333 L120.000067,15.5972667 L118.6434,15.5972667 L118.6434,14.5586 L118.580067,14.5586 C118.328733,14.9506 117.9794,15.2652667 117.562067,15.4739333 C117.0954,15.7206 116.572067,15.8492667 116.042067,15.8412667" id="Fill-20" fill="#5F6368"/>
                        </g>
                    </g>
                </g>
            </g>
        </g>
    </g>
</svg>