<?xml version="1.0" encoding="UTF-8"?>
<svg width="100px" height="29px" viewBox="0 0 100 29" version="1.1" xmlns="http://www.w3.org/2000/svg" xmlns:xlink="http://www.w3.org/1999/xlink">
    <!-- Generator: Sketch 50.2 (55047) - http://www.bohemiancoding.com/sketch -->
    <title>microsoft-azure-2</title>
    <desc>Created with Sketch.</desc>
    <defs/>
    <g id="Page-1" stroke="none" stroke-width="1" fill="none" fill-rule="evenodd">
        <g id="Homepage-Desktop-HD---Export" transform="translate(-82.000000, -725.000000)" fill-rule="nonzero">
            <g id="Masthead" transform="translate(0.000000, -5.000000)">
                <g id="Supports" transform="translate(79.000000, 616.000000)">
                    <g id="logos" transform="translate(0.000000, 64.000000)">
                        <g id="microsoft-azure-2" transform="translate(3.000000, 50.000000)">
                            <path d="M0.0871323545,3.97902019 L11.6874666,2.38446152 L11.6874666,13.5784129 L0.0882003778,13.5784129 L0.0871323545,3.97902019 Z M11.6874666,15.0108991 L11.6874666,26.0782897 L0.0887343894,24.4861341 L0.0884673836,15.0114331 L11.6877336,15.0114331 L11.6877336,15.0108991 L11.6874666,15.0108991 Z M12.9701625,2.2085047 L28.4057681,0.0866095604 L28.4057681,13.5784129 L12.9701625,13.5784129 L12.9701625,2.2085047 Z M28.4057681,15.0108991 L28.4057681,28.3742726 L12.9701625,26.2539795 L12.9701625,15.0108991 L28.4057681,15.0108991 Z" id="Shape" fill="#0DADEA"/>
                            <g id="Group" transform="translate(34.059069, 1.518039)" fill="#00ADEF">
                                <path d="M12.4333416,11.2899134 L10.6832012,11.2899134 L10.6832012,4.52304052 C10.6832012,3.96835595 10.7178799,3.29098903 10.7870629,2.48815152 L10.7577865,2.48815152 C10.6485225,2.94507358 10.5521541,3.27303977 10.4685071,3.47309565 L7.29479817,11.2899134 L6.07860477,11.2899134 L2.89722824,3.53164859 C2.80835324,3.30336182 2.71425029,2.95552947 2.61561647,2.48902284 L2.58634,2.48902284 C2.62624662,2.90725814 2.64576426,3.59002727 2.64576426,4.53785302 L2.64576426,11.2899134 L1.01412379,11.2899134 L1.01412379,0.833333839 L3.49826722,0.833333839 L6.29399595,7.79730014 C6.50642463,8.33194427 6.64496507,8.73101045 6.70892022,8.99310458 L6.74586434,8.99310458 C6.92884228,8.44364795 7.07696729,8.03499721 7.19076214,7.76767514 L10.038596,0.833333839 L12.4338644,0.833333839 L12.4331674,11.2899134 L12.4333416,11.2899134 Z M15.7185799,2.25498534 C15.4369682,2.25498534 15.195263,2.16541327 14.9957299,1.98539783 C14.7953255,1.80555665 14.6952976,1.57674709 14.6952976,1.29984046 C14.6952976,1.02293384 14.7953255,0.791858838 14.9957299,0.606789717 C15.1961343,0.422417655 15.4369682,0.32970883 15.7185799,0.32970883 C16.0099505,0.32970883 16.257755,0.422417655 16.4602505,0.606789717 C16.6627461,0.791858838 16.7645167,1.02206252 16.7645167,1.29984046 C16.7645167,1.56193459 16.6627461,1.78708459 16.4602505,1.97424489 C16.2568836,2.16175372 16.0099505,2.25498534 15.7185799,2.25498534 Z M16.5709086,11.2899134 L14.8510902,11.2899134 L14.8510902,3.82267066 L16.5710829,3.82267066 L16.5710829,11.2899134 L16.5709086,11.2899134 Z M24.2612102,10.9471348 C23.6535492,11.2921789 22.9336617,11.4647009 22.1031161,11.4647009 C20.975972,11.4647009 20.0663102,11.1182627 19.3741307,10.425909 C18.6822999,9.73355532 18.3358616,8.83539501 18.3358616,7.73142808 C18.3358616,6.50146777 18.7079168,5.51373539 19.4518528,4.76718538 C20.1959631,4.0209839 21.1904918,3.64770889 22.4366587,3.64770889 C23.1286639,3.64770889 23.7392874,3.76690595 24.2680066,4.00547434 L24.2680066,5.58030451 C23.7385904,5.19169421 23.1753668,4.99686627 22.5776389,4.99686627 C21.8509551,4.99686627 21.2553183,5.23909421 20.7907286,5.72250452 C20.3261389,6.20608908 20.0933212,6.83919277 20.0933212,7.62181558 C20.0933212,8.39485383 20.3116749,9.00495458 20.7492536,9.45211782 C21.186658,9.89945533 21.7739301,10.1230369 22.510547,10.1230369 C23.1286639,10.1230369 23.7114051,9.90694871 24.2603389,9.4744237 L24.2612102,10.9471348 Z M30.3784243,5.43444495 C30.1705265,5.27377289 29.8716626,5.19395965 29.4809611,5.19395965 C28.9717596,5.19395965 28.5463794,5.41963245 28.2053434,5.87202364 C27.8641331,6.32371776 27.6933537,6.93904645 27.6933537,7.71661558 L27.6933537,11.2899134 L25.972664,11.2899134 L25.972664,3.82267066 L27.6933537,3.82267066 L27.6933537,5.36125377 L27.7226302,5.36125377 C27.8906213,4.83619421 28.1488816,4.42667214 28.4974111,4.13268758 C28.8459405,3.83887728 29.2354221,3.69144933 29.6653331,3.69144933 C29.9770927,3.69144933 30.214267,3.73815227 30.3777273,3.82998978 L30.3784243,5.43444495 Z M34.9760501,11.4647009 C33.8044685,11.4647009 32.8691898,11.1159973 32.1689942,10.4184156 C31.4694957,9.72100827 31.1193979,8.79601119 31.1193979,7.64412146 C31.1193979,6.38958982 31.4837854,5.41004789 32.2134317,4.70514714 C32.9430781,4.0002464 33.9248854,3.64770889 35.1612935,3.64770889 C36.3480362,3.64770889 37.2719877,3.99066184 37.9345421,4.6762192 C38.5972708,5.36195083 38.927851,6.31186776 38.927851,7.52701558 C38.927851,8.71846339 38.5709568,9.67221415 37.8562973,10.3887906 C37.142509,11.1064127 36.1824847,11.4647009 34.9760501,11.4647009 Z M35.0574318,4.99686627 C34.3851185,4.99686627 33.8534369,5.22794127 33.4634325,5.68921996 C33.0725567,6.1511957 32.8775545,6.78795895 32.8775545,7.5995097 C32.8775545,8.38213251 33.0755192,8.99833252 33.4709259,9.4477612 C33.8661582,9.89718989 34.3955744,10.1221656 35.0581288,10.1221656 C35.7360185,10.1221656 36.2561987,9.90084945 36.6191921,9.45891414 C36.9820112,9.01610752 37.1642921,8.38666339 37.1642921,7.5698847 C37.1642921,6.74874939 36.9828825,6.11425158 36.6191921,5.66691407 C36.2555016,5.22044789 35.7351472,4.99686627 35.0574318,4.99686627 Z M40.2116591,11.0567473 L40.2116591,9.4892362 C40.8546958,9.97055533 41.5639532,10.2110406 42.3394312,10.2110406 C43.3780488,10.2110406 43.8966606,9.90973695 43.8966606,9.30695532 C43.8966606,9.1366987 43.8523974,8.99240752 43.7635224,8.87303619 C43.6746474,8.75383913 43.5549275,8.64806045 43.4034915,8.55622295 C43.2520554,8.46438545 43.0744797,8.38143545 42.8697187,8.30824427 C42.6640863,8.23487883 42.4357995,8.15262588 42.1836385,8.06009132 C41.8951611,7.94922776 41.6140273,7.82012742 41.34194,7.6735722 C41.0918701,7.5372972 40.8848436,7.38342146 40.7191179,7.2108994 C40.5559245,7.04249499 40.4286361,6.84269894 40.3449716,6.62362733 C40.2606275,6.40527365 40.2191524,6.14962732 40.2191524,5.85808246 C40.2191524,5.49822584 40.305762,5.18123833 40.4788069,4.90659715 C40.6522003,4.6317817 40.8839723,4.40088096 41.1755172,4.21424346 C41.4675848,4.0269089 41.798165,3.88627728 42.1693488,3.79147728 C42.5449023,3.69606886 42.9309684,3.64829363 43.3184503,3.64927727 C44.0202143,3.64927727 44.64809,3.75366183 45.201729,3.96243095 L45.201729,5.44263539 C44.6677819,5.08277877 44.054893,4.90276332 43.3628878,4.90276332 C43.1452312,4.90276332 42.9486606,4.92506921 42.7733503,4.96793833 C42.5978657,5.01167877 42.4479981,5.07249715 42.3244444,5.15021921 C42.201065,5.22794127 42.1046966,5.32117289 42.0353392,5.43078539 C41.966585,5.53846396 41.9305094,5.66376014 41.9314775,5.79151334 C41.9314775,5.95201114 41.9661562,6.08828614 42.0353392,6.20016408 C42.1046966,6.31186776 42.20699,6.41032732 42.343265,6.49554277 C42.4788429,6.58075821 42.6423032,6.65848027 42.8327746,6.72870895 C43.0232459,6.79911189 43.2415996,6.87613689 43.489404,6.95838983 C43.7888111,7.07739156 44.0820604,7.21133707 44.3680466,7.35972146 C44.6278753,7.4958222 44.8491915,7.6498722 45.0321694,7.82239426 C45.2123681,7.99085813 45.3561314,8.19446345 45.4545871,8.42064501 C45.5533952,8.64649207 45.6030606,8.91538252 45.6030606,9.22627076 C45.6030606,9.60547076 45.5141856,9.93552812 45.3357386,10.217837 C45.1579886,10.4999715 44.9201172,10.7331377 44.6242158,10.9175098 C44.327443,11.1025789 43.9848385,11.2395509 43.5970996,11.329123 C43.2084893,11.4195664 42.7996643,11.4640039 42.3697532,11.4640039 C41.5385106,11.4647009 40.8193201,11.329123 40.2116591,11.0567473 Z M50.6081173,11.4647009 C49.4365357,11.4647009 48.50056,11.1159973 47.8008871,10.4184156 C47.1013886,9.72100827 46.7519879,8.79601119 46.7519879,7.64412146 C46.7519879,6.38958982 47.1165496,5.41004789 47.846196,4.70514714 C48.574971,4.0002464 49.5576497,3.64770889 50.7933607,3.64770889 C51.9801034,3.64770889 52.9038806,3.99066184 53.5666093,4.6762192 C54.2291637,5.36195083 54.5604409,6.31186776 54.5604409,7.52701558 C54.5604409,8.71846339 54.2035468,9.67221415 53.4890615,10.3887906 C52.7745762,11.1064127 51.8136806,11.4647009 50.6081173,11.4647009 Z M50.689499,4.99686627 C50.0170115,4.99686627 49.4853298,5.22794127 49.0946283,5.68921996 C48.7037526,6.1511957 48.5087504,6.78795895 48.5087504,7.5995097 C48.5087504,8.38213251 48.7068894,8.99833252 49.1021217,9.4477612 C49.4975284,9.89718989 50.0267703,10.1221656 50.689499,10.1221656 C51.3663431,10.1221656 51.8866975,9.90084945 52.250388,9.45891414 C52.6140784,9.01610752 52.795488,8.38666339 52.795488,7.5698847 C52.795488,6.74874939 52.6140784,6.11425158 52.250388,5.66691407 C51.8866975,5.22044789 51.3663431,4.99686627 50.689499,4.99686627 Z M60.6114344,1.61369121 C60.3796624,1.48264414 60.1146058,1.41677208 59.817833,1.41677208 C58.9820594,1.41677208 58.5648697,1.88101327 58.5648697,2.80949564 L58.5648697,3.82319345 L60.3298227,3.82319345 L60.3298227,5.15021921 L58.5723631,5.15021921 L58.5723631,11.2899134 L56.8518476,11.2899134 L56.8518476,5.15021921 L55.5544468,5.15021921 L55.5544468,3.82319345 L56.8518476,3.82319345 L56.8518476,2.61257652 C56.8518476,1.82490003 57.1139417,1.2043434 57.6379557,0.749686778 C58.1619697,0.294855888 58.817205,0.0676147071 59.6033131,0.0676147071 C60.0286933,0.0676147071 60.3645013,0.11362059 60.6114344,0.206155151 L60.6114344,1.61369121 Z M65.5722279,11.2099259 C65.2364198,11.3751289 64.7936132,11.4580789 64.2446794,11.4580789 C62.771794,11.4580789 62.0353514,10.7627627 62.0353514,9.37300164 L62.0353514,5.15091627 L60.7674014,5.15091627 L60.7674014,3.82406478 L62.0353514,3.82406478 L62.0353514,2.09570739 L63.7560411,1.61456253 L63.7560411,3.82406478 L65.572925,3.82406478 L65.572925,5.15091627 L63.7560411,5.15091627 L63.7560411,8.88401487 C63.7560411,9.32612443 63.8372485,9.64224062 64.0007088,9.83184062 C64.1641691,10.0214406 64.4358477,10.1162406 64.8162676,10.1162406 C65.1076382,10.1162406 65.3599735,10.0339877 65.5722279,9.86808768 L65.5722279,11.2099259 Z M10.3283014,25.060698 L8.39309182,25.060698 L7.4367271,22.3988046 L3.25472261,22.3988046 L2.335302,25.060698 L0.406888733,25.060698 L4.38866307,14.6041184 L6.37580355,14.6041184 L10.3281271,25.060698 L10.3283014,25.060698 Z M6.96917488,20.9846465 L5.49402412,16.8136206 C5.44958662,16.6773456 5.40218662,16.458992 5.35321823,16.157514 L5.32394176,16.157514 C5.27950426,16.4345949 5.22983882,16.6536456 5.17546823,16.8136206 L3.71478144,20.9846465 L6.96917488,20.9846465 Z M17.2096662,18.3011442 L13.1090434,23.7404686 L17.1946795,23.7404686 L17.1946795,25.060698 L10.6986139,25.060698 L10.6986139,24.4262002 L14.8882861,18.9135104 L11.0992485,18.9135104 L11.0992485,17.593281 L17.2096662,17.593281 L17.2096662,18.3011442 Z M25.2847443,25.060698 L23.5649259,25.060698 L23.5649259,23.879009 L23.5356494,23.879009 C23.0363811,24.7830943 22.2600318,25.2354855 21.2074729,25.2354855 C19.412895,25.2354855 18.5154317,24.1759561 18.5154317,22.0560259 L18.5154317,17.593281 L20.2359472,17.593281 L20.2359472,21.8812384 C20.2359472,23.2230766 20.7622266,23.8938215 21.815831,23.8938215 C22.324684,23.8938215 22.7434421,23.7094495 23.0724539,23.3400083 C23.4014656,22.9705671 23.565623,22.4869825 23.565623,21.8887318 L23.565623,17.593281 L25.2863127,17.593281 L25.2847443,25.060698 Z M31.9366025,19.2052295 C31.728879,19.0445575 31.4298408,18.9647442 31.0391393,18.9647442 C30.5301121,18.9647442 30.1045577,19.190417 29.7635216,19.6428082 C29.4224856,20.0945023 29.2515319,20.709831 29.2515319,21.4874001 L29.2515319,25.060698 L27.5315392,25.060698 L27.5315392,17.5934552 L29.2515319,17.5934552 L29.2515319,19.1320383 L29.2808084,19.1320383 C29.4487996,18.6069788 29.7070599,18.1974567 30.0555893,17.9034721 C30.404293,17.6096618 30.7936003,17.4622339 31.2235114,17.4622339 C31.5345739,17.4622339 31.7724452,17.5089368 31.9350342,17.6007743 L31.9367768,19.2052295 L31.9366025,19.2052295 Z M39.5967564,21.7864384 L34.4205717,21.7864384 C34.4400894,22.4765266 34.6561776,23.0089053 35.0695335,23.3835744 C35.4821923,23.7575465 36.0492497,23.9448811 36.7714026,23.9448811 C37.5822563,23.9448811 38.3261924,23.706487 39.0032108,23.2303958 L39.0032108,24.5934943 C38.3113799,25.0214884 37.3964901,25.2354855 36.2594129,25.2354855 C35.1418533,25.2354855 34.2661732,24.8963664 33.6306298,24.2181281 C32.9950864,23.5398899 32.6780989,22.5861391 32.6780989,21.3563531 C32.6780989,20.1945303 33.0274996,19.2474016 33.7278695,18.5158383 C34.427368,17.7842751 35.2962519,17.4184935 36.3346953,17.4184935 C37.3729644,17.4184935 38.1756277,17.7466339 38.7442534,18.4025663 C39.3127049,19.0586729 39.5972792,19.9700773 39.5972792,21.1371281 L39.5965821,21.7864384 L39.5967564,21.7864384 Z M37.9356652,20.590634 C37.9281718,19.9827986 37.7851004,19.5101928 37.4982607,19.172642 C37.2112468,18.8350913 36.8160144,18.6662288 36.3115181,18.6662288 C35.8174776,18.6662288 35.3980225,18.8439788 35.054721,19.1986075 C34.7114195,19.5532361 34.4998621,20.0176516 34.420746,20.591331 L37.9356652,20.591331 L37.9356652,20.590634 Z" id="Shape"/>
                            </g>
                        </g>
                    </g>
                </g>
            </g>
        </g>
    </g>
</svg>