<?xml version="1.0" encoding="UTF-8"?>
<svg width="105px" height="19px" viewBox="0 0 105 19" version="1.1" xmlns="http://www.w3.org/2000/svg" xmlns:xlink="http://www.w3.org/1999/xlink">
    <!-- Generator: Sketch 50.2 (55047) - http://www.bohemiancoding.com/sketch -->
    <title>OpenStack-Logo-Horizontal</title>
    <desc>Created with Sketch.</desc>
    <defs/>
    <g id="Page-1" stroke="none" stroke-width="1" fill="none" fill-rule="evenodd">
        <g id="Homepage-Desktop-HD---Export" transform="translate(-317.000000, -676.000000)" fill-rule="nonzero">
            <g id="Masthead" transform="translate(0.000000, -5.000000)">
                <g id="Supports" transform="translate(79.000000, 616.000000)">
                    <g id="logos" transform="translate(0.000000, 64.000000)">
                        <g id="OpenStack-Logo-Horizontal" transform="translate(238.000000, 1.000000)">
                            <path d="M17.2758836,-2.7771737e-15 L1.77692308,-2.7771737e-15 C0.800168192,0.00239990001 0.00894875656,0.793619335 0.00654885655,1.77037422 L0.00654885655,5.93981289 L4.30696466,5.93981289 L4.30696466,5.25873181 C4.30816504,4.7299665 4.73651536,4.30161618 5.26528067,4.3004158 L13.7940748,4.3004158 C14.3224855,4.30161947 14.7502093,4.73031982 14.7502079,5.25873181 L14.7502079,5.93981289 L19.0528067,5.93981289 L19.0528067,1.77037422 C19.0503983,0.791065043 18.255195,-0.00120752741 17.2758836,-2.7771737e-15 Z" id="Shape" fill="#ED1944"/>
                            <path d="M14.743659,13.3814969 C14.7436604,13.9099089 14.3159366,14.3386092 13.787526,14.3398129 L5.25873181,14.3398129 C4.7299665,14.3386125 4.30161618,13.9102622 4.3004158,13.3814969 L4.3004158,12.7004158 L0,12.7004158 L0,16.8698545 C0.00239990001,17.8466094 0.793619335,18.6378288 1.77037422,18.6402287 L17.2693347,18.6402287 C18.2460896,18.6378288 19.037309,17.8466094 19.0397089,16.8698545 L19.0397089,12.7004158 L14.743659,12.7004158 L14.743659,13.3814969 Z" id="Shape" fill="#ED1944"/>
                            <rect id="Rectangle-path" fill="#ED1944" x="0" y="7.16881497" width="4.3004158" height="4.3004158"/>
                            <rect id="Rectangle-path" fill="#ED1944" x="14.745842" y="7.16881497" width="4.3004158" height="4.3004158"/>
                            <path d="M104.917048,12.9339917 C104.917931,12.4435739 104.623073,12.0009957 104.170154,11.8129129 C103.717236,11.6248301 103.195603,11.7283454 102.848824,12.0751236 C102.502046,12.4219019 102.398531,12.9435351 102.586613,13.3964537 C102.774696,13.8493722 103.217275,14.14423 103.707692,14.1433472 C104.375103,14.1421457 104.915846,13.601402 104.917048,12.9339917 Z M103.707692,13.8464657 C103.337352,13.8473485 103.003028,13.6248237 102.860897,13.2828423 C102.718766,12.940861 102.796881,12.5469219 103.058752,12.2850512 C103.320622,12.0231805 103.714562,11.9450652 104.056543,12.0871963 C104.398524,12.2293274 104.621049,12.5636517 104.620166,12.9339917 C104.620166,13.4379372 104.211638,13.8464657 103.707692,13.8464657 Z" id="Shape" fill="#4E4540"/>
                            <path d="M104.161746,12.7135135 C104.166135,12.6121316 104.130006,12.5131695 104.061331,12.4384615 C103.97359,12.3582062 103.856911,12.3172107 103.738254,12.324948 L103.301663,12.324948 L103.301663,13.5102911 L103.548337,13.5102911 L103.548337,13.1217256 L103.701143,13.1217256 L103.919439,13.5102911 L104.20104,13.5102911 L103.95,13.0737006 C104.089661,13.0105106 104.174453,12.8662775 104.161746,12.7135135 Z M103.91289,12.7135135 C103.915926,12.764219 103.896164,12.813632 103.859002,12.8482612 C103.821839,12.8828903 103.771155,12.8991187 103.72079,12.8925156 L103.539605,12.8925156 L103.539605,12.5345114 L103.714241,12.5345114 C103.840852,12.5345114 103.91289,12.5934511 103.91289,12.7113306 L103.91289,12.7135135 Z" id="Shape" fill="#4E4540"/>
                            <path d="M32.2443867,9.40197505 L32.2443867,9.23825364 C32.2443867,6.37640333 30.3670478,4.29823285 27.8129938,4.29823285 C25.2589397,4.29823285 23.3466736,6.41133056 23.3466736,9.25571726 L23.3466736,9.42162162 C23.3466736,12.2834719 25.2240125,14.3441788 27.7780665,14.3441788 C30.3321206,14.3441788 32.2443867,12.2463617 32.2443867,9.40197505 Z M25.4073805,9.37141372 L25.4073805,9.26008316 C25.4073805,7.4547817 26.3373181,6.12536383 27.7780665,6.12536383 C29.1817048,6.12536383 30.1793139,7.47442827 30.1793139,9.27972973 L30.1793139,9.38887734 C30.1793139,11.1941788 29.2493763,12.5432432 27.8086279,12.5432432 C26.4093555,12.5388773 25.4073805,11.1701663 25.4073805,9.37141372 Z" id="Shape" fill="#4E4540"/>
                            <path d="M42.0523909,9.43908524 L42.0523909,9.18367983 C42.0523909,5.92016632 40.2296258,4.29823285 38.2955301,4.29823285 C36.9115385,4.29823285 36.0711019,5.0993763 35.47079,6.02931393 L35.47079,4.47941788 L33.4100832,4.47941788 L33.4100832,16.8960499 L35.47079,16.8960499 L35.47079,12.6851351 C36.0536383,13.5408524 36.8918919,14.3245322 38.2955301,14.3245322 C40.2470894,14.3245322 42.0523909,12.6851351 42.0523909,9.43908524 Z M35.4336798,9.40197505 L35.4336798,9.22079002 C35.4336798,7.32380457 36.4902287,6.12099792 37.7301455,6.12099792 C38.9700624,6.12099792 39.9742204,7.30634096 39.9742204,9.23825364 L39.9742204,9.40197505 C39.9742204,11.3360707 38.9897089,12.5017672 37.7301455,12.5017672 C36.4705821,12.5017672 35.4336798,11.2989605 35.4336798,9.40197505 Z" id="Shape" fill="#4E4540"/>
                            <path d="M50.9784823,12.8488565 L49.9044699,11.5718295 C49.2648649,12.1917879 48.5946985,12.5934511 47.6800416,12.5934511 C46.4204782,12.5934511 45.4185031,11.7202703 45.2351351,10.0961538 L51.2884615,10.0961538 C51.3081081,9.80363825 51.3081081,9.51112266 51.3081081,9.38451143 C51.3081081,6.48555094 49.9219335,4.29823285 47.295842,4.29823285 C44.9251559,4.29823285 43.1766112,6.37640333 43.1766112,9.27536383 L43.1766112,9.42162162 C43.1766112,12.4471933 45.1085239,14.3441788 47.5883576,14.3441788 C48.8823134,14.363591 50.1203473,13.8175168 50.9784823,12.8488565 Z M47.295842,6.02931393 C48.4986486,6.02931393 49.1928274,7.14261954 49.3019751,8.67286902 L45.2176715,8.67286902 C45.3551975,7.03128898 46.1650728,6.02931393 47.295842,6.02931393 Z" id="Shape" fill="#4E4540"/>
                            <path d="M57.3614345,4.29823285 C56.0516632,4.29823285 55.2658004,5.04480249 54.7178794,5.9027027 L54.7178794,4.47941788 L52.6571726,4.47941788 L52.6571726,14.1433472 L54.7178794,14.1433472 L54.7178794,8.29085239 C54.7178794,6.95925156 55.4644491,6.15810811 56.5406445,6.15810811 C57.6168399,6.15810811 58.2739085,6.90467775 58.2739085,8.2537422 L58.2739085,14.1477131 L60.3324324,14.1477131 L60.3324324,7.67089397 C60.3280665,5.61018711 59.2169439,4.29823285 57.3614345,4.29823285 Z" id="Shape" fill="#4E4540"/>
                            <path d="M68.6341996,11.3906445 L68.6341996,11.3709979 C68.6341996,9.85821206 67.5034304,9.16621622 66.014657,8.49168399 C64.8838877,7.98087318 64.1198545,7.6512474 64.1198545,7.01382536 L64.1198545,6.97016632 C64.1198545,6.44189189 64.5739085,6.02276507 65.3401247,6.02276507 C66.106341,6.02276507 66.9074844,6.38731809 67.6365904,6.88066528 L68.5097713,5.36569647 C67.5953644,4.70759822 66.5015043,4.34500949 65.375052,4.32661123 C63.5697505,4.32661123 62.1835759,5.41808732 62.1835759,7.1535343 L62.1835759,7.18846154 C62.1835759,8.77328482 63.3863825,9.43035343 64.827131,10.0503119 C65.9753638,10.5414761 66.7241164,10.8514553 66.7241164,11.5456341 L66.7241164,11.5630977 C66.7241164,12.1655925 66.2307692,12.6218295 65.375052,12.6218295 C64.5193347,12.6218295 63.5872141,12.2005198 62.7118503,11.4910603 L61.7469854,12.966736 C62.7521485,13.8178135 64.0210391,14.2945153 65.3379418,14.3158004 C67.1847193,14.3245322 68.6341996,13.285447 68.6341996,11.3906445 Z" id="Shape" fill="#4E4540"/>
                            <path d="M75.0127859,13.8704782 L75.0127859,12.1743243 C74.6707274,12.3559021 74.2889207,12.449666 73.9016632,12.4471933 C73.2467775,12.4471933 72.862578,12.1372141 72.862578,11.3906445 L72.862578,6.24760915 L75.0433472,6.24760915 L75.0433472,4.47941788 L72.860395,4.47941788 L72.860395,1.87297297 L70.7996881,1.87297297 L70.7996881,4.47941788 L69.7409563,4.47941788 L70.0814969,6.24760915 L70.7996881,6.24760915 L70.7996881,11.8097713 C70.7996881,13.6871102 71.8758836,14.289605 73.2969854,14.289605 C73.8952503,14.2980374 74.4857855,14.1537845 75.0127859,13.8704782 Z" id="Shape" fill="#4E4540"/>
                            <path d="M82.9019751,5.3547817 C82.2820166,4.71735967 81.3149688,4.37027027 80.0641372,4.37027027 C78.9540293,4.36405896 77.8589514,4.62696753 76.8726611,5.13648649 L77.4555094,6.77806653 C78.1805235,6.41285981 78.9775306,6.21304887 79.7890852,6.19303534 C81.0988565,6.19303534 81.8672557,6.86756757 81.8672557,8.15769231 L81.8672557,8.55935551 C81.1533299,8.30479792 80.4007763,8.17555661 79.6428274,8.17733888 C77.6017672,8.17733888 76.2155925,9.19677755 76.2155925,11.274948 L76.2155925,11.366632 C76.2155925,13.2461538 77.564657,14.3201663 79.1691268,14.3201663 C80.2398902,14.3635012 81.2558209,13.8456082 81.8497921,12.9536383 L81.8497921,14.1389813 L83.8733888,14.1389813 L83.8733888,8.14459459 C83.8733888,6.94178794 83.5568607,5.99220374 82.9019751,5.3547817 Z M81.8869023,10.8994802 C81.8869023,11.9909563 80.9744283,12.7964657 79.7890852,12.7768191 C78.8962578,12.7593555 78.2217256,12.2114345 78.2217256,11.2487526 L78.2217256,11.2116424 C78.2217256,10.1900208 78.9137214,9.58970894 80.0990644,9.58970894 C80.7118274,9.58669784 81.3192338,9.70387759 81.8869023,9.93461538 L81.8869023,10.8994802 Z" id="Shape" fill="#4E4540"/>
                            <path d="M92.6313929,12.8837838 L91.5202703,11.5172557 C90.9548857,12.0826403 90.389501,12.5017672 89.5556133,12.5017672 C88.1497921,12.5017672 87.1543659,11.2443867 87.1543659,9.36704782 L87.1543659,9.27536383 C87.1543659,7.4504158 88.1388773,6.15810811 89.4901247,6.15810811 C90.3633056,6.15810811 90.9286902,6.59469854 91.439501,7.12297297 L92.5877339,5.61018711 C91.7920354,4.74782979 90.6631125,4.27048399 89.4901247,4.3004158 C86.9557173,4.3004158 85.0761954,6.37858628 85.0761954,9.25790021 L85.0761954,9.44126819 C85.0761954,12.3227651 86.9011435,14.3463617 89.4159044,14.3463617 C90.6553613,14.377988 91.8407239,13.8388211 92.6313929,12.8837838 Z" id="Shape" fill="#4E4540"/>
                            <polygon id="Shape" fill="#4E4540" points="98.9379418 9.12692308 97.4906445 10.681185 99.431289 14.1433472 101.819439 14.1433472"/>
                            <polygon id="Shape" fill="#4E4540" points="99.2850312 4.47941788 95.9844075 8.72744283 95.9844075 0.977962578 93.9258836 0.977962578 93.9258836 14.1433472 95.9844075 14.1433472 95.9844075 11.3535343 101.727755 4.47941788"/>
                        </g>
                    </g>
                </g>
            </g>
        </g>
    </g>
</svg>