<?xml version="1.0" encoding="UTF-8"?>
<svg width="87px" height="14px" viewBox="0 0 87 14" version="1.1" xmlns="http://www.w3.org/2000/svg" xmlns:xlink="http://www.w3.org/1999/xlink">
    <!-- Generator: Sketch 50.2 (55047) - http://www.bohemiancoding.com/sketch -->
    <title>VM Ware</title>
    <desc>Created with Sketch.</desc>
    <defs/>
    <g id="Page-1" stroke="none" stroke-width="1" fill="none" fill-rule="evenodd">
        <g id="Homepage-Desktop-HD---Export" transform="translate(-79.000000, -679.000000)" fill="#737276">
            <g id="Masthead" transform="translate(0.000000, -5.000000)">
                <g id="Supports" transform="translate(79.000000, 616.000000)">
                    <g id="logos" transform="translate(0.000000, 64.000000)">
                        <path d="M6.68940975,12.7016143 C7.34210641,11.1666709 7.95884944,9.71054892 8.57974096,8.25580975 C8.83556487,7.65566071 9.08170894,7.05136316 9.35827533,6.46089394 C10.7010051,3.57492375 14.2341406,3.31633419 16.2323327,5.30484647 C16.5946347,5.66576559 16.7633402,5.56896736 17.077243,5.32144045 C18.6191006,4.10731404 20.326898,3.68693314 22.2365889,4.29537918 C22.8574804,4.49312414 23.420293,4.80702698 23.830994,5.30346364 C24.1296857,5.66299993 24.2942427,5.59385834 24.6233567,5.33388594 C26.2813722,4.02296129 28.1329841,3.58598641 30.1201135,4.44057653 C31.7504724,5.14028947 32.6244221,6.45812828 32.6493131,8.24612993 C32.6838839,10.5941785 32.6645242,12.9436099 32.6548444,15.2930413 C32.6506959,16.5887548 31.8209968,17.3672892 30.5584713,17.2884678 C29.6070829,17.2317716 28.9377923,16.4407918 28.9281124,15.304104 C28.9129013,13.3750535 28.9239639,11.4473858 28.9239639,9.51695245 C28.9239639,9.36207528 28.9308781,9.20581527 28.9198155,9.0509381 C28.8465254,8.06636178 28.2256338,7.38877415 27.3088163,7.28921025 C26.2509499,7.17305237 25.4309306,7.66810619 25.1571298,8.58630658 C25.0727771,8.87393561 25.0755428,9.16986164 25.0755428,9.46578767 C25.0741599,11.3782442 25.0796913,13.2920835 25.0727771,15.2059229 C25.0700114,16.2803833 24.5721919,17.0105185 23.7051563,17.2386858 C22.5822968,17.5346118 21.5783609,16.9012748 21.3833816,15.7618213 C21.3391309,15.5018489 21.322537,15.2363452 21.322537,14.9736071 C21.3170056,13.0445566 21.322537,11.1155061 21.3183885,9.18645562 C21.3170056,8.4314294 21.0556504,7.80224089 20.3365778,7.47174406 C19.5884658,7.12741892 18.8486507,7.18411503 18.1779772,7.67916885 C17.6110161,8.09816692 17.4713501,8.71352711 17.4713501,9.3759036 C17.4699673,11.3671815 17.4810299,13.3584595 17.4672016,15.3497374 C17.4589046,16.570778 16.6969642,17.3092102 15.5104945,17.2912334 C14.4553937,17.2746394 13.7446181,16.4670656 13.7390868,15.2474079 C13.7307898,12.9145704 13.7363211,10.5803502 13.7363211,8.24751276 C13.7363211,8.12305789 13.7349383,7.99860302 13.7363211,7.87414815 C13.7390868,7.59205044 13.6132491,7.38600848 13.342214,7.31133556 C13.0407567,7.22698282 12.8278006,7.36803167 12.7033457,7.64183239 C12.3189184,8.47291436 11.9400225,9.306762 11.5583609,10.1392268 C10.7742952,11.848407 9.9985265,13.5589701 9.20339815,15.2612362 C9.03330983,15.6263038 8.83003354,15.9803088 8.59771778,16.3080399 C7.64356376,17.6521525 5.78365485,17.664598 4.78386738,16.3467592 C4.30955604,15.7203364 4.03575532,14.9902011 3.71217266,14.2849569 C2.54921103,11.7599058 1.38624939,9.23623757 0.227436258,6.70980368 C-0.2648519,5.63534329 0.0587307659,4.63555583 1.03639292,4.19443245 C2.05554004,3.73394942 3.05809317,4.17368997 3.52825601,5.28548682 C4.507301,7.60173026 5.48634599,9.91935653 6.46815664,12.2356 C6.52208709,12.3628205 6.58708019,12.4872754 6.68940975,12.7016143 M42.5945019,7.49787959 C42.1188077,8.85582052 41.6444964,10.2109958 41.1688022,11.5647882 C40.6129038,13.1467479 40.059771,14.7287076 39.5024897,16.3106673 C39.2922993,16.9066679 38.9908419,17.1638746 38.4874911,17.1832342 C37.9772261,17.2039767 37.5775877,16.9343245 37.3715458,16.3632149 C36.0813636,12.784446 34.7980956,9.20429416 33.5217417,5.62275952 C33.3087856,5.02675897 33.5203589,4.53723648 34.0264754,4.35055417 C34.5962021,4.14036372 35.1147641,4.39757046 35.3415485,5.04888428 C36.3219764,7.86294721 37.2899587,10.6811586 38.2620895,13.4966044 C38.3284654,13.6860524 38.397607,13.8727347 38.4971709,14.1479182 C38.9687166,12.7913601 39.4084572,11.5233033 39.8495805,10.2552464 C40.4400498,8.55436316 41.0291362,6.85209709 41.6237539,5.15259668 C41.861601,4.47500904 42.0966824,4.29385806 42.6774718,4.30077222 C43.2319874,4.30768638 43.4919598,4.52202533 43.720127,5.18301898 C44.6770467,7.95559695 45.6298179,10.7295577 46.5853548,13.5035185 C46.6503479,13.6929665 46.7208723,13.8810317 46.8190533,14.1451526 C47.3127243,12.7305155 47.78427,11.3877857 48.25305,10.0422903 C48.8310738,8.3870405 49.4090975,6.73179071 49.9843556,5.07515809 C50.1129589,4.70594197 50.2913443,4.38789063 50.7172565,4.31321771 C51.4930252,4.17908301 52.0323296,4.78061489 51.782037,5.53840678 C51.4750484,6.46628698 51.1224262,7.37895604 50.7919294,8.29992209 C49.8460724,10.9273027 48.9015982,13.557449 47.9557412,16.1862124 C47.9294674,16.2595025 47.9045764,16.3327926 47.8727713,16.4033171 C47.6501353,16.9343245 47.2767707,17.1984454 46.7748027,17.1832342 C46.2908116,17.1694059 45.9575491,16.9121992 45.7639526,16.3632149 C45.3131494,15.0744156 44.8706432,13.7814678 44.4239885,12.4912856 C43.8860669,10.9369825 43.3467624,9.38267947 42.8019267,7.82975924 C42.7645902,7.72051552 42.77427,7.57393534 42.5945019,7.49787959 M57.5260442,10.6577888 C56.5788044,10.6757656 55.6066735,10.7670325 54.7617632,11.3533532 C53.4757296,12.243897 53.4204163,14.1245484 54.6608165,15.073171 C55.6163534,15.8046891 56.7198532,15.9111672 57.8551582,15.6912969 C59.3444682,15.402285 60.5323208,14.6956579 60.9955695,13.131675 C61.1435325,12.6310899 61.0577969,12.1097623 61.0882192,11.5994973 C61.1075788,11.2994228 61.0066321,11.1611396 60.7010263,11.0892323 C59.6708165,10.8403226 58.6281612,10.6895939 57.5260442,10.6577888 M61.0633282,15.2017744 C60.1755501,16.2292185 59.181294,16.8902122 57.9533393,17.1349734 C56.0906647,17.5041895 54.3386167,17.2939991 52.912917,15.9194642 C51.1940569,14.2600659 51.579867,11.3312279 53.6361381,10.1005075 C54.5405101,9.55982024 55.5375319,9.3413328 56.5705074,9.27910536 C57.9436595,9.19475262 59.304366,9.31367616 60.6346503,9.67459529 C61.0218433,9.77969051 61.0702424,9.66906396 61.0688596,9.32059032 C61.0591797,7.38185999 59.8989838,6.12624862 57.9602534,5.99626242 C56.7530412,5.917441 55.5748684,6.01423923 54.4492432,6.52588704 C53.9776975,6.74022598 53.4937064,6.52726987 53.3180867,6.09997481 C53.1466156,5.68374241 53.2904301,5.21634523 53.7177251,5.03657708 C55.9261077,4.1100797 58.1787409,3.93584288 60.4189286,4.86787159 C61.920684,5.49567727 62.6300768,6.77203112 62.8153763,8.33739683 C63.0103555,9.97743547 62.8720724,11.6299196 62.899729,13.2768724 C62.9149401,14.2407062 62.9107917,15.2059229 62.899729,16.1697567 C62.8928148,16.7699058 62.587209,17.1391219 62.0893895,17.1944352 C61.5224284,17.2566626 61.0937505,16.8929778 61.0660939,16.3080399 C61.0508827,15.9830744 61.0633282,15.6553433 61.0633282,15.2017744 M77.9349837,10.0447794 L80.7324527,10.0447794 C82.021252,10.0447794 82.021252,10.0447794 81.6658642,8.80437917 C81.0228474,6.56419148 79.0177411,5.36665905 76.9379619,6.00552739 C75.2038907,6.53791768 74.2773933,8.15168251 74.0312493,9.78480699 C73.9828501,10.1028583 74.2151659,10.0433966 74.3907856,10.0433966 C75.5703412,10.0461622 76.7540453,10.0447794 77.9349837,10.0447794 M78.5627894,11.4677134 C77.1785747,11.4677134 75.7943599,11.4773932 74.4101452,11.4607993 C74.0658201,11.4580336 73.9856158,11.5589803 74.0519917,11.8922428 C74.3866371,13.5447269 75.209422,14.8335263 76.8577577,15.3838934 C78.6360795,15.9771283 80.260907,15.56781 81.6796925,14.3509179 C81.9078598,14.1545558 82.1318786,13.9540452 82.4526956,13.9844675 C82.7845752,14.0148898 83.0431648,14.1808296 83.1620883,14.5071779 C83.2865432,14.8528859 83.1883621,15.1501948 82.9325382,15.3991045 C82.0336975,16.2744371 80.9965736,16.9077741 79.7492592,17.1414727 C77.6432062,17.5369626 75.7252183,17.1539182 74.1114535,15.6756709 C73.0411416,14.6952431 72.4243986,13.4520772 72.2114425,12.0249947 C71.8809457,9.80831513 72.3027094,7.76863807 73.8597781,6.08849731 C75.415464,4.41112221 77.373554,3.89394308 79.5611941,4.46090416 C81.7433028,5.02786524 82.9518979,6.59046529 83.5313045,8.69651828 C83.6847988,9.25241671 83.7539404,9.82214345 83.7484091,10.4029329 C83.7401121,11.1704046 83.4538659,11.4649478 82.6698002,11.4663306 C81.3007966,11.4704791 79.931793,11.4677134 78.5627894,11.4677134 M67.0533412,7.21426076 C67.6742327,6.06927594 68.485955,5.24095963 69.5894549,4.7237805 C70.1412048,4.4638081 70.7164629,4.28265712 71.3387373,4.30063394 C71.8586821,4.31584509 72.2071557,4.61591961 72.2597033,5.09991078 C72.3219307,5.65719204 72.0619583,6.05544763 71.5406307,6.18405099 C71.3138463,6.23936427 71.0801477,6.26148958 70.8547461,6.31680286 C68.7611386,6.82291933 67.367244,8.45880948 67.1141858,10.7363336 C66.9136752,12.5340151 67.0671695,14.3386107 67.0243017,16.1390579 C67.0063249,16.8360052 66.5057398,17.27298 65.8751684,17.1346968 C65.3953257,17.0309845 65.1450332,16.7046361 65.1436503,16.1487377 C65.138119,14.7811169 65.1408847,13.4134962 65.1408847,12.0458754 C65.1408847,9.82366457 65.1408847,7.6014537 65.1422675,5.37924282 C65.1422675,4.70580369 65.5073351,4.26606314 66.0563194,4.26191465 C66.6467886,4.25776615 67.0215361,4.69059254 67.0243017,5.38339132 C67.0243017,5.94205541 67.0243017,6.50210233 67.0270674,7.06214925 C67.0270674,7.07597757 67.0312159,7.09257155 67.0533412,7.21426076 M85.4567596,4.5823168 C84.7667265,4.57955113 84.2177422,5.11470708 84.2011482,5.81027153 C84.1831714,6.49339049 84.7860861,7.10875069 85.4595253,7.09768803 C86.1053078,7.08800821 86.7054568,6.47126518 86.6985426,5.82686551 C86.6930113,5.13959806 86.1398786,4.58646529 85.4567596,4.5823168 M87,5.82548268 C87,6.72570625 86.3403892,7.39637972 85.4512283,7.39637972 C84.5606845,7.39776256 83.8886282,6.72570625 83.8913939,5.8351625 C83.8955424,4.94323592 84.57313,4.25596847 85.4470798,4.25873413 C86.3403892,4.2614998 86.9986172,4.92664194 87,5.82548268 M85.7539302,5.54518265 C85.7041482,5.39721964 85.5866075,5.35850035 85.4358788,5.35573468 C85.2837673,5.35435185 85.2104772,5.40966513 85.2118601,5.56730796 C85.2118601,5.73463062 85.3017441,5.77611558 85.4455587,5.76920142 C85.5921388,5.76090443 85.7179765,5.72356797 85.7539302,5.54518265 M85.3252523,5.04736317 C86.0830442,5.05289449 86.2586638,5.31563256 85.9502923,5.92822709 C85.8659396,6.09278409 85.9668863,6.15362869 86.0208167,6.25042692 C86.0788957,6.35137365 86.1286776,6.45923454 86.0125197,6.5352903 C85.9060417,6.60443189 85.8064778,6.54773578 85.7318049,6.45232038 C85.6737259,6.38041312 85.615647,6.3057402 85.5534195,6.23659861 C85.4026909,6.07480727 85.253345,5.93514125 85.2104772,6.30850586 C85.1980317,6.44125773 85.1662266,6.56709543 84.998904,6.55050145 C84.8191358,6.5311418 84.8564723,6.37764746 84.8537066,6.26148958 C84.8481753,6.04300214 84.8675349,5.8245147 84.8481753,5.61017575 C84.8108388,5.19809184 84.8882774,4.91599414 85.3252523,5.04736317 M85.7539302,5.54518265 C85.7179765,5.72356797 85.5921388,5.76090443 85.4455587,5.76920142 C85.3017441,5.77611558 85.2118601,5.73463062 85.2118601,5.56730796 C85.2104772,5.40966513 85.2837673,5.35435185 85.4358788,5.35573468 C85.5866075,5.35850035 85.7041482,5.39721964 85.7539302,5.54518265" id="VM-Ware"/>
                    </g>
                </g>
            </g>
        </g>
    </g>
</svg>