<?xml version="1.0" encoding="UTF-8"?>
<svg width="738px" height="280px" viewBox="0 0 738 280" version="1.1" xmlns="http://www.w3.org/2000/svg" xmlns:xlink="http://www.w3.org/1999/xlink">
    <!-- Generator: sketchtool 52.3 (67297) - http://www.bohemiancoding.com/sketch -->
    <title>DC969C43-8014-4FE8-ACED-7D4B05BDEC1C</title>
    <desc>Created with sketchtool.</desc>
    <g  stroke="none" stroke-width="1" fill="none" fill-rule="evenodd">
        <g  transform="translate(-358.000000, -861.000000)" fill="#FAFAFC" fill-rule="nonzero">
            <g  transform="translate(344.000000, 855.000000)">
                <g  transform="translate(14.000000, 6.000000)">
                    <g>
                        <polygon  transform="translate(218.090404, 139.545202) rotate(45.000000) translate(-218.090404, -139.545202) " points="119.417045 40.8718434 316.763762 40.8718434 316.763762 238.21856 119.417045 238.21856"></polygon>
                        <polygon  transform="translate(49.497475, 49.497475) rotate(45.000000) translate(-49.497475, -49.497475) " points="14.4974747 14.4974747 84.4974747 14.4974747 84.4974747 84.4974747 14.4974747 84.4974747"></polygon>
                        <polygon  transform="translate(720.970563, 16.970563) rotate(45.000000) translate(-720.970563, -16.970563) " points="708.970563 4.97056275 732.970563 4.97056275 732.970563 28.9705627 708.970563 28.9705627"></polygon>
                        <polygon  transform="translate(641.497475, 138.497475) rotate(45.000000) translate(-641.497475, -138.497475) " points="606.497475 103.497475 676.497475 103.497475 676.497475 173.497475 606.497475 173.497475"></polygon>
                    </g>
                </g>
            </g>
        </g>
    </g>
</svg>
