<?xml version="1.0" encoding="UTF-8"?>
<svg width="1046px" height="984px" viewBox="0 0 1046 984" version="1.1" xmlns="http://www.w3.org/2000/svg" xmlns:xlink="http://www.w3.org/1999/xlink">
    <!-- Generator: sketchtool 52.3 (67297) - http://www.bohemiancoding.com/sketch -->
    <title>31A19E28-E509-484A-A3EC-01C514D09E4A</title>
    <desc>Created with sketchtool.</desc>
    <g  stroke="none" stroke-width="1" fill="none" fill-rule="evenodd">
        <g  transform="translate(-394.000000, -1406.000000)" fill-rule="nonzero">
            <g  transform="translate(394.000000, 1405.000000)">
                <g >
                    <path d="M635.5,784.5 L635.5,837.5 L688.5,837.5 L688.5,784.5 L635.5,784.5 Z"  stroke="#FF9F00" fill="#FFFFFF" opacity="0.3" transform="translate(662.000000, 811.000000) rotate(45.000000) translate(-662.000000, -811.000000) "></path>
                    <path d="M82.5,698.5 L82.5,751.5 L135.5,751.5 L135.5,698.5 L82.5,698.5 Z"  stroke="#FF9F00" fill="#FFFFFF" opacity="0.3" transform="translate(109.000000, 725.000000) rotate(45.000000) translate(-109.000000, -725.000000) "></path>
                    <path d="M90.5,113.5 L90.5,161.5 L138.5,161.5 L138.5,113.5 L90.5,113.5 Z"  stroke="#FF9F00" opacity="0.3" transform="translate(114.500000, 137.500000) rotate(45.000000) translate(-114.500000, -137.500000) "></path>
                    <polygon  fill="#FAFAFC" transform="translate(504.000000, 156.000000) rotate(45.000000) translate(-504.000000, -156.000000) " points="426 78 582 78 582 234 426 234"></polygon>
                    <polygon  fill="#FAFAFC" transform="translate(532.000000, 844.000000) rotate(45.000000) translate(-532.000000, -844.000000) " points="454 766 610 766 610 922 454 922"></polygon>
                    <polygon  fill="#FAFAFC" transform="translate(147.000000, 874.000000) rotate(45.000000) translate(-147.000000, -874.000000) " points="69 796 225 796 225 952 69 952"></polygon>
                    <polygon  fill="#FAFAFC" transform="translate(1046.500000, 217.500000) rotate(45.000000) translate(-1046.500000, -217.500000) " points="893 64 1200 64 1200 371 893 371"></polygon>
                    <path d="M686.5,228.5 L686.5,281.5 L739.5,281.5 L739.5,228.5 L686.5,228.5 Z"  stroke="#FF9F00" opacity="0.3" transform="translate(713.000000, 255.000000) rotate(45.000000) translate(-713.000000, -255.000000) "></path>
                    <path d="M277.5,210.5 L277.5,233.5 L300.5,233.5 L300.5,210.5 L277.5,210.5 Z"  stroke="#FF9F00" opacity="0.3" transform="translate(289.000000, 222.000000) rotate(45.000000) translate(-289.000000, -222.000000) "></path>
                    <path d="M432.5,739.5 L432.5,762.5 L455.5,762.5 L455.5,739.5 L432.5,739.5 Z"  stroke="#FF9F00" fill="#FFFFFF" opacity="0.3" transform="translate(444.000000, 751.000000) rotate(45.000000) translate(-444.000000, -751.000000) "></path>
                    <polygon  fill="#FAFAFC" transform="translate(418.500000, 342.500000) rotate(45.000000) translate(-418.500000, -342.500000) " points="404 328 433 328 433 357 404 357"></polygon>
                    <polygon  fill="#FAFAFC" transform="translate(114.500000, 278.500000) rotate(45.000000) translate(-114.500000, -278.500000) " points="100 264 129 264 129 293 100 293"></polygon>
                    <path d="M5.5,393.5 L5.5,416.5 L28.5,416.5 L28.5,393.5 L5.5,393.5 Z"  stroke="#FF9F00" opacity="0.3" transform="translate(17.000000, 405.000000) rotate(45.000000) translate(-17.000000, -405.000000) "></path>
                </g>
            </g>
        </g>
    </g>
</svg>
